G04 start of page 8 for group -4063 idx -4063 *
G04 Title: (unknown), componentmask *
G04 Creator: pcb 20140316 *
G04 CreationDate: Wed 10 Jul 2019 18:35:36 GMT UTC *
G04 For: kier *
G04 Format: Gerber/RS-274X *
G04 PCB-Dimensions (mil): 2755.91 2913.39 *
G04 PCB-Coordinate-Origin: lower left *
%MOIN*%
%FSLAX25Y25*%
%LNTOPMASK*%
%ADD128R,0.2087X0.2087*%
%ADD127R,0.0295X0.0295*%
%ADD126R,0.0815X0.0815*%
%ADD125R,0.0797X0.0797*%
%ADD124R,0.0758X0.0758*%
%ADD123R,0.0659X0.0659*%
%ADD122R,0.0693X0.0693*%
%ADD121R,0.0650X0.0650*%
%ADD120R,0.0236X0.0236*%
%ADD119R,0.0315X0.0315*%
%ADD118R,0.0669X0.0669*%
%ADD117R,0.0354X0.0354*%
%ADD116R,0.0906X0.0906*%
%ADD115R,0.0394X0.0394*%
%ADD114R,0.0492X0.0492*%
%ADD113R,0.0571X0.0571*%
%ADD112R,0.0433X0.0433*%
%ADD111R,0.0276X0.0276*%
%ADD110R,0.0362X0.0362*%
%ADD109C,0.0512*%
%ADD108C,0.0551*%
%ADD107C,0.0001*%
%ADD106C,0.1378*%
%ADD105C,0.1043*%
%ADD104C,0.0748*%
%ADD103C,0.0787*%
%ADD102C,0.0984*%
G54D102*X64961Y76378D03*
G54D103*X55118Y99016D03*
Y81299D03*
G54D102*X64961Y103937D03*
G54D104*X66772Y165354D03*
Y155354D03*
Y145354D03*
Y135354D03*
Y125354D03*
Y115354D03*
X76772Y165354D03*
Y155354D03*
Y145354D03*
Y135354D03*
Y125354D03*
Y115354D03*
X86772Y165354D03*
Y155354D03*
Y145354D03*
Y135354D03*
Y125354D03*
Y115354D03*
G54D105*X64508Y55118D03*
X79508D03*
X94508D03*
X109508D03*
G54D106*X97441Y228346D03*
X67913D03*
G54D107*G36*
X63031Y189094D02*Y181614D01*
X70512D01*
Y189094D01*
X63031D01*
G37*
G54D104*X76772Y185354D03*
X86772D03*
G54D106*X208268Y228346D03*
X188583D03*
G54D107*G36*
X205079Y139094D02*Y131614D01*
X212559D01*
Y139094D01*
X205079D01*
G37*
G54D104*X208819Y145354D03*
Y155354D03*
Y165354D03*
X188819Y135354D03*
Y145354D03*
Y155354D03*
Y165354D03*
X66772Y175354D03*
X76772D03*
X86772D03*
X198819Y135354D03*
Y145354D03*
Y155354D03*
Y165354D03*
X149606Y44291D03*
X181890D03*
G54D108*X156201Y56417D03*
X175295D03*
G54D107*G36*
X198465Y52559D02*Y47441D01*
X203583D01*
Y52559D01*
X198465D01*
G37*
G54D109*X201024Y55000D03*
X206024Y50000D03*
Y55000D03*
X211024Y50000D03*
X216024D03*
X221024D03*
X211024Y55000D03*
X216024D03*
X221024D03*
G54D110*X162992Y103744D02*Y103736D01*
X164173Y124610D02*Y124602D01*
Y121067D02*Y121059D01*
G54D111*X155315Y123720D02*X158071D01*
G54D112*X157283Y135433D02*X157677D01*
G54D111*X155315Y121161D02*X158071D01*
X155315Y118602D02*X158071D01*
X155315Y116043D02*X158071D01*
G54D112*X163583Y112598D02*X163976D01*
G54D113*X173228Y136024D02*Y134843D01*
X180315Y136024D02*Y134843D01*
G54D112*X165157Y131693D02*X165551D01*
G54D113*X173228Y145866D02*Y144685D01*
X180315Y145866D02*Y144685D01*
X173228Y156102D02*Y154921D01*
X180315Y156102D02*Y154921D01*
X173228Y165945D02*Y164764D01*
X180315Y165945D02*Y164764D01*
G54D111*X155315Y113484D02*X158071D01*
X155315Y110925D02*X158071D01*
X155315Y108366D02*X158071D01*
X155315Y105807D02*X158071D01*
G54D112*X171457Y108858D02*X171850D01*
X171457Y116339D02*X171850D01*
G54D110*X176772Y117130D02*Y117122D01*
Y113587D02*Y113579D01*
Y109650D02*Y109642D01*
Y106106D02*Y106098D01*
X180705Y103543D02*X180713D01*
G54D114*X56988Y64567D02*X57185D01*
X56988Y70866D02*X57185D01*
G54D112*X50984Y63976D02*X51378D01*
G54D114*X49508Y56693D02*X49705D01*
X49508Y50394D02*X49705D01*
G54D110*X44488Y54138D02*Y54130D01*
Y57681D02*Y57673D01*
G54D112*X50984Y71457D02*X51378D01*
X43110Y67717D02*X43504D01*
G54D110*X77752Y86220D02*X77760D01*
X74209D02*X74217D01*
X74209Y82283D02*X74217D01*
X77752D02*X77760D01*
X77752Y90157D02*X77760D01*
X74209D02*X74217D01*
X62992Y62406D02*Y62398D01*
X70866Y62406D02*Y62398D01*
X66929Y62406D02*Y62398D01*
X62992Y65949D02*Y65941D01*
X70866Y65949D02*Y65941D01*
X66929Y65949D02*Y65941D01*
X74209Y78346D02*X74217D01*
X77752D02*X77760D01*
G54D112*X79528Y71457D02*Y71063D01*
G54D110*X88189Y65949D02*Y65941D01*
Y62406D02*Y62398D01*
G54D112*X75787Y63583D02*Y63189D01*
X83268Y63583D02*Y63189D01*
G54D110*X86614Y78547D02*Y78539D01*
X92126Y73429D02*Y73421D01*
Y69886D02*Y69878D01*
Y62406D02*Y62398D01*
Y65949D02*Y65941D01*
X44488Y202169D02*Y202161D01*
Y205713D02*Y205705D01*
G54D115*X50295Y204724D02*X51870D01*
G54D114*X44390Y217717D02*X44587D01*
G54D115*X50295Y216535D02*X51870D01*
G54D114*X44390Y211417D02*X44587D01*
G54D115*X50295Y210630D02*X54626D01*
X50295D02*X51870D01*
G54D116*X59744D02*X63091D01*
G54D107*G36*
X57579Y212992D02*Y208268D01*
X62303D01*
Y212992D01*
X57579D01*
G37*
G54D110*X43307Y197445D02*Y197437D01*
Y193902D02*Y193894D01*
G54D113*X50000Y196260D02*Y195079D01*
G54D114*X49902Y239370D02*X50098D01*
X49902Y245669D02*X50098D01*
G54D117*X65059Y212598D02*Y208661D01*
G54D118*X88189Y213071D02*Y212126D01*
X72441Y213071D02*Y212126D01*
G54D113*X57087Y196260D02*Y195079D01*
G54D119*X83071Y195000D02*Y194213D01*
Y199331D02*Y198543D01*
G54D113*X68504Y195787D02*Y194606D01*
X75591Y195787D02*Y194606D01*
G54D111*X127756Y118602D02*X130512D01*
X127756Y116043D02*X130512D01*
X127756Y113484D02*X130512D01*
X127756Y110925D02*X130512D01*
X127756Y108366D02*X130512D01*
X127756Y105807D02*X130512D01*
X127756Y103248D02*X130512D01*
G54D113*X134252Y82087D02*Y80906D01*
X141339Y82087D02*Y80906D01*
G54D110*X146850Y83272D02*Y83264D01*
Y79728D02*Y79720D01*
G54D111*X127756Y123720D02*X130512D01*
X127756Y121161D02*X130512D01*
G54D112*X108465Y119094D02*X108858D01*
X108465Y111614D02*X108858D01*
X116339Y115354D02*X116732D01*
G54D113*X102362Y115945D02*Y114764D01*
G54D111*X127362Y131496D02*X127756D01*
G54D120*X127165Y133661D02*X127953D01*
X127165Y135630D02*X127953D01*
G54D111*X123425Y131496D02*X123819D01*
G54D120*X123228Y133661D02*X124016D01*
X123228Y135630D02*X124016D01*
G54D111*X123425Y137795D02*X123819D01*
G54D110*X122835Y110831D02*Y110823D01*
Y107287D02*Y107280D01*
Y103350D02*Y103343D01*
G54D112*X108465Y131693D02*X108858D01*
G54D113*X95276Y126181D02*Y125000D01*
X102362Y126181D02*Y125000D01*
X95276Y136024D02*Y134843D01*
X102362Y136024D02*Y134843D01*
G54D112*X116339Y135433D02*X116732D01*
G54D111*X127756Y98130D02*X130512D01*
X127756Y95571D02*X130512D01*
X127756Y93012D02*X130512D01*
X127756Y90453D02*X130512D01*
X127756Y100689D02*X130512D01*
G54D110*X122835Y99807D02*Y99799D01*
G54D117*X111811Y95689D02*X118110D01*
G54D110*X117516Y101969D02*X117524D01*
X113972D02*X113980D01*
X122835Y93114D02*Y93106D01*
X162791Y88583D02*X162799D01*
X166335D02*X166343D01*
X162992Y100201D02*Y100193D01*
Y96264D02*Y96256D01*
Y92720D02*Y92713D01*
G54D111*X155315Y103248D02*X158071D01*
X155315Y100689D02*X158071D01*
X155315Y98130D02*X158071D01*
X155315Y95571D02*X158071D01*
X155315Y93012D02*X158071D01*
X155315Y90453D02*X158071D01*
G54D115*X156496Y80906D02*X157677D01*
X156496Y77165D02*X157677D01*
X156496Y73425D02*X157677D01*
G54D110*X175591Y75004D02*Y74996D01*
Y71461D02*Y71453D01*
G54D115*X165945Y73425D02*X167126D01*
X165945Y77165D02*X167126D01*
X165945Y80906D02*X167126D01*
G54D120*X179528Y74803D02*X180709D01*
X179528Y76772D02*X180709D01*
X179528Y78740D02*X180709D01*
X179528Y80709D02*X180709D01*
G54D110*X176378Y66343D02*Y66335D01*
G54D119*X171260Y68307D02*Y67520D01*
G54D111*X175197Y100197D02*Y99803D01*
G54D120*X173031Y100394D02*Y99606D01*
G54D111*X175197Y96260D02*Y95866D01*
G54D120*X171063Y100394D02*Y99606D01*
G54D111*X168898Y100197D02*Y99803D01*
G54D120*X173031Y96457D02*Y95669D01*
X171063Y96457D02*Y95669D01*
G54D111*X168898Y96260D02*Y95866D01*
G54D120*X179528Y82677D02*X180709D01*
X179528Y84646D02*X180709D01*
X179528Y86614D02*X180709D01*
X179528Y88583D02*X180709D01*
X179528Y90551D02*X180709D01*
X179528Y92520D02*X180709D01*
X179528Y94488D02*X180709D01*
X179528Y96457D02*X180709D01*
G54D110*X176378Y62799D02*Y62791D01*
G54D121*X177114Y49902D02*X178984D01*
G54D122*X176102Y56417D02*X178228D01*
G54D111*X170866Y58268D02*Y53543D01*
G54D119*X171260Y63976D02*Y63189D01*
G54D114*X190059Y43307D02*X190256D01*
X190059Y49606D02*X190256D01*
G54D110*X190157Y58075D02*Y58067D01*
Y54531D02*Y54524D01*
G54D123*X162059Y45720D02*Y42862D01*
X169437Y45720D02*Y42862D01*
G54D124*X181248Y45224D02*Y43354D01*
G54D111*X168307Y58268D02*Y53543D01*
X165748Y58268D02*Y53543D01*
X163189Y58268D02*Y53543D01*
X160630Y58268D02*Y53543D01*
G54D113*X75197Y106890D02*Y105709D01*
G54D110*X74209Y94094D02*X74217D01*
X77752D02*X77760D01*
X77752Y98031D02*X77760D01*
X74209D02*X74217D01*
G54D113*X82283Y106890D02*Y105709D01*
X95276Y115945D02*Y114764D01*
G54D110*X86220Y94295D02*Y94287D01*
Y97839D02*Y97831D01*
X86614Y89965D02*Y89957D01*
Y82091D02*Y82083D01*
Y86421D02*Y86413D01*
G54D117*X91339Y95689D02*X97638D01*
X91339Y90689D02*X97638D01*
X91339Y85689D02*X97638D01*
X91339Y80689D02*X97638D01*
G54D110*X122835Y89571D02*Y89563D01*
G54D117*X111811Y80689D02*X118110D01*
X111811Y85689D02*X118110D01*
X111811Y90689D02*X118110D01*
G54D114*X103051Y70866D02*X103248D01*
X103051Y64567D02*X103248D01*
G54D112*X108858Y71457D02*X109252D01*
X108858Y63976D02*X109252D01*
X116732Y67717D02*X117126D01*
G54D113*X123917Y75591D02*X126476D01*
G54D110*X96063Y73429D02*Y73421D01*
Y69886D02*Y69878D01*
Y62406D02*Y62398D01*
Y65949D02*Y65941D01*
G54D116*X125394Y50000D02*X128740D01*
G54D117*X123425Y51969D02*Y48031D01*
G54D107*G36*
X126181Y52362D02*Y47638D01*
X130906D01*
Y52362D01*
X126181D01*
G37*
G54D110*X142913Y44295D02*Y44287D01*
G54D124*X150248Y45224D02*Y43354D01*
G54D121*X152512Y49902D02*X154382D01*
G54D110*X142913Y47839D02*Y47831D01*
G54D115*X136614Y44094D02*X138189D01*
X133858Y50000D02*X138189D01*
X136614D02*X138189D01*
G54D110*X142913Y55713D02*Y55705D01*
Y52169D02*Y52161D01*
G54D122*X153268Y56417D02*X155394D01*
G54D115*X136614Y55906D02*X138189D01*
G54D118*X150000Y68189D02*Y67244D01*
X134252Y68189D02*Y67244D01*
G54D113*X123917Y63780D02*X126476D01*
G54D110*X116142Y247839D02*Y247831D01*
X121453Y243307D02*X121461D01*
X124996D02*X125004D01*
X116142Y244295D02*Y244287D01*
G54D111*X124311Y237126D02*Y234803D01*
X121752Y237126D02*Y234803D01*
X119193Y237126D02*Y234803D01*
X116634Y237126D02*Y234803D01*
X117451Y234528D02*X118583D01*
X122362D02*X123494D01*
G54D125*X119469Y232510D02*X121476D01*
G54D111*X117451Y230492D02*X118583D01*
X122362D02*X123494D01*
G54D110*X124803Y209650D02*Y209642D01*
G54D126*X133898Y217480D02*Y208425D01*
G54D119*X124213Y214961D02*X125000D01*
G54D110*X124996Y248819D02*X125004D01*
G54D107*G36*
X131319Y247067D02*Y241909D01*
X136476D01*
Y247067D01*
X131319D01*
G37*
G54D110*X121453Y248819D02*X121461D01*
G54D107*G36*
X149311Y247067D02*Y241909D01*
X154469D01*
Y247067D01*
X149311D01*
G37*
G36*
X140335D02*Y241909D01*
X145492D01*
Y247067D01*
X140335D01*
G37*
G36*
Y238051D02*Y232894D01*
X145492D01*
Y238051D01*
X140335D01*
G37*
G54D126*X142874Y208465D02*X151929D01*
G54D113*X145669Y198524D02*Y195965D01*
X133858Y198524D02*Y195965D01*
X153150Y198720D02*Y192618D01*
X127165Y195177D02*Y189075D01*
G54D107*G36*
X131319Y238051D02*Y232894D01*
X136476D01*
Y238051D01*
X131319D01*
G37*
G36*
X140335Y229035D02*Y223878D01*
X145492D01*
Y229035D01*
X140335D01*
G37*
G36*
X131319D02*Y223878D01*
X136476D01*
Y229035D01*
X131319D01*
G37*
G54D111*X124311Y225827D02*Y223504D01*
G54D127*X94390Y209547D02*X96949D01*
G54D110*X98224Y203543D02*X98232D01*
X94681D02*X94689D01*
G54D127*X104626Y212106D02*X107185D01*
X94390D02*X96949D01*
G54D110*X111811Y211618D02*Y211610D01*
G54D127*X104626Y214665D02*X107185D01*
X94390D02*X96949D01*
G54D119*X119882Y214961D02*X120669D01*
G54D110*X111811Y215161D02*Y215154D01*
G54D127*X104626Y217224D02*X107185D01*
X94390D02*X96949D01*
X104626Y209547D02*X107185D01*
G54D110*X102161Y203543D02*X102169D01*
X105705D02*X105713D01*
X109642D02*X109650D01*
X113185D02*X113193D01*
G54D111*X116634Y225827D02*Y223504D01*
X119193Y225827D02*Y223504D01*
X121752Y225827D02*Y223504D01*
G54D113*X115354Y195177D02*Y189075D01*
X209449Y215650D02*Y209547D01*
X209843Y180217D02*Y174114D01*
X198031Y180217D02*Y174114D01*
G54D110*X205705Y201969D02*X205713D01*
X209248D02*X209256D01*
G54D111*X209331Y190846D02*X211654D01*
X209331Y188287D02*X211654D01*
G54D110*X216728Y201969D02*X216736D01*
X213185D02*X213193D01*
G54D111*X209331Y195965D02*X211654D01*
X209331Y193406D02*X211654D01*
X216319Y195148D02*Y194016D01*
X220630Y188287D02*X222953D01*
X220630Y190846D02*X222953D01*
X216319Y190236D02*Y189104D01*
X220354Y190236D02*Y189104D01*
X220630Y193406D02*X222953D01*
X220630Y195965D02*X222953D01*
G54D125*X218337Y193130D02*Y191122D01*
G54D111*X220354Y195148D02*Y194016D01*
G54D110*X232677Y207681D02*Y207673D01*
Y211224D02*Y211217D01*
X232283Y175004D02*Y174996D01*
Y178547D02*Y178539D01*
G54D113*X218504Y177362D02*Y176181D01*
X225591Y177362D02*Y176181D01*
G54D110*X124803Y206106D02*Y206098D01*
G54D112*X108465Y179331D02*X108858D01*
X108465Y171850D02*X108858D01*
X116339Y175591D02*X116732D01*
G54D113*X95276Y176181D02*Y175000D01*
Y186024D02*Y184843D01*
Y165945D02*Y164764D01*
X102362Y176181D02*Y175000D01*
Y186024D02*Y184843D01*
Y165945D02*Y164764D01*
G54D111*X147047Y151575D02*X147441D01*
X150984D02*X151378D01*
G54D120*X150787Y149409D02*X151575D01*
X150787Y147441D02*X151575D01*
G54D111*X150984Y145276D02*X151378D01*
G54D112*X157283Y155512D02*X157677D01*
G54D120*X146850Y149409D02*X147638D01*
X146850Y147441D02*X147638D01*
G54D111*X147047Y145276D02*X147441D01*
G54D112*X165157Y139173D02*X165551D01*
X165157Y151772D02*X165551D01*
G54D111*X127362Y158661D02*X127756D01*
G54D113*X133858Y171358D02*Y168799D01*
Y180413D02*Y177854D01*
Y189469D02*Y186909D01*
X145669Y171358D02*Y168799D01*
Y180413D02*Y177854D01*
Y189469D02*Y186909D01*
X153150Y186122D02*Y180020D01*
Y173524D02*Y167421D01*
X164961Y173524D02*Y167421D01*
G54D112*X165157Y159252D02*X165551D01*
G54D111*X127362Y137795D02*X127756D01*
X127362Y152362D02*X127756D01*
G54D120*X127165Y154528D02*X127953D01*
X127165Y156496D02*X127953D01*
G54D111*X123425Y152362D02*X123819D01*
G54D120*X123228Y154528D02*X124016D01*
X123228Y156496D02*X124016D01*
G54D111*X123425Y158661D02*X123819D01*
G54D112*X116339Y155512D02*X116732D01*
X108465Y159252D02*X108858D01*
X108465Y151772D02*X108858D01*
X108465Y139173D02*X108858D01*
G54D113*X95276Y146260D02*Y145079D01*
Y156102D02*Y154921D01*
X102362Y146260D02*Y145079D01*
Y156102D02*Y154921D01*
G54D118*X185039Y213071D02*Y212126D01*
G54D107*G36*
X167343Y247067D02*Y241909D01*
X172500D01*
Y247067D01*
X167343D01*
G37*
G36*
Y238051D02*Y232894D01*
X172500D01*
Y238051D01*
X167343D01*
G37*
G36*
Y229035D02*Y223878D01*
X172500D01*
Y229035D01*
X167343D01*
G37*
G36*
Y220059D02*Y214902D01*
X172500D01*
Y220059D01*
X167343D01*
G37*
G36*
X158327Y247067D02*Y241909D01*
X163484D01*
Y247067D01*
X158327D01*
G37*
G36*
Y238051D02*Y232894D01*
X163484D01*
Y238051D01*
X158327D01*
G37*
G36*
Y220059D02*Y214902D01*
X163484D01*
Y220059D01*
X158327D01*
G37*
G54D126*X160866Y208465D02*X169921D01*
G54D118*X200787Y213071D02*Y212126D01*
G54D113*X221260Y215650D02*Y209547D01*
G54D114*X223524Y246850D02*X223720D01*
X223524Y240551D02*X223720D01*
G54D111*X224508Y224252D02*Y221929D01*
Y235551D02*Y233228D01*
X227067Y224252D02*Y221929D01*
G54D119*X228150Y216535D02*X228937D01*
G54D111*X229626Y224252D02*Y221929D01*
X232185Y224252D02*Y221929D01*
G54D119*X232480Y216535D02*X233268D01*
G54D111*X232185Y235551D02*Y233228D01*
X229626Y235551D02*Y233228D01*
X230236Y228917D02*X231368D01*
X230236Y232953D02*X231368D01*
X227067Y235551D02*Y233228D01*
G54D125*X227343Y230935D02*X229350D01*
G54D111*X225325Y228917D02*X226457D01*
X225325Y232953D02*X226457D01*
X184528Y195965D02*X186850D01*
X184528Y193406D02*X186850D01*
X187126Y195148D02*Y194016D01*
X184528Y190846D02*X186850D01*
X184528Y188287D02*X186850D01*
G54D125*X189144Y193130D02*Y191122D01*
G54D111*X191161Y190236D02*Y189104D01*
Y195148D02*Y194016D01*
X187126Y190236D02*Y189104D01*
G54D110*X187988Y201969D02*X187996D01*
X191531D02*X191539D01*
G54D111*X195827Y188287D02*X198150D01*
X195827Y190846D02*X198150D01*
X195827Y193406D02*X198150D01*
X195827Y195965D02*X198150D01*
G54D119*X200197Y201969D02*X200984D01*
X195866D02*X196654D01*
X190551Y175000D02*Y174213D01*
Y179331D02*Y178543D01*
G54D110*X176571Y183858D02*X176579D01*
X173028D02*X173035D01*
G54D115*X172244Y189173D02*Y188386D01*
X177362Y189173D02*Y188386D01*
X174803Y196654D02*Y195866D01*
G54D113*X164961Y186122D02*Y180020D01*
Y198720D02*Y192618D01*
G54D110*X230114Y100000D02*X230122D01*
G54D112*X223819Y116732D02*Y116339D01*
X231299Y116732D02*Y116339D01*
X227559Y124606D02*Y124213D01*
G54D110*X226571Y100000D02*X226579D01*
G54D111*X216339Y103937D02*X216732D01*
G54D120*X216142Y101772D02*X216929D01*
G54D111*X212402Y113780D02*X212795D01*
X216339D02*X216732D01*
G54D120*X212205Y111614D02*X212992D01*
X216142D02*X216929D01*
X216142Y109646D02*X216929D01*
G54D111*X216339Y107480D02*X216732D01*
G54D120*X212205Y109646D02*X212992D01*
G54D111*X212402Y107480D02*X212795D01*
G54D110*X200193Y67717D02*X200201D01*
X203736D02*X203744D01*
G54D120*X204134Y73031D02*Y71850D01*
X202165Y73031D02*Y71850D01*
X200197Y73031D02*Y71850D01*
X205906Y74803D02*X207087D01*
X205906Y76772D02*X207087D01*
X205906Y78740D02*X207087D01*
X205906Y80709D02*X207087D01*
G54D110*X215154Y84252D02*X215161D01*
X215154Y91339D02*X215161D01*
X211610Y84252D02*X211618D01*
X211610Y91339D02*X211618D01*
G54D113*X213189Y66929D02*X214370D01*
X213189Y74016D02*X214370D01*
G54D118*X221654Y72835D02*Y71260D01*
X231102Y72835D02*Y71260D01*
X221654Y90157D02*Y88583D01*
X231102Y90157D02*Y88583D01*
G54D110*X232870Y96063D02*X232878D01*
X229327D02*X229335D01*
X224602Y65354D02*X224610D01*
X228146D02*X228154D01*
G54D120*X205906Y82677D02*X207087D01*
X205906Y84646D02*X207087D01*
X205906Y86614D02*X207087D01*
X205906Y88583D02*X207087D01*
G54D111*X198622Y76772D02*X201772D01*
X198622Y80118D02*X201772D01*
X198622Y83858D02*X201772D01*
X198622Y87402D02*X201772D01*
G54D113*X209843Y126280D02*Y120177D01*
X198031Y126280D02*Y120177D01*
G54D111*X212402Y103937D02*X212795D01*
G54D117*X199213Y113681D02*X201575D01*
X199213Y109941D02*X201575D01*
G54D120*X212205Y101772D02*X212992D01*
G54D117*X192126Y113681D02*X194488D01*
X192126Y109941D02*X194488D01*
G54D120*X212205Y99803D02*X212992D01*
G54D111*X212402Y97638D02*X212795D01*
G54D120*X216142Y99803D02*X216929D01*
G54D111*X216339Y97638D02*X216732D01*
G54D120*X205906Y90551D02*X207087D01*
X205906Y92520D02*X207087D01*
X205906Y94488D02*X207087D01*
X205906Y96457D02*X207087D01*
X204134Y99409D02*Y98228D01*
X202165Y99409D02*Y98228D01*
X200197Y99409D02*Y98228D01*
X198228Y99409D02*Y98228D01*
Y73031D02*Y71850D01*
X196260Y73031D02*Y71850D01*
X194291Y73031D02*Y71850D01*
X192323Y73031D02*Y71850D01*
X190354Y73031D02*Y71850D01*
X188386Y73031D02*Y71850D01*
X186417Y73031D02*Y71850D01*
X184449Y73031D02*Y71850D01*
X182480Y73031D02*Y71850D01*
G54D128*X193303Y85630D02*X193311D01*
G54D111*X191535Y83858D02*X195079D01*
X191535Y87402D02*X195079D01*
X184843Y83858D02*X187992D01*
X184843Y87402D02*X187992D01*
X184843Y91142D02*X187992D01*
X198622D02*X201772D01*
X198622Y94488D02*X201772D01*
X191535Y91142D02*X195079D01*
X191535Y94488D02*X195079D01*
X191535Y76772D02*X195079D01*
X191535Y80118D02*X195079D01*
X184843Y76772D02*X187992D01*
X184843Y80118D02*X187992D01*
G54D110*X184248Y103543D02*X184256D01*
X190744D02*X190752D01*
X194287D02*X194295D01*
G54D120*X196260Y99409D02*Y98228D01*
X194291Y99409D02*Y98228D01*
X192323Y99409D02*Y98228D01*
X190354Y99409D02*Y98228D01*
X188386Y99409D02*Y98228D01*
X186417Y99409D02*Y98228D01*
X184449Y99409D02*Y98228D01*
X182480Y99409D02*Y98228D01*
G54D111*X184843Y94488D02*X187992D01*
G54D110*X183264Y113780D02*X183272D01*
X183264Y109843D02*X183272D01*
X186807Y113780D02*X186815D01*
X186807Y109843D02*X186815D01*
M02*
