G04 start of page 10 for group -4079 idx -4079 *
G04 Title: (unknown), topsilk *
G04 Creator: pcb 20140316 *
G04 CreationDate: Tue 09 Jul 2019 20:42:41 GMT UTC *
G04 For: kier *
G04 Format: Gerber/RS-274X *
G04 PCB-Dimensions (mil): 2755.91 2913.39 *
G04 PCB-Coordinate-Origin: lower left *
%MOIN*%
%FSLAX25Y25*%
%LNTOPSILK*%
%ADD146C,0.0492*%
%ADD145C,0.0100*%
%ADD144C,0.0197*%
%ADD143C,0.0252*%
%ADD142C,0.0098*%
%ADD141C,0.0138*%
%ADD140C,0.0118*%
%ADD139C,0.0079*%
%ADD138C,0.0059*%
%ADD137C,0.0001*%
G54D137*G36*
X46415Y232405D02*X47378Y232057D01*
X46415Y231712D01*
Y232405D01*
G37*
G36*
Y235394D02*X48344D01*
X49110Y235237D01*
X49744Y234809D01*
X50172Y234180D01*
X50330Y233415D01*
Y223589D01*
X50172Y222819D01*
X49744Y222189D01*
X49110Y221761D01*
X48344Y221609D01*
X46415D01*
Y223763D01*
X47725D01*
Y222824D01*
X48447D01*
Y225672D01*
X47725D01*
Y224733D01*
X46415D01*
Y227905D01*
X47682Y226502D01*
X48447D01*
Y229421D01*
X47682D01*
Y227652D01*
X46917Y228520D01*
X46489Y228976D01*
X46415Y229037D01*
Y230687D01*
X48447Y231433D01*
Y232687D01*
X46415Y233433D01*
Y235394D01*
G37*
G36*
X42441Y223589D02*Y233415D01*
X42593Y234180D01*
X43022Y234809D01*
X43652Y235237D01*
X44428Y235394D01*
X46415D01*
Y233433D01*
X44383Y234180D01*
Y233137D01*
X46415Y232405D01*
Y231712D01*
X44383Y230983D01*
Y229941D01*
X46415Y230687D01*
Y229037D01*
X46163Y229248D01*
X45528Y229421D01*
X45013Y229313D01*
X44628Y229004D01*
X44390Y228509D01*
X44313Y227858D01*
X44383Y227196D01*
X44557Y226502D01*
X45469D01*
X45148Y227131D01*
X45045Y227652D01*
X45220Y228174D01*
X45669Y228346D01*
X46017Y228276D01*
X46365Y227961D01*
X46415Y227905D01*
Y224733D01*
X44383D01*
Y223763D01*
X44600Y222824D01*
X45295D01*
X45121Y223763D01*
X46415D01*
Y221609D01*
X44428D01*
X43652Y221761D01*
X43022Y222189D01*
X42593Y222819D01*
X42441Y223589D01*
G37*
G36*
X100749Y107037D02*X101270D01*
X100749Y105906D01*
Y107037D01*
G37*
G36*
Y109468D02*X102556D01*
X103321Y109316D01*
X103950Y108887D01*
X104379Y108258D01*
X104536Y107487D01*
Y103565D01*
X104379Y102800D01*
X103950Y102170D01*
X103321Y101742D01*
X102556Y101585D01*
X100749D01*
Y103266D01*
X102589Y107238D01*
Y107931D01*
X100749D01*
Y109468D01*
G37*
G36*
X96148D02*X100749D01*
Y107931D01*
X98910D01*
Y107037D01*
X100749D01*
Y105906D01*
X99464Y103114D01*
X100679D01*
X100749Y103266D01*
Y101585D01*
X96148D01*
Y103014D01*
X96165Y103011D01*
X97001Y103179D01*
X97624Y103668D01*
X98015Y104455D01*
X98145Y105502D01*
X98015Y106587D01*
X97624Y107384D01*
X97001Y107878D01*
X96165Y108046D01*
X96148Y108042D01*
Y109468D01*
G37*
G36*
X94711D02*X96148D01*
Y108042D01*
X95308Y107878D01*
X94673Y107384D01*
X94283Y106587D01*
X94152Y105502D01*
X94283Y104455D01*
X94673Y103668D01*
X95308Y103179D01*
X96148Y103014D01*
Y101585D01*
X94711D01*
X93941Y101742D01*
X93311Y102170D01*
X92883Y102800D01*
X92731Y103565D01*
Y107487D01*
X92883Y108258D01*
X93311Y108887D01*
X93941Y109316D01*
X94711Y109468D01*
G37*
G36*
X96165Y107178D02*X96501Y107102D01*
X96724Y106831D01*
X96849Y106326D01*
X96898Y105545D01*
X96849Y104747D01*
X96724Y104227D01*
X96501Y103939D01*
X96165Y103841D01*
X95812Y103939D01*
X95579Y104227D01*
X95443Y104747D01*
X95406Y105545D01*
X95443Y106326D01*
X95579Y106831D01*
X95812Y107102D01*
X96165Y107178D01*
G37*
G36*
X178895Y129563D02*X180509D01*
X181274Y129411D01*
X181903Y128983D01*
X182332Y128353D01*
X182489Y127583D01*
Y123660D01*
X182332Y122895D01*
X181903Y122266D01*
X181274Y121837D01*
X180509Y121680D01*
X178895D01*
Y123172D01*
X180612D01*
Y124040D01*
X179500D01*
Y128033D01*
X178895D01*
Y129563D01*
G37*
G36*
X174243D02*X178895D01*
Y128033D01*
X178285D01*
X177178Y127784D01*
Y126959D01*
X178323Y127165D01*
Y124040D01*
X177211D01*
Y123172D01*
X178895D01*
Y121680D01*
X174243D01*
Y123172D01*
X175963D01*
Y124040D01*
X174851D01*
Y128033D01*
X174243D01*
Y129563D01*
G37*
G36*
X172664D02*X174243D01*
Y128033D01*
X173668D01*
X172523Y127784D01*
Y126959D01*
X173668Y127165D01*
Y124040D01*
X172556D01*
Y123172D01*
X174243D01*
Y121680D01*
X172664D01*
X171894Y121837D01*
X171264Y122266D01*
X170836Y122895D01*
X170684Y123660D01*
Y127583D01*
X170836Y128353D01*
X171264Y128983D01*
X171894Y129411D01*
X172664Y129563D01*
G37*
G36*
X100815Y199242D02*X102568D01*
X103333Y199090D01*
X103963Y198661D01*
X104391Y198032D01*
X104549Y197261D01*
Y193339D01*
X104391Y192574D01*
X103963Y191944D01*
X103333Y191516D01*
X102568Y191359D01*
X100815D01*
Y192788D01*
X101651Y192953D01*
X102292Y193442D01*
X102682Y194229D01*
X102812Y195276D01*
X102682Y196361D01*
X102292Y197158D01*
X101651Y197652D01*
X100815Y197817D01*
Y199242D01*
G37*
G36*
X96160D02*X100815D01*
Y197817D01*
X100800Y197820D01*
X99959Y197652D01*
X99340Y197158D01*
X98950Y196361D01*
X98819Y195276D01*
X98950Y194229D01*
X99340Y193442D01*
X99959Y192953D01*
X100800Y192785D01*
X100815Y192788D01*
Y191359D01*
X96160D01*
Y192789D01*
X96183Y192785D01*
X97013Y192953D01*
X97637Y193442D01*
X98027Y194229D01*
X98157Y195276D01*
X98027Y196361D01*
X97637Y197158D01*
X97013Y197652D01*
X96183Y197820D01*
X96160Y197815D01*
Y199242D01*
G37*
G36*
X94723D02*X96160D01*
Y197815D01*
X95320Y197652D01*
X94685Y197158D01*
X94295Y196361D01*
X94164Y195276D01*
X94295Y194229D01*
X94685Y193442D01*
X95320Y192953D01*
X96160Y192789D01*
Y191359D01*
X94723D01*
X93953Y191516D01*
X93324Y191944D01*
X92895Y192574D01*
X92743Y193339D01*
Y197261D01*
X92895Y198032D01*
X93324Y198661D01*
X93953Y199090D01*
X94723Y199242D01*
G37*
G36*
X100800Y196952D02*X101152Y196876D01*
X101391Y196605D01*
X101516Y196100D01*
X101565Y195319D01*
X101516Y194521D01*
X101391Y194001D01*
X101147Y193713D01*
X100800Y193615D01*
X100463Y193713D01*
X100241Y194001D01*
X100111Y194521D01*
X100067Y195319D01*
X100111Y196100D01*
X100241Y196605D01*
X100463Y196876D01*
X100800Y196952D01*
G37*
G36*
X96183D02*X96514Y196876D01*
X96736Y196605D01*
X96861Y196100D01*
X96910Y195319D01*
X96861Y194521D01*
X96736Y194001D01*
X96514Y193713D01*
X96183Y193615D01*
X95825Y193713D01*
X95591Y194001D01*
X95461Y194521D01*
X95418Y195319D01*
X95461Y196100D01*
X95591Y196605D01*
X95825Y196876D01*
X96183Y196952D01*
G37*
G36*
X121239Y162995D02*X123963Y164569D01*
Y163402D01*
X129730D01*
Y162605D01*
X123963D01*
Y161422D01*
X121239Y162995D01*
G37*
G36*
X153612Y132678D02*X150889Y131105D01*
Y132304D01*
X145117D01*
Y133069D01*
X150889D01*
Y134257D01*
X153612Y132678D01*
G37*
G36*
X137301Y137954D02*X137613D01*
X138204Y137819D01*
X138378Y137400D01*
X138204Y136950D01*
X137613Y136842D01*
X137301D01*
Y137954D01*
G37*
G36*
X141747Y138442D02*X142339D01*
X141747Y138127D01*
Y138442D01*
G37*
G36*
Y134308D02*X142128D01*
Y134829D01*
X142752D01*
X142789Y134623D01*
X142821Y134378D01*
X142752Y133944D01*
X142544Y133613D01*
X142204Y133429D01*
X141747Y133369D01*
X141747Y133369D01*
Y134308D01*
G37*
G36*
X142959Y160612D02*X142995Y160594D01*
X143065Y160144D01*
X142995Y159655D01*
X142959Y159548D01*
Y160612D01*
G37*
G36*
Y155124D02*X143065Y154832D01*
X142995Y154311D01*
X142959Y154229D01*
Y155124D01*
G37*
G36*
Y163666D02*X143104Y163637D01*
X143733Y163209D01*
X144156Y162579D01*
X144313Y161809D01*
Y132295D01*
X144156Y131530D01*
X143733Y130901D01*
X143104Y130472D01*
X142959Y130442D01*
Y132988D01*
X142962Y132990D01*
X143299Y133548D01*
X143412Y134275D01*
X143343Y134970D01*
X143136Y135594D01*
X142959D01*
Y136321D01*
X143380D01*
Y137124D01*
X142959D01*
Y138078D01*
X143380Y138301D01*
Y139240D01*
X142959D01*
Y140075D01*
X143380D01*
Y140943D01*
X143347Y141589D01*
X143271Y142050D01*
X142959Y142568D01*
Y146705D01*
X143515D01*
Y147817D01*
X142959D01*
Y153752D01*
X143445D01*
X143619Y154311D01*
X143689Y154935D01*
X143576Y155684D01*
X143239Y156254D01*
X142959Y156444D01*
Y157366D01*
X143619D01*
Y158196D01*
X142959D01*
Y159134D01*
X143515D01*
X143619Y159726D01*
X143689Y160279D01*
X143613Y160800D01*
X143412Y161185D01*
X143104Y161419D01*
X142959Y161445D01*
Y163666D01*
G37*
G36*
Y158196D02*X141747D01*
Y159077D01*
X141991Y159172D01*
X142339Y159932D01*
X142404Y160279D01*
X142544Y160626D01*
X142719Y160735D01*
X142959Y160612D01*
Y159548D01*
X142821Y159134D01*
X142959D01*
Y158196D01*
G37*
G36*
Y156444D02*X142696Y156622D01*
X141991Y156742D01*
X141747Y156698D01*
Y157366D01*
X142959D01*
Y156444D01*
G37*
G36*
Y142568D02*X142893Y142679D01*
X142404Y142988D01*
X141747Y143130D01*
X141747Y143130D01*
Y153649D01*
X142165D01*
Y154935D01*
X141747D01*
Y155834D01*
X141991Y155874D01*
X142447Y155803D01*
X142789Y155592D01*
X142959Y155124D01*
Y154229D01*
X142752Y153752D01*
X142959D01*
Y147817D01*
X142404D01*
Y146705D01*
X142959D01*
Y142568D01*
G37*
G36*
Y139240D02*X141747D01*
Y140075D01*
X142959D01*
Y139240D01*
G37*
G36*
Y137124D02*X141747D01*
Y137437D01*
X142959Y138078D01*
Y137124D01*
G37*
G36*
Y135594D02*X141747D01*
Y136321D01*
X142959D01*
Y135594D01*
G37*
G36*
Y130442D02*X142339Y130315D01*
X141747D01*
Y132501D01*
X141747Y132501D01*
X142431Y132632D01*
X142959Y132988D01*
Y130442D01*
G37*
G36*
X141747Y163789D02*X142339D01*
X142959Y163666D01*
Y161445D01*
X142685Y161494D01*
X142056Y161288D01*
X141747Y160639D01*
Y163789D01*
G37*
G36*
Y154935D02*X141606D01*
Y154414D01*
X140982D01*
X140949Y154620D01*
X140911Y154865D01*
X141189Y155592D01*
X141530Y155798D01*
X141747Y155834D01*
Y154935D01*
G37*
G36*
Y137124D02*X141156D01*
X141747Y137437D01*
Y137124D01*
G37*
G36*
X140741Y132825D02*X141036Y132626D01*
X141747Y132501D01*
Y130315D01*
X140741D01*
Y132825D01*
G37*
G36*
Y136321D02*X141747D01*
Y135594D01*
X141573D01*
Y134308D01*
X141747D01*
Y133369D01*
X140949Y133651D01*
X140741Y134213D01*
Y134937D01*
X140982Y135491D01*
X140741D01*
Y136321D01*
G37*
G36*
Y138442D02*X141747D01*
Y138127D01*
X140741Y137592D01*
Y138442D01*
G37*
G36*
Y140075D02*X141747D01*
Y139240D01*
X140741D01*
Y140075D01*
G37*
G36*
Y153649D02*X141747D01*
Y143130D01*
X141085Y142988D01*
X140741Y142768D01*
Y146705D01*
X141297D01*
Y147817D01*
X140741D01*
Y153649D01*
G37*
G36*
Y157366D02*X141747D01*
Y156698D01*
X141297Y156617D01*
X140776Y156254D01*
X140741Y156196D01*
Y157366D01*
G37*
G36*
Y159142D02*X140895Y159026D01*
X141363Y158928D01*
X141747Y159077D01*
Y158196D01*
X140741D01*
Y159142D01*
G37*
G36*
Y163789D02*X141747D01*
Y160639D01*
X141709Y160561D01*
X141644Y160247D01*
X141504Y159829D01*
X141259Y159758D01*
X141015Y159899D01*
X140911Y160317D01*
X141015Y160870D01*
X141259Y161462D01*
X140741D01*
Y163789D01*
G37*
G36*
Y134213D02*X140667Y134411D01*
X140739Y134932D01*
X140741Y134937D01*
Y134213D01*
G37*
G36*
X138516Y163789D02*X140741D01*
Y161462D01*
X140532D01*
X140358Y160838D01*
X140320Y160214D01*
X140374Y159661D01*
X140565Y159275D01*
X140741Y159142D01*
Y158196D01*
X140390D01*
Y157366D01*
X140741D01*
Y156196D01*
X140434Y155700D01*
X140320Y154969D01*
X140390Y154273D01*
X140635Y153649D01*
X140741D01*
Y147817D01*
X140184D01*
Y146705D01*
X140741D01*
Y142768D01*
X140602Y142679D01*
X140217Y142050D01*
X140115Y140943D01*
Y140075D01*
X140741D01*
Y139240D01*
X140115D01*
Y138442D01*
X140741D01*
Y137592D01*
X140115Y137259D01*
Y136321D01*
X140741D01*
Y135491D01*
X140287D01*
X140115Y134932D01*
X140081Y134308D01*
X140174Y133559D01*
X140494Y132990D01*
X140741Y132825D01*
Y130315D01*
X138516D01*
Y132450D01*
X138931Y132295D01*
Y133163D01*
X138516Y133286D01*
Y134717D01*
X138931Y134867D01*
Y135697D01*
X138516Y135547D01*
Y136240D01*
X138654Y136321D01*
X138893Y136771D01*
X138969Y137400D01*
X138893Y138013D01*
X138654Y138442D01*
X138516Y138525D01*
Y139559D01*
X138931Y139272D01*
Y140140D01*
X138516Y140427D01*
Y141383D01*
X138931Y141670D01*
Y142538D01*
X138516Y142252D01*
Y146705D01*
X139072D01*
Y147817D01*
X138516D01*
Y150772D01*
X139176Y150524D01*
Y151360D01*
X138516Y151599D01*
Y152857D01*
X139176Y153096D01*
Y153926D01*
X138516Y153678D01*
Y155906D01*
X138552D01*
Y154485D01*
X139176D01*
Y156569D01*
X138516D01*
Y160664D01*
X138552D01*
Y159275D01*
X139176D01*
Y161359D01*
X138516D01*
Y163789D01*
G37*
G36*
Y156569D02*X137336D01*
X137510Y156112D01*
X137543Y155733D01*
X137407Y155244D01*
X137301Y155200D01*
Y159093D01*
X137461Y159124D01*
X137824Y159379D01*
X138036Y159764D01*
X138102Y160279D01*
Y160491D01*
X138063Y160664D01*
X138516D01*
Y156569D01*
G37*
G36*
Y153678D02*X137301Y153221D01*
Y154302D01*
X137461Y154333D01*
X137824Y154588D01*
X138036Y154973D01*
X138102Y155488D01*
Y155700D01*
X138063Y155906D01*
X138516D01*
Y153678D01*
G37*
G36*
Y151599D02*X137301Y152040D01*
Y152416D01*
X138516Y152857D01*
Y151599D01*
G37*
G36*
Y142252D02*X137301Y141418D01*
Y151230D01*
X138516Y150772D01*
Y147817D01*
X137960D01*
Y146705D01*
X138516D01*
Y142252D01*
G37*
G36*
Y140427D02*X137824Y140905D01*
X138516Y141383D01*
Y140427D01*
G37*
G36*
Y138525D02*X138220Y138702D01*
X137613Y138789D01*
X137301D01*
Y140397D01*
X138516Y139559D01*
Y138525D01*
G37*
G36*
Y135547D02*X137301Y135108D01*
Y135974D01*
X137613D01*
X138220Y136066D01*
X138516Y136240D01*
Y135547D01*
G37*
G36*
Y133286D02*X138345Y133337D01*
Y134655D01*
X138516Y134717D01*
Y133286D01*
G37*
G36*
Y130315D02*X137301D01*
Y132902D01*
X138516Y132450D01*
Y130315D01*
G37*
G36*
X137301Y163789D02*X138516D01*
Y161359D01*
X137336D01*
X137510Y160908D01*
X137543Y160523D01*
X137407Y160040D01*
X137301Y159996D01*
Y163789D01*
G37*
G36*
Y152040D02*X136783Y152228D01*
X137301Y152416D01*
Y152040D01*
G37*
G36*
X132858Y156980D02*X133723D01*
X132858Y156521D01*
Y156980D01*
G37*
G36*
Y139169D02*X133240D01*
Y139690D01*
X133865D01*
X133896Y139484D01*
X133934Y139240D01*
X133865Y138806D01*
X133658Y138475D01*
X133310Y138290D01*
X132858Y138230D01*
Y139169D01*
G37*
G36*
X136295Y133277D02*X137301Y132902D01*
Y130315D01*
X136295D01*
Y133277D01*
G37*
G36*
Y135974D02*X137301D01*
Y135108D01*
X136295Y134745D01*
Y135974D01*
G37*
G36*
Y137954D02*X137301D01*
Y136842D01*
X136295D01*
Y137954D01*
G37*
G36*
Y139745D02*X137265Y140422D01*
X137301Y140397D01*
Y138789D01*
X136295D01*
Y139745D01*
G37*
G36*
Y141184D02*X136712Y140905D01*
X136295Y140627D01*
Y141184D01*
G37*
G36*
Y151609D02*X137301Y151230D01*
Y141418D01*
X137265Y141393D01*
X136295Y142070D01*
Y146705D01*
X136848D01*
Y147817D01*
X136295D01*
Y151609D01*
G37*
G36*
Y154511D02*X136511Y154344D01*
X136989Y154241D01*
X137301Y154302D01*
Y153221D01*
X136295Y152842D01*
Y154511D01*
G37*
G36*
Y159276D02*X136511Y159118D01*
X136989Y159031D01*
X137301Y159093D01*
Y155200D01*
X136989Y155071D01*
X136571Y155244D01*
X136435Y155733D01*
X136502Y156183D01*
X136745Y156704D01*
X136295D01*
Y157501D01*
X136783D01*
Y158266D01*
X136295D01*
Y159276D01*
G37*
G36*
Y163789D02*X137301D01*
Y159996D01*
X136989Y159867D01*
X136571Y160040D01*
X136435Y160523D01*
X136502Y160973D01*
X136745Y161462D01*
X136295D01*
Y163789D01*
G37*
G36*
X134074Y159975D02*X134178Y159693D01*
X134108Y159172D01*
X134074Y159093D01*
Y159975D01*
G37*
G36*
Y163789D02*X136295D01*
Y161462D01*
X136089D01*
X135915Y160941D01*
X135878Y160388D01*
X135943Y159813D01*
X136154Y159379D01*
X136295Y159276D01*
Y158266D01*
X135947D01*
Y157501D01*
X136295D01*
Y156704D01*
X136089D01*
X135915Y156150D01*
X135878Y155592D01*
X135943Y155038D01*
X136154Y154620D01*
X136295Y154511D01*
Y152842D01*
X135947Y152711D01*
Y151740D01*
X136295Y151609D01*
Y147817D01*
X135741D01*
Y146705D01*
X136295D01*
Y142070D01*
X135671Y142506D01*
Y141600D01*
X136295Y141184D01*
Y140627D01*
X135671Y140211D01*
Y139310D01*
X136295Y139745D01*
Y138789D01*
X135671D01*
Y137954D01*
X136295D01*
Y136842D01*
X135671D01*
Y135974D01*
X136295D01*
Y134745D01*
X135671Y134520D01*
Y133510D01*
X136295Y133277D01*
Y130315D01*
X134074D01*
Y132642D01*
X134315D01*
X134489Y133266D01*
X134526Y133858D01*
X134467Y134427D01*
X134282Y134829D01*
X134074Y134987D01*
Y135908D01*
X134489D01*
Y136738D01*
X134074D01*
Y137857D01*
X134412Y138410D01*
X134526Y139137D01*
X134456Y139831D01*
X134244Y140455D01*
X134074D01*
Y146705D01*
X134630D01*
Y147817D01*
X134074D01*
Y151301D01*
X134282Y151425D01*
X134630Y152054D01*
X134732Y153161D01*
Y154029D01*
X134074D01*
Y154865D01*
X134732D01*
Y155662D01*
X134074D01*
Y156495D01*
X134732Y156845D01*
Y157745D01*
X134074D01*
Y158613D01*
X134558D01*
X134732Y159172D01*
X134802Y159796D01*
X134689Y160545D01*
X134352Y161115D01*
X134074Y161303D01*
Y163789D01*
G37*
G36*
Y157745D02*X132858D01*
Y158510D01*
X133272D01*
Y159796D01*
X132858D01*
Y160695D01*
X133099Y160735D01*
X133556Y160664D01*
X133896Y160453D01*
X134074Y159975D01*
Y159093D01*
X133865Y158613D01*
X134074D01*
Y157745D01*
G37*
G36*
Y155662D02*X132858D01*
Y155848D01*
X134074Y156495D01*
Y155662D01*
G37*
G36*
Y154029D02*X132858D01*
Y154865D01*
X134074D01*
Y154029D01*
G37*
G36*
Y140455D02*X132858D01*
Y151027D01*
X133099Y150975D01*
X133761Y151116D01*
X134074Y151301D01*
Y147817D01*
X133517D01*
Y146705D01*
X134074D01*
Y140455D01*
G37*
G36*
Y136738D02*X132858D01*
Y137362D01*
X133544Y137493D01*
X134070Y137851D01*
X134074Y137857D01*
Y136738D01*
G37*
G36*
Y134987D02*X133945Y135084D01*
X133484Y135176D01*
X132858Y134933D01*
Y135908D01*
X134074D01*
Y134987D01*
G37*
G36*
Y130315D02*X132858D01*
Y132958D01*
X133137Y133543D01*
X133202Y133858D01*
X133343Y134237D01*
X133587Y134346D01*
X133831Y134205D01*
X133934Y133787D01*
X133865Y133234D01*
X133587Y132642D01*
X134074D01*
Y130315D01*
G37*
G36*
X132858Y163789D02*X134074D01*
Y161303D01*
X133804Y161484D01*
X133099Y161603D01*
X132858Y161559D01*
Y163789D01*
G37*
G36*
Y159796D02*X132719D01*
Y159275D01*
X132095D01*
X132057Y159482D01*
X132026Y159726D01*
X132302Y160453D01*
X132639Y160659D01*
X132858Y160695D01*
Y159796D01*
G37*
G36*
Y155662D02*X132508D01*
X132858Y155848D01*
Y155662D01*
G37*
G36*
X131886Y132662D02*X132160Y132610D01*
X132790Y132816D01*
X132858Y132958D01*
Y130315D01*
X132508D01*
X131886Y130442D01*
Y132662D01*
G37*
G36*
Y135908D02*X132858D01*
Y134933D01*
X132856Y134932D01*
X132508Y134172D01*
X132443Y133825D01*
X132334Y133440D01*
X132128Y133369D01*
X131886Y133492D01*
Y134515D01*
X132026Y134932D01*
X131886D01*
Y135908D01*
G37*
G36*
Y137662D02*X132144Y137487D01*
X132856Y137362D01*
X132858Y137362D01*
Y136738D01*
X131886D01*
Y137662D01*
G37*
G36*
Y151549D02*X131954Y151425D01*
X132443Y151116D01*
X132858Y151027D01*
Y140455D01*
X132681D01*
Y139169D01*
X132858D01*
Y138230D01*
X132856Y138230D01*
X132394Y138306D01*
X132057Y138513D01*
X131886Y138984D01*
Y139872D01*
X132095Y140352D01*
X131886D01*
Y146705D01*
X132443D01*
Y147817D01*
X131886D01*
Y151549D01*
G37*
G36*
Y154865D02*X132858D01*
Y154029D01*
X131886D01*
Y154865D01*
G37*
G36*
Y156980D02*X132858D01*
Y156521D01*
X131886Y156006D01*
Y156980D01*
G37*
G36*
Y158510D02*X132858D01*
Y157745D01*
X131886D01*
Y158510D01*
G37*
G36*
X132508Y163789D02*X132858D01*
Y161559D01*
X132410Y161478D01*
X131886Y161116D01*
Y163666D01*
X132508Y163789D01*
G37*
G36*
X131886Y133492D02*X131852Y133510D01*
X131781Y133961D01*
X131852Y134411D01*
X131886Y134515D01*
Y133492D01*
G37*
G36*
Y138984D02*X131781Y139272D01*
X131852Y139793D01*
X131886Y139872D01*
Y138984D01*
G37*
G36*
Y161116D02*X131884Y161115D01*
X131543Y160561D01*
X131433Y159829D01*
X131504Y159134D01*
X131748Y158510D01*
X131886D01*
Y157745D01*
X131504D01*
Y156980D01*
X131886D01*
Y156006D01*
X131504Y155803D01*
Y154865D01*
X131886D01*
Y154029D01*
X131504D01*
Y153161D01*
X131526Y152521D01*
X131607Y152054D01*
X131886Y151549D01*
Y147817D01*
X131330D01*
Y146705D01*
X131886D01*
Y140352D01*
X131402D01*
X131228Y139793D01*
X131189Y139169D01*
X131281Y138420D01*
X131607Y137851D01*
X131886Y137662D01*
Y136738D01*
X131228D01*
Y135908D01*
X131886D01*
Y134932D01*
X131330D01*
X131228Y134378D01*
X131189Y133825D01*
X131243Y133310D01*
X131433Y132919D01*
X131737Y132691D01*
X131886Y132662D01*
Y130442D01*
X131737Y130472D01*
X131108Y130901D01*
X130685Y131530D01*
X130533Y132295D01*
Y161809D01*
X130685Y162579D01*
X131108Y163209D01*
X131737Y163637D01*
X131886Y163666D01*
Y161116D01*
G37*
G36*
X137717Y134449D02*Y133543D01*
X136435Y133999D01*
X137717Y134449D01*
G37*
G36*
X141747Y142261D02*X142474Y141985D01*
X142658Y141643D01*
X142719Y141182D01*
Y140905D01*
X140739D01*
Y141182D01*
X140808Y141648D01*
X141015Y141985D01*
X141747Y142261D01*
G37*
G36*
X132128Y153199D02*X134108D01*
Y152884D01*
X134032Y152445D01*
X133831Y152119D01*
X133099Y151843D01*
X132372Y152119D01*
X132182Y152445D01*
X132128Y152884D01*
Y153199D01*
G37*
G36*
X230258Y194310D02*X230736D01*
X231251Y194256D01*
X231604Y194104D01*
X231788Y193854D01*
X231848Y193474D01*
X231788Y193084D01*
X231604Y192819D01*
X231251Y192661D01*
X230736Y192606D01*
X230258D01*
Y194310D01*
G37*
G36*
Y203370D02*X232266D01*
X233031Y203213D01*
X233666Y202791D01*
X234094Y202160D01*
X234252Y201395D01*
Y185630D01*
X234094Y184859D01*
X233666Y184230D01*
X233031Y183802D01*
X232266Y183650D01*
X230258D01*
Y186739D01*
X232689Y185835D01*
Y187089D01*
X231821Y187399D01*
Y189379D01*
X232689Y189693D01*
Y190941D01*
X230258Y190038D01*
Y191359D01*
X230736D01*
X231631Y191489D01*
X232266Y191880D01*
X232651Y192541D01*
X232787Y193474D01*
X232651Y194391D01*
X232266Y195037D01*
X231631Y195429D01*
X230736Y195559D01*
X230258D01*
Y197959D01*
X232689Y196291D01*
Y197609D01*
X231013Y198754D01*
X232689Y199865D01*
Y201184D01*
X230258Y199516D01*
Y203370D01*
G37*
G36*
X226363Y185630D02*Y201395D01*
X226515Y202160D01*
X226944Y202791D01*
X227573Y203213D01*
X228349Y203370D01*
X230258D01*
Y199516D01*
X230215Y199487D01*
X227828Y201113D01*
Y199795D01*
X229390Y198754D01*
X227828Y197680D01*
Y196361D01*
X230215Y197989D01*
X230258Y197959D01*
Y195559D01*
X227828D01*
Y194310D01*
X230258D01*
Y192606D01*
X227828D01*
Y191359D01*
X230258D01*
Y190038D01*
X227828Y189134D01*
Y187643D01*
X230258Y186739D01*
Y183650D01*
X228349D01*
X227573Y183802D01*
X226944Y184230D01*
X226515Y184859D01*
X226363Y185630D01*
G37*
G36*
X228967Y188407D02*X230910Y189069D01*
Y187713D01*
X228967Y188407D01*
G37*
G36*
X178734Y174959D02*X179287Y174759D01*
X179461Y174205D01*
X179287Y173646D01*
X178734Y173473D01*
X178213Y173646D01*
X178001Y174205D01*
X178213Y174759D01*
X178734Y174959D01*
G37*
G36*
Y176945D02*X179184Y176771D01*
X179358Y176349D01*
X179184Y175903D01*
X178734Y175730D01*
X178283Y175903D01*
X178110Y176349D01*
X178283Y176771D01*
X178734Y176945D01*
G37*
G36*
X178734Y179169D02*X180502D01*
X181267Y179017D01*
X181897Y178589D01*
X182325Y177959D01*
X182483Y177189D01*
Y173266D01*
X182325Y172501D01*
X181897Y171872D01*
X181267Y171443D01*
X180502Y171286D01*
X178734D01*
Y172675D01*
X178734Y172675D01*
X179558Y172773D01*
X180156Y173049D01*
X180520Y173511D01*
X180643Y174134D01*
X180400Y174932D01*
X179634Y175382D01*
X180330Y175767D01*
X180540Y176462D01*
X180426Y177005D01*
X180085Y177390D01*
X179515Y177650D01*
X178734Y177737D01*
X178734Y177737D01*
Y179169D01*
G37*
G36*
X174095D02*X178734D01*
Y177737D01*
X177947Y177650D01*
X177377Y177390D01*
X177036Y177005D01*
X176927Y176462D01*
X177171Y175767D01*
X177828Y175382D01*
X177069Y174932D01*
X176824Y174134D01*
X176943Y173511D01*
X177307Y173049D01*
X177904Y172773D01*
X178734Y172675D01*
Y171286D01*
X174095D01*
Y172680D01*
X174117Y172675D01*
X174947Y172843D01*
X175571Y173337D01*
X175961Y174134D01*
X176091Y175209D01*
X175961Y176289D01*
X175571Y177086D01*
X174947Y177580D01*
X174117Y177737D01*
X174095Y177733D01*
Y179169D01*
G37*
G36*
X172657D02*X174095D01*
Y177733D01*
X173254Y177580D01*
X172620Y177086D01*
X172230Y176289D01*
X172098Y175209D01*
X172230Y174134D01*
X172620Y173337D01*
X173254Y172843D01*
X174095Y172680D01*
Y171286D01*
X172657D01*
X171887Y171443D01*
X171258Y171872D01*
X170830Y172501D01*
X170677Y173266D01*
Y177189D01*
X170830Y177959D01*
X171258Y178589D01*
X171887Y179017D01*
X172657Y179169D01*
G37*
G36*
X174117Y176869D02*X174448Y176777D01*
X174670Y176495D01*
X174795Y175990D01*
X174844Y175209D01*
X174795Y174433D01*
X174670Y173917D01*
X174448Y173641D01*
X174117Y173543D01*
X173760Y173641D01*
X173525Y173917D01*
X173395Y174433D01*
X173352Y175209D01*
X173395Y175990D01*
X173525Y176495D01*
X173760Y176777D01*
X174117Y176869D01*
G37*
G54D138*X75197Y202756D02*X86220D01*
X75197D02*X75984Y203543D01*
X75197Y202756D02*X75984Y201969D01*
X194882Y48594D02*X195682Y49394D01*
Y45394D01*
X194882D02*X196382D01*
X171063Y181890D02*X178543D01*
X171063Y185827D02*X178543D01*
Y181890D01*
X171063Y185827D02*Y181890D01*
G54D139*X169488Y199016D02*X180118D01*
X169488Y186024D02*X180118D01*
X169488Y199016D02*Y186024D01*
X180118Y199016D02*Y186024D01*
X182677Y185039D02*X200000D01*
X182677Y199213D02*X200000D01*
Y185039D01*
X182677Y199213D02*Y185039D01*
G54D140*X200394Y188583D02*Y184646D01*
X196457D02*X200394D01*
G54D138*X186024Y203937D02*X193504D01*
X186024Y200000D02*X193504D01*
X186024Y203937D02*Y200000D01*
X193504Y203937D02*Y200000D01*
G54D139*X206102Y218898D02*X224606D01*
X206102Y206299D02*X224606D01*
X206102Y218898D02*Y206299D01*
X224606Y218898D02*Y206299D01*
X181102Y219488D02*X204724D01*
X181102Y205709D02*X204724D01*
X181102Y219488D02*Y205709D01*
X204724Y219488D02*Y205709D01*
X205118Y219882D02*Y205315D01*
X196063Y219882D02*X205118D01*
G54D141*X197638Y218701D02*X204331D01*
G54D139*X196063Y205315D02*X205118D01*
G54D141*X197638Y206496D02*X204331D01*
G54D142*X176378Y267717D02*Y220472D01*
X220472Y267717D02*Y220472D01*
X176378D02*X220472D01*
X176378Y267717D02*X220472D01*
X211654Y251969D02*X220472D01*
X194016D02*X202835D01*
X176378D02*X185197D01*
G54D139*X226575Y249803D02*Y237598D01*
X220669Y249803D02*Y237598D01*
Y249803D02*X226575D01*
X220669Y237598D02*X226575D01*
G54D138*X230709Y213189D02*Y205709D01*
X234646Y213189D02*Y205709D01*
X230709D02*X234646D01*
X230709Y213189D02*X234646D01*
G54D139*X221260Y237402D02*Y220079D01*
X235433Y237402D02*Y220079D01*
X221260D02*X235433D01*
X221260Y237402D02*X235433D01*
G54D140*X220866Y219685D02*X224803D01*
X220866Y223622D02*Y219685D01*
G54D138*X225984Y214173D02*X235433D01*
X225984Y218898D02*X235433D01*
Y214173D01*
X225984Y218898D02*Y214173D01*
X225591Y219291D02*Y213780D01*
X228740D01*
X225591Y219291D02*X228740D01*
G54D139*X130512Y165551D02*X149016D01*
X130512Y174606D02*X149016D01*
Y165551D01*
X130512Y174606D02*Y165551D01*
Y174606D02*X149016D01*
X130512Y183661D02*X149016D01*
Y174606D01*
X130512Y183661D02*Y174606D01*
G54D138*X122835Y211614D02*Y204134D01*
X126772Y211614D02*Y204134D01*
X122835D02*X126772D01*
X122835Y211614D02*X126772D01*
X127874Y202441D02*X175906D01*
X127874Y250472D02*X175906D01*
X127874D02*Y202441D01*
X175906Y250472D02*Y202441D01*
X176693Y206772D02*Y201654D01*
X171575D02*X176693D01*
Y206772D02*X171575Y201654D01*
X176693Y205984D02*X172362Y201654D01*
X176693Y205197D02*X173150Y201654D01*
X176693Y204409D02*X173937Y201654D01*
X176693Y203622D02*X174724Y201654D01*
X176693Y202835D02*X175512Y201654D01*
X176693Y202047D02*X176299Y201654D01*
G54D139*X130512Y183661D02*X149016D01*
X130512Y192717D02*X149016D01*
Y183661D01*
X130512Y192717D02*Y183661D01*
Y192717D02*X149016D01*
X130512Y201772D02*X149016D01*
Y192717D01*
X130512Y201772D02*Y192717D01*
X149803Y201969D02*X168307D01*
X149803Y189370D02*X168307D01*
X149803Y201969D02*Y189370D01*
X168307Y201969D02*Y189370D01*
X149803D02*X168307D01*
X149803Y176772D02*X168307D01*
X149803Y189370D02*Y176772D01*
X168307Y189370D02*Y176772D01*
X149803D02*X168307D01*
X149803Y164173D02*X168307D01*
X149803Y176772D02*Y164173D01*
X168307Y176772D02*Y164173D01*
X169882Y169291D02*X183661D01*
X169882Y161417D02*X183661D01*
X169882Y169291D02*Y161417D01*
X183661Y169291D02*Y161417D01*
G54D140*X168898Y165354D02*X169488D01*
G54D139*X177264Y169291D02*Y161417D01*
X176083Y165354D02*X177264D01*
G54D138*X203740Y203937D02*X211220D01*
X203740Y200000D02*X211220D01*
X203740Y203937D02*Y200000D01*
X211220Y203937D02*Y200000D01*
X218701D01*
X211220Y203937D02*X218701D01*
Y200000D01*
X211220Y203937D02*Y200000D01*
G54D139*X207480Y199213D02*X224803D01*
X207480Y185039D02*X224803D01*
X207480Y199213D02*Y185039D01*
X224803Y199213D02*Y185039D01*
G54D140*X207087Y199606D02*Y195669D01*
Y199606D02*X211024D01*
G54D138*X193701Y204331D02*X203150D01*
X193701Y199606D02*X203150D01*
X193701Y204331D02*Y199606D01*
X203150Y204331D02*Y199606D01*
X203543Y204724D02*Y199213D01*
X200394Y204724D02*X203543D01*
X200394Y199213D02*X203543D01*
X192913Y181496D02*Y172047D01*
X188189Y181496D02*Y172047D01*
Y181496D02*X192913D01*
X188189Y172047D02*X192913D01*
X187795Y171654D02*X193307D01*
Y174803D02*Y171654D01*
X187795Y174803D02*Y171654D01*
X230315Y180512D02*Y173031D01*
X234252Y180512D02*Y173031D01*
X230315D02*X234252D01*
X230315Y180512D02*X234252D01*
G54D139*X215157Y180709D02*X228937D01*
X215157Y172835D02*X228937D01*
X215157Y180709D02*Y172835D01*
X228937Y180709D02*Y172835D01*
G54D140*X214173Y176772D02*X214764D01*
G54D139*X222539Y180709D02*Y172835D01*
X221358Y176772D02*X222539D01*
X194685Y170866D02*X213189D01*
X194685Y183465D02*X213189D01*
Y170866D01*
X194685Y183465D02*Y170866D01*
G54D138*X119488Y246850D02*X126969D01*
X119488Y250787D02*X126969D01*
Y246850D01*
X119488Y250787D02*Y246850D01*
Y245276D02*X126969D01*
X119488Y241339D02*X126969D01*
X119488Y245276D02*Y241339D01*
X126969Y245276D02*Y241339D01*
X118110Y249803D02*Y242323D01*
X114173Y249803D02*Y242323D01*
Y249803D02*X118110D01*
X114173Y242323D02*X118110D01*
G54D139*X113386Y238976D02*Y221654D01*
X127559Y238976D02*Y221654D01*
X113386D02*X127559D01*
X113386Y238976D02*X127559D01*
G54D140*X112992Y221260D02*X116929D01*
X112992Y225197D02*Y221260D01*
G54D138*X117717Y212598D02*X127165D01*
X117717Y217323D02*X127165D01*
Y212598D01*
X117717Y217323D02*Y212598D01*
X117323Y217717D02*Y212205D01*
X120472D01*
X117323Y217717D02*X120472D01*
G54D139*X92520Y206496D02*X109055D01*
X92520Y220276D02*X109055D01*
Y206496D01*
X92520Y220276D02*Y206496D01*
G54D140*X109449Y210039D02*Y206102D01*
X105512D02*X109449D01*
G54D139*X68504Y219488D02*X92126D01*
X68504Y205709D02*X92126D01*
X68504Y219488D02*Y205709D01*
X92126Y219488D02*Y205709D01*
X92520Y219882D02*Y205315D01*
X83465Y219882D02*X92520D01*
G54D141*X85039Y218701D02*X91732D01*
G54D139*X83465Y205315D02*X92520D01*
G54D141*X85039Y206496D02*X91732D01*
G54D138*X109843Y217126D02*Y209646D01*
X113780Y217126D02*Y209646D01*
X109843D02*X113780D01*
X109843Y217126D02*X113780D01*
G54D142*X53150Y267717D02*Y220472D01*
X112205Y267717D02*Y220472D01*
X53150D02*X112205D01*
X53150Y267717D02*X112205D01*
X100394Y251969D02*X112205D01*
X76772D02*X88583D01*
X53150D02*X64961D01*
G54D139*X47047Y248622D02*Y236417D01*
X52953Y248622D02*Y236417D01*
X47047D02*X52953D01*
X47047Y248622D02*X52953D01*
G54D138*X42520Y207677D02*Y200197D01*
X46457Y207677D02*Y200197D01*
X42520D02*X46457D01*
X42520Y207677D02*X46457D01*
G54D139*X47441Y220669D02*Y208465D01*
X41535Y220669D02*Y208465D01*
Y220669D02*X47441D01*
X41535Y208465D02*X47441D01*
X68209Y220079D02*Y201181D01*
X47736Y220079D02*Y201181D01*
Y220079D02*X68209D01*
X47736Y201181D02*X68209D01*
G54D138*X45276Y199409D02*Y191929D01*
X41339Y199409D02*Y191929D01*
Y199409D02*X45276D01*
X41339Y191929D02*X45276D01*
G54D139*X46654Y191732D02*X60433D01*
X46654Y199606D02*X60433D01*
Y191732D01*
X46654Y199606D02*Y191732D01*
G54D140*X60827Y195669D02*X61417D01*
G54D139*X53051Y199606D02*Y191732D01*
Y195669D02*X54232D01*
G54D138*X100197Y205512D02*X107677D01*
X100197Y201575D02*X107677D01*
X100197Y205512D02*Y201575D01*
X107677Y205512D02*Y201575D01*
X92717D02*X100197D01*
X92717Y205512D02*X100197D01*
Y201575D01*
X92717Y205512D02*Y201575D01*
X107677Y205512D02*X115157D01*
X107677Y201575D02*X115157D01*
X107677Y205512D02*Y201575D01*
X115157Y205512D02*Y201575D01*
G54D139*X91929Y179528D02*X105709D01*
X91929Y171654D02*X105709D01*
X91929Y179528D02*Y171654D01*
X105709Y179528D02*Y171654D01*
G54D140*X90945Y175591D02*X91535D01*
G54D139*X99311Y179528D02*Y171654D01*
X98130Y175591D02*X99311D01*
X91929Y189370D02*X105709D01*
X91929Y181496D02*X105709D01*
X91929Y189370D02*Y181496D01*
X105709Y189370D02*Y181496D01*
G54D140*X90945Y185433D02*X91535D01*
G54D139*X99311Y189370D02*Y181496D01*
X98130Y185433D02*X99311D01*
X112008Y198425D02*X130512D01*
X112008Y185827D02*X130512D01*
X112008Y198425D02*Y185827D01*
X130512Y198425D02*Y185827D01*
X119488Y162008D02*Y149016D01*
X105709Y162008D02*Y149016D01*
Y162008D02*X119488D01*
X105709Y149016D02*X119488D01*
Y182087D02*Y169094D01*
X105709Y182087D02*Y169094D01*
Y182087D02*X119488D01*
X105709Y169094D02*X119488D01*
X91929Y159449D02*X105709D01*
X91929Y151575D02*X105709D01*
X91929Y159449D02*Y151575D01*
X105709Y159449D02*Y151575D01*
G54D140*X90945Y155512D02*X91535D01*
G54D139*X99311Y159449D02*Y151575D01*
X98130Y155512D02*X99311D01*
X91929Y169291D02*X105709D01*
X91929Y161417D02*X105709D01*
X91929Y169291D02*Y161417D01*
X105709Y169291D02*Y161417D01*
G54D140*X90945Y165354D02*X91535D01*
G54D139*X99311Y169291D02*Y161417D01*
X98130Y165354D02*X99311D01*
X119488Y141929D02*Y128937D01*
X105709Y141929D02*Y128937D01*
Y141929D02*X119488D01*
X105709Y128937D02*X119488D01*
X91929Y129528D02*X105709D01*
X91929Y121654D02*X105709D01*
X91929Y129528D02*Y121654D01*
X105709Y129528D02*Y121654D01*
G54D140*X90945Y125591D02*X91535D01*
G54D139*X99311Y129528D02*Y121654D01*
X98130Y125591D02*X99311D01*
X91929Y139370D02*X105709D01*
X91929Y131496D02*X105709D01*
X91929Y139370D02*Y131496D01*
X105709Y139370D02*Y131496D01*
G54D140*X90945Y135433D02*X91535D01*
G54D139*X99311Y139370D02*Y131496D01*
X98130Y135433D02*X99311D01*
X91929Y149606D02*X105709D01*
X91929Y141732D02*X105709D01*
X91929Y149606D02*Y141732D01*
X105709Y149606D02*Y141732D01*
G54D140*X90945Y145669D02*X91535D01*
G54D139*X99311Y149606D02*Y141732D01*
X98130Y145669D02*X99311D01*
G54D142*X91772Y190354D02*Y110354D01*
X60787Y190354D02*Y110354D01*
X50787Y190354D02*X91772D01*
X50787Y110354D02*X91772D01*
X50787Y190354D02*Y110354D01*
X39370Y190354D02*Y180354D01*
Y120354D02*Y110354D01*
G54D143*X28976Y185354D02*X50039D01*
X28976Y175354D02*X50039D01*
X28976Y165354D02*X50039D01*
X28976Y155354D02*X50039D01*
X28976Y145354D02*X50039D01*
X28976Y135354D02*X50039D01*
X28976Y125354D02*X50039D01*
X28976Y115354D02*X50039D01*
G54D144*X60787Y190354D02*Y180354D01*
X71772Y190354D02*Y180354D01*
X60787Y190354D02*X71772D01*
X60787Y180354D02*X71772D01*
G54D138*X85433Y201496D02*Y192047D01*
X80709Y201496D02*Y192047D01*
Y201496D02*X85433D01*
X80709Y192047D02*X85433D01*
X80315Y191654D02*X85827D01*
Y194803D02*Y191654D01*
X80315Y194803D02*Y191654D01*
G54D139*X65157Y199134D02*X78937D01*
X65157Y191260D02*X78937D01*
X65157Y199134D02*Y191260D01*
X78937Y199134D02*Y191260D01*
G54D145*X72047Y204331D02*Y200394D01*
X70079Y202362D02*X74016D01*
G54D138*X160827Y90551D02*X168307D01*
X160827Y86614D02*X168307D01*
X160827Y90551D02*Y86614D01*
X168307Y90551D02*Y86614D01*
X161024Y105709D02*Y98228D01*
X164961Y105709D02*Y98228D01*
X161024D02*X164961D01*
X161024Y105709D02*X164961D01*
Y98228D02*Y90748D01*
X161024Y98228D02*Y90748D01*
Y98228D02*X164961D01*
X161024Y90748D02*X164961D01*
G54D139*X154134Y84055D02*X169488D01*
X154134Y70276D02*X169488D01*
X154134Y84055D02*Y70276D01*
X169488Y84055D02*Y70276D01*
G54D140*X153740Y84449D02*Y80512D01*
Y84449D02*X157677D01*
G54D139*X125197Y128740D02*X160630D01*
X125197Y85433D02*X160630D01*
X125197Y128740D02*Y85433D01*
X160630Y128740D02*Y85433D01*
G54D140*X124803Y129134D02*Y125197D01*
Y129134D02*X128740D01*
G54D138*X124803Y112795D02*Y105315D01*
X120866Y112795D02*Y105315D01*
Y112795D02*X124803D01*
X120866Y105315D02*X124803D01*
G54D139*X130906Y85433D02*X144685D01*
X130906Y77559D02*X144685D01*
X130906Y85433D02*Y77559D01*
X144685Y85433D02*Y77559D01*
G54D140*X129921Y81496D02*X130512D01*
G54D139*X138287Y85433D02*Y77559D01*
X137106Y81496D02*X138287D01*
G54D138*X148819Y85236D02*Y77756D01*
X144882Y85236D02*Y77756D01*
Y85236D02*X148819D01*
X144882Y77756D02*X148819D01*
X120866Y95079D02*Y87598D01*
X124803Y95079D02*Y87598D01*
X120866D02*X124803D01*
X120866Y95079D02*X124803D01*
G54D139*X160827Y119094D02*Y106102D01*
X174606Y119094D02*Y106102D01*
X160827D02*X174606D01*
X160827Y119094D02*X174606D01*
G54D138*X176969Y101969D02*Y94094D01*
X167126Y101969D02*Y94094D01*
Y101969D02*X176969D01*
X167126Y94094D02*X176969D01*
X178740Y119094D02*Y111614D01*
X174803Y119094D02*Y111614D01*
Y119094D02*X178740D01*
X174803Y111614D02*X178740D01*
X177559Y76969D02*Y69488D01*
X173622Y76969D02*Y69488D01*
Y76969D02*X177559D01*
X173622Y69488D02*X177559D01*
G54D139*X194685Y116929D02*X213189D01*
X194685Y129528D02*X213189D01*
Y116929D01*
X194685Y129528D02*Y116929D01*
G54D138*X145276Y153346D02*X153150D01*
X145276Y143504D02*X153150D01*
X145276Y153346D02*Y143504D01*
X153150Y153346D02*Y143504D01*
X121654Y129724D02*X129528D01*
X121654Y139567D02*X129528D01*
Y129724D01*
X121654Y139567D02*Y129724D01*
Y150591D02*X129528D01*
X121654Y160433D02*X129528D01*
Y150591D01*
X121654Y160433D02*Y150591D01*
X166142Y126575D02*Y119094D01*
X162205Y126575D02*Y119094D01*
Y126575D02*X166142D01*
X162205Y119094D02*X166142D01*
G54D139*X154528Y141929D02*Y128937D01*
X168307Y141929D02*Y128937D01*
X154528D02*X168307D01*
X154528Y141929D02*X168307D01*
X154528Y162008D02*Y149016D01*
X168307Y162008D02*Y149016D01*
X154528D02*X168307D01*
X154528Y162008D02*X168307D01*
X169882Y139370D02*X183661D01*
X169882Y131496D02*X183661D01*
X169882Y139370D02*Y131496D01*
X183661Y139370D02*Y131496D01*
G54D140*X168898Y135433D02*X169488D01*
G54D139*X177264Y139370D02*Y131496D01*
X176083Y135433D02*X177264D01*
X169882Y149213D02*X183661D01*
X169882Y141339D02*X183661D01*
X169882Y149213D02*Y141339D01*
X183661Y149213D02*Y141339D01*
G54D140*X168898Y145276D02*X169488D01*
G54D139*X177264Y149213D02*Y141339D01*
X176083Y145276D02*X177264D01*
X169882Y159449D02*X183661D01*
X169882Y151575D02*X183661D01*
X169882Y159449D02*Y151575D01*
X183661Y159449D02*Y151575D01*
G54D140*X168898Y155512D02*X169488D01*
G54D139*X177264Y159449D02*Y151575D01*
X176083Y155512D02*X177264D01*
G54D142*X183819Y170354D02*Y130354D01*
X214803Y170354D02*Y130354D01*
X183819D02*X224803D01*
X183819Y170354D02*X224803D01*
Y130354D01*
X236220Y140354D02*Y130354D01*
Y170354D02*Y160354D01*
G54D143*X225551Y135354D02*X246614D01*
X225551Y145354D02*X246614D01*
X225551Y155354D02*X246614D01*
X225551Y165354D02*X246614D01*
G54D144*X214803Y140354D02*Y130354D01*
X203819Y140354D02*Y130354D01*
X214803D01*
X203819Y140354D02*X214803D01*
G54D139*X177756Y70079D02*X208858D01*
X177756Y101181D02*X208858D01*
Y70079D01*
X177756Y101181D02*Y70079D01*
G54D140*X209252Y73622D02*Y69685D01*
X205315D02*X209252D01*
G54D138*X178740Y111614D02*Y104134D01*
X174803Y111614D02*Y104134D01*
Y111614D02*X178740D01*
X174803Y104134D02*X178740D01*
Y101575D02*X186220D01*
X178740Y105512D02*X186220D01*
Y101575D01*
X178740Y105512D02*Y101575D01*
X188780D02*X196260D01*
X188780Y105512D02*X196260D01*
Y101575D01*
X188780Y105512D02*Y101575D01*
G54D139*X189961Y115748D02*X203740D01*
X189961Y107874D02*X203740D01*
X189961Y115748D02*Y107874D01*
X203740Y115748D02*Y107874D01*
G54D140*X188976Y111811D02*X189567D01*
G54D139*X196850Y115748D02*Y107874D01*
X195669Y111811D02*X196850D01*
G54D138*X181299Y115748D02*X188780D01*
X181299Y111811D02*X188780D01*
X181299Y115748D02*Y111811D01*
X188780Y115748D02*Y111811D01*
X181299D02*X188780D01*
X181299Y107874D02*X188780D01*
X181299Y111811D02*Y107874D01*
X188780Y111811D02*Y107874D01*
X224606Y98031D02*X232087D01*
X224606Y101969D02*X232087D01*
Y98031D01*
X224606Y101969D02*Y98031D01*
G54D139*X221063Y127362D02*X234055D01*
X221063Y113583D02*X234055D01*
X221063Y127362D02*Y113583D01*
X234055Y127362D02*Y113583D01*
G54D138*X210630Y105709D02*X218504D01*
X210630Y95866D02*X218504D01*
X210630Y105709D02*Y95866D01*
X218504Y105709D02*Y95866D01*
X210630Y115551D02*X218504D01*
X210630Y105709D02*X218504D01*
X210630Y115551D02*Y105709D01*
X218504Y115551D02*Y105709D01*
G54D139*X234843Y93898D02*Y67520D01*
X217913Y93898D02*Y67520D01*
Y93898D02*X234843D01*
X217913Y67520D02*X234843D01*
G54D138*X227362Y94094D02*X234843D01*
X227362Y98031D02*X234843D01*
Y94094D01*
X227362Y98031D02*Y94094D01*
X209646Y82283D02*X217126D01*
X209646Y86220D02*X217126D01*
Y82283D01*
X209646Y86220D02*Y82283D01*
Y89370D02*X217126D01*
X209646Y93307D02*X217126D01*
Y89370D01*
X209646Y93307D02*Y89370D01*
G54D139*X209843Y77362D02*Y63583D01*
X217717Y77362D02*Y63583D01*
X209843D02*X217717D01*
X209843Y77362D02*X217717D01*
G54D138*X222638Y67323D02*X230118D01*
X222638Y63386D02*X230118D01*
X222638Y67323D02*Y63386D01*
X230118Y67323D02*Y63386D01*
X198228Y69685D02*X205709D01*
X198228Y65748D02*X205709D01*
X198228Y69685D02*Y65748D01*
X205709Y69685D02*Y65748D01*
X178346Y68307D02*Y60827D01*
X174409Y68307D02*Y60827D01*
Y68307D02*X178346D01*
X174409Y60827D02*X178346D01*
G54D139*X187205Y52559D02*Y40354D01*
X193110Y52559D02*Y40354D01*
X187205D02*X193110D01*
X187205Y52559D02*X193110D01*
G54D138*X192126Y60039D02*Y52559D01*
X188189Y60039D02*Y52559D01*
Y60039D02*X192126D01*
X188189Y52559D02*X192126D01*
G54D139*X186220Y60630D02*Y33346D01*
X145276Y60630D02*Y33346D01*
Y60630D02*X186220D01*
X145276Y33346D02*X186220D01*
X145276Y39370D02*X153465D01*
X161654D02*X169843D01*
X178031D02*X186220D01*
G54D138*X173622Y70472D02*Y61024D01*
X168898Y70472D02*Y61024D01*
Y70472D02*X173622D01*
X168898Y61024D02*X173622D01*
X168504Y60630D02*X174016D01*
Y63780D02*Y60630D01*
X168504Y63780D02*Y60630D01*
G54D139*X130315Y60827D02*X153937D01*
X130315Y74606D02*X153937D01*
Y60827D01*
X130315Y74606D02*Y60827D01*
X129921Y75000D02*Y60433D01*
X138976D01*
G54D141*X130709Y61614D02*X137402D01*
G54D139*X129921Y75000D02*X138976D01*
G54D141*X130709Y73819D02*X137402D01*
G54D139*X198268Y59252D02*X223740D01*
X198268Y45669D02*X223740D01*
X198268Y59252D02*Y45669D01*
X223740Y59252D02*Y45669D01*
G54D140*X198071Y45276D02*X203543D01*
X198071Y52520D02*Y45276D01*
G54D145*X226772Y49213D02*Y45276D01*
X224803Y47244D02*X228740D01*
G54D139*X120276Y59449D02*Y40551D01*
X140748Y59449D02*Y40551D01*
X120276D02*X140748D01*
X120276Y59449D02*X140748D01*
G54D142*X70472Y104331D02*X70866D01*
X44882D02*X59449D01*
X70472Y75984D02*X70866D01*
X44882D02*X59449D01*
X70866Y104331D02*Y75984D01*
X44882Y104331D02*Y75984D01*
G54D146*X42421Y97047D02*Y83268D01*
G54D142*Y99016D02*X44882D01*
X42421Y81299D02*X44882D01*
G54D138*X72244Y84252D02*X79724D01*
X72244Y80315D02*X79724D01*
X72244Y84252D02*Y80315D01*
X79724Y84252D02*Y80315D01*
X72244Y88189D02*X79724D01*
X72244Y92126D02*X79724D01*
Y88189D01*
X72244Y92126D02*Y88189D01*
Y96063D02*X79724D01*
X72244Y92126D02*X79724D01*
X72244Y96063D02*Y92126D01*
X79724Y96063D02*Y92126D01*
X72244Y96063D02*X79724D01*
X72244Y100000D02*X79724D01*
Y96063D01*
X72244Y100000D02*Y96063D01*
X84252Y99803D02*Y92323D01*
X88189Y99803D02*Y92323D01*
X84252D02*X88189D01*
X84252Y99803D02*X88189D01*
G54D139*X71850Y110236D02*X85630D01*
X71850Y102362D02*X85630D01*
X71850Y110236D02*Y102362D01*
X85630Y110236D02*Y102362D01*
G54D138*X72244Y84252D02*X79724D01*
X72244Y88189D02*X79724D01*
Y84252D01*
X72244Y88189D02*Y84252D01*
X120866Y105315D02*Y97835D01*
X124803Y105315D02*Y97835D01*
X120866D02*X124803D01*
X120866Y105315D02*X124803D01*
G54D139*X119488Y121850D02*Y108858D01*
X105709Y121850D02*Y108858D01*
Y121850D02*X119488D01*
X105709Y108858D02*X119488D01*
X91929Y119291D02*X105709D01*
X91929Y111417D02*X105709D01*
X91929Y119291D02*Y111417D01*
X105709Y119291D02*Y111417D01*
G54D140*X90945Y115354D02*X91535D01*
G54D139*X99311Y119291D02*Y111417D01*
X98130Y115354D02*X99311D01*
G54D138*X112008Y100000D02*X119488D01*
X112008Y103937D02*X119488D01*
Y100000D01*
X112008Y103937D02*Y100000D01*
G54D139*X88976Y99213D02*X120472D01*
X88976Y77165D02*X120472D01*
X88976Y99213D02*Y77165D01*
X120472Y99213D02*Y77165D01*
G54D140*X88583Y99606D02*Y95669D01*
Y99606D02*X92520D01*
G54D142*X119744Y59843D02*Y23622D01*
X54272Y59843D02*Y23622D01*
Y59843D02*X119744D01*
X54272Y23622D02*X119744D01*
X54272Y39370D02*X67366D01*
X80461D02*X93555D01*
X106650D02*X119744D01*
G54D138*X140945Y49803D02*Y42323D01*
X144882Y49803D02*Y42323D01*
X140945D02*X144882D01*
X140945Y49803D02*X144882D01*
Y57677D02*Y50197D01*
X140945Y57677D02*Y50197D01*
Y57677D02*X144882D01*
X140945Y50197D02*X144882D01*
G54D139*X119882Y74213D02*Y61220D01*
X106102Y74213D02*Y61220D01*
Y74213D02*X119882D01*
X106102Y61220D02*X119882D01*
X120669Y78937D02*Y60433D01*
X129724Y78937D02*Y60433D01*
X120669D02*X129724D01*
X120669Y78937D02*X129724D01*
X106102Y73819D02*Y61614D01*
X100197Y73819D02*Y61614D01*
Y73819D02*X106102D01*
X100197Y61614D02*X106102D01*
G54D138*X98031Y75394D02*Y67913D01*
X94094Y75394D02*Y67913D01*
Y75394D02*X98031D01*
X94094Y67913D02*X98031D01*
X94094D02*Y60433D01*
X98031Y67913D02*Y60433D01*
X94094D02*X98031D01*
X94094Y67913D02*X98031D01*
X94094Y75394D02*Y67913D01*
X90157Y75394D02*Y67913D01*
Y75394D02*X94094D01*
X90157Y67913D02*X94094D01*
G54D139*X73031Y74213D02*X86024D01*
X73031Y60433D02*X86024D01*
X73031Y74213D02*Y60433D01*
X86024Y74213D02*Y60433D01*
G54D138*X90157Y67913D02*Y60433D01*
X86220Y67913D02*Y60433D01*
Y67913D02*X90157D01*
X86220Y60433D02*X90157D01*
X72835Y67913D02*Y60433D01*
X68898Y67913D02*Y60433D01*
Y67913D02*X72835D01*
X68898Y60433D02*X72835D01*
X64961Y67913D02*Y60433D01*
X68898Y67913D02*Y60433D01*
X64961D02*X68898D01*
X64961Y67913D02*X68898D01*
X90157D02*Y60433D01*
X94094Y67913D02*Y60433D01*
X90157D02*X94094D01*
X90157Y67913D02*X94094D01*
X72244Y80315D02*X79724D01*
X72244Y76378D02*X79724D01*
X72244Y80315D02*Y76378D01*
X79724Y80315D02*Y76378D01*
X88583Y84055D02*Y76575D01*
X84646Y84055D02*Y76575D01*
Y84055D02*X88583D01*
X84646Y76575D02*X88583D01*
Y91929D02*Y84449D01*
X84646Y91929D02*Y84449D01*
Y91929D02*X88583D01*
X84646Y84449D02*X88583D01*
G54D139*X54134Y73819D02*Y61614D01*
X60039Y73819D02*Y61614D01*
X54134D02*X60039D01*
X54134Y73819D02*X60039D01*
X40354Y74213D02*Y61220D01*
X54134Y74213D02*Y61220D01*
X40354D02*X54134D01*
X40354Y74213D02*X54134D01*
X52559Y59646D02*Y47441D01*
X46654Y59646D02*Y47441D01*
Y59646D02*X52559D01*
X46654Y47441D02*X52559D01*
G54D138*X42520Y59646D02*Y52165D01*
X46457Y59646D02*Y52165D01*
X42520D02*X46457D01*
X42520Y59646D02*X46457D01*
X61024Y67913D02*Y60433D01*
X64961Y67913D02*Y60433D01*
X61024D02*X64961D01*
X61024Y67913D02*X64961D01*
X212110Y210798D02*X213397D01*
X211417Y211491D02*X212110Y210798D01*
X211417Y214065D02*Y211491D01*
Y214065D02*X212110Y214758D01*
X213397D01*
X214585Y214263D02*X215080Y214758D01*
X216070D01*
X216565Y214263D01*
X216070Y210798D02*X216565Y211293D01*
X215080Y210798D02*X216070D01*
X214585Y211293D02*X215080Y210798D01*
Y212976D02*X216070D01*
X216565Y214263D02*Y213471D01*
Y212481D02*Y211293D01*
Y212481D02*X216070Y212976D01*
X216565Y213471D02*X216070Y212976D01*
X217753Y214263D02*X218248Y214758D01*
X219238D01*
X219733Y214263D01*
X219238Y210798D02*X219733Y211293D01*
X218248Y210798D02*X219238D01*
X217753Y211293D02*X218248Y210798D01*
Y212976D02*X219238D01*
X219733Y214263D02*Y213471D01*
Y212481D02*Y211293D01*
Y212481D02*X219238Y212976D01*
X219733Y213471D02*X219238Y212976D01*
X225110Y241697D02*Y240696D01*
X224571Y240157D02*X225110Y240696D01*
X222569Y240157D02*X224571D01*
X222569D02*X222030Y240696D01*
Y241697D02*Y240696D01*
X222415Y242621D02*X222030Y243006D01*
Y243776D02*Y243006D01*
Y243776D02*X222415Y244161D01*
X225110Y243776D02*X224725Y244161D01*
X225110Y243776D02*Y243006D01*
X224725Y242621D02*X225110Y243006D01*
X223416Y243776D02*Y243006D01*
X222415Y244161D02*X223031D01*
X223801D02*X224725D01*
X223801D02*X223416Y243776D01*
X223031Y244161D02*X223416Y243776D01*
X223955Y245085D02*X222030Y246625D01*
X223955Y247010D02*Y245085D01*
X222030Y246625D02*X225110D01*
X226378Y230390D02*Y227390D01*
Y230390D02*X226878Y230890D01*
X227878D01*
X228378Y230390D01*
Y227890D01*
X227378Y226890D02*X228378Y227890D01*
X226878Y226890D02*X227378D01*
X226378Y227390D02*X226878Y226890D01*
X227378Y228390D02*X228378Y226890D01*
X229578Y230390D02*X230078Y230890D01*
X231078D01*
X231578Y230390D01*
X231078Y226890D02*X231578Y227390D01*
X230078Y226890D02*X231078D01*
X229578Y227390D02*X230078Y226890D01*
Y229090D02*X231078D01*
X231578Y230390D02*Y229590D01*
Y228590D02*Y227390D01*
Y228590D02*X231078Y229090D01*
X231578Y229590D02*X231078Y229090D01*
X228731Y218128D02*Y215048D01*
X229732Y218128D02*X230271Y217589D01*
Y215587D01*
X229732Y215048D02*X230271Y215587D01*
X228346Y215048D02*X229732D01*
X228346Y218128D02*X229732D01*
X231580Y215048D02*X232735Y216588D01*
Y217743D02*Y216588D01*
X232350Y218128D02*X232735Y217743D01*
X231580Y218128D02*X232350D01*
X231195Y217743D02*X231580Y218128D01*
X231195Y217743D02*Y216973D01*
X231580Y216588D01*
X232735D01*
X205890Y200843D02*X206592D01*
X205512Y201221D02*X205890Y200843D01*
X205512Y202625D02*Y201221D01*
Y202625D02*X205890Y203003D01*
X206592D01*
X207240Y202733D02*X207510Y203003D01*
X208050D01*
X208320Y202733D01*
X208050Y200843D02*X208320Y201113D01*
X207510Y200843D02*X208050D01*
X207240Y201113D02*X207510Y200843D01*
Y202031D02*X208050D01*
X208320Y202733D02*Y202301D01*
Y201761D02*Y201113D01*
Y201761D02*X208050Y202031D01*
X208320Y202301D02*X208050Y202031D01*
X208968Y203003D02*X210048D01*
X208968D02*Y201923D01*
X209238Y202193D01*
X209778D01*
X210048Y201923D01*
Y201113D01*
X209778Y200843D02*X210048Y201113D01*
X209238Y200843D02*X209778D01*
X208968Y201113D02*X209238Y200843D01*
X212205Y203003D02*X213285D01*
X213555Y202733D01*
Y202193D01*
X213285Y201923D02*X213555Y202193D01*
X212475Y201923D02*X213285D01*
X212475Y203003D02*Y200843D01*
X212907Y201923D02*X213555Y200843D01*
X214203Y202733D02*X214473Y203003D01*
X215283D01*
X215553Y202733D01*
Y202193D01*
X214203Y200843D02*X215553Y202193D01*
X214203Y200843D02*X215553D01*
X216201Y202733D02*X216471Y203003D01*
X217281D01*
X217551Y202733D01*
Y202193D01*
X216201Y200843D02*X217551Y202193D01*
X216201Y200843D02*X217551D01*
X231642Y208167D02*Y207087D01*
Y208167D02*X231912Y208437D01*
X232452D01*
X232722Y208167D02*X232452Y208437D01*
X232722Y208167D02*Y207357D01*
X231642D02*X233802D01*
X232722Y207789D02*X233802Y208437D01*
X231912Y209085D02*X231642Y209355D01*
Y210165D02*Y209355D01*
Y210165D02*X231912Y210435D01*
X232452D01*
X233802Y209085D02*X232452Y210435D01*
X233802D02*Y209085D01*
X231912Y211083D02*X231642Y211353D01*
Y211893D02*Y211353D01*
Y211893D02*X231912Y212163D01*
X233802Y211893D02*X233532Y212163D01*
X233802Y211893D02*Y211353D01*
X233532Y211083D02*X233802Y211353D01*
X232614Y211893D02*Y211353D01*
X231912Y212163D02*X232344D01*
X232884D02*X233532D01*
X232884D02*X232614Y211893D01*
X232344Y212163D02*X232614Y211893D01*
X200306Y175315D02*X201606D01*
X199606Y176015D02*X200306Y175315D01*
X199606Y178615D02*Y176015D01*
Y178615D02*X200306Y179315D01*
X201606D01*
X202806Y176815D02*X204806Y179315D01*
X202806Y176815D02*X205306D01*
X204806Y179315D02*Y175315D01*
X206506Y178515D02*X207306Y179315D01*
Y175315D01*
X206506D02*X208006D01*
X191051Y214748D02*Y210748D01*
X192351Y214748D02*X193051Y214048D01*
Y211448D01*
X192351Y210748D02*X193051Y211448D01*
X190551Y210748D02*X192351D01*
X190551Y214748D02*X192351D01*
X194251Y211248D02*X194751Y210748D01*
X194251Y212048D02*Y211248D01*
Y212048D02*X194951Y212748D01*
X195551D01*
X196251Y212048D01*
Y211248D01*
X195751Y210748D02*X196251Y211248D01*
X194751Y210748D02*X195751D01*
X194251Y213448D02*X194951Y212748D01*
X194251Y214248D02*Y213448D01*
Y214248D02*X194751Y214748D01*
X195751D01*
X196251Y214248D01*
Y213448D01*
X195551Y212748D02*X196251Y213448D01*
X197550Y235220D02*X198350D01*
Y231720D01*
X197850Y231220D02*X198350Y231720D01*
X197350Y231220D02*X197850D01*
X196850Y231720D02*X197350Y231220D01*
X196850Y232220D02*Y231720D01*
X199550Y235220D02*X201550D01*
X199550D02*Y233220D01*
X200050Y233720D01*
X201050D01*
X201550Y233220D01*
Y231720D01*
X201050Y231220D02*X201550Y231720D01*
X200050Y231220D02*X201050D01*
X199550Y231720D02*X200050Y231220D01*
X195656Y203571D02*Y200531D01*
X196644Y203571D02*X197176Y203039D01*
Y201063D01*
X196644Y200531D02*X197176Y201063D01*
X195276Y200531D02*X196644D01*
X195276Y203571D02*X196644D01*
X198088Y202963D02*X198696Y203571D01*
Y200531D01*
X198088D02*X199228D01*
X200140Y200911D02*X200520Y200531D01*
X200140Y203191D02*Y200911D01*
Y203191D02*X200520Y203571D01*
X201280D01*
X201660Y203191D01*
Y200911D01*
X201280Y200531D02*X201660Y200911D01*
X200520Y200531D02*X201280D01*
X200140Y201291D02*X201660Y202811D01*
X231249Y175489D02*Y174409D01*
Y175489D02*X231519Y175759D01*
X232059D01*
X232329Y175489D02*X232059Y175759D01*
X232329Y175489D02*Y174679D01*
X231249D02*X233409D01*
X232329Y175111D02*X233409Y175759D01*
X231519Y176407D02*X231249Y176677D01*
Y177217D02*Y176677D01*
Y177217D02*X231519Y177487D01*
X233409Y177217D02*X233139Y177487D01*
X233409Y177217D02*Y176677D01*
X233139Y176407D02*X233409Y176677D01*
X232221Y177217D02*Y176677D01*
X231519Y177487D02*X231951D01*
X232491D02*X233139D01*
X232491D02*X232221Y177217D01*
X231951Y177487D02*X232221Y177217D01*
X233139Y178135D02*X233409Y178405D01*
X231519Y178135D02*X233139D01*
X231519D02*X231249Y178405D01*
Y178945D02*Y178405D01*
Y178945D02*X231519Y179215D01*
X233139D01*
X233409Y178945D02*X233139Y179215D01*
X233409Y178945D02*Y178405D01*
X232869Y178135D02*X231789Y179215D01*
X224949Y173498D02*X227109D01*
X224949Y174200D02*X225327Y174578D01*
X226731D01*
X227109Y174200D02*X226731Y174578D01*
X227109Y174200D02*Y173228D01*
X224949Y174200D02*Y173228D01*
Y176306D02*X225219Y176576D01*
X224949Y176306D02*Y175496D01*
X225219Y175226D02*X224949Y175496D01*
X225219Y175226D02*X225759D01*
X226029Y175496D01*
Y176306D02*Y175496D01*
Y176306D02*X226299Y176576D01*
X226839D01*
X227109Y176306D02*X226839Y176576D01*
X227109Y176306D02*Y175496D01*
X226839Y175226D02*X227109Y175496D01*
X225381Y177224D02*X224949Y177656D01*
X227109D01*
Y178034D02*Y177224D01*
X224949Y179492D02*X225219Y179762D01*
X224949Y179492D02*Y178952D01*
X225219Y178682D02*X224949Y178952D01*
X225219Y178682D02*X226839D01*
X227109Y178952D01*
X225921Y179492D02*X226191Y179762D01*
X225921Y179492D02*Y178682D01*
X227109Y179492D02*Y178952D01*
Y179492D02*X226839Y179762D01*
X226191D02*X226839D01*
X162205Y89617D02*X163285D01*
X163555Y89347D01*
Y88807D01*
X163285Y88537D02*X163555Y88807D01*
X162475Y88537D02*X163285D01*
X162475Y89617D02*Y87457D01*
X162907Y88537D02*X163555Y87457D01*
X164203Y89347D02*X164473Y89617D01*
X165283D01*
X165553Y89347D01*
Y88807D01*
X164203Y87457D02*X165553Y88807D01*
X164203Y87457D02*X165553D01*
X166201Y89617D02*X167281D01*
X166201D02*Y88537D01*
X166471Y88807D01*
X167011D01*
X167281Y88537D01*
Y87727D01*
X167011Y87457D02*X167281Y87727D01*
X166471Y87457D02*X167011D01*
X166201Y87727D02*X166471Y87457D01*
X161957Y100293D02*Y99213D01*
Y100293D02*X162227Y100563D01*
X162767D01*
X163037Y100293D02*X162767Y100563D01*
X163037Y100293D02*Y99483D01*
X161957D02*X164117D01*
X163037Y99915D02*X164117Y100563D01*
X162227Y101211D02*X161957Y101481D01*
Y102291D02*Y101481D01*
Y102291D02*X162227Y102561D01*
X162767D01*
X164117Y101211D02*X162767Y102561D01*
X164117D02*Y101211D01*
Y103479D02*X161957Y104559D01*
Y103209D01*
Y92812D02*Y91732D01*
Y92812D02*X162227Y93082D01*
X162767D01*
X163037Y92812D02*X162767Y93082D01*
X163037Y92812D02*Y92002D01*
X161957D02*X164117D01*
X163037Y92434D02*X164117Y93082D01*
X162227Y93730D02*X161957Y94000D01*
Y94810D02*Y94000D01*
Y94810D02*X162227Y95080D01*
X162767D01*
X164117Y93730D02*X162767Y95080D01*
X164117D02*Y93730D01*
X163847Y95728D02*X164117Y95998D01*
X163415Y95728D02*X163847D01*
X163415D02*X163037Y96106D01*
Y96430D02*Y96106D01*
Y96430D02*X163415Y96808D01*
X163847D01*
X164117Y96538D02*X163847Y96808D01*
X164117Y96538D02*Y95998D01*
X162659Y95728D02*X163037Y96106D01*
X162227Y95728D02*X162659D01*
X162227D02*X161957Y95998D01*
Y96538D02*Y95998D01*
Y96538D02*X162227Y96808D01*
X162659D01*
X163037Y96430D02*X162659Y96808D01*
X168504Y99624D02*X170044D01*
X170429Y99239D01*
Y98469D01*
X170044Y98084D02*X170429Y98469D01*
X168889Y98084D02*X170044D01*
X168889Y99624D02*Y96544D01*
X169505Y98084D02*X170429Y96544D01*
X171353Y99624D02*Y96544D01*
Y99624D02*X173278Y96544D01*
Y99624D02*Y96544D01*
X174202Y99239D02*X174587Y99624D01*
X175357D01*
X175742Y99239D01*
X175357Y96544D02*X175742Y96929D01*
X174587Y96544D02*X175357D01*
X174202Y96929D02*X174587Y96544D01*
Y98238D02*X175357D01*
X175742Y99239D02*Y98623D01*
Y97853D02*Y96929D01*
Y97853D02*X175357Y98238D01*
X175742Y98623D02*X175357Y98238D01*
X164961Y113854D02*Y110854D01*
Y113854D02*X165461Y114354D01*
X166461D01*
X166961Y113854D01*
Y111354D01*
X165961Y110354D02*X166961Y111354D01*
X165461Y110354D02*X165961D01*
X164961Y110854D02*X165461Y110354D01*
X165961Y111854D02*X166961Y110354D01*
X168661D02*X170661Y114354D01*
X168161D02*X170661D01*
X175737Y113678D02*Y112598D01*
Y113678D02*X176007Y113948D01*
X176547D01*
X176817Y113678D02*X176547Y113948D01*
X176817Y113678D02*Y112868D01*
X175737D02*X177897D01*
X176817Y113300D02*X177897Y113948D01*
X176007Y114596D02*X175737Y114866D01*
Y115406D02*Y114866D01*
Y115406D02*X176007Y115676D01*
X177897Y115406D02*X177627Y115676D01*
X177897Y115406D02*Y114866D01*
X177627Y114596D02*X177897Y114866D01*
X176709Y115406D02*Y114866D01*
X176007Y115676D02*X176439D01*
X176979D02*X177627D01*
X176979D02*X176709Y115406D01*
X176439Y115676D02*X176709Y115406D01*
X176007Y116324D02*X175737Y116594D01*
Y117404D02*Y116594D01*
Y117404D02*X176007Y117674D01*
X176547D01*
X177897Y116324D02*X176547Y117674D01*
X177897D02*Y116324D01*
X175737Y106592D02*Y105512D01*
Y106592D02*X176007Y106862D01*
X176547D01*
X176817Y106592D02*X176547Y106862D01*
X176817Y106592D02*Y105782D01*
X175737D02*X177897D01*
X176817Y106214D02*X177897Y106862D01*
X176007Y107510D02*X175737Y107780D01*
Y108320D02*Y107780D01*
Y108320D02*X176007Y108590D01*
X177897Y108320D02*X177627Y108590D01*
X177897Y108320D02*Y107780D01*
X177627Y107510D02*X177897Y107780D01*
X176709Y108320D02*Y107780D01*
X176007Y108590D02*X176439D01*
X176979D02*X177627D01*
X176979D02*X176709Y108320D01*
X176439Y108590D02*X176709Y108320D01*
X176169Y109238D02*X175737Y109670D01*
X177897D01*
Y110048D02*Y109238D01*
X163692Y53724D02*X164492D01*
Y50224D01*
X163992Y49724D02*X164492Y50224D01*
X163492Y49724D02*X163992D01*
X162992Y50224D02*X163492Y49724D01*
X162992Y50724D02*Y50224D01*
X165692Y53224D02*X166192Y53724D01*
X167692D01*
X168192Y53224D01*
Y52224D01*
X165692Y49724D02*X168192Y52224D01*
X165692Y49724D02*X168192D01*
X169648Y63761D02*X172648D01*
X169648Y64736D02*X170173Y65261D01*
X172123D01*
X172648Y64736D02*X172123Y65261D01*
X172648Y64736D02*Y63386D01*
X169648Y64736D02*Y63386D01*
Y67661D02*Y66161D01*
X171148D01*
X170773Y66536D01*
Y67286D02*Y66536D01*
Y67286D02*X171148Y67661D01*
X172273D01*
X172648Y67286D02*X172273Y67661D01*
X172648Y67286D02*Y66536D01*
X172273Y66161D02*X172648Y66536D01*
X172441Y193776D02*Y190776D01*
Y193776D02*X172941Y194276D01*
X173941D01*
X174441Y193776D01*
Y191276D01*
X173441Y190276D02*X174441Y191276D01*
X172941Y190276D02*X173441D01*
X172441Y190776D02*X172941Y190276D01*
X173441Y191776D02*X174441Y190276D01*
X177141Y194276D02*X177641Y193776D01*
X176141Y194276D02*X177141D01*
X175641Y193776D02*X176141Y194276D01*
X175641Y193776D02*Y190776D01*
X176141Y190276D01*
X177141Y192476D02*X177641Y191976D01*
X175641Y192476D02*X177141D01*
X176141Y190276D02*X177141D01*
X177641Y190776D01*
Y191976D02*Y190776D01*
X188583Y193776D02*Y190776D01*
Y193776D02*X189083Y194276D01*
X190083D01*
X190583Y193776D01*
Y191276D01*
X189583Y190276D02*X190583Y191276D01*
X189083Y190276D02*X189583D01*
X188583Y190776D02*X189083Y190276D01*
X189583Y191776D02*X190583Y190276D01*
X191783Y194276D02*X193783D01*
X191783D02*Y192276D01*
X192283Y192776D01*
X193283D01*
X193783Y192276D01*
Y190776D01*
X193283Y190276D02*X193783Y190776D01*
X192283Y190276D02*X193283D01*
X191783Y190776D02*X192283Y190276D01*
X213780Y193382D02*Y190382D01*
Y193382D02*X214280Y193882D01*
X215280D01*
X215780Y193382D01*
Y190882D01*
X214780Y189882D02*X215780Y190882D01*
X214280Y189882D02*X214780D01*
X213780Y190382D02*X214280Y189882D01*
X214780Y191382D02*X215780Y189882D01*
X216980Y191382D02*X218980Y193882D01*
X216980Y191382D02*X219480D01*
X218980Y193882D02*Y189882D01*
X187402Y203003D02*X188482D01*
X188752Y202733D01*
Y202193D01*
X188482Y201923D02*X188752Y202193D01*
X187672Y201923D02*X188482D01*
X187672Y203003D02*Y200843D01*
X188104Y201923D02*X188752Y200843D01*
X189400Y202733D02*X189670Y203003D01*
X190210D01*
X190480Y202733D01*
X190210Y200843D02*X190480Y201113D01*
X189670Y200843D02*X190210D01*
X189400Y201113D02*X189670Y200843D01*
Y202031D02*X190210D01*
X190480Y202733D02*Y202301D01*
Y201761D02*Y201113D01*
Y201761D02*X190210Y202031D01*
X190480Y202301D02*X190210Y202031D01*
X191128Y202733D02*X191398Y203003D01*
X191938D01*
X192208Y202733D01*
X191938Y200843D02*X192208Y201113D01*
X191398Y200843D02*X191938D01*
X191128Y201113D02*X191398Y200843D01*
Y202031D02*X191938D01*
X192208Y202733D02*Y202301D01*
Y201761D02*Y201113D01*
Y201761D02*X191938Y202031D01*
X192208Y202301D02*X191938Y202031D01*
X188959Y174007D02*X192039D01*
X188959Y175008D02*X189498Y175547D01*
X191500D01*
X192039Y175008D02*X191500Y175547D01*
X192039Y175008D02*Y173622D01*
X188959Y175008D02*Y173622D01*
X189575Y176471D02*X188959Y177087D01*
X192039D01*
Y177626D02*Y176471D01*
X189575Y178550D02*X188959Y179166D01*
X192039D01*
Y179705D02*Y178550D01*
X172047Y184893D02*X173127D01*
X173397Y184623D01*
Y184083D01*
X173127Y183813D02*X173397Y184083D01*
X172317Y183813D02*X173127D01*
X172317Y184893D02*Y182733D01*
X172749Y183813D02*X173397Y182733D01*
X174045Y184623D02*X174315Y184893D01*
X175125D01*
X175395Y184623D01*
Y184083D01*
X174045Y182733D02*X175395Y184083D01*
X174045Y182733D02*X175395D01*
X176043Y183543D02*X177123Y184893D01*
X176043Y183543D02*X177393D01*
X177123Y184893D02*Y182733D01*
X156212Y180827D02*X157512D01*
X155512Y181527D02*X156212Y180827D01*
X155512Y184127D02*Y181527D01*
Y184127D02*X156212Y184827D01*
X157512D01*
X158712Y184327D02*X159212Y184827D01*
X160712D01*
X161212Y184327D01*
Y183327D01*
X158712Y180827D02*X161212Y183327D01*
X158712Y180827D02*X161212D01*
X162412Y184827D02*X164412D01*
X162412D02*Y182827D01*
X162912Y183327D01*
X163912D01*
X164412Y182827D01*
Y181327D01*
X163912Y180827D02*X164412Y181327D01*
X162912Y180827D02*X163912D01*
X162412Y181327D02*X162912Y180827D01*
X155818Y168228D02*X157118D01*
X155118Y168928D02*X155818Y168228D01*
X155118Y171528D02*Y168928D01*
Y171528D02*X155818Y172228D01*
X157118D01*
X158318Y171728D02*X158818Y172228D01*
X160318D01*
X160818Y171728D01*
Y170728D01*
X158318Y168228D02*X160818Y170728D01*
X158318Y168228D02*X160818D01*
X162018Y169728D02*X164018Y172228D01*
X162018Y169728D02*X164518D01*
X164018Y172228D02*Y168228D01*
X157587Y157661D02*Y153661D01*
X158887Y157661D02*X159587Y156961D01*
Y154361D01*
X158887Y153661D02*X159587Y154361D01*
X157087Y153661D02*X158887D01*
X157087Y157661D02*X158887D01*
X160787Y156861D02*X161587Y157661D01*
Y153661D01*
X160787D02*X162287D01*
X163487Y157161D02*X163987Y157661D01*
X165487D01*
X165987Y157161D01*
Y156161D01*
X163487Y153661D02*X165987Y156161D01*
X163487Y153661D02*X165987D01*
X179674Y142002D02*X181834D01*
X179674Y142704D02*X180052Y143082D01*
X181456D01*
X181834Y142704D02*X181456Y143082D01*
X181834Y142704D02*Y141732D01*
X179674Y142704D02*Y141732D01*
Y144810D02*X179944Y145080D01*
X179674Y144810D02*Y144000D01*
X179944Y143730D02*X179674Y144000D01*
X179944Y143730D02*X180484D01*
X180754Y144000D01*
Y144810D02*Y144000D01*
Y144810D02*X181024Y145080D01*
X181564D01*
X181834Y144810D02*X181564Y145080D01*
X181834Y144810D02*Y144000D01*
X181564Y143730D02*X181834Y144000D01*
X180106Y145728D02*X179674Y146160D01*
X181834D01*
Y146538D02*Y145728D01*
X179944Y147186D02*X179674Y147456D01*
Y147996D02*Y147456D01*
Y147996D02*X179944Y148266D01*
X181834Y147996D02*X181564Y148266D01*
X181834Y147996D02*Y147456D01*
X181564Y147186D02*X181834Y147456D01*
X180646Y147996D02*Y147456D01*
X179944Y148266D02*X180376D01*
X180916D02*X181564D01*
X180916D02*X180646Y147996D01*
X180376Y148266D02*X180646Y147996D01*
X197787Y152228D02*X198587D01*
Y148728D01*
X198087Y148228D02*X198587Y148728D01*
X197587Y148228D02*X198087D01*
X197087Y148728D02*X197587Y148228D01*
X197087Y149228D02*Y148728D01*
X201287Y152228D02*X201787Y151728D01*
X200287Y152228D02*X201287D01*
X199787Y151728D02*X200287Y152228D01*
X199787Y151728D02*Y148728D01*
X200287Y148228D01*
X201287Y150428D02*X201787Y149928D01*
X199787Y150428D02*X201287D01*
X200287Y148228D02*X201287D01*
X201787Y148728D01*
Y149928D02*Y148728D01*
X179674Y152239D02*X181834D01*
X179674Y152941D02*X180052Y153319D01*
X181456D01*
X181834Y152941D02*X181456Y153319D01*
X181834Y152941D02*Y151969D01*
X179674Y152941D02*Y151969D01*
Y155047D02*X179944Y155317D01*
X179674Y155047D02*Y154237D01*
X179944Y153967D02*X179674Y154237D01*
X179944Y153967D02*X180484D01*
X180754Y154237D01*
Y155047D02*Y154237D01*
Y155047D02*X181024Y155317D01*
X181564D01*
X181834Y155047D02*X181564Y155317D01*
X181834Y155047D02*Y154237D01*
X181564Y153967D02*X181834Y154237D01*
X180106Y155965D02*X179674Y156397D01*
X181834D01*
Y156775D02*Y155965D01*
X179944Y157423D02*X179674Y157693D01*
Y158503D02*Y157693D01*
Y158503D02*X179944Y158773D01*
X180484D01*
X181834Y157423D02*X180484Y158773D01*
X181834D02*Y157423D01*
X179674Y162081D02*X181834D01*
X179674Y162783D02*X180052Y163161D01*
X181456D01*
X181834Y162783D02*X181456Y163161D01*
X181834Y162783D02*Y161811D01*
X179674Y162783D02*Y161811D01*
Y164889D02*X179944Y165159D01*
X179674Y164889D02*Y164079D01*
X179944Y163809D02*X179674Y164079D01*
X179944Y163809D02*X180484D01*
X180754Y164079D01*
Y164889D02*Y164079D01*
Y164889D02*X181024Y165159D01*
X181564D01*
X181834Y164889D02*X181564Y165159D01*
X181834Y164889D02*Y164079D01*
X181564Y163809D02*X181834Y164079D01*
X180106Y165807D02*X179674Y166239D01*
X181834D01*
Y166617D02*Y165807D01*
X180106Y167265D02*X179674Y167697D01*
X181834D01*
Y168075D02*Y167265D01*
X176716Y72734D02*Y72032D01*
X176338Y71654D02*X176716Y72032D01*
X174934Y71654D02*X176338D01*
X174934D02*X174556Y72032D01*
Y72734D02*Y72032D01*
X175906Y73382D02*X174556Y74462D01*
X175906Y74732D02*Y73382D01*
X174556Y74462D02*X176716D01*
X201165Y66591D02*X201867D01*
X200787Y66969D02*X201165Y66591D01*
X200787Y68373D02*Y66969D01*
Y68373D02*X201165Y68751D01*
X201867D01*
X202515D02*X203595D01*
X202515D02*Y67671D01*
X202785Y67941D01*
X203325D01*
X203595Y67671D01*
Y66861D01*
X203325Y66591D02*X203595Y66861D01*
X202785Y66591D02*X203325D01*
X202515Y66861D02*X202785Y66591D01*
X190945Y87780D02*Y84280D01*
X191445Y83780D01*
X192445D01*
X192945Y84280D01*
Y87780D02*Y84280D01*
X194145Y87280D02*X194645Y87780D01*
X196145D01*
X196645Y87280D01*
Y86280D01*
X194145Y83780D02*X196645Y86280D01*
X194145Y83780D02*X196645D01*
X226772Y101035D02*Y98875D01*
X227852D01*
X228500Y100765D02*X228770Y101035D01*
X229580D01*
X229850Y100765D01*
Y100225D01*
X228500Y98875D02*X229850Y100225D01*
X228500Y98875D02*X229850D01*
X223622Y82858D02*X224622Y80858D01*
X225622Y82858D01*
X224622Y80858D02*Y78858D01*
X226822Y82058D02*X227622Y82858D01*
Y78858D01*
X226822D02*X228322D01*
X224787Y64229D02*X225489D01*
X224409Y64607D02*X224787Y64229D01*
X224409Y66011D02*Y64607D01*
Y66011D02*X224787Y66389D01*
X225489D01*
X226137Y65957D02*X226569Y66389D01*
Y64229D01*
X226137D02*X226947D01*
X228405Y66389D02*X228675Y66119D01*
X227865Y66389D02*X228405D01*
X227595Y66119D02*X227865Y66389D01*
X227595Y66119D02*Y64499D01*
X227865Y64229D01*
X228405Y65417D02*X228675Y65147D01*
X227595Y65417D02*X228405D01*
X227865Y64229D02*X228405D01*
X228675Y64499D01*
Y65147D02*Y64499D01*
X225409Y50394D02*X229409D01*
X225409Y52394D02*Y50394D01*
X227209Y51894D02*Y50394D01*
X225409Y54594D02*Y53594D01*
Y54094D02*X229409D01*
Y54594D02*Y53594D01*
X225409Y56294D02*X229409D01*
X225409Y57594D02*X226109Y58294D01*
X228709D01*
X229409Y57594D02*X228709Y58294D01*
X229409Y57594D02*Y55794D01*
X225409Y57594D02*Y55794D01*
X225909Y59494D02*X225409Y59994D01*
Y61494D02*Y59994D01*
Y61494D02*X225909Y61994D01*
X226909D01*
X229409Y59494D02*X226909Y61994D01*
X229409D02*Y59494D01*
X211811Y85287D02*X212891D01*
X213161Y85017D01*
Y84477D01*
X212891Y84207D02*X213161Y84477D01*
X212081Y84207D02*X212891D01*
X212081Y85287D02*Y83127D01*
X212513Y84207D02*X213161Y83127D01*
X213809Y83397D02*X214079Y83127D01*
X213809Y83829D02*Y83397D01*
Y83829D02*X214187Y84207D01*
X214511D01*
X214889Y83829D01*
Y83397D01*
X214619Y83127D02*X214889Y83397D01*
X214079Y83127D02*X214619D01*
X213809Y84585D02*X214187Y84207D01*
X213809Y85017D02*Y84585D01*
Y85017D02*X214079Y85287D01*
X214619D01*
X214889Y85017D01*
Y84585D01*
X214511Y84207D02*X214889Y84585D01*
X216024Y69717D02*Y68417D01*
X215324Y67717D02*X216024Y68417D01*
X212724Y67717D02*X215324D01*
X212724D02*X212024Y68417D01*
Y69717D02*Y68417D01*
Y72417D02*X212524Y72917D01*
X212024Y72417D02*Y71417D01*
X212524Y70917D02*X212024Y71417D01*
X212524Y70917D02*X215524D01*
X216024Y71417D01*
X213824Y72417D02*X214324Y72917D01*
X213824Y72417D02*Y70917D01*
X216024Y72417D02*Y71417D01*
Y72417D02*X215524Y72917D01*
X214324D02*X215524D01*
X209755Y54276D02*X210555D01*
Y50776D01*
X210055Y50276D02*X210555Y50776D01*
X209555Y50276D02*X210055D01*
X209055Y50776D02*X209555Y50276D01*
X209055Y51276D02*Y50776D01*
X211755Y53776D02*X212255Y54276D01*
X213255D01*
X213755Y53776D01*
X213255Y50276D02*X213755Y50776D01*
X212255Y50276D02*X213255D01*
X211755Y50776D02*X212255Y50276D01*
Y52476D02*X213255D01*
X213755Y53776D02*Y52976D01*
Y51976D02*Y50776D01*
Y51976D02*X213255Y52476D01*
X213755Y52976D02*X213255Y52476D01*
X212189Y90213D02*X212891D01*
X211811Y90591D02*X212189Y90213D01*
X211811Y91995D02*Y90591D01*
Y91995D02*X212189Y92373D01*
X212891D01*
X213539Y90483D02*X213809Y90213D01*
X213539Y90915D02*Y90483D01*
Y90915D02*X213917Y91293D01*
X214241D01*
X214619Y90915D01*
Y90483D01*
X214349Y90213D02*X214619Y90483D01*
X213809Y90213D02*X214349D01*
X213539Y91671D02*X213917Y91293D01*
X213539Y92103D02*Y91671D01*
Y92103D02*X213809Y92373D01*
X214349D01*
X214619Y92103D01*
Y91671D01*
X214241Y91293D02*X214619Y91671D01*
X177503Y63678D02*Y62976D01*
X177125Y62598D02*X177503Y62976D01*
X175721Y62598D02*X177125D01*
X175721D02*X175343Y62976D01*
Y63678D02*Y62976D01*
X175775Y64326D02*X175343Y64758D01*
X177503D01*
Y65136D02*Y64326D01*
X175775Y65784D02*X175343Y66216D01*
X177503D01*
Y66594D02*Y65784D01*
X191645Y44847D02*Y43846D01*
X191106Y43307D02*X191645Y43846D01*
X189104Y43307D02*X191106D01*
X189104D02*X188565Y43846D01*
Y44847D02*Y43846D01*
X189181Y45771D02*X188565Y46387D01*
X191645D01*
Y46926D02*Y45771D01*
X190490Y47850D02*X188565Y49390D01*
X190490Y49775D02*Y47850D01*
X188565Y49390D02*X191645D01*
X189123Y55804D02*Y54724D01*
Y55804D02*X189393Y56074D01*
X189933D01*
X190203Y55804D02*X189933Y56074D01*
X190203Y55804D02*Y54994D01*
X189123D02*X191283D01*
X190203Y55426D02*X191283Y56074D01*
X189123Y57532D02*X189393Y57802D01*
X189123Y57532D02*Y56992D01*
X189393Y56722D02*X189123Y56992D01*
X189393Y56722D02*X191013D01*
X191283Y56992D01*
X190095Y57532D02*X190365Y57802D01*
X190095Y57532D02*Y56722D01*
X191283Y57532D02*Y56992D01*
Y57532D02*X191013Y57802D01*
X190365D02*X191013D01*
X163138Y121552D02*Y120472D01*
Y121552D02*X163408Y121822D01*
X163948D01*
X164218Y121552D02*X163948Y121822D01*
X164218Y121552D02*Y120742D01*
X163138D02*X165298D01*
X164218Y121174D02*X165298Y121822D01*
X163570Y122470D02*X163138Y122902D01*
X165298D01*
Y123280D02*Y122470D01*
Y124198D02*X163138Y125278D01*
Y123928D01*
X199913Y120984D02*X201213D01*
X199213Y121684D02*X199913Y120984D01*
X199213Y124284D02*Y121684D01*
Y124284D02*X199913Y124984D01*
X201213D01*
X202413Y122484D02*X204413Y124984D01*
X202413Y122484D02*X204913D01*
X204413Y124984D02*Y120984D01*
X206113Y124484D02*X206613Y124984D01*
X208113D01*
X208613Y124484D01*
Y123484D01*
X206113Y120984D02*X208613Y123484D01*
X206113Y120984D02*X208613D01*
X179674Y132160D02*X181834D01*
X179674Y132862D02*X180052Y133240D01*
X181456D01*
X181834Y132862D02*X181456Y133240D01*
X181834Y132862D02*Y131890D01*
X179674Y132862D02*Y131890D01*
Y134968D02*X179944Y135238D01*
X179674Y134968D02*Y134158D01*
X179944Y133888D02*X179674Y134158D01*
X179944Y133888D02*X180484D01*
X180754Y134158D01*
Y134968D02*Y134158D01*
Y134968D02*X181024Y135238D01*
X181564D01*
X181834Y134968D02*X181564Y135238D01*
X181834Y134968D02*Y134158D01*
X181564Y133888D02*X181834Y134158D01*
X180106Y135886D02*X179674Y136318D01*
X181834D01*
Y136696D02*Y135886D01*
X181024Y137344D02*X179674Y138424D01*
X181024Y138694D02*Y137344D01*
X179674Y138424D02*X181834D01*
X225303Y122228D02*Y118228D01*
X226603Y122228D02*X227303Y121528D01*
Y118928D01*
X226603Y118228D02*X227303Y118928D01*
X224803Y118228D02*X226603D01*
X224803Y122228D02*X226603D01*
X228503Y119728D02*X230503Y122228D01*
X228503Y119728D02*X231003D01*
X230503Y122228D02*Y118228D01*
X213368Y98390D02*Y96850D01*
Y98390D02*X213753Y98775D01*
X214523D01*
X214908Y98390D02*X214523Y98775D01*
X214908Y98390D02*Y97235D01*
X213368D02*X216448D01*
X214908Y97851D02*X216448Y98775D01*
X213368Y99699D02*X216448D01*
X213368D02*X216448Y101624D01*
X213368D02*X216448D01*
X213753Y102548D02*X213368Y102933D01*
Y104088D02*Y102933D01*
Y104088D02*X213753Y104473D01*
X214523D01*
X216448Y102548D02*X214523Y104473D01*
X216448D02*Y102548D01*
X213368Y108627D02*Y107087D01*
Y108627D02*X213753Y109012D01*
X214523D01*
X214908Y108627D02*X214523Y109012D01*
X214908Y108627D02*Y107472D01*
X213368D02*X216448D01*
X214908Y108088D02*X216448Y109012D01*
X213368Y109936D02*X216448D01*
X213368D02*X216448Y111861D01*
X213368D02*X216448D01*
X213984Y112785D02*X213368Y113401D01*
X216448D01*
Y113940D02*Y112785D01*
X229512Y94938D02*X230214D01*
X229134Y95316D02*X229512Y94938D01*
X229134Y96720D02*Y95316D01*
Y96720D02*X229512Y97098D01*
X230214D01*
X230862Y96666D02*X231294Y97098D01*
Y94938D01*
X230862D02*X231672D01*
X232320Y97098D02*X233400D01*
X232320D02*Y96018D01*
X232590Y96288D01*
X233130D01*
X233400Y96018D01*
Y95208D01*
X233130Y94938D02*X233400Y95208D01*
X232590Y94938D02*X233130D01*
X232320Y95208D02*X232590Y94938D01*
X181677Y102418D02*X182379D01*
X181299Y102796D02*X181677Y102418D01*
X181299Y104200D02*Y102796D01*
Y104200D02*X181677Y104578D01*
X182379D01*
X183027Y104308D02*X183297Y104578D01*
X183837D01*
X184107Y104308D01*
X183837Y102418D02*X184107Y102688D01*
X183297Y102418D02*X183837D01*
X183027Y102688D02*X183297Y102418D01*
Y103606D02*X183837D01*
X184107Y104308D02*Y103876D01*
Y103336D02*Y102688D01*
Y103336D02*X183837Y103606D01*
X184107Y103876D02*X183837Y103606D01*
X190945Y104578D02*X192025D01*
X192295Y104308D01*
Y103768D01*
X192025Y103498D02*X192295Y103768D01*
X191215Y103498D02*X192025D01*
X191215Y104578D02*Y102418D01*
X191647Y103498D02*X192295Y102418D01*
X193213D02*X194293Y104578D01*
X192943D02*X194293D01*
X199359Y108538D02*X201519D01*
X199359Y109240D02*X199737Y109618D01*
X201141D01*
X201519Y109240D02*X201141Y109618D01*
X201519Y109240D02*Y108268D01*
X199359Y109240D02*Y108268D01*
Y111346D02*X199629Y111616D01*
X199359Y111346D02*Y110536D01*
X199629Y110266D02*X199359Y110536D01*
X199629Y110266D02*X200169D01*
X200439Y110536D01*
Y111346D02*Y110536D01*
Y111346D02*X200709Y111616D01*
X201249D01*
X201519Y111346D02*X201249Y111616D01*
X201519Y111346D02*Y110536D01*
X201249Y110266D02*X201519Y110536D01*
X199791Y112264D02*X199359Y112696D01*
X201519D01*
Y113074D02*Y112264D01*
X201249Y113722D02*X201519Y113992D01*
X199629Y113722D02*X201249D01*
X199629D02*X199359Y113992D01*
Y114532D02*Y113992D01*
Y114532D02*X199629Y114802D01*
X201249D01*
X201519Y114532D02*X201249Y114802D01*
X201519Y114532D02*Y113992D01*
X200979Y113722D02*X199899Y114802D01*
X183465Y114814D02*X184545D01*
X184815Y114544D01*
Y114004D01*
X184545Y113734D02*X184815Y114004D01*
X183735Y113734D02*X184545D01*
X183735Y114814D02*Y112654D01*
X184167Y113734D02*X184815Y112654D01*
X185463Y113464D02*X186543Y114814D01*
X185463Y113464D02*X186813D01*
X186543Y114814D02*Y112654D01*
X183465Y110877D02*X184545D01*
X184815Y110607D01*
Y110067D01*
X184545Y109797D02*X184815Y110067D01*
X183735Y109797D02*X184545D01*
X183735Y110877D02*Y108717D01*
X184167Y109797D02*X184815Y108717D01*
X185463Y110877D02*X186543D01*
X185463D02*Y109797D01*
X185733Y110067D01*
X186273D01*
X186543Y109797D01*
Y108987D01*
X186273Y108717D02*X186543Y108987D01*
X185733Y108717D02*X186273D01*
X185463Y108987D02*X185733Y108717D01*
X51488Y240516D02*Y239515D01*
X50949Y238976D02*X51488Y239515D01*
X48947Y238976D02*X50949D01*
X48947D02*X48408Y239515D01*
Y240516D02*Y239515D01*
X48793Y241440D02*X48408Y241825D01*
Y242980D02*Y241825D01*
Y242980D02*X48793Y243365D01*
X49563D01*
X51488Y241440D02*X49563Y243365D01*
X51488D02*Y241440D01*
X49024Y244289D02*X48408Y244905D01*
X51488D01*
Y245444D02*Y244289D01*
X120866Y249854D02*X121946D01*
X122216Y249584D01*
Y249044D01*
X121946Y248774D02*X122216Y249044D01*
X121136Y248774D02*X121946D01*
X121136Y249854D02*Y247694D01*
X121568Y248774D02*X122216Y247694D01*
X122864Y249584D02*X123134Y249854D01*
X123944D01*
X124214Y249584D01*
Y249044D01*
X122864Y247694D02*X124214Y249044D01*
X122864Y247694D02*X124214D01*
X124862Y247964D02*X125132Y247694D01*
X124862Y249584D02*Y247964D01*
Y249584D02*X125132Y249854D01*
X125672D01*
X125942Y249584D01*
Y247964D01*
X125672Y247694D02*X125942Y247964D01*
X125132Y247694D02*X125672D01*
X124862Y248234D02*X125942Y249314D01*
X120866Y244342D02*X121946D01*
X122216Y244072D01*
Y243532D01*
X121946Y243262D02*X122216Y243532D01*
X121136Y243262D02*X121946D01*
X121136Y244342D02*Y242182D01*
X121568Y243262D02*X122216Y242182D01*
X122864Y243910D02*X123296Y244342D01*
Y242182D01*
X122864D02*X123674D01*
X125132Y244342D02*X125402Y244072D01*
X124592Y244342D02*X125132D01*
X124322Y244072D02*X124592Y244342D01*
X124322Y244072D02*Y242452D01*
X124592Y242182D01*
X125132Y243370D02*X125402Y243100D01*
X124322Y243370D02*X125132D01*
X124592Y242182D02*X125132D01*
X125402Y242452D01*
Y243100D02*Y242452D01*
X117267Y244781D02*Y244079D01*
X116889Y243701D02*X117267Y244079D01*
X115485Y243701D02*X116889D01*
X115485D02*X115107Y244079D01*
Y244781D02*Y244079D01*
X115377Y245429D02*X115107Y245699D01*
Y246239D02*Y245699D01*
Y246239D02*X115377Y246509D01*
X117267Y246239D02*X116997Y246509D01*
X117267Y246239D02*Y245699D01*
X116997Y245429D02*X117267Y245699D01*
X116079Y246239D02*Y245699D01*
X115377Y246509D02*X115809D01*
X116349D02*X116997D01*
X116349D02*X116079Y246239D01*
X115809Y246509D02*X116079Y246239D01*
X116997Y247157D02*X117267Y247427D01*
X115377Y247157D02*X116997D01*
X115377D02*X115107Y247427D01*
Y247967D02*Y247427D01*
Y247967D02*X115377Y248237D01*
X116997D01*
X117267Y247967D02*X116997Y248237D01*
X117267Y247967D02*Y247427D01*
X116727Y247157D02*X115647Y248237D01*
X123768Y206592D02*Y205512D01*
Y206592D02*X124038Y206862D01*
X124578D01*
X124848Y206592D02*X124578Y206862D01*
X124848Y206592D02*Y205782D01*
X123768D02*X125928D01*
X124848Y206214D02*X125928Y206862D01*
X124200Y207510D02*X123768Y207942D01*
X125928D01*
Y208320D02*Y207510D01*
X123768Y210048D02*Y208968D01*
X124848D01*
X124578Y209238D01*
Y209778D02*Y209238D01*
Y209778D02*X124848Y210048D01*
X125658D01*
X125928Y209778D02*X125658Y210048D01*
X125928Y209778D02*Y209238D01*
X125658Y208968D02*X125928Y209238D01*
X98031Y215929D02*Y212429D01*
X98531Y211929D01*
X99531D01*
X100031Y212429D01*
Y215929D02*Y212429D01*
X102732Y215929D02*X103232Y215429D01*
X101732Y215929D02*X102732D01*
X101232Y215429D02*X101732Y215929D01*
X101232Y215429D02*Y212429D01*
X101732Y211929D01*
X102732Y214129D02*X103232Y213629D01*
X101232Y214129D02*X102732D01*
X101732Y211929D02*X102732D01*
X103232Y212429D01*
Y213629D02*Y212429D01*
X120464Y216553D02*Y213473D01*
X121465Y216553D02*X122004Y216014D01*
Y214012D01*
X121465Y213473D02*X122004Y214012D01*
X120079Y213473D02*X121465D01*
X120079Y216553D02*X121465D01*
X123313Y213473D02*X124853Y216553D01*
X122928D02*X124853D01*
X112936Y212497D02*Y211795D01*
X112558Y211417D02*X112936Y211795D01*
X111154Y211417D02*X112558D01*
X111154D02*X110776Y211795D01*
Y212497D02*Y211795D01*
X111046Y213145D02*X110776Y213415D01*
Y213955D02*Y213415D01*
Y213955D02*X111046Y214225D01*
X112936Y213955D02*X112666Y214225D01*
X112936Y213955D02*Y213415D01*
X112666Y213145D02*X112936Y213415D01*
X111748Y213955D02*Y213415D01*
X111046Y214225D02*X111478D01*
X112018D02*X112666D01*
X112018D02*X111748Y213955D01*
X111478Y214225D02*X111748Y213955D01*
X111208Y214873D02*X110776Y215305D01*
X112936D01*
Y215683D02*Y214873D01*
X81177Y229346D02*X81977D01*
X81177Y232846D02*Y229346D01*
X81677Y233346D02*X81177Y232846D01*
X81677Y233346D02*X82177D01*
X82677Y232846D02*X82177Y233346D01*
X82677Y232846D02*Y232346D01*
X79977Y231846D02*X77977Y229346D01*
X77477Y231846D02*X79977D01*
X77977Y233346D02*Y229346D01*
X118110Y231965D02*Y228965D01*
Y231965D02*X118610Y232465D01*
X119610D01*
X120110Y231965D01*
Y229465D01*
X119110Y228465D02*X120110Y229465D01*
X118610Y228465D02*X119110D01*
X118110Y228965D02*X118610Y228465D01*
X119110Y229965D02*X120110Y228465D01*
X121310Y231965D02*X121810Y232465D01*
X123310D01*
X123810Y231965D01*
Y230965D01*
X121310Y228465D02*X123810Y230965D01*
X121310Y228465D02*X123810D01*
X149685Y229236D02*Y225736D01*
X150185Y225236D01*
X151185D01*
X151685Y225736D01*
Y229236D02*Y225736D01*
X152885Y229236D02*X154885D01*
X152885D02*Y227236D01*
X153385Y227736D01*
X154385D01*
X154885Y227236D01*
Y225736D01*
X154385Y225236D02*X154885Y225736D01*
X153385Y225236D02*X154385D01*
X152885Y225736D02*X153385Y225236D01*
X156212Y193425D02*X157512D01*
X155512Y194125D02*X156212Y193425D01*
X155512Y196725D02*Y194125D01*
Y196725D02*X156212Y197425D01*
X157512D01*
X158712Y196925D02*X159212Y197425D01*
X160712D01*
X161212Y196925D01*
Y195925D01*
X158712Y193425D02*X161212Y195925D01*
X158712Y193425D02*X161212D01*
X162412Y196925D02*X162912Y197425D01*
X163912D01*
X164412Y196925D01*
X163912Y193425D02*X164412Y193925D01*
X162912Y193425D02*X163912D01*
X162412Y193925D02*X162912Y193425D01*
Y195625D02*X163912D01*
X164412Y196925D02*Y196125D01*
Y195125D02*Y193925D01*
Y195125D02*X163912Y195625D01*
X164412Y196125D02*X163912Y195625D01*
X45613Y202261D02*Y201559D01*
X45235Y201181D02*X45613Y201559D01*
X43831Y201181D02*X45235D01*
X43831D02*X43453Y201559D01*
Y202261D02*Y201559D01*
X43723Y202909D02*X43453Y203179D01*
Y203989D02*Y203179D01*
Y203989D02*X43723Y204259D01*
X44263D01*
X45613Y202909D02*X44263Y204259D01*
X45613D02*Y202909D01*
X43723Y204907D02*X43453Y205177D01*
Y205987D02*Y205177D01*
Y205987D02*X43723Y206257D01*
X44263D01*
X45613Y204907D02*X44263Y206257D01*
X45613D02*Y204907D01*
X45976Y212564D02*Y211563D01*
X45437Y211024D02*X45976Y211563D01*
X43435Y211024D02*X45437D01*
X43435D02*X42896Y211563D01*
Y212564D02*Y211563D01*
X43281Y213488D02*X42896Y213873D01*
Y215028D02*Y213873D01*
Y215028D02*X43281Y215413D01*
X44051D01*
X45976Y213488D02*X44051Y215413D01*
X45976D02*Y213488D01*
X45591Y216337D02*X45976Y216722D01*
X43281Y216337D02*X45591D01*
X43281D02*X42896Y216722D01*
Y217492D02*Y216722D01*
Y217492D02*X43281Y217877D01*
X45591D01*
X45976Y217492D02*X45591Y217877D01*
X45976Y217492D02*Y216722D01*
X45206Y216337D02*X43666Y217877D01*
X54331Y212681D02*Y209181D01*
X54831Y208681D01*
X55831D01*
X56331Y209181D01*
Y212681D02*Y209181D01*
X57531Y210181D02*X59531Y212681D01*
X57531Y210181D02*X60031D01*
X59531Y212681D02*Y208681D01*
X77665Y214748D02*Y210748D01*
X78965Y214748D02*X79665Y214048D01*
Y211448D01*
X78965Y210748D02*X79665Y211448D01*
X77165Y210748D02*X78965D01*
X77165Y214748D02*X78965D01*
X82365D02*X82865Y214248D01*
X81365Y214748D02*X82365D01*
X80865Y214248D02*X81365Y214748D01*
X80865Y214248D02*Y211248D01*
X81365Y210748D01*
X82365Y212948D02*X82865Y212448D01*
X80865Y212948D02*X82365D01*
X81365Y210748D02*X82365D01*
X82865Y211248D01*
Y212448D02*Y211248D01*
X42272Y193993D02*Y192913D01*
Y193993D02*X42542Y194263D01*
X43082D01*
X43352Y193993D02*X43082Y194263D01*
X43352Y193993D02*Y193183D01*
X42272D02*X44432D01*
X43352Y193615D02*X44432Y194263D01*
X42542Y194911D02*X42272Y195181D01*
Y195991D02*Y195181D01*
Y195991D02*X42542Y196261D01*
X43082D01*
X44432Y194911D02*X43082Y196261D01*
X44432D02*Y194911D01*
Y197179D02*X43352Y197989D01*
X42542D02*X43352D01*
X42272Y197719D02*X42542Y197989D01*
X42272Y197719D02*Y197179D01*
X42542Y196909D02*X42272Y197179D01*
X42542Y196909D02*X43082D01*
X43352Y197179D01*
Y197989D02*Y197179D01*
X48178Y192396D02*X50338D01*
X48178Y193098D02*X48556Y193476D01*
X49960D01*
X50338Y193098D02*X49960Y193476D01*
X50338Y193098D02*Y192126D01*
X48178Y193098D02*Y192126D01*
Y195204D02*X48448Y195474D01*
X48178Y195204D02*Y194394D01*
X48448Y194124D02*X48178Y194394D01*
X48448Y194124D02*X48988D01*
X49258Y194394D01*
Y195204D02*Y194394D01*
Y195204D02*X49528Y195474D01*
X50068D01*
X50338Y195204D02*X50068Y195474D01*
X50338Y195204D02*Y194394D01*
X50068Y194124D02*X50338Y194394D01*
X48610Y196122D02*X48178Y196554D01*
X50338D01*
Y196932D02*Y196122D01*
X48178Y198660D02*Y197580D01*
X49258D01*
X48988Y197850D01*
Y198390D02*Y197850D01*
Y198390D02*X49258Y198660D01*
X50068D01*
X50338Y198390D02*X50068Y198660D01*
X50338Y198390D02*Y197850D01*
X50068Y197580D02*X50338Y197850D01*
X87220Y193307D02*X91220D01*
X87220Y195307D02*Y193307D01*
X89020Y194807D02*Y193307D01*
X87220Y197507D02*Y196507D01*
Y197007D02*X91220D01*
Y197507D02*Y196507D01*
X87220Y199207D02*X91220D01*
X87220Y200507D02*X87920Y201207D01*
X90520D01*
X91220Y200507D02*X90520Y201207D01*
X91220Y200507D02*Y198707D01*
X87220Y200507D02*Y198707D01*
X88020Y202407D02*X87220Y203207D01*
X91220D01*
Y203907D02*Y202407D01*
X144039Y53442D02*Y52740D01*
X143661Y52362D02*X144039Y52740D01*
X142257Y52362D02*X143661D01*
X142257D02*X141879Y52740D01*
Y53442D02*Y52740D01*
X142149Y54090D02*X141879Y54360D01*
Y55170D02*Y54360D01*
Y55170D02*X142149Y55440D01*
X142689D01*
X144039Y54090D02*X142689Y55440D01*
X144039D02*Y54090D01*
X123998Y132642D02*Y131102D01*
Y132642D02*X124383Y133027D01*
X125153D01*
X125538Y132642D02*X125153Y133027D01*
X125538Y132642D02*Y131487D01*
X123998D02*X127078D01*
X125538Y132103D02*X127078Y133027D01*
X123998Y133951D02*X127078D01*
X123998D02*X127078Y135876D01*
X123998D02*X127078D01*
X123998Y137955D02*X124383Y138340D01*
X123998Y137955D02*Y137185D01*
X124383Y136800D02*X123998Y137185D01*
X124383Y136800D02*X126693D01*
X127078Y137185D01*
X125384Y137955D02*X125769Y138340D01*
X125384Y137955D02*Y136800D01*
X127078Y137955D02*Y137185D01*
Y137955D02*X126693Y138340D01*
X125769D02*X126693D01*
X123960Y107773D02*Y107071D01*
X123582Y106693D02*X123960Y107071D01*
X122178Y106693D02*X123582D01*
X122178D02*X121800Y107071D01*
Y107773D02*Y107071D01*
X122070Y108421D02*X121800Y108691D01*
Y109231D02*Y108691D01*
Y109231D02*X122070Y109501D01*
X123960Y109231D02*X123690Y109501D01*
X123960Y109231D02*Y108691D01*
X123690Y108421D02*X123960Y108691D01*
X122772Y109231D02*Y108691D01*
X122070Y109501D02*X122502D01*
X123042D02*X123690D01*
X123042D02*X122772Y109231D01*
X122502Y109501D02*X122772Y109231D01*
X123960Y110419D02*X121800Y111499D01*
Y110149D01*
X123960Y100293D02*Y99591D01*
X123582Y99213D02*X123960Y99591D01*
X122178Y99213D02*X123582D01*
X122178D02*X121800Y99591D01*
Y100293D02*Y99591D01*
X122070Y100941D02*X121800Y101211D01*
Y101751D02*Y101211D01*
Y101751D02*X122070Y102021D01*
X123960Y101751D02*X123690Y102021D01*
X123960Y101751D02*Y101211D01*
X123690Y100941D02*X123960Y101211D01*
X122772Y101751D02*Y101211D01*
X122070Y102021D02*X122502D01*
X123042D02*X123690D01*
X123042D02*X122772Y101751D01*
X122502Y102021D02*X122772Y101751D01*
X123690Y102669D02*X123960Y102939D01*
X123258Y102669D02*X123690D01*
X123258D02*X122880Y103047D01*
Y103371D02*Y103047D01*
Y103371D02*X123258Y103749D01*
X123690D01*
X123960Y103479D02*X123690Y103749D01*
X123960Y103479D02*Y102939D01*
X122502Y102669D02*X122880Y103047D01*
X122070Y102669D02*X122502D01*
X122070D02*X121800Y102939D01*
Y103479D02*Y102939D01*
Y103479D02*X122070Y103749D01*
X122502D01*
X122880Y103371D02*X122502Y103749D01*
X121800Y89663D02*Y88583D01*
Y89663D02*X122070Y89933D01*
X122610D01*
X122880Y89663D02*X122610Y89933D01*
X122880Y89663D02*Y88853D01*
X121800D02*X123960D01*
X122880Y89285D02*X123960Y89933D01*
X122070Y90581D02*X121800Y90851D01*
Y91661D02*Y90851D01*
Y91661D02*X122070Y91931D01*
X122610D01*
X123960Y90581D02*X122610Y91931D01*
X123960D02*Y90581D01*
X121800Y93389D02*X122070Y93659D01*
X121800Y93389D02*Y92849D01*
X122070Y92579D02*X121800Y92849D01*
X122070Y92579D02*X123690D01*
X123960Y92849D01*
X122772Y93389D02*X123042Y93659D01*
X122772Y93389D02*Y92579D01*
X123960Y93389D02*Y92849D01*
Y93389D02*X123690Y93659D01*
X123042D02*X123690D01*
X123047Y67323D02*X127047D01*
X123047Y69323D02*Y67323D01*
X124847Y68823D02*Y67323D01*
X123847Y70523D02*X123047Y71323D01*
X127047D01*
Y72023D02*Y70523D01*
X144039Y45962D02*Y45260D01*
X143661Y44882D02*X144039Y45260D01*
X142257Y44882D02*X143661D01*
X142257D02*X141879Y45260D01*
Y45962D02*Y45260D01*
X142311Y46610D02*X141879Y47042D01*
X144039D01*
Y47420D02*Y46610D01*
X142913Y106087D02*Y102587D01*
X143413Y102087D01*
X144413D01*
X144913Y102587D01*
Y106087D02*Y102587D01*
X146613Y102087D02*X148613Y106087D01*
X146113D02*X148613D01*
X140697Y79404D02*X142857D01*
X140697Y80106D02*X141075Y80484D01*
X142479D01*
X142857Y80106D02*X142479Y80484D01*
X142857Y80106D02*Y79134D01*
X140697Y80106D02*Y79134D01*
Y82212D02*X140967Y82482D01*
X140697Y82212D02*Y81402D01*
X140967Y81132D02*X140697Y81402D01*
X140967Y81132D02*X141507D01*
X141777Y81402D01*
Y82212D02*Y81402D01*
Y82212D02*X142047Y82482D01*
X142587D01*
X142857Y82212D02*X142587Y82482D01*
X142857Y82212D02*Y81402D01*
X142587Y81132D02*X142857Y81402D01*
X141129Y83130D02*X140697Y83562D01*
X142857D01*
Y83940D02*Y83130D01*
X145816Y81001D02*Y79921D01*
Y81001D02*X146086Y81271D01*
X146626D01*
X146896Y81001D02*X146626Y81271D01*
X146896Y81001D02*Y80191D01*
X145816D02*X147976D01*
X146896Y80623D02*X147976Y81271D01*
X146248Y81919D02*X145816Y82351D01*
X147976D01*
Y82729D02*Y81919D01*
X159449Y78921D02*Y75421D01*
X159949Y74921D01*
X160949D01*
X161449Y75421D01*
Y78921D02*Y75421D01*
X162649Y78421D02*X163149Y78921D01*
X164149D01*
X164649Y78421D01*
X164149Y74921D02*X164649Y75421D01*
X163149Y74921D02*X164149D01*
X162649Y75421D02*X163149Y74921D01*
Y77121D02*X164149D01*
X164649Y78421D02*Y77621D01*
Y76621D02*Y75421D01*
Y76621D02*X164149Y77121D01*
X164649Y77621D02*X164149Y77121D01*
X128740Y52150D02*Y48650D01*
X129240Y48150D01*
X130240D01*
X130740Y48650D01*
Y52150D02*Y48650D01*
X131940Y51350D02*X132740Y52150D01*
Y48150D01*
X131940D02*X133440D01*
X139870Y70260D02*Y66260D01*
X141170Y70260D02*X141870Y69560D01*
Y66960D01*
X141170Y66260D02*X141870Y66960D01*
X139370Y66260D02*X141170D01*
X139370Y70260D02*X141170D01*
X143070Y69760D02*X143570Y70260D01*
X145070D01*
X145570Y69760D01*
Y68760D01*
X143070Y66260D02*X145570Y68760D01*
X143070Y66260D02*X145570D01*
X147620Y146028D02*Y144488D01*
Y146028D02*X148005Y146413D01*
X148775D01*
X149160Y146028D02*X148775Y146413D01*
X149160Y146028D02*Y144873D01*
X147620D02*X150700D01*
X149160Y145489D02*X150700Y146413D01*
X147620Y147337D02*X150700D01*
X147620D02*X150700Y149262D01*
X147620D02*X150700D01*
X149545Y150186D02*X147620Y151726D01*
X149545Y152111D02*Y150186D01*
X147620Y151726D02*X150700D01*
X123998Y153115D02*Y151575D01*
Y153115D02*X124383Y153500D01*
X125153D01*
X125538Y153115D02*X125153Y153500D01*
X125538Y153115D02*Y151960D01*
X123998D02*X127078D01*
X125538Y152576D02*X127078Y153500D01*
X123998Y154424D02*X127078D01*
X123998D02*X127078Y156349D01*
X123998D02*X127078D01*
X123998Y158813D02*Y157273D01*
X125538D01*
X125153Y157658D01*
Y158428D02*Y157658D01*
Y158428D02*X125538Y158813D01*
X126693D01*
X127078Y158428D02*X126693Y158813D01*
X127078Y158428D02*Y157658D01*
X126693Y157273D02*X127078Y157658D01*
X136133Y167835D02*X137433D01*
X135433Y168535D02*X136133Y167835D01*
X135433Y171135D02*Y168535D01*
Y171135D02*X136133Y171835D01*
X137433D01*
X138633Y171335D02*X139133Y171835D01*
X140633D01*
X141133Y171335D01*
Y170335D01*
X138633Y167835D02*X141133Y170335D01*
X138633Y167835D02*X141133D01*
X142833D02*X144333Y169835D01*
Y171335D02*Y169835D01*
X143833Y171835D02*X144333Y171335D01*
X142833Y171835D02*X143833D01*
X142333Y171335D02*X142833Y171835D01*
X142333Y171335D02*Y170335D01*
X142833Y169835D01*
X144333D01*
X136133Y176890D02*X137433D01*
X135433Y177590D02*X136133Y176890D01*
X135433Y180190D02*Y177590D01*
Y180190D02*X136133Y180890D01*
X137433D01*
X138633Y180390D02*X139133Y180890D01*
X140633D01*
X141133Y180390D01*
Y179390D01*
X138633Y176890D02*X141133Y179390D01*
X138633Y176890D02*X141133D01*
X142333Y177390D02*X142833Y176890D01*
X142333Y178190D02*Y177390D01*
Y178190D02*X143033Y178890D01*
X143633D01*
X144333Y178190D01*
Y177390D01*
X143833Y176890D02*X144333Y177390D01*
X142833Y176890D02*X143833D01*
X142333Y179590D02*X143033Y178890D01*
X142333Y180390D02*Y179590D01*
Y180390D02*X142833Y180890D01*
X143833D01*
X144333Y180390D01*
Y179590D01*
X143633Y178890D02*X144333Y179590D01*
X136133Y185945D02*X137433D01*
X135433Y186645D02*X136133Y185945D01*
X135433Y189245D02*Y186645D01*
Y189245D02*X136133Y189945D01*
X137433D01*
X138633Y189445D02*X139133Y189945D01*
X140633D01*
X141133Y189445D01*
Y188445D01*
X138633Y185945D02*X141133Y188445D01*
X138633Y185945D02*X141133D01*
X142833D02*X144833Y189945D01*
X142333D02*X144833D01*
X136133Y195000D02*X137433D01*
X135433Y195700D02*X136133Y195000D01*
X135433Y198300D02*Y195700D01*
Y198300D02*X136133Y199000D01*
X137433D01*
X138633Y198500D02*X139133Y199000D01*
X140633D01*
X141133Y198500D01*
Y197500D01*
X138633Y195000D02*X141133Y197500D01*
X138633Y195000D02*X141133D01*
X143833Y199000D02*X144333Y198500D01*
X142833Y199000D02*X143833D01*
X142333Y198500D02*X142833Y199000D01*
X142333Y198500D02*Y195500D01*
X142833Y195000D01*
X143833Y197200D02*X144333Y196700D01*
X142333Y197200D02*X143833D01*
X142833Y195000D02*X143833D01*
X144333Y195500D01*
Y196700D02*Y195500D01*
X117323Y193882D02*X119323D01*
X119823Y193382D01*
Y192382D01*
X119323Y191882D02*X119823Y192382D01*
X117823Y191882D02*X119323D01*
X117823Y193882D02*Y189882D01*
X118623Y191882D02*X119823Y189882D01*
X121023Y193082D02*X121823Y193882D01*
Y189882D01*
X121023D02*X122523D01*
X123723Y190382D02*X124223Y189882D01*
X123723Y191182D02*Y190382D01*
Y191182D02*X124423Y191882D01*
X125023D01*
X125723Y191182D01*
Y190382D01*
X125223Y189882D02*X125723Y190382D01*
X124223Y189882D02*X125223D01*
X123723Y192582D02*X124423Y191882D01*
X123723Y193382D02*Y192582D01*
Y193382D02*X124223Y193882D01*
X125223D01*
X125723Y193382D01*
Y192582D01*
X125023Y191882D02*X125723Y192582D01*
X101953Y202418D02*X102655D01*
X101575Y202796D02*X101953Y202418D01*
X101575Y204200D02*Y202796D01*
Y204200D02*X101953Y204578D01*
X102655D01*
X103303Y204308D02*X103573Y204578D01*
X104113D01*
X104383Y204308D01*
X104113Y202418D02*X104383Y202688D01*
X103573Y202418D02*X104113D01*
X103303Y202688D02*X103573Y202418D01*
Y203606D02*X104113D01*
X104383Y204308D02*Y203876D01*
Y203336D02*Y202688D01*
Y203336D02*X104113Y203606D01*
X104383Y203876D02*X104113Y203606D01*
X105031Y204308D02*X105301Y204578D01*
X106111D01*
X106381Y204308D01*
Y203768D01*
X105031Y202418D02*X106381Y203768D01*
X105031Y202418D02*X106381D01*
X94094Y204578D02*X95174D01*
X95444Y204308D01*
Y203768D01*
X95174Y203498D02*X95444Y203768D01*
X94364Y203498D02*X95174D01*
X94364Y204578D02*Y202418D01*
X94796Y203498D02*X95444Y202418D01*
X96092Y204308D02*X96362Y204578D01*
X97172D01*
X97442Y204308D01*
Y203768D01*
X96092Y202418D02*X97442Y203768D01*
X96092Y202418D02*X97442D01*
X98090Y204146D02*X98522Y204578D01*
Y202418D01*
X98090D02*X98900D01*
X109055Y204578D02*X110135D01*
X110405Y204308D01*
Y203768D01*
X110135Y203498D02*X110405Y203768D01*
X109325Y203498D02*X110135D01*
X109325Y204578D02*Y202418D01*
X109757Y203498D02*X110405Y202418D01*
X111053Y204146D02*X111485Y204578D01*
Y202418D01*
X111053D02*X111863D01*
X112781D02*X113591Y203498D01*
Y204308D02*Y203498D01*
X113321Y204578D02*X113591Y204308D01*
X112781Y204578D02*X113321D01*
X112511Y204308D02*X112781Y204578D01*
X112511Y204308D02*Y203768D01*
X112781Y203498D01*
X113591D01*
X81479Y194165D02*X84559D01*
X81479Y195166D02*X82018Y195705D01*
X84020D01*
X84559Y195166D02*X84020Y195705D01*
X84559Y195166D02*Y193780D01*
X81479Y195166D02*Y193780D01*
X82095Y196629D02*X81479Y197245D01*
X84559D01*
Y197784D02*Y196629D01*
X81479Y199863D02*X81864Y200248D01*
X81479Y199863D02*Y199093D01*
X81864Y198708D02*X81479Y199093D01*
X81864Y198708D02*X84174D01*
X84559Y199093D01*
X82865Y199863D02*X83250Y200248D01*
X82865Y199863D02*Y198708D01*
X84559Y199863D02*Y199093D01*
Y199863D02*X84174Y200248D01*
X83250D02*X84174D01*
X68417Y192953D02*X69717D01*
X67717Y193653D02*X68417Y192953D01*
X67717Y196253D02*Y193653D01*
Y196253D02*X68417Y196953D01*
X69717D01*
X70917Y194453D02*X72917Y196953D01*
X70917Y194453D02*X73417D01*
X72917Y196953D02*Y192953D01*
X74617Y196453D02*X75117Y196953D01*
X76117D01*
X76617Y196453D01*
X76117Y192953D02*X76617Y193453D01*
X75117Y192953D02*X76117D01*
X74617Y193453D02*X75117Y192953D01*
Y195153D02*X76117D01*
X76617Y196453D02*Y195653D01*
Y194653D02*Y193453D01*
Y194653D02*X76117Y195153D01*
X76617Y195653D02*X76117Y195153D01*
X108768Y157268D02*Y153268D01*
X110068Y157268D02*X110768Y156568D01*
Y153968D01*
X110068Y153268D02*X110768Y153968D01*
X108268Y153268D02*X110068D01*
X108268Y157268D02*X110068D01*
X111968Y156468D02*X112768Y157268D01*
Y153268D01*
X111968D02*X113468D01*
X114668Y157268D02*X116668D01*
X114668D02*Y155268D01*
X115168Y155768D01*
X116168D01*
X116668Y155268D01*
Y153768D01*
X116168Y153268D02*X116668Y153768D01*
X115168Y153268D02*X116168D01*
X114668Y153768D02*X115168Y153268D01*
X73771Y152465D02*X74571D01*
Y148965D01*
X74071Y148465D02*X74571Y148965D01*
X73571Y148465D02*X74071D01*
X73071Y148965D02*X73571Y148465D01*
X73071Y149465D02*Y148965D01*
X76271Y148465D02*X78271Y152465D01*
X75771D02*X78271D01*
X108768Y177740D02*Y173740D01*
X110068Y177740D02*X110768Y177040D01*
Y174440D01*
X110068Y173740D02*X110768Y174440D01*
X108268Y173740D02*X110068D01*
X108268Y177740D02*X110068D01*
X111968Y176940D02*X112768Y177740D01*
Y173740D01*
X111968D02*X113468D01*
X114668Y175240D02*X116668Y177740D01*
X114668Y175240D02*X117168D01*
X116668Y177740D02*Y173740D01*
X101327Y173105D02*X103487D01*
X101327Y173807D02*X101705Y174185D01*
X103109D01*
X103487Y173807D02*X103109Y174185D01*
X103487Y173807D02*Y172835D01*
X101327Y173807D02*Y172835D01*
Y175913D02*X101597Y176183D01*
X101327Y175913D02*Y175103D01*
X101597Y174833D02*X101327Y175103D01*
X101597Y174833D02*X102137D01*
X102407Y175103D01*
Y175913D02*Y175103D01*
Y175913D02*X102677Y176183D01*
X103217D01*
X103487Y175913D02*X103217Y176183D01*
X103487Y175913D02*Y175103D01*
X103217Y174833D02*X103487Y175103D01*
X101597Y176831D02*X101327Y177101D01*
Y177641D02*Y177101D01*
Y177641D02*X101597Y177911D01*
X103487Y177641D02*X103217Y177911D01*
X103487Y177641D02*Y177101D01*
X103217Y176831D02*X103487Y177101D01*
X102299Y177641D02*Y177101D01*
X101597Y177911D02*X102029D01*
X102569D02*X103217D01*
X102569D02*X102299Y177641D01*
X102029Y177911D02*X102299Y177641D01*
X101327Y143183D02*X103487D01*
X101327Y143885D02*X101705Y144263D01*
X103109D01*
X103487Y143885D02*X103109Y144263D01*
X103487Y143885D02*Y142913D01*
X101327Y143885D02*Y142913D01*
Y145991D02*X101597Y146261D01*
X101327Y145991D02*Y145181D01*
X101597Y144911D02*X101327Y145181D01*
X101597Y144911D02*X102137D01*
X102407Y145181D01*
Y145991D02*Y145181D01*
Y145991D02*X102677Y146261D01*
X103217D01*
X103487Y145991D02*X103217Y146261D01*
X103487Y145991D02*Y145181D01*
X103217Y144911D02*X103487Y145181D01*
X101327Y147719D02*X101597Y147989D01*
X101327Y147719D02*Y147179D01*
X101597Y146909D02*X101327Y147179D01*
X101597Y146909D02*X103217D01*
X103487Y147179D01*
X102299Y147719D02*X102569Y147989D01*
X102299Y147719D02*Y146909D01*
X103487Y147719D02*Y147179D01*
Y147719D02*X103217Y147989D01*
X102569D02*X103217D01*
X101327Y153026D02*X103487D01*
X101327Y153728D02*X101705Y154106D01*
X103109D01*
X103487Y153728D02*X103109Y154106D01*
X103487Y153728D02*Y152756D01*
X101327Y153728D02*Y152756D01*
Y155834D02*X101597Y156104D01*
X101327Y155834D02*Y155024D01*
X101597Y154754D02*X101327Y155024D01*
X101597Y154754D02*X102137D01*
X102407Y155024D01*
Y155834D02*Y155024D01*
Y155834D02*X102677Y156104D01*
X103217D01*
X103487Y155834D02*X103217Y156104D01*
X103487Y155834D02*Y155024D01*
X103217Y154754D02*X103487Y155024D01*
X101327Y157832D02*Y156752D01*
X102407D01*
X102137Y157022D01*
Y157562D02*Y157022D01*
Y157562D02*X102407Y157832D01*
X103217D01*
X103487Y157562D02*X103217Y157832D01*
X103487Y157562D02*Y157022D01*
X103217Y156752D02*X103487Y157022D01*
X101327Y162868D02*X103487D01*
X101327Y163570D02*X101705Y163948D01*
X103109D01*
X103487Y163570D02*X103109Y163948D01*
X103487Y163570D02*Y162598D01*
X101327Y163570D02*Y162598D01*
Y165676D02*X101597Y165946D01*
X101327Y165676D02*Y164866D01*
X101597Y164596D02*X101327Y164866D01*
X101597Y164596D02*X102137D01*
X102407Y164866D01*
Y165676D02*Y164866D01*
Y165676D02*X102677Y165946D01*
X103217D01*
X103487Y165676D02*X103217Y165946D01*
X103487Y165676D02*Y164866D01*
X103217Y164596D02*X103487Y164866D01*
X102677Y166594D02*X101327Y167674D01*
X102677Y167944D02*Y166594D01*
X101327Y167674D02*X103487D01*
X101327Y182947D02*X103487D01*
X101327Y183649D02*X101705Y184027D01*
X103109D01*
X103487Y183649D02*X103109Y184027D01*
X103487Y183649D02*Y182677D01*
X101327Y183649D02*Y182677D01*
Y185755D02*X101597Y186025D01*
X101327Y185755D02*Y184945D01*
X101597Y184675D02*X101327Y184945D01*
X101597Y184675D02*X102137D01*
X102407Y184945D01*
Y185755D02*Y184945D01*
Y185755D02*X102677Y186025D01*
X103217D01*
X103487Y185755D02*X103217Y186025D01*
X103487Y185755D02*Y184945D01*
X103217Y184675D02*X103487Y184945D01*
X101597Y186673D02*X101327Y186943D01*
Y187753D02*Y186943D01*
Y187753D02*X101597Y188023D01*
X102137D01*
X103487Y186673D02*X102137Y188023D01*
X103487D02*Y186673D01*
X73622Y79381D02*X74702D01*
X74972Y79111D01*
Y78571D01*
X74702Y78301D02*X74972Y78571D01*
X73892Y78301D02*X74702D01*
X73892Y79381D02*Y77221D01*
X74324Y78301D02*X74972Y77221D01*
X75620Y78949D02*X76052Y79381D01*
Y77221D01*
X75620D02*X76430D01*
X77078Y79111D02*X77348Y79381D01*
X77888D01*
X78158Y79111D01*
X77888Y77221D02*X78158Y77491D01*
X77348Y77221D02*X77888D01*
X77078Y77491D02*X77348Y77221D01*
Y78409D02*X77888D01*
X78158Y79111D02*Y78679D01*
Y78139D02*Y77491D01*
Y78139D02*X77888Y78409D01*
X78158Y78679D02*X77888Y78409D01*
X73622Y83318D02*X74702D01*
X74972Y83048D01*
Y82508D01*
X74702Y82238D02*X74972Y82508D01*
X73892Y82238D02*X74702D01*
X73892Y83318D02*Y81158D01*
X74324Y82238D02*X74972Y81158D01*
X75620Y82886D02*X76052Y83318D01*
Y81158D01*
X75620D02*X76430D01*
X77078Y81968D02*X78158Y83318D01*
X77078Y81968D02*X78428D01*
X78158Y83318D02*Y81158D01*
X101557Y65354D02*X104637D01*
Y66894D02*Y65354D01*
X101557Y69358D02*Y67818D01*
X103097D01*
X102712Y68203D01*
Y68973D02*Y68203D01*
Y68973D02*X103097Y69358D01*
X104252D01*
X104637Y68973D02*X104252Y69358D01*
X104637Y68973D02*Y68203D01*
X104252Y67818D02*X104637Y68203D01*
X97188Y70371D02*Y69669D01*
X96810Y69291D02*X97188Y69669D01*
X95406Y69291D02*X96810D01*
X95406D02*X95028Y69669D01*
Y70371D02*Y69669D01*
X95460Y71019D02*X95028Y71451D01*
X97188D01*
Y71829D02*Y71019D01*
X95298Y72477D02*X95028Y72747D01*
Y73557D02*Y72747D01*
Y73557D02*X95298Y73827D01*
X95838D01*
X97188Y72477D02*X95838Y73827D01*
X97188D02*Y72477D01*
X95028Y63678D02*Y62598D01*
Y63678D02*X95298Y63948D01*
X95838D01*
X96108Y63678D02*X95838Y63948D01*
X96108Y63678D02*Y62868D01*
X95028D02*X97188D01*
X96108Y63300D02*X97188Y63948D01*
X95298Y64596D02*X95028Y64866D01*
Y65406D02*Y64866D01*
Y65406D02*X95298Y65676D01*
X97188Y65406D02*X96918Y65676D01*
X97188Y65406D02*Y64866D01*
X96918Y64596D02*X97188Y64866D01*
X96000Y65406D02*Y64866D01*
X95298Y65676D02*X95730D01*
X96270D02*X96918D01*
X96270D02*X96000Y65406D01*
X95730Y65676D02*X96000Y65406D01*
X93251Y70371D02*Y69669D01*
X92873Y69291D02*X93251Y69669D01*
X91469Y69291D02*X92873D01*
X91469D02*X91091Y69669D01*
Y70371D02*Y69669D01*
X91523Y71019D02*X91091Y71451D01*
X93251D01*
Y71829D02*Y71019D01*
X91361Y72477D02*X91091Y72747D01*
Y73287D02*Y72747D01*
Y73287D02*X91361Y73557D01*
X93251Y73287D02*X92981Y73557D01*
X93251Y73287D02*Y72747D01*
X92981Y72477D02*X93251Y72747D01*
X92063Y73287D02*Y72747D01*
X91361Y73557D02*X91793D01*
X92333D02*X92981D01*
X92333D02*X92063Y73287D01*
X91793Y73557D02*X92063Y73287D01*
X93251Y62891D02*Y62189D01*
X92873Y61811D02*X93251Y62189D01*
X91469Y61811D02*X92873D01*
X91469D02*X91091Y62189D01*
Y62891D02*Y62189D01*
X91523Y63539D02*X91091Y63971D01*
X93251D01*
Y64349D02*Y63539D01*
X92981Y64997D02*X93251Y65267D01*
X91361Y64997D02*X92981D01*
X91361D02*X91091Y65267D01*
Y65807D02*Y65267D01*
Y65807D02*X91361Y66077D01*
X92981D01*
X93251Y65807D02*X92981Y66077D01*
X93251Y65807D02*Y65267D01*
X92711Y64997D02*X91631Y66077D01*
X54118Y88157D02*X53618Y87657D01*
X54118Y89657D02*Y88157D01*
X53618Y90157D02*X54118Y89657D01*
X52618Y90157D02*X53618D01*
X52618D02*X52118Y89657D01*
Y88157D01*
X51618Y87657D01*
X50618D02*X51618D01*
X50118Y88157D02*X50618Y87657D01*
X50118Y89657D02*Y88157D01*
X50618Y90157D02*X50118Y89657D01*
X53318Y86457D02*X54118Y85657D01*
X50118D02*X54118D01*
X50118Y86457D02*Y84957D01*
X74000Y85095D02*X74702D01*
X73622Y85473D02*X74000Y85095D01*
X73622Y86877D02*Y85473D01*
Y86877D02*X74000Y87255D01*
X74702D01*
X75350Y86823D02*X75782Y87255D01*
Y85095D01*
X75350D02*X76160D01*
X76808Y85365D02*X77078Y85095D01*
X76808Y85797D02*Y85365D01*
Y85797D02*X77186Y86175D01*
X77510D01*
X77888Y85797D01*
Y85365D01*
X77618Y85095D02*X77888Y85365D01*
X77078Y85095D02*X77618D01*
X76808Y86553D02*X77186Y86175D01*
X76808Y86985D02*Y86553D01*
Y86985D02*X77078Y87255D01*
X77618D01*
X77888Y86985D01*
Y86553D01*
X77510Y86175D02*X77888Y86553D01*
X73622Y91192D02*X74702D01*
X74972Y90922D01*
Y90382D01*
X74702Y90112D02*X74972Y90382D01*
X73892Y90112D02*X74702D01*
X73892Y91192D02*Y89032D01*
X74324Y90112D02*X74972Y89032D01*
X75620Y90760D02*X76052Y91192D01*
Y89032D01*
X75620D02*X76430D01*
X77078Y90922D02*X77348Y91192D01*
X78158D01*
X78428Y90922D01*
Y90382D01*
X77078Y89032D02*X78428Y90382D01*
X77078Y89032D02*X78428D01*
X85579Y86907D02*Y85827D01*
Y86907D02*X85849Y87177D01*
X86389D01*
X86659Y86907D02*X86389Y87177D01*
X86659Y86907D02*Y86097D01*
X85579D02*X87739D01*
X86659Y86529D02*X87739Y87177D01*
X86011Y87825D02*X85579Y88257D01*
X87739D01*
Y88635D02*Y87825D01*
X87469Y89283D02*X87739Y89553D01*
X85849Y89283D02*X87469D01*
X85849D02*X85579Y89553D01*
Y90093D02*Y89553D01*
Y90093D02*X85849Y90363D01*
X87469D01*
X87739Y90093D02*X87469Y90363D01*
X87739Y90093D02*Y89553D01*
X87199Y89283D02*X86119Y90363D01*
X157980Y137583D02*Y133583D01*
X159280Y137583D02*X159980Y136883D01*
Y134283D01*
X159280Y133583D02*X159980Y134283D01*
X157480Y133583D02*X159280D01*
X157480Y137583D02*X159280D01*
X161180Y136783D02*X161980Y137583D01*
Y133583D01*
X161180D02*X162680D01*
X163880Y137083D02*X164380Y137583D01*
X165380D01*
X165880Y137083D01*
X165380Y133583D02*X165880Y134083D01*
X164380Y133583D02*X165380D01*
X163880Y134083D02*X164380Y133583D01*
Y135783D02*X165380D01*
X165880Y137083D02*Y136283D01*
Y135283D02*Y134083D01*
Y135283D02*X165380Y135783D01*
X165880Y136283D02*X165380Y135783D01*
X108768Y137189D02*Y133189D01*
X110068Y137189D02*X110768Y136489D01*
Y133889D01*
X110068Y133189D02*X110768Y133889D01*
X108268Y133189D02*X110068D01*
X108268Y137189D02*X110068D01*
X111968Y136389D02*X112768Y137189D01*
Y133189D01*
X111968D02*X113468D01*
X114668Y133689D02*X115168Y133189D01*
X114668Y134489D02*Y133689D01*
Y134489D02*X115368Y135189D01*
X115968D01*
X116668Y134489D01*
Y133689D01*
X116168Y133189D02*X116668Y133689D01*
X115168Y133189D02*X116168D01*
X114668Y135889D02*X115368Y135189D01*
X114668Y136689D02*Y135889D01*
Y136689D02*X115168Y137189D01*
X116168D01*
X116668Y136689D01*
Y135889D01*
X115968Y135189D02*X116668Y135889D01*
X101327Y132947D02*X103487D01*
X101327Y133649D02*X101705Y134027D01*
X103109D01*
X103487Y133649D02*X103109Y134027D01*
X103487Y133649D02*Y132677D01*
X101327Y133649D02*Y132677D01*
Y135755D02*X101597Y136025D01*
X101327Y135755D02*Y134945D01*
X101597Y134675D02*X101327Y134945D01*
X101597Y134675D02*X102137D01*
X102407Y134945D01*
Y135755D02*Y134945D01*
Y135755D02*X102677Y136025D01*
X103217D01*
X103487Y135755D02*X103217Y136025D01*
X103487Y135755D02*Y134945D01*
X103217Y134675D02*X103487Y134945D01*
Y136943D02*X101327Y138023D01*
Y136673D01*
X108768Y117110D02*Y113110D01*
X110068Y117110D02*X110768Y116410D01*
Y113810D01*
X110068Y113110D02*X110768Y113810D01*
X108268Y113110D02*X110068D01*
X108268Y117110D02*X110068D01*
X111968Y116310D02*X112768Y117110D01*
Y113110D01*
X111968D02*X113468D01*
X115168D02*X117168Y117110D01*
X114668D02*X117168D01*
X101327Y112868D02*X103487D01*
X101327Y113570D02*X101705Y113948D01*
X103109D01*
X103487Y113570D02*X103109Y113948D01*
X103487Y113570D02*Y112598D01*
X101327Y113570D02*Y112598D01*
Y115676D02*X101597Y115946D01*
X101327Y115676D02*Y114866D01*
X101597Y114596D02*X101327Y114866D01*
X101597Y114596D02*X102137D01*
X102407Y114866D01*
Y115676D02*Y114866D01*
Y115676D02*X102677Y115946D01*
X103217D01*
X103487Y115676D02*X103217Y115946D01*
X103487Y115676D02*Y114866D01*
X103217Y114596D02*X103487Y114866D01*
Y116864D02*X102407Y117674D01*
X101597D02*X102407D01*
X101327Y117404D02*X101597Y117674D01*
X101327Y117404D02*Y116864D01*
X101597Y116594D02*X101327Y116864D01*
X101597Y116594D02*X102137D01*
X102407Y116864D01*
Y117674D02*Y116864D01*
X101327Y123105D02*X103487D01*
X101327Y123807D02*X101705Y124185D01*
X103109D01*
X103487Y123807D02*X103109Y124185D01*
X103487Y123807D02*Y122835D01*
X101327Y123807D02*Y122835D01*
Y125913D02*X101597Y126183D01*
X101327Y125913D02*Y125103D01*
X101597Y124833D02*X101327Y125103D01*
X101597Y124833D02*X102137D01*
X102407Y125103D01*
Y125913D02*Y125103D01*
Y125913D02*X102677Y126183D01*
X103217D01*
X103487Y125913D02*X103217Y126183D01*
X103487Y125913D02*Y125103D01*
X103217Y124833D02*X103487Y125103D01*
X103217Y126831D02*X103487Y127101D01*
X102785Y126831D02*X103217D01*
X102785D02*X102407Y127209D01*
Y127533D02*Y127209D01*
Y127533D02*X102785Y127911D01*
X103217D01*
X103487Y127641D02*X103217Y127911D01*
X103487Y127641D02*Y127101D01*
X102029Y126831D02*X102407Y127209D01*
X101597Y126831D02*X102029D01*
X101597D02*X101327Y127101D01*
Y127641D02*Y127101D01*
Y127641D02*X101597Y127911D01*
X102029D01*
X102407Y127533D02*X102029Y127911D01*
X113764Y100843D02*X114466D01*
X113386Y101221D02*X113764Y100843D01*
X113386Y102625D02*Y101221D01*
Y102625D02*X113764Y103003D01*
X114466D01*
X115114Y101653D02*X116194Y103003D01*
X115114Y101653D02*X116464D01*
X116194Y103003D02*Y100843D01*
X117112Y101113D02*X117382Y100843D01*
X117112Y102733D02*Y101113D01*
Y102733D02*X117382Y103003D01*
X117922D01*
X118192Y102733D01*
Y101113D01*
X117922Y100843D02*X118192Y101113D01*
X117382Y100843D02*X117922D01*
X117112Y101383D02*X118192Y102463D01*
X58574Y66107D02*Y65106D01*
X58035Y64567D02*X58574Y65106D01*
X56033Y64567D02*X58035D01*
X56033D02*X55494Y65106D01*
Y66107D02*Y65106D01*
X56110Y67031D02*X55494Y67647D01*
X58574D01*
Y68186D02*Y67031D01*
Y69495D02*X55494Y71035D01*
Y69110D01*
X45276Y69366D02*Y66366D01*
Y69366D02*X45776Y69866D01*
X46776D01*
X47276Y69366D01*
Y66866D01*
X46276Y65866D02*X47276Y66866D01*
X45776Y65866D02*X46276D01*
X45276Y66366D02*X45776Y65866D01*
X46276Y67366D02*X47276Y65866D01*
X48476Y69066D02*X49276Y69866D01*
Y65866D01*
X48476D02*X49976D01*
X111130Y69472D02*Y65472D01*
X112430Y69472D02*X113130Y68772D01*
Y66172D01*
X112430Y65472D02*X113130Y66172D01*
X110630Y65472D02*X112430D01*
X110630Y69472D02*X112430D01*
X114330Y68672D02*X115130Y69472D01*
Y65472D01*
X114330D02*X115830D01*
X74716Y104449D02*X76016D01*
X74016Y105149D02*X74716Y104449D01*
X74016Y107749D02*Y105149D01*
Y107749D02*X74716Y108449D01*
X76016D01*
X77216Y105949D02*X79216Y108449D01*
X77216Y105949D02*X79716D01*
X79216Y108449D02*Y104449D01*
X80916Y105949D02*X82916Y108449D01*
X80916Y105949D02*X83416D01*
X82916Y108449D02*Y104449D01*
X87346Y94781D02*Y94079D01*
X86968Y93701D02*X87346Y94079D01*
X85564Y93701D02*X86968D01*
X85564D02*X85186Y94079D01*
Y94781D02*Y94079D01*
X85456Y95429D02*X85186Y95699D01*
Y96239D02*Y95699D01*
Y96239D02*X85456Y96509D01*
X87346Y96239D02*X87076Y96509D01*
X87346Y96239D02*Y95699D01*
X87076Y95429D02*X87346Y95699D01*
X86158Y96239D02*Y95699D01*
X85456Y96509D02*X85888D01*
X86428D02*X87076D01*
X86428D02*X86158Y96239D01*
X85888Y96509D02*X86158Y96239D01*
X87346Y97427D02*X86266Y98237D01*
X85456D02*X86266D01*
X85186Y97967D02*X85456Y98237D01*
X85186Y97967D02*Y97427D01*
X85456Y97157D02*X85186Y97427D01*
X85456Y97157D02*X85996D01*
X86266Y97427D01*
Y98237D02*Y97427D01*
X85579Y79820D02*Y78740D01*
Y79820D02*X85849Y80090D01*
X86389D01*
X86659Y79820D02*X86389Y80090D01*
X86659Y79820D02*Y79010D01*
X85579D02*X87739D01*
X86659Y79442D02*X87739Y80090D01*
Y81008D02*X86659Y81818D01*
X85849D02*X86659D01*
X85579Y81548D02*X85849Y81818D01*
X85579Y81548D02*Y81008D01*
X85849Y80738D02*X85579Y81008D01*
X85849Y80738D02*X86389D01*
X86659Y81008D01*
Y81818D02*Y81008D01*
X74394Y92969D02*X75096D01*
X74016Y93347D02*X74394Y92969D01*
X74016Y94751D02*Y93347D01*
Y94751D02*X74394Y95129D01*
X75096D01*
X75744Y94697D02*X76176Y95129D01*
Y92969D01*
X75744D02*X76554D01*
X77472D02*X78282Y94049D01*
Y94859D02*Y94049D01*
X78012Y95129D02*X78282Y94859D01*
X77472Y95129D02*X78012D01*
X77202Y94859D02*X77472Y95129D01*
X77202Y94859D02*Y94319D01*
X77472Y94049D01*
X78282D01*
X74016Y99066D02*X75096D01*
X75366Y98796D01*
Y98256D01*
X75096Y97986D02*X75366Y98256D01*
X74286Y97986D02*X75096D01*
X74286Y99066D02*Y96906D01*
X74718Y97986D02*X75366Y96906D01*
X76014Y98634D02*X76446Y99066D01*
Y96906D01*
X76014D02*X76824D01*
X77472Y98634D02*X77904Y99066D01*
Y96906D01*
X77472D02*X78282D01*
X101969Y89945D02*Y86445D01*
X102469Y85945D01*
X103469D01*
X103969Y86445D01*
Y89945D02*Y86445D01*
X105169D02*X105669Y85945D01*
X105169Y87245D02*Y86445D01*
Y87245D02*X105869Y87945D01*
X106469D01*
X107169Y87245D01*
Y86445D01*
X106669Y85945D02*X107169Y86445D01*
X105669Y85945D02*X106669D01*
X105169Y88645D02*X105869Y87945D01*
X105169Y89445D02*Y88645D01*
Y89445D02*X105669Y89945D01*
X106669D01*
X107169Y89445D01*
Y88645D01*
X106469Y87945D02*X107169Y88645D01*
X85346Y51756D02*X86146D01*
Y48256D01*
X85646Y47756D02*X86146Y48256D01*
X85146Y47756D02*X85646D01*
X84646Y48256D02*X85146Y47756D01*
X84646Y48756D02*Y48256D01*
X87346Y50956D02*X88146Y51756D01*
Y47756D01*
X87346D02*X88846D01*
X48014Y51575D02*X51094D01*
Y53115D02*Y51575D01*
X48630Y54039D02*X48014Y54655D01*
X51094D01*
Y55194D02*Y54039D01*
X45613Y55411D02*Y54709D01*
X45235Y54331D02*X45613Y54709D01*
X43831Y54331D02*X45235D01*
X43831D02*X43453Y54709D01*
Y55411D02*Y54709D01*
X45613Y56329D02*X43453Y57409D01*
Y56059D01*
X61957Y63678D02*Y62598D01*
Y63678D02*X62227Y63948D01*
X62767D01*
X63037Y63678D02*X62767Y63948D01*
X63037Y63678D02*Y62868D01*
X61957D02*X64117D01*
X63037Y63300D02*X64117Y63948D01*
X62227Y64596D02*X61957Y64866D01*
Y65676D02*Y64866D01*
Y65676D02*X62227Y65946D01*
X62767D01*
X64117Y64596D02*X62767Y65946D01*
X64117D02*Y64596D01*
X77272Y69079D02*Y65079D01*
X78572Y69079D02*X79272Y68379D01*
Y65779D01*
X78572Y65079D02*X79272Y65779D01*
X76772Y65079D02*X78572D01*
X76772Y69079D02*X78572D01*
X80472Y68579D02*X80972Y69079D01*
X81972D01*
X82472Y68579D01*
X81972Y65079D02*X82472Y65579D01*
X80972Y65079D02*X81972D01*
X80472Y65579D02*X80972Y65079D01*
Y67279D02*X81972D01*
X82472Y68579D02*Y67779D01*
Y66779D02*Y65579D01*
Y66779D02*X81972Y67279D01*
X82472Y67779D02*X81972Y67279D01*
X87154Y62598D02*X89314D01*
Y63678D02*Y62598D01*
X88504Y64326D02*X87154Y65406D01*
X88504Y65676D02*Y64326D01*
X87154Y65406D02*X89314D01*
X69831Y62598D02*X71991D01*
Y63678D02*Y62598D01*
X70101Y64326D02*X69831Y64596D01*
Y65136D02*Y64596D01*
Y65136D02*X70101Y65406D01*
X71991Y65136D02*X71721Y65406D01*
X71991Y65136D02*Y64596D01*
X71721Y64326D02*X71991Y64596D01*
X70803Y65136D02*Y64596D01*
X70101Y65406D02*X70533D01*
X71073D02*X71721D01*
X71073D02*X70803Y65136D01*
X70533Y65406D02*X70803Y65136D01*
X68054Y63678D02*Y62976D01*
X67676Y62598D02*X68054Y62976D01*
X66272Y62598D02*X67676D01*
X66272D02*X65894Y62976D01*
Y63678D02*Y62976D01*
X68054Y64596D02*X66974Y65406D01*
X66164D02*X66974D01*
X65894Y65136D02*X66164Y65406D01*
X65894Y65136D02*Y64596D01*
X66164Y64326D02*X65894Y64596D01*
X66164Y64326D02*X66704D01*
X66974Y64596D01*
Y65406D02*Y64596D01*
M02*
