M48
INCH
T101C0.012
T100C0.026
T99C0.031
T98C0.063
T97C0.047
T96C0.039
T95C0.051
%
T101
X004252Y023898
X004252Y023346
X004252Y022795
X004252Y022244
X004252Y010827
X004252Y010276
X004252Y009724
X004252Y009173
X004252Y008622
X004252Y008071
X004252Y007520
X004252Y006339
X004331Y019055
X004449Y005118
X004449Y004843
X004724Y007126
X004724Y006772
X004764Y004449
X004803Y020118
X005157Y022165
X005157Y020118
X005197Y004252
X005354Y006024
X005433Y005669
X005551Y021693
X005669Y005827
X005669Y005512
X005709Y019055
X005906Y021693
X005984Y006063
X005984Y004252
X006535Y004252
X006614Y019055
X006811Y011024
X006850Y019055
X006969Y011181
X006969Y010866
X007087Y019055
X007087Y009803
X007087Y009409
X007087Y008228
X007087Y005906
X007087Y004252
X007126Y011339
X007126Y011024
X007126Y010709
X007283Y011181
X007559Y007126
X007638Y004252
X007717Y022205
X007835Y022402
X007953Y022205
X008031Y019882
X008110Y009803
X008110Y009055
X008110Y008504
X008189Y004252
X008307Y009528
X008307Y008780
X008307Y008189
X008307Y007835
X008346Y007126
X008583Y019882
X008819Y005906
X008858Y007441
X008898Y007008
X009094Y018858
X009094Y017835
X009094Y016850
X009094Y015866
X009094Y014882
X009094Y013858
X009094Y012874
X009094Y011850
X009173Y020709
X009213Y009921
X009449Y007677
X009843Y020709
X009921Y006417
X010000Y021654
X010079Y021299
X010157Y006063
X010197Y021929
X010197Y009764
X010197Y009488
X010197Y008937
X010197Y008661
X010315Y005827
X010472Y006063
X010669Y018543
X010669Y017559
X010669Y016535
X010669Y015551
X010669Y014567
X010669Y013543
X010669Y012559
X010669Y011535
X010709Y019685
X010709Y019370
X010709Y019055
X010866Y008425
X010866Y008150
X010906Y019528
X010906Y019213
X010906Y018898
X011024Y022087
X011063Y010197
X011102Y019685
X011102Y019370
X011102Y019055
X011102Y018740
X011181Y022323
X011181Y021850
X011181Y020827
X011181Y018425
X011260Y017559
X011260Y015551
X011260Y013543
X011260Y011535
X011339Y022087
X011339Y006417
X011339Y006102
X011417Y018425
X011496Y021850
X011496Y021339
X011575Y006260
X011654Y022087
X011654Y021614
X011811Y021850
X011811Y004843
X011811Y004606
X011969Y022087
X011969Y018307
X012008Y005197
X012008Y004961
X012008Y004724
X012008Y004488
X012126Y021850
X012126Y020591
X012283Y022087
X012283Y011417
X012283Y009646
X012323Y018307
X012441Y021850
X012598Y022087
X012598Y005669
X012598Y004331
X012691Y022467
X012717Y018504
X012874Y018346
X012913Y005669
X012913Y004331
X012992Y008150
X013110Y024882
X013228Y005669
X013228Y004331
X013346Y010000
X013346Y009291
X013346Y008819
X013661Y024882
X013740Y009685
X013780Y010669
X014055Y006063
X014094Y021614
X014213Y024882
X014252Y021811
X014252Y021417
X014291Y006220
X014291Y005906
X014409Y021614
X014567Y021811
X014567Y021417
X014724Y021614
X014764Y024882
X014882Y023819
X014882Y023425
X014882Y023031
X014882Y021811
X014882Y021417
X015039Y023622
X015039Y023228
X015039Y021614
X015039Y008307
X015197Y023819
X015197Y023425
X015197Y023031
X015197Y021811
X015197Y021417
X015236Y009567
X015315Y024882
X015354Y023622
X015354Y023228
X015354Y021614
X015512Y023819
X015512Y023425
X015512Y023031
X015669Y012795
X015866Y024882
X015984Y020354
X016024Y012795
X016063Y005079
X016102Y020118
X016102Y010669
X016142Y015551
X016142Y013543
X016181Y011772
X016220Y020354
X016378Y012795
X016417Y024882
X016457Y020354
X016496Y006811
X016654Y006575
X016693Y020354
X016772Y011850
X016772Y010512
X016811Y006811
X016890Y016181
X016890Y015551
X016890Y014528
X016890Y013543
X016929Y020354
X016969Y024882
X017047Y010315
X017087Y008268
X017087Y007165
X017165Y020354
X017205Y008622
X017205Y007480
X017244Y018031
X017323Y010512
X017402Y020354
X017441Y023543
X017441Y022638
X017480Y021220
X017480Y020906
X017480Y020591
X017520Y024882
X017520Y008465
X017559Y007835
X017638Y021063
X017638Y020748
X017717Y010276
X017795Y018031
X017874Y019921
X017874Y019528
X017953Y010000
X017992Y019724
X017992Y019331
X017992Y018543
X017992Y006260
X018071Y024882
X018110Y019921
X018110Y019528
X018110Y019134
X018110Y018740
X018189Y006890
X018228Y019724
X018228Y019331
X018228Y018937
X018228Y018543
X018228Y006417
X018228Y006102
X018346Y019921
X018465Y016890
X018465Y015866
X018465Y014882
X018465Y013858
X018622Y024882
X018661Y005748
X018661Y004646
X018780Y017992
X018780Y017756
X018976Y008937
X018976Y008189
X019134Y006929
X019173Y024882
X019252Y010669
X019409Y006693
X019528Y004252
X019606Y010669
X019685Y008937
X019685Y008189
X019685Y006929
X019724Y024882
X019724Y019882
X019882Y010669
X020039Y006417
X020079Y004252
X020276Y024882
X020512Y018701
X020551Y011339
X020630Y006929
X020630Y004252
X020709Y007205
X020748Y017008
X020748Y013031
X020827Y024882
X020906Y007008
X020984Y017008
X020984Y013031
X021063Y018543
X021142Y008780
X021181Y004252
X021220Y017008
X021220Y013031
X021220Y006260
X021339Y021654
X021339Y021417
X021339Y021181
X021339Y020945
X021339Y020709
X021378Y024882
X021535Y008780
X021535Y006260
X021732Y004252
X021850Y017165
X021890Y006614
X021929Y024882
X021929Y022008
X021969Y011457
X021969Y010984
X021969Y010472
X021969Y010000
X022087Y022205
X022165Y007835
X022205Y022008
X022244Y011220
X022244Y010748
X022244Y010236
X022244Y009764
X022283Y004252
X022598Y021260
X022598Y020866
X022598Y020472
X022638Y019685
X022638Y019370
X022638Y019055
X022638Y018740
X022638Y012047
X022677Y011220
X022756Y021063
X022756Y020669
X022835Y019843
X022835Y019528
X022835Y019213
X022835Y018898
X022835Y018583
X022835Y004409
X022874Y024646
X022874Y012047
X022913Y021260
X022913Y020866
X022913Y020472
X023031Y019685
X023031Y019370
X023031Y019055
X023031Y018740
X023031Y011220
X023110Y008307
X023189Y004843
X023268Y021929
X023307Y006457
X023307Y005945
X023307Y005394
X023346Y020433
X023346Y010000
T100
X020102Y005500
X020102Y005000
X020602Y005500
X020602Y005000
X021102Y005500
X021102Y005000
X021602Y005500
X021602Y005000
X022102Y005500
X022102Y005000
T99
X015620Y005642
X017530Y005642
T96
X005512Y009902
X005512Y008130
X006677Y018535
X006677Y017535
X006677Y016535
X006677Y015535
X006677Y014535
X006677Y013535
X006677Y012535
X006677Y011535
X007677Y018535
X007677Y017535
X007677Y016535
X007677Y015535
X007677Y014535
X007677Y013535
X007677Y012535
X007677Y011535
X008677Y018535
X008677Y017535
X008677Y016535
X008677Y015535
X008677Y014535
X008677Y013535
X008677Y012535
X008677Y011535
X018882Y016535
X018882Y015535
X018882Y014535
X018882Y013535
X019882Y016535
X019882Y015535
X019882Y014535
X019882Y013535
X020882Y016535
X020882Y015535
X020882Y014535
X020882Y013535
T97
X006451Y005512
X007951Y005512
X009451Y005512
X010951Y005512
X014961Y004429
X018189Y004429
T95
X006496Y010394
X006496Y007638
T98
X006791Y022835
X009744Y022835
X018858Y022835
X020827Y022835
M30
