G04 start of page 14 for group -4015 idx -4015 *
G04 Title: (unknown), toppaste *
G04 Creator: pcb 20140316 *
G04 CreationDate: Tue 09 Jul 2019 20:42:40 GMT UTC *
G04 For: kier *
G04 Format: Gerber/RS-274X *
G04 PCB-Dimensions (mil): 3346.46 4133.86 *
G04 PCB-Coordinate-Origin: lower left *
%MOIN*%
%FSLAX25Y25*%
%LNTOPPASTE*%
%ADD229R,0.0335X0.0335*%
%ADD228R,0.0256X0.0256*%
%ADD227R,0.0098X0.0098*%
%ADD226R,0.0650X0.0650*%
%ADD225R,0.0358X0.0358*%
%ADD224R,0.0591X0.0591*%
%ADD223R,0.0177X0.0177*%
%ADD222R,0.0575X0.0575*%
%ADD221R,0.0531X0.0531*%
%ADD220R,0.0640X0.0640*%
%ADD219R,0.0541X0.0541*%
%ADD218R,0.0512X0.0512*%
%ADD217R,0.0118X0.0118*%
%ADD216R,0.0157X0.0157*%
%ADD215R,0.0276X0.0276*%
%ADD214R,0.0787X0.0787*%
%ADD213R,0.0551X0.0551*%
%ADD212R,0.0374X0.0374*%
%ADD211R,0.0630X0.0630*%
%ADD210R,0.1063X0.1063*%
%ADD209R,0.0315X0.0315*%
%ADD208R,0.0453X0.0453*%
%ADD207R,0.0236X0.0236*%
%ADD206R,0.0244X0.0244*%
G54D206*X231295Y297638D02*X231303D01*
X227752D02*X227760D01*
G54D207*X197047Y349606D02*X197835D01*
X192717D02*X193504D01*
G54D206*X171260Y347839D02*Y347831D01*
Y344295D02*Y344287D01*
X261417Y131697D02*Y131689D01*
Y128154D02*Y128146D01*
G54D208*X104724Y193012D02*Y190453D01*
X116535Y193012D02*Y190453D01*
G54D206*X150787Y204531D02*Y204524D01*
Y200988D02*Y200980D01*
G54D208*X225197Y193012D02*Y190453D01*
X213386Y193012D02*Y190453D01*
G54D206*X128346Y100988D02*Y100980D01*
Y104531D02*Y104524D01*
G54D208*X144390Y103150D02*X146949D01*
X144390Y114961D02*X146949D01*
G54D207*X192520Y86811D02*Y86024D01*
Y82480D02*Y81693D01*
G54D206*X169878Y159449D02*X169886D01*
X173421D02*X173429D01*
X198031Y82878D02*Y82870D01*
Y86421D02*Y86413D01*
G54D209*X50197Y353346D02*Y352953D01*
X42717Y353346D02*Y352953D01*
X46457Y345472D02*Y345079D01*
G54D210*X182185Y108957D02*Y106004D01*
X204429Y108957D02*Y106004D01*
X182185Y124705D02*Y121752D01*
X204429Y124705D02*Y121752D01*
G54D211*X271260Y88976D02*Y79921D01*
Y57874D02*Y48819D01*
G54D212*X134547Y55118D02*X134744D01*
X134547Y48819D02*X134744D01*
G54D213*X94094Y97717D02*Y96772D01*
X78346Y97717D02*Y96772D01*
G54D206*X261417Y273429D02*Y273421D01*
Y269886D02*Y269878D01*
G54D208*X254134Y281890D02*X255315D01*
X254134Y288976D02*X255315D01*
G54D206*X261417Y202563D02*Y202555D01*
Y199020D02*Y199012D01*
X73228Y128154D02*Y128146D01*
Y131697D02*Y131689D01*
G54D214*X47441Y334646D02*X60433D01*
X47441Y308661D02*X60433D01*
G54D208*X84547Y307874D02*X87106D01*
X84547Y296063D02*X87106D01*
G54D206*X150000Y308862D02*Y308854D01*
Y312406D02*Y312398D01*
G54D213*X182205Y353150D02*X183150D01*
X182205Y368898D02*X183150D01*
G54D206*X202756Y347051D02*Y347043D01*
Y350594D02*Y350587D01*
G54D215*X221457Y337992D02*X222638D01*
X221457Y341732D02*X222638D01*
X221457Y345472D02*X222638D01*
X212008D02*X213189D01*
X212008Y341732D02*X213189D01*
X212008Y337992D02*X213189D01*
G54D216*X211220Y333071D02*X211614D01*
G54D217*X211024Y330906D02*X211811D01*
X211024Y328937D02*X211811D01*
G54D216*X211220Y326772D02*X211614D01*
X215157Y333071D02*X215551D01*
G54D217*X214961Y330906D02*X215748D01*
X214961Y328937D02*X215748D01*
G54D216*X215157Y326772D02*X215551D01*
X181102Y246654D02*Y246260D01*
G54D217*X178937Y246850D02*Y246063D01*
X176969Y246850D02*Y246063D01*
G54D216*X174803Y246654D02*Y246260D01*
X181102Y242717D02*Y242323D01*
G54D217*X178937Y242913D02*Y242126D01*
X176969Y242913D02*Y242126D01*
G54D216*X174803Y242717D02*Y242323D01*
X155906Y246654D02*Y246260D01*
G54D217*X153740Y246850D02*Y246063D01*
X151772Y246850D02*Y246063D01*
G54D216*X149606Y246654D02*Y246260D01*
X155906Y242717D02*Y242323D01*
G54D217*X153740Y242913D02*Y242126D01*
X151772Y242913D02*Y242126D01*
G54D216*X149606Y242717D02*Y242323D01*
G54D207*X66339Y167913D02*Y167126D01*
Y163583D02*Y162795D01*
X66142Y238780D02*Y237992D01*
Y234449D02*Y233661D01*
X268504Y238780D02*Y237992D01*
Y234449D02*Y233661D01*
Y167913D02*Y167126D01*
Y163583D02*Y162795D01*
X66142Y97047D02*Y96260D01*
Y92717D02*Y91929D01*
X274213Y96850D02*X275000D01*
X269882D02*X270669D01*
G54D206*X159843Y242720D02*Y242713D01*
Y246264D02*Y246256D01*
X170866Y242720D02*Y242713D01*
Y246264D02*Y246256D01*
X73228Y199020D02*Y199012D01*
Y202563D02*Y202555D01*
Y269886D02*Y269878D01*
Y273429D02*Y273421D01*
G54D208*X78937Y259449D02*X80118D01*
X78937Y252362D02*X80118D01*
G54D207*X120472Y104626D02*X122835D01*
X113386D02*X115748D01*
X113386Y100886D02*X115748D01*
X120472D02*X122835D01*
G54D206*X171260Y340358D02*Y340350D01*
Y336815D02*Y336807D01*
G54D215*X234055Y350984D02*X234843D01*
X234055Y345866D02*X234843D01*
X241535Y348425D02*X242323D01*
G54D206*X202756Y339571D02*Y339563D01*
Y343114D02*Y343106D01*
G54D207*X77657Y205512D02*Y203150D01*
Y198425D02*Y196063D01*
X81398Y198425D02*Y196063D01*
Y205512D02*Y203150D01*
X77657Y276378D02*Y274016D01*
Y269291D02*Y266929D01*
X81398Y269291D02*Y266929D01*
Y276378D02*Y274016D01*
X252854Y276378D02*Y274016D01*
Y269291D02*Y266929D01*
X256594Y269291D02*Y266929D01*
Y276378D02*Y274016D01*
G54D206*X183858Y232484D02*Y232476D01*
Y236028D02*Y236020D01*
G54D208*X120079Y138287D02*Y135728D01*
X131890Y138287D02*Y135728D01*
G54D206*X150787Y149413D02*Y149406D01*
Y145870D02*Y145862D01*
G54D208*X225591Y138287D02*Y135728D01*
X213780Y138287D02*Y135728D01*
G54D206*X183858Y177366D02*Y177358D01*
Y180909D02*Y180902D01*
G54D207*X190028Y180709D02*X192390D01*
X190028Y177559D02*X192390D01*
X190028Y174409D02*X192390D01*
X190028Y171260D02*X192390D01*
X190028Y168110D02*X192390D01*
X190028Y164961D02*X192390D01*
X190028Y161811D02*X192390D01*
X190028Y158661D02*X192390D01*
X190028Y155512D02*X192390D01*
X190028Y152362D02*X192390D01*
X190028Y149213D02*X192390D01*
X190028Y146063D02*X192390D01*
X228870D02*X231232D01*
X228870Y149213D02*X231232D01*
X228870Y152362D02*X231232D01*
X228870Y155512D02*X231232D01*
X228870Y158661D02*X231232D01*
X228870Y161811D02*X231232D01*
X228870Y164961D02*X231232D01*
X228870Y168110D02*X231232D01*
X228870Y171260D02*X231232D01*
X228870Y174409D02*X231232D01*
X228870Y177559D02*X231232D01*
X228870Y180709D02*X231232D01*
G54D218*X202953Y175591D02*Y172835D01*
Y164764D02*Y162008D01*
Y153937D02*Y151181D01*
X210630Y175591D02*Y172835D01*
Y164764D02*Y162008D01*
Y153937D02*Y151181D01*
X218307Y175591D02*Y172835D01*
Y164764D02*Y162008D01*
Y153937D02*Y151181D01*
G54D207*X142256Y201181D02*X144618D01*
X142256Y204331D02*X144618D01*
X142256Y207480D02*X144618D01*
X142256Y210630D02*X144618D01*
X142256Y213780D02*X144618D01*
X142256Y216929D02*X144618D01*
X142256Y220079D02*X144618D01*
X142256Y223228D02*X144618D01*
X142256Y226378D02*X144618D01*
X142256Y229528D02*X144618D01*
X142256Y232677D02*X144618D01*
X142256Y235827D02*X144618D01*
X103413D02*X105776D01*
X103413Y232677D02*X105776D01*
X103413Y229528D02*X105776D01*
X103413Y226378D02*X105776D01*
X103413Y223228D02*X105776D01*
X103413Y220079D02*X105776D01*
X103413Y216929D02*X105776D01*
X103413Y213780D02*X105776D01*
X103413Y210630D02*X105776D01*
X103413Y207480D02*X105776D01*
X103413Y204331D02*X105776D01*
X103413Y201181D02*X105776D01*
G54D218*X131693Y209055D02*Y206299D01*
Y219882D02*Y217126D01*
Y230709D02*Y227953D01*
X124016Y209055D02*Y206299D01*
Y219882D02*Y217126D01*
Y230709D02*Y227953D01*
X116339Y209055D02*Y206299D01*
Y219882D02*Y217126D01*
Y230709D02*Y227953D01*
G54D207*X190028Y235827D02*X192390D01*
X190028Y232677D02*X192390D01*
X190028Y229528D02*X192390D01*
X190028Y226378D02*X192390D01*
X190028Y223228D02*X192390D01*
X190028Y220079D02*X192390D01*
X190028Y216929D02*X192390D01*
X190028Y213780D02*X192390D01*
X190028Y210630D02*X192390D01*
X190028Y207480D02*X192390D01*
X190028Y204331D02*X192390D01*
X190028Y201181D02*X192390D01*
X228870D02*X231232D01*
X228870Y204331D02*X231232D01*
X228870Y207480D02*X231232D01*
X228870Y210630D02*X231232D01*
X228870Y213780D02*X231232D01*
X228870Y216929D02*X231232D01*
X228870Y220079D02*X231232D01*
X228870Y223228D02*X231232D01*
X228870Y226378D02*X231232D01*
X228870Y229528D02*X231232D01*
X228870Y232677D02*X231232D01*
X228870Y235827D02*X231232D01*
G54D218*X202953Y230709D02*Y227953D01*
Y219882D02*Y217126D01*
Y209055D02*Y206299D01*
X210630Y230709D02*Y227953D01*
Y219882D02*Y217126D01*
Y209055D02*Y206299D01*
X218307Y230709D02*Y227953D01*
Y219882D02*Y217126D01*
Y209055D02*Y206299D01*
G54D207*X142256Y146063D02*X144618D01*
X142256Y149213D02*X144618D01*
X142256Y152362D02*X144618D01*
X142256Y155512D02*X144618D01*
X142256Y158661D02*X144618D01*
X142256Y161811D02*X144618D01*
X142256Y164961D02*X144618D01*
X142256Y168110D02*X144618D01*
X142256Y171260D02*X144618D01*
X142256Y174409D02*X144618D01*
X142256Y177559D02*X144618D01*
X142256Y180709D02*X144618D01*
X103413D02*X105776D01*
X103413Y177559D02*X105776D01*
X103413Y174409D02*X105776D01*
X103413Y171260D02*X105776D01*
X103413Y168110D02*X105776D01*
X103413Y164961D02*X105776D01*
X103413Y161811D02*X105776D01*
X103413Y158661D02*X105776D01*
X103413Y155512D02*X105776D01*
X103413Y152362D02*X105776D01*
X103413Y149213D02*X105776D01*
X103413Y146063D02*X105776D01*
G54D218*X131693Y153937D02*Y151181D01*
Y164764D02*Y162008D01*
Y175591D02*Y172835D01*
X124016Y153937D02*Y151181D01*
Y164764D02*Y162008D01*
Y175591D02*Y172835D01*
X116339Y153937D02*Y151181D01*
Y164764D02*Y162008D01*
Y175591D02*Y172835D01*
G54D219*X214319Y370524D02*Y367665D01*
X206941Y370524D02*Y367665D01*
G54D220*X226130Y370031D02*Y368161D01*
X195130Y370031D02*Y368161D01*
G54D221*X221996Y363484D02*X223866D01*
X197394D02*X199264D01*
G54D222*X220984Y356969D02*X223110D01*
X198150D02*X200276D01*
G54D216*X205512Y359843D02*Y355118D01*
X208071Y359843D02*Y355118D01*
X210630Y359843D02*Y355118D01*
X213189Y359843D02*Y355118D01*
X215748Y359843D02*Y355118D01*
G54D208*X254134Y140157D02*X255315D01*
X254134Y147244D02*X255315D01*
X254134Y211024D02*X255315D01*
X254134Y218110D02*X255315D01*
G54D207*X252854Y205512D02*Y203150D01*
Y198425D02*Y196063D01*
X256594Y198425D02*Y196063D01*
Y205512D02*Y203150D01*
X252854Y134646D02*Y132283D01*
Y127559D02*Y125197D01*
X256594Y127559D02*Y125197D01*
Y134646D02*Y132283D01*
G54D208*X78937Y117717D02*X80118D01*
X78937Y110630D02*X80118D01*
G54D207*X77657Y134646D02*Y132283D01*
Y127559D02*Y125197D01*
X81398Y127559D02*Y125197D01*
Y134646D02*Y132283D01*
G54D208*X78937Y188583D02*X80118D01*
X78937Y181496D02*X80118D01*
G54D223*X178071Y47224D02*X180551D01*
X178071Y52224D02*X180551D01*
X178071Y57224D02*X180551D01*
X178071Y62224D02*X180551D01*
X156713D02*X158878D01*
X156713Y57224D02*X158878D01*
X156713Y52224D02*X158878D01*
X156713Y47224D02*X158878D01*
G54D224*X169272Y50787D02*Y49331D01*
Y60118D02*Y58661D01*
X161398Y50787D02*Y49331D01*
Y60118D02*Y58661D01*
G54D223*X178071Y71634D02*X180551D01*
X178071Y76634D02*X180551D01*
X178071Y81634D02*X180551D01*
X178071Y86634D02*X180551D01*
X156713D02*X158878D01*
X156713Y81634D02*X158878D01*
X156713Y76634D02*X158878D01*
X156713Y71634D02*X158878D01*
G54D224*X169272Y75197D02*Y73740D01*
Y84528D02*Y83071D01*
X161398Y75197D02*Y73740D01*
Y84528D02*Y83071D01*
G54D208*X126575Y341732D02*X127756D01*
X126575Y348819D02*X127756D01*
G54D206*X133071Y350201D02*Y350193D01*
Y346657D02*Y346650D01*
G54D208*X164961Y349409D02*Y348228D01*
X157874Y349409D02*Y348228D01*
X112205Y348622D02*Y347441D01*
X119291Y348622D02*Y347441D01*
G54D206*X171260Y329335D02*Y329327D01*
Y332878D02*Y332870D01*
X152756Y337996D02*Y337988D01*
Y334453D02*Y334445D01*
X148618Y342913D02*X148626D01*
X145075D02*X145083D01*
X148618Y338976D02*X148626D01*
X145075D02*X145083D01*
G54D223*X158366Y332382D02*Y329823D01*
X160925Y332382D02*Y329823D01*
X163484Y332382D02*Y329823D01*
X166043Y332382D02*Y329823D01*
X158366Y342618D02*Y340059D01*
X160925Y342618D02*Y340059D01*
X163484Y342618D02*Y340059D01*
X166043Y342618D02*Y340059D01*
G54D208*X145669Y349409D02*Y348228D01*
X138583Y349409D02*Y348228D01*
G54D225*X144665Y332028D02*X145886D01*
X144665Y319154D02*X145886D01*
G54D226*X113681Y325787D02*X116240D01*
X113681Y338780D02*X116240D01*
G54D206*X142520Y313980D02*Y313972D01*
Y310437D02*Y310429D01*
X138583Y319492D02*Y319484D01*
Y315949D02*Y315941D01*
Y312012D02*Y312004D01*
Y308469D02*Y308461D01*
G54D208*X126575Y325197D02*X127756D01*
X126575Y332283D02*X127756D01*
X127953Y296949D02*Y294390D01*
X116142Y296949D02*Y294390D01*
G54D206*X134646Y308469D02*Y308461D01*
Y312012D02*Y312004D01*
X110630Y313587D02*Y313579D01*
Y317130D02*Y317122D01*
X134646Y319492D02*Y319484D01*
Y315949D02*Y315941D01*
G54D208*X134449Y325197D02*X135630D01*
X134449Y332283D02*X135630D01*
G54D206*X120272Y302362D02*X120280D01*
X116728D02*X116736D01*
G54D227*X125886Y309055D02*X128248D01*
X125886Y311024D02*X128248D01*
X125886Y312992D02*X128248D01*
X125886Y314961D02*X128248D01*
X125886Y316929D02*X128248D01*
X114272Y309055D02*X116634D01*
X114272Y311024D02*X116634D01*
X114272Y312992D02*X116634D01*
X114272Y314961D02*X116634D01*
X114272Y316929D02*X116634D01*
G54D228*X123031Y311220D02*Y309843D01*
X119488Y311220D02*Y309843D01*
X123031Y316142D02*Y314764D01*
X119488Y316142D02*Y314764D01*
G54D227*X122244Y307185D02*Y306201D01*
X120276Y307185D02*Y306201D01*
X122244Y319783D02*Y318799D01*
X120276Y319783D02*Y318799D01*
G54D206*X134646Y300988D02*Y300980D01*
Y304531D02*Y304524D01*
G54D208*X127953Y287894D02*Y285335D01*
X116142Y287894D02*Y285335D01*
G54D223*X171161Y145669D02*X173720D01*
X171161Y148228D02*X173720D01*
X171161Y150787D02*X173720D01*
X171161Y153346D02*X173720D01*
X160925Y145669D02*X163484D01*
X160925Y148228D02*X163484D01*
X160925Y150787D02*X163484D01*
X160925Y153346D02*X163484D01*
G54D206*X178740Y150988D02*Y150980D01*
Y154531D02*Y154524D01*
X175197Y135240D02*Y135232D01*
Y138783D02*Y138776D01*
X180311Y135039D02*X180319D01*
X183854D02*X183862D01*
X180311Y138976D02*X180319D01*
X183854D02*X183862D01*
G54D229*X124902Y278248D02*Y273720D01*
X131398Y278248D02*Y273720D01*
G54D206*X148425Y257681D02*Y257673D01*
Y261224D02*Y261217D01*
X140551Y261224D02*Y261217D01*
Y257681D02*Y257673D01*
X144488Y257681D02*Y257673D01*
Y261224D02*Y261217D01*
G54D208*X139173Y266535D02*X140354D01*
X139173Y273622D02*X140354D01*
X117224Y264567D02*X119783D01*
X117224Y252756D02*X119783D01*
X147835Y266535D02*X149016D01*
X147835Y273622D02*X149016D01*
G54D206*X124996Y256299D02*X125004D01*
X128539D02*X128547D01*
G54D207*X139764Y280713D02*Y280705D01*
Y289374D02*Y289366D01*
G54D227*X126181Y261713D02*Y260728D01*
X128150Y261713D02*Y260728D01*
X130118Y261713D02*Y260728D01*
X132087Y261713D02*Y260728D01*
X126181Y269193D02*Y268209D01*
X128150Y269193D02*Y268209D01*
X130118Y269193D02*Y268209D01*
X132087Y269193D02*Y268209D01*
G54D215*X127953Y264961D02*X130315D01*
G54D206*X242126Y364374D02*Y364366D01*
Y367917D02*Y367909D01*
G54D212*X236122Y362992D02*X236319D01*
X236122Y369291D02*X236319D01*
G54D206*X157874Y93114D02*Y93106D01*
Y96657D02*Y96650D01*
G54D223*X171063Y92323D02*X173031D01*
X171063Y94882D02*X173031D01*
X171063Y97441D02*X173031D01*
X162402Y92323D02*X164370D01*
X162402Y97441D02*X164370D01*
G54D206*X186020Y327165D02*X186028D01*
X182476D02*X182484D01*
X283657Y97638D02*X283665D01*
X280114D02*X280122D01*
X291732Y94295D02*Y94287D01*
Y97839D02*Y97831D01*
X287795Y94295D02*Y94287D01*
Y97839D02*Y97831D01*
X51575Y96264D02*Y96256D01*
Y92720D02*Y92713D01*
X55512Y96264D02*Y96256D01*
Y92720D02*Y92713D01*
X59449Y92720D02*Y92713D01*
Y96264D02*Y96256D01*
X282677Y237996D02*Y237988D01*
Y234453D02*Y234445D01*
X278740Y237996D02*Y237988D01*
Y234453D02*Y234445D01*
X274803Y234453D02*Y234445D01*
Y237996D02*Y237988D01*
X51969Y167130D02*Y167122D01*
Y163587D02*Y163579D01*
X55906Y167130D02*Y167122D01*
Y163587D02*Y163579D01*
X59843Y163587D02*Y163579D01*
Y167130D02*Y167122D01*
X51969Y237996D02*Y237988D01*
Y234453D02*Y234445D01*
X55906Y237996D02*Y237988D01*
Y234453D02*Y234445D01*
X59843Y234453D02*Y234445D01*
Y237996D02*Y237988D01*
G54D208*X93602Y307874D02*X96161D01*
X93602Y296063D02*X96161D01*
G54D206*X282677Y167130D02*Y167122D01*
Y163587D02*Y163579D01*
X278740Y167130D02*Y167122D01*
Y163587D02*Y163579D01*
X274803Y163587D02*Y163579D01*
Y167130D02*Y167122D01*
X231295Y309449D02*X231303D01*
X227752D02*X227760D01*
X231295Y305512D02*X231303D01*
X227752D02*X227760D01*
X231295Y301575D02*X231303D01*
X227752D02*X227760D01*
X239169Y290157D02*X239177D01*
X242713D02*X242720D01*
X275783Y327953D02*X275791D01*
X279327D02*X279335D01*
X267909D02*X267917D01*
X271453D02*X271461D01*
X170866Y261618D02*Y261610D01*
Y258075D02*Y258067D01*
X201575Y256106D02*Y256098D01*
Y259650D02*Y259642D01*
G54D213*X194094Y267323D02*X195669D01*
X176772D02*X178346D01*
X176772Y257874D02*X178346D01*
X194094D02*X195669D01*
G54D208*X161811Y270669D02*Y269488D01*
X168898Y270669D02*Y269488D01*
G54D217*X184449Y277953D02*Y274409D01*
X186417Y277953D02*Y274409D01*
X188386Y277953D02*Y274409D01*
X190354Y277953D02*Y274409D01*
X192323Y277953D02*Y274409D01*
X194291Y277953D02*Y274409D01*
X196260Y277953D02*Y274409D01*
X198228Y277953D02*Y274409D01*
X200197Y277953D02*Y274409D01*
X202165Y277953D02*Y274409D01*
X204134Y277953D02*Y274409D01*
X206102Y277953D02*Y274409D01*
X208071Y277953D02*Y274409D01*
X210039Y277953D02*Y274409D01*
X212008Y277953D02*Y274409D01*
X213976Y277953D02*Y274409D01*
X220079Y284055D02*X223622D01*
X220079Y286024D02*X223622D01*
X220079Y287992D02*X223622D01*
X220079Y289961D02*X223622D01*
X220079Y291929D02*X223622D01*
X220079Y293898D02*X223622D01*
X220079Y295866D02*X223622D01*
X220079Y297835D02*X223622D01*
X220079Y299803D02*X223622D01*
X220079Y301772D02*X223622D01*
X220079Y303740D02*X223622D01*
X220079Y305709D02*X223622D01*
X220079Y307677D02*X223622D01*
X220079Y309646D02*X223622D01*
X220079Y311614D02*X223622D01*
X220079Y313583D02*X223622D01*
X213976Y323228D02*Y319685D01*
X212008Y323228D02*Y319685D01*
X210039Y323228D02*Y319685D01*
X208071Y323228D02*Y319685D01*
X206102Y323228D02*Y319685D01*
X204134Y323228D02*Y319685D01*
X202165Y323228D02*Y319685D01*
X200197Y323228D02*Y319685D01*
X198228Y323228D02*Y319685D01*
X196260Y323228D02*Y319685D01*
X194291Y323228D02*Y319685D01*
X192323Y323228D02*Y319685D01*
X190354Y323228D02*Y319685D01*
X188386Y323228D02*Y319685D01*
X186417Y323228D02*Y319685D01*
X184449Y323228D02*Y319685D01*
X174803Y313583D02*X178346D01*
X174803Y311614D02*X178346D01*
X174803Y309646D02*X178346D01*
X174803Y307677D02*X178346D01*
X174803Y305709D02*X178346D01*
X174803Y303740D02*X178346D01*
X174803Y301772D02*X178346D01*
X174803Y299803D02*X178346D01*
X174803Y297835D02*X178346D01*
X174803Y295866D02*X178346D01*
X174803Y293898D02*X178346D01*
X174803Y291929D02*X178346D01*
X174803Y289961D02*X178346D01*
X174803Y287992D02*X178346D01*
X174803Y286024D02*X178346D01*
X174803Y284055D02*X178346D01*
G54D206*X216728Y270472D02*X216736D01*
X213185D02*X213193D01*
X205705Y266535D02*X205713D01*
X209248D02*X209256D01*
X205705Y270472D02*X205713D01*
X209248D02*X209256D01*
X170079Y282091D02*Y282083D01*
Y278547D02*Y278539D01*
X227559Y284453D02*Y284445D01*
Y287996D02*Y287988D01*
Y313587D02*Y313579D01*
Y317130D02*Y317122D01*
X168697Y296850D02*X168705D01*
X165154D02*X165161D01*
X168697Y300787D02*X168705D01*
X165154D02*X165161D01*
X209642Y247244D02*X209650D01*
X213185D02*X213193D01*
X213185Y251181D02*X213193D01*
X209642D02*X209650D01*
X205512Y247445D02*Y247437D01*
Y250988D02*Y250980D01*
X209642Y261811D02*X209650D01*
X213185D02*X213193D01*
X213185Y257874D02*X213193D01*
X209642D02*X209650D01*
X205512Y261618D02*Y261610D01*
Y258075D02*Y258067D01*
X156886Y279921D02*X156894D01*
X160429D02*X160437D01*
G54D208*X156594Y303937D02*X159154D01*
X156594Y315748D02*X159154D01*
G54D206*X156886Y283858D02*X156894D01*
X160429D02*X160437D01*
G54D215*X151772Y293898D02*X152559D01*
X151772Y288780D02*X152559D01*
X159252Y291339D02*X160039D01*
G54D206*X242713Y286220D02*X242720D01*
X239169D02*X239177D01*
X140551Y253744D02*Y253736D01*
Y250201D02*Y250193D01*
X136614Y261224D02*Y261217D01*
Y257681D02*Y257673D01*
Y253744D02*Y253736D01*
Y250201D02*Y250193D01*
X132476Y250394D02*X132484D01*
X128933D02*X128941D01*
X76965Y309449D02*X76972D01*
X73421D02*X73429D01*
X73421Y301575D02*X73429D01*
X76965D02*X76972D01*
X73421Y297638D02*X73429D01*
X76965D02*X76972D01*
X73421Y305512D02*X73429D01*
X76965D02*X76972D01*
X111024Y265555D02*Y265547D01*
Y262012D02*Y262004D01*
G54D215*X113976Y271850D02*Y271063D01*
X119094Y271850D02*Y271063D01*
X116535Y279331D02*Y278543D01*
G54D207*X275197Y349114D02*X277559D01*
X268110D02*X270472D01*
X268110Y345374D02*X270472D01*
X275197D02*X277559D01*
X260236Y349409D02*X261024D01*
X255906D02*X256693D01*
G54D209*X251378Y307283D02*X251772D01*
X251378Y299803D02*X251772D01*
X259252Y303543D02*X259646D01*
X277362Y332874D02*X277756D01*
X277362Y340354D02*X277756D01*
X269488Y336614D02*X269882D01*
X269488Y323031D02*X269882D01*
X269488Y315551D02*X269882D01*
X277362Y319291D02*X277756D01*
G54D206*X236610Y356693D02*X236618D01*
X240154D02*X240161D01*
X269685Y305319D02*Y305311D01*
Y308862D02*Y308854D01*
X273622Y305319D02*Y305311D01*
Y308862D02*Y308854D01*
X277559Y305319D02*Y305311D01*
Y308862D02*Y308854D01*
X246846Y350000D02*X246854D01*
X250390D02*X250398D01*
X246846Y346063D02*X246854D01*
X250390D02*X250398D01*
X242713Y298031D02*X242720D01*
X239169D02*X239177D01*
X242713Y301969D02*X242720D01*
X239169D02*X239177D01*
X242713Y305906D02*X242720D01*
X239169D02*X239177D01*
X242713Y294094D02*X242720D01*
X239169D02*X239177D01*
X201575Y263587D02*Y263579D01*
Y267130D02*Y267122D01*
X111024Y255319D02*Y255311D01*
Y251776D02*Y251768D01*
X134646Y297051D02*Y297043D01*
Y293508D02*Y293500D01*
X138583Y300988D02*Y300980D01*
Y304531D02*Y304524D01*
M02*
