G04 start of page 15 for group -3984 idx -3984 *
G04 Title: (unknown), fab *
G04 Creator: pcb 20140316 *
G04 CreationDate: Mon 04 Feb 2019 13:49:24 GMT UTC *
G04 For: kier *
G04 Format: Gerber/RS-274X *
G04 PCB-Dimensions (mil): 3346.46 4133.86 *
G04 PCB-Coordinate-Origin: lower left *
%MOIN*%
%FSLAX25Y25*%
%LNFAB*%
%ADD233C,0.0100*%
%ADD232C,0.0075*%
%ADD231C,0.0060*%
%ADD230C,0.0001*%
%ADD229R,0.0080X0.0080*%
G54D229*X104331Y127953D02*Y123153D01*
G54D230*G36*
X103784Y128099D02*X108637Y130899D01*
X109037Y130206D01*
X104184Y127406D01*
X103784Y128099D01*
G37*
G36*
X104477Y127406D02*X99624Y130206D01*
X100024Y130899D01*
X104877Y128099D01*
X104477Y127406D01*
G37*
G54D229*X102731Y127953D02*G75*G03X105931Y127953I1600J0D01*G01*
G75*G03X102731Y127953I-1600J0D01*G01*
X101131D02*G75*G03X107531Y127953I3200J0D01*G01*
G75*G03X101131Y127953I-3200J0D01*G01*
X230315Y253937D02*Y249137D01*
G54D230*G36*
X229769Y254084D02*X234622Y256883D01*
X235021Y256190D01*
X230168Y253391D01*
X229769Y254084D01*
G37*
G36*
X230462Y253391D02*X225609Y256190D01*
X226008Y256883D01*
X230861Y254084D01*
X230462Y253391D01*
G37*
G54D229*X228715Y253937D02*G75*G03X231915Y253937I1600J0D01*G01*
G75*G03X228715Y253937I-1600J0D01*G01*
X227115D02*G75*G03X233515Y253937I3200J0D01*G01*
G75*G03X227115Y253937I-3200J0D01*G01*
X15000Y424636D02*Y419836D01*
G54D230*G36*
X14454Y424782D02*X19307Y427582D01*
X19706Y426889D01*
X14853Y424089D01*
X14454Y424782D01*
G37*
G36*
X15147Y424089D02*X10294Y426889D01*
X10693Y427582D01*
X15546Y424782D01*
X15147Y424089D01*
G37*
G54D229*X13400Y424636D02*G75*G03X16600Y424636I1600J0D01*G01*
G75*G03X13400Y424636I-1600J0D01*G01*
X11800D02*G75*G03X18200Y424636I3200J0D01*G01*
G75*G03X11800Y424636I-3200J0D01*G01*
G54D231*X140000Y426886D02*Y420886D01*
Y426886D02*X143750Y420886D01*
Y426886D02*Y420886D01*
X145550Y426136D02*Y421636D01*
Y426136D02*X146300Y426886D01*
X147800D01*
X148550Y426136D01*
Y421636D01*
X147800Y420886D02*X148550Y421636D01*
X146300Y420886D02*X147800D01*
X145550Y421636D02*X146300Y420886D01*
X98000Y426136D02*X98750Y426886D01*
X101000D01*
X101750Y426136D01*
Y424636D01*
X98000Y420886D02*X101750Y424636D01*
X98000Y420886D02*X101750D01*
X45000Y421636D02*X45750Y420886D01*
X45000Y426136D02*Y421636D01*
Y426136D02*X45750Y426886D01*
X47250D01*
X48000Y426136D01*
Y421636D01*
X47250Y420886D02*X48000Y421636D01*
X45750Y420886D02*X47250D01*
X45000Y422386D02*X48000Y425386D01*
X49800Y420886D02*X50550D01*
X52350Y425686D02*X53550Y426886D01*
Y420886D01*
X52350D02*X54600D01*
X56400Y426136D02*X57150Y426886D01*
X59400D01*
X60150Y426136D01*
Y424636D01*
X56400Y420886D02*X60150Y424636D01*
X56400Y420886D02*X60150D01*
X64200Y426886D02*X64950Y426136D01*
X62700Y426886D02*X64200D01*
X61950Y426136D02*X62700Y426886D01*
X61950Y426136D02*Y421636D01*
X62700Y420886D01*
X64200Y424186D02*X64950Y423436D01*
X61950Y424186D02*X64200D01*
X62700Y420886D02*X64200D01*
X64950Y421636D01*
Y423436D02*Y421636D01*
X270054Y116757D02*X273254D01*
X270054D02*Y113557D01*
X273254D01*
Y116757D02*Y113557D01*
X268454Y118357D02*X274854D01*
X268454D02*Y111957D01*
X274854D01*
Y118357D02*Y111957D01*
X270054Y146285D02*X273254D01*
X270054D02*Y143085D01*
X273254D01*
Y146285D02*Y143085D01*
X268454Y147885D02*X274854D01*
X268454D02*Y141485D01*
X274854D01*
Y147885D02*Y141485D01*
X270054Y258490D02*X273254D01*
X270054D02*Y255290D01*
X273254D01*
Y258490D02*Y255290D01*
X268454Y260090D02*X274854D01*
X268454D02*Y253690D01*
X274854D01*
Y260090D02*Y253690D01*
X270054Y288017D02*X273254D01*
X270054D02*Y284817D01*
X273254D01*
Y288017D02*Y284817D01*
X268454Y289617D02*X274854D01*
X268454D02*Y283217D01*
X274854D01*
Y289617D02*Y283217D01*
X270054Y187624D02*X273254D01*
X270054D02*Y184424D01*
X273254D01*
Y187624D02*Y184424D01*
X268454Y189224D02*X274854D01*
X268454D02*Y182824D01*
X274854D01*
Y189224D02*Y182824D01*
X270054Y217151D02*X273254D01*
X270054D02*Y213951D01*
X273254D01*
Y217151D02*Y213951D01*
X268454Y218751D02*X274854D01*
X268454D02*Y212351D01*
X274854D01*
Y218751D02*Y212351D01*
X61392Y146285D02*X64592D01*
X61392D02*Y143085D01*
X64592D01*
Y146285D02*Y143085D01*
X59792Y147885D02*X66192D01*
X59792D02*Y141485D01*
X66192D01*
Y147885D02*Y141485D01*
X61392Y116757D02*X64592D01*
X61392D02*Y113557D01*
X64592D01*
Y116757D02*Y113557D01*
X59792Y118357D02*X66192D01*
X59792D02*Y111957D01*
X66192D01*
Y118357D02*Y111957D01*
X61392Y217151D02*X64592D01*
X61392D02*Y213951D01*
X64592D01*
Y217151D02*Y213951D01*
X59792Y218751D02*X66192D01*
X59792D02*Y212351D01*
X66192D01*
Y218751D02*Y212351D01*
X61392Y187624D02*X64592D01*
X61392D02*Y184424D01*
X64592D01*
Y187624D02*Y184424D01*
X59792Y189224D02*X66192D01*
X59792D02*Y182824D01*
X66192D01*
Y189224D02*Y182824D01*
X61392Y288017D02*X64592D01*
X61392D02*Y284817D01*
X64592D01*
Y288017D02*Y284817D01*
X59792Y289617D02*X66192D01*
X59792D02*Y283217D01*
X66192D01*
Y289617D02*Y283217D01*
X61392Y258490D02*X64592D01*
X61392D02*Y255290D01*
X64592D01*
Y258490D02*Y255290D01*
X59792Y260090D02*X66192D01*
X59792D02*Y253690D01*
X66192D01*
Y260090D02*Y253690D01*
X83439Y351994D02*X86639D01*
X83439D02*Y348794D01*
X86639D01*
Y351994D02*Y348794D01*
X81839Y353594D02*X88239D01*
X81839D02*Y347194D01*
X88239D01*
Y353594D02*Y347194D01*
X63754Y351994D02*X66954D01*
X63754D02*Y348794D01*
X66954D01*
Y351994D02*Y348794D01*
X62154Y353594D02*X68554D01*
X62154D02*Y347194D01*
X68554D01*
Y353594D02*Y347194D01*
X13400Y441236D02*X16600D01*
X13400D02*Y438036D01*
X16600D01*
Y441236D02*Y438036D01*
X11800Y442836D02*X18200D01*
X11800D02*Y436436D01*
X18200D01*
Y442836D02*Y436436D01*
X135000Y441886D02*X136500Y438886D01*
X138000Y441886D01*
X136500Y438886D02*Y435886D01*
X139800Y439186D02*X142050D01*
X139800Y435886D02*X142800D01*
X139800Y441886D02*Y435886D01*
Y441886D02*X142800D01*
X147600D02*X148350Y441136D01*
X145350Y441886D02*X147600D01*
X144600Y441136D02*X145350Y441886D01*
X144600Y441136D02*Y439636D01*
X145350Y438886D01*
X147600D01*
X148350Y438136D01*
Y436636D01*
X147600Y435886D02*X148350Y436636D01*
X145350Y435886D02*X147600D01*
X144600Y436636D02*X145350Y435886D01*
X98000Y440686D02*X99200Y441886D01*
Y435886D01*
X98000D02*X100250D01*
X102050Y438136D02*X105050Y441886D01*
X102050Y438136D02*X105800D01*
X105050Y441886D02*Y435886D01*
X45000Y436636D02*X45750Y435886D01*
X45000Y441136D02*Y436636D01*
Y441136D02*X45750Y441886D01*
X47250D01*
X48000Y441136D01*
Y436636D01*
X47250Y435886D02*X48000Y436636D01*
X45750Y435886D02*X47250D01*
X45000Y437386D02*X48000Y440386D01*
X49800Y435886D02*X50550D01*
X52350Y436636D02*X53100Y435886D01*
X52350Y441136D02*Y436636D01*
Y441136D02*X53100Y441886D01*
X54600D01*
X55350Y441136D01*
Y436636D01*
X54600Y435886D02*X55350Y436636D01*
X53100Y435886D02*X54600D01*
X52350Y437386D02*X55350Y440386D01*
X59400Y441886D02*X60150Y441136D01*
X57900Y441886D02*X59400D01*
X57150Y441136D02*X57900Y441886D01*
X57150Y441136D02*Y436636D01*
X57900Y435886D01*
X59400Y439186D02*X60150Y438436D01*
X57150Y439186D02*X59400D01*
X57900Y435886D02*X59400D01*
X60150Y436636D01*
Y438436D02*Y436636D01*
X61950Y441136D02*X62700Y441886D01*
X64200D01*
X64950Y441136D01*
X64200Y435886D02*X64950Y436636D01*
X62700Y435886D02*X64200D01*
X61950Y436636D02*X62700Y435886D01*
Y439186D02*X64200D01*
X64950Y441136D02*Y439936D01*
Y438436D02*Y436636D01*
Y438436D02*X64200Y439186D01*
X64950Y439936D02*X64200Y439186D01*
X47980Y51929D02*G75*G03X49580Y51929I800J0D01*G01*
G75*G03X47980Y51929I-800J0D01*G01*
X46380D02*G75*G03X51180Y51929I2400J0D01*G01*
G75*G03X46380Y51929I-2400J0D01*G01*
X47980Y61929D02*G75*G03X49580Y61929I800J0D01*G01*
G75*G03X47980Y61929I-800J0D01*G01*
X46380D02*G75*G03X51180Y61929I2400J0D01*G01*
G75*G03X46380Y61929I-2400J0D01*G01*
X47980Y71929D02*G75*G03X49580Y71929I800J0D01*G01*
G75*G03X47980Y71929I-800J0D01*G01*
X46380D02*G75*G03X51180Y71929I2400J0D01*G01*
G75*G03X46380Y71929I-2400J0D01*G01*
X47980Y81929D02*G75*G03X49580Y81929I800J0D01*G01*
G75*G03X47980Y81929I-800J0D01*G01*
X46380D02*G75*G03X51180Y81929I2400J0D01*G01*
G75*G03X46380Y81929I-2400J0D01*G01*
X77980Y51929D02*G75*G03X79580Y51929I800J0D01*G01*
G75*G03X77980Y51929I-800J0D01*G01*
X76380D02*G75*G03X81180Y51929I2400J0D01*G01*
G75*G03X76380Y51929I-2400J0D01*G01*
X77980Y61929D02*G75*G03X79580Y61929I800J0D01*G01*
G75*G03X77980Y61929I-800J0D01*G01*
X76380D02*G75*G03X81180Y61929I2400J0D01*G01*
G75*G03X76380Y61929I-2400J0D01*G01*
X77980Y71929D02*G75*G03X79580Y71929I800J0D01*G01*
G75*G03X77980Y71929I-800J0D01*G01*
X76380D02*G75*G03X81180Y71929I2400J0D01*G01*
G75*G03X76380Y71929I-2400J0D01*G01*
X77980Y81929D02*G75*G03X79580Y81929I800J0D01*G01*
G75*G03X77980Y81929I-800J0D01*G01*
X76380D02*G75*G03X81180Y81929I2400J0D01*G01*
G75*G03X76380Y81929I-2400J0D01*G01*
X210972D02*G75*G03X212572Y81929I800J0D01*G01*
G75*G03X210972Y81929I-800J0D01*G01*
X209372D02*G75*G03X214172Y81929I2400J0D01*G01*
G75*G03X209372Y81929I-2400J0D01*G01*
X220972D02*G75*G03X222572Y81929I800J0D01*G01*
G75*G03X220972Y81929I-800J0D01*G01*
X219372D02*G75*G03X224172Y81929I2400J0D01*G01*
G75*G03X219372Y81929I-2400J0D01*G01*
X230972D02*G75*G03X232572Y81929I800J0D01*G01*
G75*G03X230972Y81929I-800J0D01*G01*
X229372D02*G75*G03X234172Y81929I2400J0D01*G01*
G75*G03X229372Y81929I-2400J0D01*G01*
X240972D02*G75*G03X242572Y81929I800J0D01*G01*
G75*G03X240972Y81929I-800J0D01*G01*
X239372D02*G75*G03X244172Y81929I2400J0D01*G01*
G75*G03X239372Y81929I-2400J0D01*G01*
X210972Y51929D02*G75*G03X212572Y51929I800J0D01*G01*
G75*G03X210972Y51929I-800J0D01*G01*
X209372D02*G75*G03X214172Y51929I2400J0D01*G01*
G75*G03X209372Y51929I-2400J0D01*G01*
X220972D02*G75*G03X222572Y51929I800J0D01*G01*
G75*G03X220972Y51929I-800J0D01*G01*
X219372D02*G75*G03X224172Y51929I2400J0D01*G01*
G75*G03X219372Y51929I-2400J0D01*G01*
X230972D02*G75*G03X232572Y51929I800J0D01*G01*
G75*G03X230972Y51929I-800J0D01*G01*
X229372D02*G75*G03X234172Y51929I2400J0D01*G01*
G75*G03X229372Y51929I-2400J0D01*G01*
X240972D02*G75*G03X242572Y51929I800J0D01*G01*
G75*G03X240972Y51929I-800J0D01*G01*
X239372D02*G75*G03X244172Y51929I2400J0D01*G01*
G75*G03X239372Y51929I-2400J0D01*G01*
X92861Y81929D02*G75*G03X94461Y81929I800J0D01*G01*
G75*G03X92861Y81929I-800J0D01*G01*
X91261D02*G75*G03X96061Y81929I2400J0D01*G01*
G75*G03X91261Y81929I-2400J0D01*G01*
X102861D02*G75*G03X104461Y81929I800J0D01*G01*
G75*G03X102861Y81929I-800J0D01*G01*
X101261D02*G75*G03X106061Y81929I2400J0D01*G01*
G75*G03X101261Y81929I-2400J0D01*G01*
X112861D02*G75*G03X114461Y81929I800J0D01*G01*
G75*G03X112861Y81929I-800J0D01*G01*
X111261D02*G75*G03X116061Y81929I2400J0D01*G01*
G75*G03X111261Y81929I-2400J0D01*G01*
X122861D02*G75*G03X124461Y81929I800J0D01*G01*
G75*G03X122861Y81929I-800J0D01*G01*
X121261D02*G75*G03X126061Y81929I2400J0D01*G01*
G75*G03X121261Y81929I-2400J0D01*G01*
X92861Y51929D02*G75*G03X94461Y51929I800J0D01*G01*
G75*G03X92861Y51929I-800J0D01*G01*
X91261D02*G75*G03X96061Y51929I2400J0D01*G01*
G75*G03X91261Y51929I-2400J0D01*G01*
X102861D02*G75*G03X104461Y51929I800J0D01*G01*
G75*G03X102861Y51929I-800J0D01*G01*
X101261D02*G75*G03X106061Y51929I2400J0D01*G01*
G75*G03X101261Y51929I-2400J0D01*G01*
X112861D02*G75*G03X114461Y51929I800J0D01*G01*
G75*G03X112861Y51929I-800J0D01*G01*
X111261D02*G75*G03X116061Y51929I2400J0D01*G01*
G75*G03X111261Y51929I-2400J0D01*G01*
X122861D02*G75*G03X124461Y51929I800J0D01*G01*
G75*G03X122861Y51929I-800J0D01*G01*
X121261D02*G75*G03X126061Y51929I2400J0D01*G01*
G75*G03X121261Y51929I-2400J0D01*G01*
X14200Y454636D02*G75*G03X15800Y454636I800J0D01*G01*
G75*G03X14200Y454636I-800J0D01*G01*
X12600D02*G75*G03X17400Y454636I2400J0D01*G01*
G75*G03X12600Y454636I-2400J0D01*G01*
X135000Y456886D02*X136500Y453886D01*
X138000Y456886D01*
X136500Y453886D02*Y450886D01*
X139800Y454186D02*X142050D01*
X139800Y450886D02*X142800D01*
X139800Y456886D02*Y450886D01*
Y456886D02*X142800D01*
X147600D02*X148350Y456136D01*
X145350Y456886D02*X147600D01*
X144600Y456136D02*X145350Y456886D01*
X144600Y456136D02*Y454636D01*
X145350Y453886D01*
X147600D01*
X148350Y453136D01*
Y451636D01*
X147600Y450886D02*X148350Y451636D01*
X145350Y450886D02*X147600D01*
X144600Y451636D02*X145350Y450886D01*
X98000Y456136D02*X98750Y456886D01*
X101000D01*
X101750Y456136D01*
Y454636D01*
X98000Y450886D02*X101750Y454636D01*
X98000Y450886D02*X101750D01*
X103550Y453136D02*X106550Y456886D01*
X103550Y453136D02*X107300D01*
X106550Y456886D02*Y450886D01*
X45000Y451636D02*X45750Y450886D01*
X45000Y456136D02*Y451636D01*
Y456136D02*X45750Y456886D01*
X47250D01*
X48000Y456136D01*
Y451636D01*
X47250Y450886D02*X48000Y451636D01*
X45750Y450886D02*X47250D01*
X45000Y452386D02*X48000Y455386D01*
X49800Y450886D02*X50550D01*
X52350Y451636D02*X53100Y450886D01*
X52350Y456136D02*Y451636D01*
Y456136D02*X53100Y456886D01*
X54600D01*
X55350Y456136D01*
Y451636D01*
X54600Y450886D02*X55350Y451636D01*
X53100Y450886D02*X54600D01*
X52350Y452386D02*X55350Y455386D01*
X57150Y456886D02*X60150D01*
X57150D02*Y453886D01*
X57900Y454636D01*
X59400D01*
X60150Y453886D01*
Y451636D01*
X59400Y450886D02*X60150Y451636D01*
X57900Y450886D02*X59400D01*
X57150Y451636D02*X57900Y450886D01*
X62700D02*X65700Y456886D01*
X61950D02*X65700D01*
X224372Y371494D02*X229172Y366694D01*
X224372D02*X229172Y371494D01*
X225172Y370694D02*X228372D01*
X225172D02*Y367494D01*
X228372D01*
Y370694D02*Y367494D01*
X192088Y371494D02*X196888Y366694D01*
X192088D02*X196888Y371494D01*
X192888Y370694D02*X196088D01*
X192888D02*Y367494D01*
X196088D01*
Y370694D02*Y367494D01*
X127147Y360668D02*X131947Y355868D01*
X127147D02*X131947Y360668D01*
X127947Y359868D02*X131147D01*
X127947D02*Y356668D01*
X131147D01*
Y359868D02*Y356668D01*
X112147Y360668D02*X116947Y355868D01*
X112147D02*X116947Y360668D01*
X112947Y359868D02*X116147D01*
X112947D02*Y356668D01*
X116147D01*
Y359868D02*Y356668D01*
X162580Y360668D02*X167380Y355868D01*
X162580D02*X167380Y360668D01*
X163380Y359868D02*X166580D01*
X163380D02*Y356668D01*
X166580D01*
Y359868D02*Y356668D01*
X147580Y360668D02*X152380Y355868D01*
X147580D02*X152380Y360668D01*
X148380Y359868D02*X151580D01*
X148380D02*Y356668D01*
X151580D01*
Y359868D02*Y356668D01*
X268880Y360668D02*X273680Y355868D01*
X268880D02*X273680Y360668D01*
X269680Y359868D02*X272880D01*
X269680D02*Y356668D01*
X272880D01*
Y359868D02*Y356668D01*
X253880Y360668D02*X258680Y355868D01*
X253880D02*X258680Y360668D01*
X254680Y359868D02*X257880D01*
X254680D02*Y356668D01*
X257880D01*
Y359868D02*Y356668D01*
X236220Y329972D02*Y323572D01*
X233020Y326772D02*X239420D01*
X234620Y328372D02*X237820D01*
X234620D02*Y325172D01*
X237820D01*
Y328372D02*Y325172D01*
X74803Y329972D02*Y323572D01*
X71603Y326772D02*X78003D01*
X73203Y328372D02*X76403D01*
X73203D02*Y325172D01*
X76403D01*
Y328372D02*Y325172D01*
X12600Y472036D02*X17400Y467236D01*
X12600D02*X17400Y472036D01*
X13400Y471236D02*X16600D01*
X13400D02*Y468036D01*
X16600D01*
Y471236D02*Y468036D01*
X135000Y471886D02*X136500Y468886D01*
X138000Y471886D01*
X136500Y468886D02*Y465886D01*
X139800Y469186D02*X142050D01*
X139800Y465886D02*X142800D01*
X139800Y471886D02*Y465886D01*
Y471886D02*X142800D01*
X147600D02*X148350Y471136D01*
X145350Y471886D02*X147600D01*
X144600Y471136D02*X145350Y471886D01*
X144600Y471136D02*Y469636D01*
X145350Y468886D01*
X147600D01*
X148350Y468136D01*
Y466636D01*
X147600Y465886D02*X148350Y466636D01*
X145350Y465886D02*X147600D01*
X144600Y466636D02*X145350Y465886D01*
X98000Y466636D02*X98750Y465886D01*
X98000Y467836D02*Y466636D01*
Y467836D02*X99050Y468886D01*
X99950D01*
X101000Y467836D01*
Y466636D01*
X100250Y465886D02*X101000Y466636D01*
X98750Y465886D02*X100250D01*
X98000Y469936D02*X99050Y468886D01*
X98000Y471136D02*Y469936D01*
Y471136D02*X98750Y471886D01*
X100250D01*
X101000Y471136D01*
Y469936D01*
X99950Y468886D02*X101000Y469936D01*
X15000Y487836D02*Y481436D01*
X11800Y484636D02*X18200D01*
X13400Y486236D02*X16600D01*
X13400D02*Y483036D01*
X16600D01*
Y486236D02*Y483036D01*
X140000Y486886D02*Y480886D01*
Y486886D02*X143750Y480886D01*
Y486886D02*Y480886D01*
X145550Y486136D02*Y481636D01*
Y486136D02*X146300Y486886D01*
X147800D01*
X148550Y486136D01*
Y481636D01*
X147800Y480886D02*X148550Y481636D01*
X146300Y480886D02*X147800D01*
X145550Y481636D02*X146300Y480886D01*
X98000Y486136D02*X98750Y486886D01*
X101000D01*
X101750Y486136D01*
Y484636D01*
X98000Y480886D02*X101750Y484636D01*
X98000Y480886D02*X101750D01*
X45000Y481636D02*X45750Y480886D01*
X45000Y486136D02*Y481636D01*
Y486136D02*X45750Y486886D01*
X47250D01*
X48000Y486136D01*
Y481636D01*
X47250Y480886D02*X48000Y481636D01*
X45750Y480886D02*X47250D01*
X45000Y482386D02*X48000Y485386D01*
X49800Y480886D02*X50550D01*
X52350Y481636D02*X53100Y480886D01*
X52350Y486136D02*Y481636D01*
Y486136D02*X53100Y486886D01*
X54600D01*
X55350Y486136D01*
Y481636D01*
X54600Y480886D02*X55350Y481636D01*
X53100Y480886D02*X54600D01*
X52350Y482386D02*X55350Y485386D01*
X57150Y483136D02*X60150Y486886D01*
X57150Y483136D02*X60900D01*
X60150Y486886D02*Y480886D01*
X63450D02*X66450Y486886D01*
X62700D02*X66450D01*
X45000Y466636D02*X45750Y465886D01*
X45000Y471136D02*Y466636D01*
Y471136D02*X45750Y471886D01*
X47250D01*
X48000Y471136D01*
Y466636D01*
X47250Y465886D02*X48000Y466636D01*
X45750Y465886D02*X47250D01*
X45000Y467386D02*X48000Y470386D01*
X49800Y465886D02*X50550D01*
X52350Y466636D02*X53100Y465886D01*
X52350Y471136D02*Y466636D01*
Y471136D02*X53100Y471886D01*
X54600D01*
X55350Y471136D01*
Y466636D01*
X54600Y465886D02*X55350Y466636D01*
X53100Y465886D02*X54600D01*
X52350Y467386D02*X55350Y470386D01*
X57150Y468136D02*X60150Y471886D01*
X57150Y468136D02*X60900D01*
X60150Y471886D02*Y465886D01*
X63450D02*X66450Y471886D01*
X62700D02*X66450D01*
X287402Y357244D02*Y354044D01*
Y357244D02*X290175Y358844D01*
X287402Y357244D02*X284628Y358844D01*
X285802Y357244D02*G75*G03X289002Y357244I1600J0D01*G01*
G75*G03X285802Y357244I-1600J0D01*G01*
X287402Y347244D02*Y344044D01*
Y347244D02*X290175Y348844D01*
X287402Y347244D02*X284628Y348844D01*
X285802Y347244D02*G75*G03X289002Y347244I1600J0D01*G01*
G75*G03X285802Y347244I-1600J0D01*G01*
X287402Y337244D02*Y334044D01*
Y337244D02*X290175Y338844D01*
X287402Y337244D02*X284628Y338844D01*
X285802Y337244D02*G75*G03X289002Y337244I1600J0D01*G01*
G75*G03X285802Y337244I-1600J0D01*G01*
X287402Y327244D02*Y324044D01*
Y327244D02*X290175Y328844D01*
X287402Y327244D02*X284628Y328844D01*
X285802Y327244D02*G75*G03X289002Y327244I1600J0D01*G01*
G75*G03X285802Y327244I-1600J0D01*G01*
X287402Y317244D02*Y314044D01*
Y317244D02*X290175Y318844D01*
X287402Y317244D02*X284628Y318844D01*
X285802Y317244D02*G75*G03X289002Y317244I1600J0D01*G01*
G75*G03X285802Y317244I-1600J0D01*G01*
X287402Y307244D02*Y304044D01*
Y307244D02*X290175Y308844D01*
X287402Y307244D02*X284628Y308844D01*
X285802Y307244D02*G75*G03X289002Y307244I1600J0D01*G01*
G75*G03X285802Y307244I-1600J0D01*G01*
X106693Y304882D02*Y301682D01*
Y304882D02*X109466Y306482D01*
X106693Y304882D02*X103920Y306482D01*
X105093Y304882D02*G75*G03X108293Y304882I1600J0D01*G01*
G75*G03X105093Y304882I-1600J0D01*G01*
X106693Y294882D02*Y291682D01*
Y294882D02*X109466Y296482D01*
X106693Y294882D02*X103920Y296482D01*
X105093Y294882D02*G75*G03X108293Y294882I1600J0D01*G01*
G75*G03X105093Y294882I-1600J0D01*G01*
X15000Y499636D02*Y496436D01*
Y499636D02*X17773Y501236D01*
X15000Y499636D02*X12227Y501236D01*
X13400Y499636D02*G75*G03X16600Y499636I1600J0D01*G01*
G75*G03X13400Y499636I-1600J0D01*G01*
X135000Y501886D02*X136500Y498886D01*
X138000Y501886D01*
X136500Y498886D02*Y495886D01*
X139800Y499186D02*X142050D01*
X139800Y495886D02*X142800D01*
X139800Y501886D02*Y495886D01*
Y501886D02*X142800D01*
X147600D02*X148350Y501136D01*
X145350Y501886D02*X147600D01*
X144600Y501136D02*X145350Y501886D01*
X144600Y501136D02*Y499636D01*
X145350Y498886D01*
X147600D01*
X148350Y498136D01*
Y496636D01*
X147600Y495886D02*X148350Y496636D01*
X145350Y495886D02*X147600D01*
X144600Y496636D02*X145350Y495886D01*
X98000Y496636D02*X98750Y495886D01*
X98000Y497836D02*Y496636D01*
Y497836D02*X99050Y498886D01*
X99950D01*
X101000Y497836D01*
Y496636D01*
X100250Y495886D02*X101000Y496636D01*
X98750Y495886D02*X100250D01*
X98000Y499936D02*X99050Y498886D01*
X98000Y501136D02*Y499936D01*
Y501136D02*X98750Y501886D01*
X100250D01*
X101000Y501136D01*
Y499936D01*
X99950Y498886D02*X101000Y499936D01*
X45000Y496636D02*X45750Y495886D01*
X45000Y501136D02*Y496636D01*
Y501136D02*X45750Y501886D01*
X47250D01*
X48000Y501136D01*
Y496636D01*
X47250Y495886D02*X48000Y496636D01*
X45750Y495886D02*X47250D01*
X45000Y497386D02*X48000Y500386D01*
X49800Y495886D02*X50550D01*
X52350Y496636D02*X53100Y495886D01*
X52350Y501136D02*Y496636D01*
Y501136D02*X53100Y501886D01*
X54600D01*
X55350Y501136D01*
Y496636D01*
X54600Y495886D02*X55350Y496636D01*
X53100Y495886D02*X54600D01*
X52350Y497386D02*X55350Y500386D01*
X57150Y501136D02*X57900Y501886D01*
X59400D01*
X60150Y501136D01*
X59400Y495886D02*X60150Y496636D01*
X57900Y495886D02*X59400D01*
X57150Y496636D02*X57900Y495886D01*
Y499186D02*X59400D01*
X60150Y501136D02*Y499936D01*
Y498436D02*Y496636D01*
Y498436D02*X59400Y499186D01*
X60150Y499936D02*X59400Y499186D01*
X62700Y495886D02*X64950Y498886D01*
Y501136D02*Y498886D01*
X64200Y501886D02*X64950Y501136D01*
X62700Y501886D02*X64200D01*
X61950Y501136D02*X62700Y501886D01*
X61950Y501136D02*Y499636D01*
X62700Y498886D01*
X64950D01*
X256274Y317742D02*X259474D01*
X256274D02*Y314542D01*
X259474D01*
Y317742D02*Y314542D01*
X246431Y317742D02*X249631D01*
X246431D02*Y314542D01*
X249631D01*
Y317742D02*Y314542D01*
X236589Y317742D02*X239789D01*
X236589D02*Y314542D01*
X239789D01*
Y317742D02*Y314542D01*
X256274Y339002D02*X259474D01*
X256274D02*Y335802D01*
X259474D01*
Y339002D02*Y335802D01*
X246431Y339002D02*X249631D01*
X246431D02*Y335802D01*
X249631D01*
Y339002D02*Y335802D01*
X236589Y339002D02*X239789D01*
X236589D02*Y335802D01*
X239789D01*
Y339002D02*Y335802D01*
X94857Y317742D02*X98057D01*
X94857D02*Y314542D01*
X98057D01*
Y317742D02*Y314542D01*
X85014Y317742D02*X88214D01*
X85014D02*Y314542D01*
X88214D01*
Y317742D02*Y314542D01*
X75172Y317742D02*X78372D01*
X75172D02*Y314542D01*
X78372D01*
Y317742D02*Y314542D01*
X94857Y339002D02*X98057D01*
X94857D02*Y335802D01*
X98057D01*
Y339002D02*Y335802D01*
X85014Y339002D02*X88214D01*
X85014D02*Y335802D01*
X88214D01*
Y339002D02*Y335802D01*
X75172Y339002D02*X78372D01*
X75172D02*Y335802D01*
X78372D01*
Y339002D02*Y335802D01*
X13400Y516236D02*X16600D01*
X13400D02*Y513036D01*
X16600D01*
Y516236D02*Y513036D01*
X135000Y516886D02*X136500Y513886D01*
X138000Y516886D01*
X136500Y513886D02*Y510886D01*
X139800Y514186D02*X142050D01*
X139800Y510886D02*X142800D01*
X139800Y516886D02*Y510886D01*
Y516886D02*X142800D01*
X147600D02*X148350Y516136D01*
X145350Y516886D02*X147600D01*
X144600Y516136D02*X145350Y516886D01*
X144600Y516136D02*Y514636D01*
X145350Y513886D01*
X147600D01*
X148350Y513136D01*
Y511636D01*
X147600Y510886D02*X148350Y511636D01*
X145350Y510886D02*X147600D01*
X144600Y511636D02*X145350Y510886D01*
X98000Y515686D02*X99200Y516886D01*
Y510886D01*
X98000D02*X100250D01*
X102050Y516136D02*X102800Y516886D01*
X105050D01*
X105800Y516136D01*
Y514636D01*
X102050Y510886D02*X105800Y514636D01*
X102050Y510886D02*X105800D01*
X45000Y511636D02*X45750Y510886D01*
X45000Y516136D02*Y511636D01*
Y516136D02*X45750Y516886D01*
X47250D01*
X48000Y516136D01*
Y511636D01*
X47250Y510886D02*X48000Y511636D01*
X45750Y510886D02*X47250D01*
X45000Y512386D02*X48000Y515386D01*
X49800Y510886D02*X50550D01*
X52350Y511636D02*X53100Y510886D01*
X52350Y516136D02*Y511636D01*
Y516136D02*X53100Y516886D01*
X54600D01*
X55350Y516136D01*
Y511636D01*
X54600Y510886D02*X55350Y511636D01*
X53100Y510886D02*X54600D01*
X52350Y512386D02*X55350Y515386D01*
X57150Y516136D02*X57900Y516886D01*
X59400D01*
X60150Y516136D01*
X59400Y510886D02*X60150Y511636D01*
X57900Y510886D02*X59400D01*
X57150Y511636D02*X57900Y510886D01*
Y514186D02*X59400D01*
X60150Y516136D02*Y514936D01*
Y513436D02*Y511636D01*
Y513436D02*X59400Y514186D01*
X60150Y514936D02*X59400Y514186D01*
X61950Y516886D02*X64950D01*
X61950D02*Y513886D01*
X62700Y514636D01*
X64200D01*
X64950Y513886D01*
Y511636D01*
X64200Y510886D02*X64950Y511636D01*
X62700Y510886D02*X64200D01*
X61950Y511636D02*X62700Y510886D01*
X219377Y356969D02*G75*G03X220977Y356969I800J0D01*G01*
G75*G03X219377Y356969I-800J0D01*G01*
X200283D02*G75*G03X201883Y356969I800J0D01*G01*
G75*G03X200283Y356969I-800J0D01*G01*
X14200Y529636D02*G75*G03X15800Y529636I800J0D01*G01*
G75*G03X14200Y529636I-800J0D01*G01*
X135000Y531886D02*X136500Y528886D01*
X138000Y531886D01*
X136500Y528886D02*Y525886D01*
X139800Y529186D02*X142050D01*
X139800Y525886D02*X142800D01*
X139800Y531886D02*Y525886D01*
Y531886D02*X142800D01*
X147600D02*X148350Y531136D01*
X145350Y531886D02*X147600D01*
X144600Y531136D02*X145350Y531886D01*
X144600Y531136D02*Y529636D01*
X145350Y528886D01*
X147600D01*
X148350Y528136D01*
Y526636D01*
X147600Y525886D02*X148350Y526636D01*
X145350Y525886D02*X147600D01*
X144600Y526636D02*X145350Y525886D01*
X98000Y531136D02*X98750Y531886D01*
X101000D01*
X101750Y531136D01*
Y529636D01*
X98000Y525886D02*X101750Y529636D01*
X98000Y525886D02*X101750D01*
X45000Y526636D02*X45750Y525886D01*
X45000Y531136D02*Y526636D01*
Y531136D02*X45750Y531886D01*
X47250D01*
X48000Y531136D01*
Y526636D01*
X47250Y525886D02*X48000Y526636D01*
X45750Y525886D02*X47250D01*
X45000Y527386D02*X48000Y530386D01*
X49800Y525886D02*X50550D01*
X52350Y526636D02*X53100Y525886D01*
X52350Y531136D02*Y526636D01*
Y531136D02*X53100Y531886D01*
X54600D01*
X55350Y531136D01*
Y526636D01*
X54600Y525886D02*X55350Y526636D01*
X53100Y525886D02*X54600D01*
X52350Y527386D02*X55350Y530386D01*
X57150Y531136D02*X57900Y531886D01*
X59400D01*
X60150Y531136D01*
X59400Y525886D02*X60150Y526636D01*
X57900Y525886D02*X59400D01*
X57150Y526636D02*X57900Y525886D01*
Y529186D02*X59400D01*
X60150Y531136D02*Y529936D01*
Y528436D02*Y526636D01*
Y528436D02*X59400Y529186D01*
X60150Y529936D02*X59400Y529186D01*
X61950Y530686D02*X63150Y531886D01*
Y525886D01*
X61950D02*X64200D01*
X166123Y309861D02*X168523Y307461D01*
X166123D02*X168523Y309861D01*
X166123Y290176D02*X168523Y287776D01*
X166123D02*X168523Y290176D01*
X13800Y545836D02*X16200Y543436D01*
X13800D02*X16200Y545836D01*
X135000Y546886D02*X136500Y543886D01*
X138000Y546886D01*
X136500Y543886D02*Y540886D01*
X139800Y544186D02*X142050D01*
X139800Y540886D02*X142800D01*
X139800Y546886D02*Y540886D01*
Y546886D02*X142800D01*
X147600D02*X148350Y546136D01*
X145350Y546886D02*X147600D01*
X144600Y546136D02*X145350Y546886D01*
X144600Y546136D02*Y544636D01*
X145350Y543886D01*
X147600D01*
X148350Y543136D01*
Y541636D01*
X147600Y540886D02*X148350Y541636D01*
X145350Y540886D02*X147600D01*
X144600Y541636D02*X145350Y540886D01*
X98000Y546136D02*X98750Y546886D01*
X101000D01*
X101750Y546136D01*
Y544636D01*
X98000Y540886D02*X101750Y544636D01*
X98000Y540886D02*X101750D01*
X45000Y541636D02*X45750Y540886D01*
X45000Y546136D02*Y541636D01*
Y546136D02*X45750Y546886D01*
X47250D01*
X48000Y546136D01*
Y541636D01*
X47250Y540886D02*X48000Y541636D01*
X45750Y540886D02*X47250D01*
X45000Y542386D02*X48000Y545386D01*
X49800Y540886D02*X50550D01*
X52350Y541636D02*X53100Y540886D01*
X52350Y546136D02*Y541636D01*
Y546136D02*X53100Y546886D01*
X54600D01*
X55350Y546136D01*
Y541636D01*
X54600Y540886D02*X55350Y541636D01*
X53100Y540886D02*X54600D01*
X52350Y542386D02*X55350Y545386D01*
X57150Y546136D02*X57900Y546886D01*
X60150D01*
X60900Y546136D01*
Y544636D01*
X57150Y540886D02*X60900Y544636D01*
X57150Y540886D02*X60900D01*
X62700Y541636D02*X63450Y540886D01*
X62700Y542836D02*Y541636D01*
Y542836D02*X63750Y543886D01*
X64650D01*
X65700Y542836D01*
Y541636D01*
X64950Y540886D02*X65700Y541636D01*
X63450Y540886D02*X64950D01*
X62700Y544936D02*X63750Y543886D01*
X62700Y546136D02*Y544936D01*
Y546136D02*X63450Y546886D01*
X64950D01*
X65700Y546136D01*
Y544936D01*
X64650Y543886D02*X65700Y544936D01*
X197008Y343726D02*Y340526D01*
X195408Y342126D02*X198608D01*
X197008Y338726D02*Y335526D01*
X195408Y337126D02*X198608D01*
X192008Y343726D02*Y340526D01*
X190408Y342126D02*X193608D01*
X192008Y338726D02*Y335526D01*
X190408Y337126D02*X193608D01*
X187008Y343726D02*Y340526D01*
X185408Y342126D02*X188608D01*
X187008Y338726D02*Y335526D01*
X185408Y337126D02*X188608D01*
X182008Y343726D02*Y340526D01*
X180408Y342126D02*X183608D01*
X182008Y338726D02*Y335526D01*
X180408Y337126D02*X183608D01*
X177008Y343726D02*Y340526D01*
X175408Y342126D02*X178608D01*
X177008Y338726D02*Y335526D01*
X175408Y337126D02*X178608D01*
X15000Y561236D02*Y558036D01*
X13400Y559636D02*X16600D01*
X135000Y561886D02*X136500Y558886D01*
X138000Y561886D01*
X136500Y558886D02*Y555886D01*
X139800Y559186D02*X142050D01*
X139800Y555886D02*X142800D01*
X139800Y561886D02*Y555886D01*
Y561886D02*X142800D01*
X147600D02*X148350Y561136D01*
X145350Y561886D02*X147600D01*
X144600Y561136D02*X145350Y561886D01*
X144600Y561136D02*Y559636D01*
X145350Y558886D01*
X147600D01*
X148350Y558136D01*
Y556636D01*
X147600Y555886D02*X148350Y556636D01*
X145350Y555886D02*X147600D01*
X144600Y556636D02*X145350Y555886D01*
X98000Y560686D02*X99200Y561886D01*
Y555886D01*
X98000D02*X100250D01*
X102050Y556636D02*X102800Y555886D01*
X102050Y561136D02*Y556636D01*
Y561136D02*X102800Y561886D01*
X104300D01*
X105050Y561136D01*
Y556636D01*
X104300Y555886D02*X105050Y556636D01*
X102800Y555886D02*X104300D01*
X102050Y557386D02*X105050Y560386D01*
X45000Y556636D02*X45750Y555886D01*
X45000Y561136D02*Y556636D01*
Y561136D02*X45750Y561886D01*
X47250D01*
X48000Y561136D01*
Y556636D01*
X47250Y555886D02*X48000Y556636D01*
X45750Y555886D02*X47250D01*
X45000Y557386D02*X48000Y560386D01*
X49800Y555886D02*X50550D01*
X52350Y556636D02*X53100Y555886D01*
X52350Y561136D02*Y556636D01*
Y561136D02*X53100Y561886D01*
X54600D01*
X55350Y561136D01*
Y556636D01*
X54600Y555886D02*X55350Y556636D01*
X53100Y555886D02*X54600D01*
X52350Y557386D02*X55350Y560386D01*
X57150Y561136D02*X57900Y561886D01*
X60150D01*
X60900Y561136D01*
Y559636D01*
X57150Y555886D02*X60900Y559636D01*
X57150Y555886D02*X60900D01*
X64950Y561886D02*X65700Y561136D01*
X63450Y561886D02*X64950D01*
X62700Y561136D02*X63450Y561886D01*
X62700Y561136D02*Y556636D01*
X63450Y555886D01*
X64950Y559186D02*X65700Y558436D01*
X62700Y559186D02*X64950D01*
X63450Y555886D02*X64950D01*
X65700Y556636D01*
Y558436D02*Y556636D01*
X153543Y45276D02*Y43676D01*
Y45276D02*X154930Y46076D01*
X153543Y45276D02*X152157Y46076D01*
X153543Y48425D02*Y46825D01*
Y48425D02*X154930Y49225D01*
X153543Y48425D02*X152157Y49225D01*
X153543Y51575D02*Y49975D01*
Y51575D02*X154930Y52375D01*
X153543Y51575D02*X152157Y52375D01*
X153543Y54724D02*Y53124D01*
Y54724D02*X154930Y55524D01*
X153543Y54724D02*X152157Y55524D01*
X153543Y57874D02*Y56274D01*
Y57874D02*X154930Y58674D01*
X153543Y57874D02*X152157Y58674D01*
X153543Y61024D02*Y59424D01*
Y61024D02*X154930Y61824D01*
X153543Y61024D02*X152157Y61824D01*
X153543Y64173D02*Y62573D01*
Y64173D02*X154930Y64973D01*
X153543Y64173D02*X152157Y64973D01*
X151181Y46850D02*Y45250D01*
Y46850D02*X152568Y47650D01*
X151181Y46850D02*X149794Y47650D01*
X151181Y50000D02*Y48400D01*
Y50000D02*X152568Y50800D01*
X151181Y50000D02*X149794Y50800D01*
X151181Y53150D02*Y51550D01*
Y53150D02*X152568Y53950D01*
X151181Y53150D02*X149794Y53950D01*
X151181Y56299D02*Y54699D01*
Y56299D02*X152568Y57099D01*
X151181Y56299D02*X149794Y57099D01*
X151181Y59449D02*Y57849D01*
Y59449D02*X152568Y60249D01*
X151181Y59449D02*X149794Y60249D01*
X151181Y62598D02*Y60998D01*
Y62598D02*X152568Y63398D01*
X151181Y62598D02*X149794Y63398D01*
X148819Y64173D02*Y62573D01*
Y64173D02*X150206Y64973D01*
X148819Y64173D02*X147432Y64973D01*
X148819Y61024D02*Y59424D01*
Y61024D02*X150206Y61824D01*
X148819Y61024D02*X147432Y61824D01*
X148819Y57874D02*Y56274D01*
Y57874D02*X150206Y58674D01*
X148819Y57874D02*X147432Y58674D01*
X148819Y54724D02*Y53124D01*
Y54724D02*X150206Y55524D01*
X148819Y54724D02*X147432Y55524D01*
X148819Y51575D02*Y49975D01*
Y51575D02*X150206Y52375D01*
X148819Y51575D02*X147432Y52375D01*
X148819Y48425D02*Y46825D01*
Y48425D02*X150206Y49225D01*
X148819Y48425D02*X147432Y49225D01*
X148819Y45276D02*Y43676D01*
Y45276D02*X150206Y46076D01*
X148819Y45276D02*X147432Y46076D01*
X163780Y66929D02*Y65329D01*
Y66929D02*X165166Y67729D01*
X163780Y66929D02*X162393Y67729D01*
X166929Y66929D02*Y65329D01*
Y66929D02*X168316Y67729D01*
X166929Y66929D02*X165542Y67729D01*
X170079Y66929D02*Y65329D01*
Y66929D02*X171465Y67729D01*
X170079Y66929D02*X168692Y67729D01*
X168504Y69291D02*Y67691D01*
Y69291D02*X169891Y70091D01*
X168504Y69291D02*X167117Y70091D01*
X165354Y69291D02*Y67691D01*
Y69291D02*X166741Y70091D01*
X165354Y69291D02*X163968Y70091D01*
X165354Y64567D02*Y62967D01*
Y64567D02*X166741Y65367D01*
X165354Y64567D02*X163968Y65367D01*
X168504Y64567D02*Y62967D01*
Y64567D02*X169891Y65367D01*
X168504Y64567D02*X167117Y65367D01*
X162205Y64567D02*Y62967D01*
Y64567D02*X163591Y65367D01*
X162205Y64567D02*X160818Y65367D01*
X162205Y69291D02*Y67691D01*
Y69291D02*X163591Y70091D01*
X162205Y69291D02*X160818Y70091D01*
X153543Y69685D02*Y68085D01*
Y69685D02*X154930Y70485D01*
X153543Y69685D02*X152157Y70485D01*
X153543Y72835D02*Y71235D01*
Y72835D02*X154930Y73635D01*
X153543Y72835D02*X152157Y73635D01*
X153543Y75984D02*Y74384D01*
Y75984D02*X154930Y76784D01*
X153543Y75984D02*X152157Y76784D01*
X153543Y79134D02*Y77534D01*
Y79134D02*X154930Y79934D01*
X153543Y79134D02*X152157Y79934D01*
X153543Y82283D02*Y80683D01*
Y82283D02*X154930Y83083D01*
X153543Y82283D02*X152157Y83083D01*
X153543Y85433D02*Y83833D01*
Y85433D02*X154930Y86233D01*
X153543Y85433D02*X152157Y86233D01*
X153543Y88583D02*Y86983D01*
Y88583D02*X154930Y89383D01*
X153543Y88583D02*X152157Y89383D01*
X151181Y71260D02*Y69660D01*
Y71260D02*X152568Y72060D01*
X151181Y71260D02*X149794Y72060D01*
X151181Y74409D02*Y72809D01*
Y74409D02*X152568Y75209D01*
X151181Y74409D02*X149794Y75209D01*
X151181Y77559D02*Y75959D01*
Y77559D02*X152568Y78359D01*
X151181Y77559D02*X149794Y78359D01*
X151181Y80709D02*Y79109D01*
Y80709D02*X152568Y81509D01*
X151181Y80709D02*X149794Y81509D01*
X151181Y83858D02*Y82258D01*
Y83858D02*X152568Y84658D01*
X151181Y83858D02*X149794Y84658D01*
X151181Y87008D02*Y85408D01*
Y87008D02*X152568Y87808D01*
X151181Y87008D02*X149794Y87808D01*
X148819Y88583D02*Y86983D01*
Y88583D02*X150206Y89383D01*
X148819Y88583D02*X147432Y89383D01*
X148819Y85433D02*Y83833D01*
Y85433D02*X150206Y86233D01*
X148819Y85433D02*X147432Y86233D01*
X148819Y82283D02*Y80683D01*
Y82283D02*X150206Y83083D01*
X148819Y82283D02*X147432Y83083D01*
X148819Y79134D02*Y77534D01*
Y79134D02*X150206Y79934D01*
X148819Y79134D02*X147432Y79934D01*
X148819Y75984D02*Y74384D01*
Y75984D02*X150206Y76784D01*
X148819Y75984D02*X147432Y76784D01*
X148819Y72835D02*Y71235D01*
Y72835D02*X150206Y73635D01*
X148819Y72835D02*X147432Y73635D01*
X148819Y69685D02*Y68085D01*
Y69685D02*X150206Y70485D01*
X148819Y69685D02*X147432Y70485D01*
X108661Y88583D02*Y86983D01*
Y88583D02*X110048Y89383D01*
X108661Y88583D02*X107275Y89383D01*
X118504Y88583D02*Y86983D01*
Y88583D02*X119891Y89383D01*
X118504Y88583D02*X117117Y89383D01*
X128740Y88583D02*Y86983D01*
Y88583D02*X130127Y89383D01*
X128740Y88583D02*X127353Y89383D01*
X183858Y88583D02*Y86983D01*
Y88583D02*X185245Y89383D01*
X183858Y88583D02*X182472Y89383D01*
X183858Y85433D02*Y83833D01*
Y85433D02*X185245Y86233D01*
X183858Y85433D02*X182472Y86233D01*
X183858Y82283D02*Y80683D01*
Y82283D02*X185245Y83083D01*
X183858Y82283D02*X182472Y83083D01*
X183858Y79134D02*Y77534D01*
Y79134D02*X185245Y79934D01*
X183858Y79134D02*X182472Y79934D01*
X183858Y75984D02*Y74384D01*
Y75984D02*X185245Y76784D01*
X183858Y75984D02*X182472Y76784D01*
X183858Y72835D02*Y71235D01*
Y72835D02*X185245Y73635D01*
X183858Y72835D02*X182472Y73635D01*
X183858Y69685D02*Y68085D01*
Y69685D02*X185245Y70485D01*
X183858Y69685D02*X182472Y70485D01*
X186614Y71260D02*Y69660D01*
Y71260D02*X188001Y72060D01*
X186614Y71260D02*X185228Y72060D01*
X186614Y74409D02*Y72809D01*
Y74409D02*X188001Y75209D01*
X186614Y74409D02*X185228Y75209D01*
X186614Y77559D02*Y75959D01*
Y77559D02*X188001Y78359D01*
X186614Y77559D02*X185228Y78359D01*
X186614Y80709D02*Y79109D01*
Y80709D02*X188001Y81509D01*
X186614Y80709D02*X185228Y81509D01*
X186614Y83858D02*Y82258D01*
Y83858D02*X188001Y84658D01*
X186614Y83858D02*X185228Y84658D01*
X186614Y87008D02*Y85408D01*
Y87008D02*X188001Y87808D01*
X186614Y87008D02*X185228Y87808D01*
X189370Y88583D02*Y86983D01*
Y88583D02*X190757Y89383D01*
X189370Y88583D02*X187983Y89383D01*
X189370Y85433D02*Y83833D01*
Y85433D02*X190757Y86233D01*
X189370Y85433D02*X187983Y86233D01*
X189370Y82283D02*Y80683D01*
Y82283D02*X190757Y83083D01*
X189370Y82283D02*X187983Y83083D01*
X189370Y79134D02*Y77534D01*
Y79134D02*X190757Y79934D01*
X189370Y79134D02*X187983Y79934D01*
X189370Y75984D02*Y74384D01*
Y75984D02*X190757Y76784D01*
X189370Y75984D02*X187983Y76784D01*
X189370Y72835D02*Y71235D01*
Y72835D02*X190757Y73635D01*
X189370Y72835D02*X187983Y73635D01*
X189370Y69685D02*Y68085D01*
Y69685D02*X190757Y70485D01*
X189370Y69685D02*X187983Y70485D01*
X183858Y64173D02*Y62573D01*
Y64173D02*X185245Y64973D01*
X183858Y64173D02*X182472Y64973D01*
X183858Y61024D02*Y59424D01*
Y61024D02*X185245Y61824D01*
X183858Y61024D02*X182472Y61824D01*
X183858Y57874D02*Y56274D01*
Y57874D02*X185245Y58674D01*
X183858Y57874D02*X182472Y58674D01*
X183858Y54724D02*Y53124D01*
Y54724D02*X185245Y55524D01*
X183858Y54724D02*X182472Y55524D01*
X183858Y51575D02*Y49975D01*
Y51575D02*X185245Y52375D01*
X183858Y51575D02*X182472Y52375D01*
X183858Y48425D02*Y46825D01*
Y48425D02*X185245Y49225D01*
X183858Y48425D02*X182472Y49225D01*
X183858Y45276D02*Y43676D01*
Y45276D02*X185245Y46076D01*
X183858Y45276D02*X182472Y46076D01*
X186614Y46850D02*Y45250D01*
Y46850D02*X188001Y47650D01*
X186614Y46850D02*X185228Y47650D01*
X186614Y50000D02*Y48400D01*
Y50000D02*X188001Y50800D01*
X186614Y50000D02*X185228Y50800D01*
X186614Y53150D02*Y51550D01*
Y53150D02*X188001Y53950D01*
X186614Y53150D02*X185228Y53950D01*
X186614Y56299D02*Y54699D01*
Y56299D02*X188001Y57099D01*
X186614Y56299D02*X185228Y57099D01*
X186614Y59449D02*Y57849D01*
Y59449D02*X188001Y60249D01*
X186614Y59449D02*X185228Y60249D01*
X186614Y62598D02*Y60998D01*
Y62598D02*X188001Y63398D01*
X186614Y62598D02*X185228Y63398D01*
X189370Y64173D02*Y62573D01*
Y64173D02*X190757Y64973D01*
X189370Y64173D02*X187983Y64973D01*
X189370Y61024D02*Y59424D01*
Y61024D02*X190757Y61824D01*
X189370Y61024D02*X187983Y61824D01*
X189370Y57874D02*Y56274D01*
Y57874D02*X190757Y58674D01*
X189370Y57874D02*X187983Y58674D01*
X189370Y54724D02*Y53124D01*
Y54724D02*X190757Y55524D01*
X189370Y54724D02*X187983Y55524D01*
X189370Y51575D02*Y49975D01*
Y51575D02*X190757Y52375D01*
X189370Y51575D02*X187983Y52375D01*
X189370Y48425D02*Y46825D01*
Y48425D02*X190757Y49225D01*
X189370Y48425D02*X187983Y49225D01*
X189370Y45276D02*Y43676D01*
Y45276D02*X190757Y46076D01*
X189370Y45276D02*X187983Y46076D01*
X186614Y90945D02*Y89345D01*
Y90945D02*X188001Y91745D01*
X186614Y90945D02*X185228Y91745D01*
X262992Y59843D02*Y58243D01*
Y59843D02*X264379Y60643D01*
X262992Y59843D02*X261605Y60643D01*
X262992Y56693D02*Y55093D01*
Y56693D02*X264379Y57493D01*
X262992Y56693D02*X261605Y57493D01*
X262992Y53543D02*Y51943D01*
Y53543D02*X264379Y54343D01*
X262992Y53543D02*X261605Y54343D01*
X262992Y50394D02*Y48794D01*
Y50394D02*X264379Y51194D01*
X262992Y50394D02*X261605Y51194D01*
X262992Y47244D02*Y45644D01*
Y47244D02*X264379Y48044D01*
X262992Y47244D02*X261605Y48044D01*
X265748Y45669D02*Y44069D01*
Y45669D02*X267135Y46469D01*
X265748Y45669D02*X264361Y46469D01*
X265748Y48819D02*Y47219D01*
Y48819D02*X267135Y49619D01*
X265748Y48819D02*X264361Y49619D01*
X265748Y51969D02*Y50369D01*
Y51969D02*X267135Y52769D01*
X265748Y51969D02*X264361Y52769D01*
X265748Y55118D02*Y53518D01*
Y55118D02*X267135Y55918D01*
X265748Y55118D02*X264361Y55918D01*
X265748Y58268D02*Y56668D01*
Y58268D02*X267135Y59068D01*
X265748Y58268D02*X264361Y59068D01*
X265748Y61417D02*Y59817D01*
Y61417D02*X267135Y62217D01*
X265748Y61417D02*X264361Y62217D01*
X276772Y61417D02*Y59817D01*
Y61417D02*X278158Y62217D01*
X276772Y61417D02*X275385Y62217D01*
X276772Y58268D02*Y56668D01*
Y58268D02*X278158Y59068D01*
X276772Y58268D02*X275385Y59068D01*
X276772Y55118D02*Y53518D01*
Y55118D02*X278158Y55918D01*
X276772Y55118D02*X275385Y55918D01*
X276772Y51969D02*Y50369D01*
Y51969D02*X278158Y52769D01*
X276772Y51969D02*X275385Y52769D01*
X276772Y48819D02*Y47219D01*
Y48819D02*X278158Y49619D01*
X276772Y48819D02*X275385Y49619D01*
X276772Y45669D02*Y44069D01*
Y45669D02*X278158Y46469D01*
X276772Y45669D02*X275385Y46469D01*
X279528Y59843D02*Y58243D01*
Y59843D02*X280914Y60643D01*
X279528Y59843D02*X278141Y60643D01*
X279528Y56693D02*Y55093D01*
Y56693D02*X280914Y57493D01*
X279528Y56693D02*X278141Y57493D01*
X279528Y53543D02*Y51943D01*
Y53543D02*X280914Y54343D01*
X279528Y53543D02*X278141Y54343D01*
X279528Y50394D02*Y48794D01*
Y50394D02*X280914Y51194D01*
X279528Y50394D02*X278141Y51194D01*
X279528Y47244D02*Y45644D01*
Y47244D02*X280914Y48044D01*
X279528Y47244D02*X278141Y48044D01*
X211417Y129528D02*Y127928D01*
Y129528D02*X212804Y130328D01*
X211417Y129528D02*X210031Y130328D01*
X211417Y126378D02*Y124778D01*
Y126378D02*X212804Y127178D01*
X211417Y126378D02*X210031Y127178D01*
X211417Y123228D02*Y121628D01*
Y123228D02*X212804Y124028D01*
X211417Y123228D02*X210031Y124028D01*
X211417Y120079D02*Y118479D01*
Y120079D02*X212804Y120879D01*
X211417Y120079D02*X210031Y120879D01*
X211417Y116929D02*Y115329D01*
Y116929D02*X212804Y117729D01*
X211417Y116929D02*X210031Y117729D01*
X214173Y127953D02*Y126353D01*
Y127953D02*X215560Y128753D01*
X214173Y127953D02*X212787Y128753D01*
X214173Y124803D02*Y123203D01*
Y124803D02*X215560Y125603D01*
X214173Y124803D02*X212787Y125603D01*
X214173Y121654D02*Y120054D01*
Y121654D02*X215560Y122454D01*
X214173Y121654D02*X212787Y122454D01*
X214173Y118504D02*Y116904D01*
Y118504D02*X215560Y119304D01*
X214173Y118504D02*X212787Y119304D01*
X216929Y129528D02*Y127928D01*
Y129528D02*X218316Y130328D01*
X216929Y129528D02*X215542Y130328D01*
X216929Y126378D02*Y124778D01*
Y126378D02*X218316Y127178D01*
X216929Y126378D02*X215542Y127178D01*
X216929Y123228D02*Y121628D01*
Y123228D02*X218316Y124028D01*
X216929Y123228D02*X215542Y124028D01*
X216929Y120079D02*Y118479D01*
Y120079D02*X218316Y120879D01*
X216929Y120079D02*X215542Y120879D01*
X216929Y116929D02*Y115329D01*
Y116929D02*X218316Y117729D01*
X216929Y116929D02*X215542Y117729D01*
X211417Y113780D02*Y112180D01*
Y113780D02*X212804Y114580D01*
X211417Y113780D02*X210031Y114580D01*
X211417Y110630D02*Y109030D01*
Y110630D02*X212804Y111430D01*
X211417Y110630D02*X210031Y111430D01*
X211417Y107480D02*Y105880D01*
Y107480D02*X212804Y108280D01*
X211417Y107480D02*X210031Y108280D01*
X219685Y115354D02*Y113754D01*
Y115354D02*X221072Y116154D01*
X219685Y115354D02*X218298Y116154D01*
X219685Y118504D02*Y116904D01*
Y118504D02*X221072Y119304D01*
X219685Y118504D02*X218298Y119304D01*
X216929Y113780D02*Y112180D01*
Y113780D02*X218316Y114580D01*
X216929Y113780D02*X215542Y114580D01*
X216929Y110630D02*Y109030D01*
Y110630D02*X218316Y111430D01*
X216929Y110630D02*X215542Y111430D01*
X216929Y107480D02*Y105880D01*
Y107480D02*X218316Y108280D01*
X216929Y107480D02*X215542Y108280D01*
X219685Y121654D02*Y120054D01*
Y121654D02*X221072Y122454D01*
X219685Y121654D02*X218298Y122454D01*
X219685Y127953D02*Y126353D01*
Y127953D02*X221072Y128753D01*
X219685Y127953D02*X218298Y128753D01*
X214173Y112205D02*Y110605D01*
Y112205D02*X215560Y113005D01*
X214173Y112205D02*X212787Y113005D01*
X214173Y109055D02*Y107455D01*
Y109055D02*X215560Y109855D01*
X214173Y109055D02*X212787Y109855D01*
X219685Y112205D02*Y110605D01*
Y112205D02*X221072Y113005D01*
X219685Y112205D02*X218298Y113005D01*
X219685Y124803D02*Y123203D01*
Y124803D02*X221072Y125603D01*
X219685Y124803D02*X218298Y125603D01*
X200394Y115354D02*Y113754D01*
Y115354D02*X201780Y116154D01*
X200394Y115354D02*X199007Y116154D01*
X214173Y115354D02*Y113754D01*
Y115354D02*X215560Y116154D01*
X214173Y115354D02*X212787Y116154D01*
X169685Y129528D02*Y127928D01*
Y129528D02*X171072Y130328D01*
X169685Y129528D02*X168298Y130328D01*
X169685Y126378D02*Y124778D01*
Y126378D02*X171072Y127178D01*
X169685Y126378D02*X168298Y127178D01*
X169685Y123228D02*Y121628D01*
Y123228D02*X171072Y124028D01*
X169685Y123228D02*X168298Y124028D01*
X169685Y120079D02*Y118479D01*
Y120079D02*X171072Y120879D01*
X169685Y120079D02*X168298Y120879D01*
X169685Y116929D02*Y115329D01*
Y116929D02*X171072Y117729D01*
X169685Y116929D02*X168298Y117729D01*
X172441Y127953D02*Y126353D01*
Y127953D02*X173828Y128753D01*
X172441Y127953D02*X171054Y128753D01*
X172441Y124803D02*Y123203D01*
Y124803D02*X173828Y125603D01*
X172441Y124803D02*X171054Y125603D01*
X172441Y121654D02*Y120054D01*
Y121654D02*X173828Y122454D01*
X172441Y121654D02*X171054Y122454D01*
X172441Y118504D02*Y116904D01*
Y118504D02*X173828Y119304D01*
X172441Y118504D02*X171054Y119304D01*
X175197Y129528D02*Y127928D01*
Y129528D02*X176584Y130328D01*
X175197Y129528D02*X173810Y130328D01*
X175197Y126378D02*Y124778D01*
Y126378D02*X176584Y127178D01*
X175197Y126378D02*X173810Y127178D01*
X175197Y123228D02*Y121628D01*
Y123228D02*X176584Y124028D01*
X175197Y123228D02*X173810Y124028D01*
X175197Y120079D02*Y118479D01*
Y120079D02*X176584Y120879D01*
X175197Y120079D02*X173810Y120879D01*
X175197Y116929D02*Y115329D01*
Y116929D02*X176584Y117729D01*
X175197Y116929D02*X173810Y117729D01*
X169685Y113780D02*Y112180D01*
Y113780D02*X171072Y114580D01*
X169685Y113780D02*X168298Y114580D01*
X169685Y110630D02*Y109030D01*
Y110630D02*X171072Y111430D01*
X169685Y110630D02*X168298Y111430D01*
X166929Y118504D02*Y116904D01*
Y118504D02*X168316Y119304D01*
X166929Y118504D02*X165542Y119304D01*
X166929Y121654D02*Y120054D01*
Y121654D02*X168316Y122454D01*
X166929Y121654D02*X165542Y122454D01*
X166929Y127953D02*Y126353D01*
Y127953D02*X168316Y128753D01*
X166929Y127953D02*X165542Y128753D01*
X175197Y113780D02*Y112180D01*
Y113780D02*X176584Y114580D01*
X175197Y113780D02*X173810Y114580D01*
X175197Y110630D02*Y109030D01*
Y110630D02*X176584Y111430D01*
X175197Y110630D02*X173810Y111430D01*
X175197Y107480D02*Y105880D01*
Y107480D02*X176584Y108280D01*
X175197Y107480D02*X173810Y108280D01*
X166929Y109055D02*Y107455D01*
Y109055D02*X168316Y109855D01*
X166929Y109055D02*X165542Y109855D01*
X166929Y112205D02*Y110605D01*
Y112205D02*X168316Y113005D01*
X166929Y112205D02*X165542Y113005D01*
X172441Y112205D02*Y110605D01*
Y112205D02*X173828Y113005D01*
X172441Y112205D02*X171054Y113005D01*
X172441Y109055D02*Y107455D01*
Y109055D02*X173828Y109855D01*
X172441Y109055D02*X171054Y109855D01*
X166929Y115354D02*Y113754D01*
Y115354D02*X168316Y116154D01*
X166929Y115354D02*X165542Y116154D01*
X166929Y124803D02*Y123203D01*
Y124803D02*X168316Y125603D01*
X166929Y124803D02*X165542Y125603D01*
X172441Y115354D02*Y113754D01*
Y115354D02*X173828Y116154D01*
X172441Y115354D02*X171054Y116154D01*
X186220Y115354D02*Y113754D01*
Y115354D02*X187607Y116154D01*
X186220Y115354D02*X184834Y116154D01*
X276772Y92520D02*Y90920D01*
Y92520D02*X278158Y93320D01*
X276772Y92520D02*X275385Y93320D01*
X276772Y89370D02*Y87770D01*
Y89370D02*X278158Y90170D01*
X276772Y89370D02*X275385Y90170D01*
X276772Y86220D02*Y84620D01*
Y86220D02*X278158Y87020D01*
X276772Y86220D02*X275385Y87020D01*
X276772Y83071D02*Y81471D01*
Y83071D02*X278158Y83871D01*
X276772Y83071D02*X275385Y83871D01*
X276772Y79921D02*Y78321D01*
Y79921D02*X278158Y80721D01*
X276772Y79921D02*X275385Y80721D01*
X276772Y76772D02*Y75172D01*
Y76772D02*X278158Y77572D01*
X276772Y76772D02*X275385Y77572D01*
X279528Y78346D02*Y76746D01*
Y78346D02*X280914Y79146D01*
X279528Y78346D02*X278141Y79146D01*
X279528Y81496D02*Y79896D01*
Y81496D02*X280914Y82296D01*
X279528Y81496D02*X278141Y82296D01*
X279528Y84646D02*Y83046D01*
Y84646D02*X280914Y85446D01*
X279528Y84646D02*X278141Y85446D01*
X279528Y87795D02*Y86195D01*
Y87795D02*X280914Y88595D01*
X279528Y87795D02*X278141Y88595D01*
X279528Y90945D02*Y89345D01*
Y90945D02*X280914Y91745D01*
X279528Y90945D02*X278141Y91745D01*
X265748Y92520D02*Y90920D01*
Y92520D02*X267135Y93320D01*
X265748Y92520D02*X264361Y93320D01*
X265748Y89370D02*Y87770D01*
Y89370D02*X267135Y90170D01*
X265748Y89370D02*X264361Y90170D01*
X265748Y86220D02*Y84620D01*
Y86220D02*X267135Y87020D01*
X265748Y86220D02*X264361Y87020D01*
X265748Y83071D02*Y81471D01*
Y83071D02*X267135Y83871D01*
X265748Y83071D02*X264361Y83871D01*
X265748Y79921D02*Y78321D01*
Y79921D02*X267135Y80721D01*
X265748Y79921D02*X264361Y80721D01*
X265748Y76772D02*Y75172D01*
Y76772D02*X267135Y77572D01*
X265748Y76772D02*X264361Y77572D01*
X262992Y78346D02*Y76746D01*
Y78346D02*X264379Y79146D01*
X262992Y78346D02*X261605Y79146D01*
X262992Y81496D02*Y79896D01*
Y81496D02*X264379Y82296D01*
X262992Y81496D02*X261605Y82296D01*
X262992Y84646D02*Y83046D01*
Y84646D02*X264379Y85446D01*
X262992Y84646D02*X261605Y85446D01*
X262992Y87795D02*Y86195D01*
Y87795D02*X264379Y88595D01*
X262992Y87795D02*X261605Y88595D01*
X262992Y90945D02*Y89345D01*
Y90945D02*X264379Y91745D01*
X262992Y90945D02*X261605Y91745D01*
X210630Y146850D02*Y145250D01*
Y146850D02*X212017Y147650D01*
X210630Y146850D02*X209243Y147650D01*
X207480Y146850D02*Y145250D01*
Y146850D02*X208867Y147650D01*
X207480Y146850D02*X206094Y147650D01*
X213780Y146850D02*Y145250D01*
Y146850D02*X215166Y147650D01*
X213780Y146850D02*X212393Y147650D01*
X204331Y146850D02*Y145250D01*
Y146850D02*X205717Y147650D01*
X204331Y146850D02*X202944Y147650D01*
X216929Y146850D02*Y145250D01*
Y146850D02*X218316Y147650D01*
X216929Y146850D02*X215542Y147650D01*
X201181Y146850D02*Y145250D01*
Y146850D02*X202568Y147650D01*
X201181Y146850D02*X199794Y147650D01*
X220079Y146850D02*Y145250D01*
Y146850D02*X221465Y147650D01*
X220079Y146850D02*X218692Y147650D01*
X202756Y144094D02*Y142494D01*
Y144094D02*X204143Y144894D01*
X202756Y144094D02*X201369Y144894D01*
X205906Y144094D02*Y142494D01*
Y144094D02*X207292Y144894D01*
X205906Y144094D02*X204519Y144894D01*
X209055Y144094D02*Y142494D01*
Y144094D02*X210442Y144894D01*
X209055Y144094D02*X207668Y144894D01*
X212205Y144094D02*Y142494D01*
Y144094D02*X213591Y144894D01*
X212205Y144094D02*X210818Y144894D01*
X215354Y144094D02*Y142494D01*
Y144094D02*X216741Y144894D01*
X215354Y144094D02*X213968Y144894D01*
X218504Y144094D02*Y142494D01*
Y144094D02*X219891Y144894D01*
X218504Y144094D02*X217117Y144894D01*
X124016Y146850D02*Y145250D01*
Y146850D02*X125402Y147650D01*
X124016Y146850D02*X122629Y147650D01*
X120866Y146850D02*Y145250D01*
Y146850D02*X122253Y147650D01*
X120866Y146850D02*X119479Y147650D01*
X127165Y146850D02*Y145250D01*
Y146850D02*X128552Y147650D01*
X127165Y146850D02*X125779Y147650D01*
X117717Y146850D02*Y145250D01*
Y146850D02*X119103Y147650D01*
X117717Y146850D02*X116330Y147650D01*
X130315Y146850D02*Y145250D01*
Y146850D02*X131702Y147650D01*
X130315Y146850D02*X128928Y147650D01*
X114567Y146850D02*Y145250D01*
Y146850D02*X115954Y147650D01*
X114567Y146850D02*X113180Y147650D01*
X133465Y146850D02*Y145250D01*
Y146850D02*X134851Y147650D01*
X133465Y146850D02*X132078Y147650D01*
X116142Y144094D02*Y142494D01*
Y144094D02*X117528Y144894D01*
X116142Y144094D02*X114755Y144894D01*
X119291Y144094D02*Y142494D01*
Y144094D02*X120678Y144894D01*
X119291Y144094D02*X117905Y144894D01*
X122441Y144094D02*Y142494D01*
Y144094D02*X123828Y144894D01*
X122441Y144094D02*X121054Y144894D01*
X125591Y144094D02*Y142494D01*
Y144094D02*X126977Y144894D01*
X125591Y144094D02*X124204Y144894D01*
X128740Y144094D02*Y142494D01*
Y144094D02*X130127Y144894D01*
X128740Y144094D02*X127353Y144894D01*
X131890Y144094D02*Y142494D01*
Y144094D02*X133276Y144894D01*
X131890Y144094D02*X130503Y144894D01*
X124016Y201969D02*Y200369D01*
Y201969D02*X125402Y202769D01*
X124016Y201969D02*X122629Y202769D01*
X120866Y201969D02*Y200369D01*
Y201969D02*X122253Y202769D01*
X120866Y201969D02*X119479Y202769D01*
X127165Y201969D02*Y200369D01*
Y201969D02*X128552Y202769D01*
X127165Y201969D02*X125779Y202769D01*
X117717Y201969D02*Y200369D01*
Y201969D02*X119103Y202769D01*
X117717Y201969D02*X116330Y202769D01*
X130315Y201969D02*Y200369D01*
Y201969D02*X131702Y202769D01*
X130315Y201969D02*X128928Y202769D01*
X114567Y201969D02*Y200369D01*
Y201969D02*X115954Y202769D01*
X114567Y201969D02*X113180Y202769D01*
X133465Y201969D02*Y200369D01*
Y201969D02*X134851Y202769D01*
X133465Y201969D02*X132078Y202769D01*
X116142Y199213D02*Y197613D01*
Y199213D02*X117528Y200013D01*
X116142Y199213D02*X114755Y200013D01*
X119291Y199213D02*Y197613D01*
Y199213D02*X120678Y200013D01*
X119291Y199213D02*X117905Y200013D01*
X122441Y199213D02*Y197613D01*
Y199213D02*X123828Y200013D01*
X122441Y199213D02*X121054Y200013D01*
X125591Y199213D02*Y197613D01*
Y199213D02*X126977Y200013D01*
X125591Y199213D02*X124204Y200013D01*
X128740Y199213D02*Y197613D01*
Y199213D02*X130127Y200013D01*
X128740Y199213D02*X127353Y200013D01*
X131890Y199213D02*Y197613D01*
Y199213D02*X133276Y200013D01*
X131890Y199213D02*X130503Y200013D01*
X210630Y201969D02*Y200369D01*
Y201969D02*X212017Y202769D01*
X210630Y201969D02*X209243Y202769D01*
X207480Y201969D02*Y200369D01*
Y201969D02*X208867Y202769D01*
X207480Y201969D02*X206094Y202769D01*
X213780Y201969D02*Y200369D01*
Y201969D02*X215166Y202769D01*
X213780Y201969D02*X212393Y202769D01*
X204331Y201969D02*Y200369D01*
Y201969D02*X205717Y202769D01*
X204331Y201969D02*X202944Y202769D01*
X216929Y201969D02*Y200369D01*
Y201969D02*X218316Y202769D01*
X216929Y201969D02*X215542Y202769D01*
X201181Y201969D02*Y200369D01*
Y201969D02*X202568Y202769D01*
X201181Y201969D02*X199794Y202769D01*
X220079Y201969D02*Y200369D01*
Y201969D02*X221465Y202769D01*
X220079Y201969D02*X218692Y202769D01*
X202756Y199213D02*Y197613D01*
Y199213D02*X204143Y200013D01*
X202756Y199213D02*X201369Y200013D01*
X205906Y199213D02*Y197613D01*
Y199213D02*X207292Y200013D01*
X205906Y199213D02*X204519Y200013D01*
X209055Y199213D02*Y197613D01*
Y199213D02*X210442Y200013D01*
X209055Y199213D02*X207668Y200013D01*
X212205Y199213D02*Y197613D01*
Y199213D02*X213591Y200013D01*
X212205Y199213D02*X210818Y200013D01*
X215354Y199213D02*Y197613D01*
Y199213D02*X216741Y200013D01*
X215354Y199213D02*X213968Y200013D01*
X218504Y199213D02*Y197613D01*
Y199213D02*X219891Y200013D01*
X218504Y199213D02*X217117Y200013D01*
X210630Y179921D02*Y178321D01*
Y179921D02*X212017Y180721D01*
X210630Y179921D02*X209243Y180721D01*
X207480Y179921D02*Y178321D01*
Y179921D02*X208867Y180721D01*
X207480Y179921D02*X206094Y180721D01*
X213780Y179921D02*Y178321D01*
Y179921D02*X215166Y180721D01*
X213780Y179921D02*X212393Y180721D01*
X204331Y179921D02*Y178321D01*
Y179921D02*X205717Y180721D01*
X204331Y179921D02*X202944Y180721D01*
X216929Y179921D02*Y178321D01*
Y179921D02*X218316Y180721D01*
X216929Y179921D02*X215542Y180721D01*
X201181Y179921D02*Y178321D01*
Y179921D02*X202568Y180721D01*
X201181Y179921D02*X199794Y180721D01*
X220079Y179921D02*Y178321D01*
Y179921D02*X221465Y180721D01*
X220079Y179921D02*X218692Y180721D01*
X202756Y182677D02*Y181077D01*
Y182677D02*X204143Y183477D01*
X202756Y182677D02*X201369Y183477D01*
X205906Y182677D02*Y181077D01*
Y182677D02*X207292Y183477D01*
X205906Y182677D02*X204519Y183477D01*
X209055Y182677D02*Y181077D01*
Y182677D02*X210442Y183477D01*
X209055Y182677D02*X207668Y183477D01*
X212205Y182677D02*Y181077D01*
Y182677D02*X213591Y183477D01*
X212205Y182677D02*X210818Y183477D01*
X215354Y182677D02*Y181077D01*
Y182677D02*X216741Y183477D01*
X215354Y182677D02*X213968Y183477D01*
X218504Y182677D02*Y181077D01*
Y182677D02*X219891Y183477D01*
X218504Y182677D02*X217117Y183477D01*
X124016Y179921D02*Y178321D01*
Y179921D02*X125402Y180721D01*
X124016Y179921D02*X122629Y180721D01*
X120866Y179921D02*Y178321D01*
Y179921D02*X122253Y180721D01*
X120866Y179921D02*X119479Y180721D01*
X127165Y179921D02*Y178321D01*
Y179921D02*X128552Y180721D01*
X127165Y179921D02*X125779Y180721D01*
X117717Y179921D02*Y178321D01*
Y179921D02*X119103Y180721D01*
X117717Y179921D02*X116330Y180721D01*
X130315Y179921D02*Y178321D01*
Y179921D02*X131702Y180721D01*
X130315Y179921D02*X128928Y180721D01*
X114567Y179921D02*Y178321D01*
Y179921D02*X115954Y180721D01*
X114567Y179921D02*X113180Y180721D01*
X133465Y179921D02*Y178321D01*
Y179921D02*X134851Y180721D01*
X133465Y179921D02*X132078Y180721D01*
X116142Y182677D02*Y181077D01*
Y182677D02*X117528Y183477D01*
X116142Y182677D02*X114755Y183477D01*
X119291Y182677D02*Y181077D01*
Y182677D02*X120678Y183477D01*
X119291Y182677D02*X117905Y183477D01*
X122441Y182677D02*Y181077D01*
Y182677D02*X123828Y183477D01*
X122441Y182677D02*X121054Y183477D01*
X125591Y182677D02*Y181077D01*
Y182677D02*X126977Y183477D01*
X125591Y182677D02*X124204Y183477D01*
X128740Y182677D02*Y181077D01*
Y182677D02*X130127Y183477D01*
X128740Y182677D02*X127353Y183477D01*
X131890Y182677D02*Y181077D01*
Y182677D02*X133276Y183477D01*
X131890Y182677D02*X130503Y183477D01*
X124016Y235039D02*Y233439D01*
Y235039D02*X125402Y235839D01*
X124016Y235039D02*X122629Y235839D01*
X120866Y235039D02*Y233439D01*
Y235039D02*X122253Y235839D01*
X120866Y235039D02*X119479Y235839D01*
X127165Y235039D02*Y233439D01*
Y235039D02*X128552Y235839D01*
X127165Y235039D02*X125779Y235839D01*
X117717Y235039D02*Y233439D01*
Y235039D02*X119103Y235839D01*
X117717Y235039D02*X116330Y235839D01*
X130315Y235039D02*Y233439D01*
Y235039D02*X131702Y235839D01*
X130315Y235039D02*X128928Y235839D01*
X114567Y235039D02*Y233439D01*
Y235039D02*X115954Y235839D01*
X114567Y235039D02*X113180Y235839D01*
X133465Y235039D02*Y233439D01*
Y235039D02*X134851Y235839D01*
X133465Y235039D02*X132078Y235839D01*
X116142Y237795D02*Y236195D01*
Y237795D02*X117528Y238595D01*
X116142Y237795D02*X114755Y238595D01*
X119291Y237795D02*Y236195D01*
Y237795D02*X120678Y238595D01*
X119291Y237795D02*X117905Y238595D01*
X122441Y237795D02*Y236195D01*
Y237795D02*X123828Y238595D01*
X122441Y237795D02*X121054Y238595D01*
X125591Y237795D02*Y236195D01*
Y237795D02*X126977Y238595D01*
X125591Y237795D02*X124204Y238595D01*
X128740Y237795D02*Y236195D01*
Y237795D02*X130127Y238595D01*
X128740Y237795D02*X127353Y238595D01*
X131890Y237795D02*Y236195D01*
Y237795D02*X133276Y238595D01*
X131890Y237795D02*X130503Y238595D01*
X210630Y235039D02*Y233439D01*
Y235039D02*X212017Y235839D01*
X210630Y235039D02*X209243Y235839D01*
X207480Y235039D02*Y233439D01*
Y235039D02*X208867Y235839D01*
X207480Y235039D02*X206094Y235839D01*
X213780Y235039D02*Y233439D01*
Y235039D02*X215166Y235839D01*
X213780Y235039D02*X212393Y235839D01*
X204331Y235039D02*Y233439D01*
Y235039D02*X205717Y235839D01*
X204331Y235039D02*X202944Y235839D01*
X216929Y235039D02*Y233439D01*
Y235039D02*X218316Y235839D01*
X216929Y235039D02*X215542Y235839D01*
X201181Y235039D02*Y233439D01*
Y235039D02*X202568Y235839D01*
X201181Y235039D02*X199794Y235839D01*
X220079Y235039D02*Y233439D01*
Y235039D02*X221465Y235839D01*
X220079Y235039D02*X218692Y235839D01*
X202756Y237795D02*Y236195D01*
Y237795D02*X204143Y238595D01*
X202756Y237795D02*X201369Y238595D01*
X205906Y237795D02*Y236195D01*
Y237795D02*X207292Y238595D01*
X205906Y237795D02*X204519Y238595D01*
X209055Y237795D02*Y236195D01*
Y237795D02*X210442Y238595D01*
X209055Y237795D02*X207668Y238595D01*
X212205Y237795D02*Y236195D01*
Y237795D02*X213591Y238595D01*
X212205Y237795D02*X210818Y238595D01*
X215354Y237795D02*Y236195D01*
Y237795D02*X216741Y238595D01*
X215354Y237795D02*X213968Y238595D01*
X218504Y237795D02*Y236195D01*
Y237795D02*X219891Y238595D01*
X218504Y237795D02*X217117Y238595D01*
X169685Y107480D02*Y105880D01*
Y107480D02*X171072Y108280D01*
X169685Y107480D02*X168298Y108280D01*
X219685Y109055D02*Y107455D01*
Y109055D02*X221072Y109855D01*
X219685Y109055D02*X218298Y109855D01*
X115748Y140157D02*Y138557D01*
Y140157D02*X117135Y140957D01*
X115748Y140157D02*X114361Y140957D01*
X115748Y137008D02*Y135408D01*
Y137008D02*X117135Y137808D01*
X115748Y137008D02*X114361Y137808D01*
X115748Y133858D02*Y132258D01*
Y133858D02*X117135Y134658D01*
X115748Y133858D02*X114361Y134658D01*
X112992Y138583D02*Y136983D01*
Y138583D02*X114379Y139383D01*
X112992Y138583D02*X111605Y139383D01*
X112992Y135433D02*Y133833D01*
Y135433D02*X114379Y136233D01*
X112992Y135433D02*X111605Y136233D01*
X100394Y194882D02*Y193282D01*
Y194882D02*X101780Y195682D01*
X100394Y194882D02*X99007Y195682D01*
X100394Y191732D02*Y190132D01*
Y191732D02*X101780Y192532D01*
X100394Y191732D02*X99007Y192532D01*
X100394Y188583D02*Y186983D01*
Y188583D02*X101780Y189383D01*
X100394Y188583D02*X99007Y189383D01*
X97638Y193307D02*Y191707D01*
Y193307D02*X99024Y194107D01*
X97638Y193307D02*X96251Y194107D01*
X97638Y190157D02*Y188557D01*
Y190157D02*X99024Y190957D01*
X97638Y190157D02*X96251Y190957D01*
X229921Y140157D02*Y138557D01*
Y140157D02*X231308Y140957D01*
X229921Y140157D02*X228535Y140957D01*
X229921Y137008D02*Y135408D01*
Y137008D02*X231308Y137808D01*
X229921Y137008D02*X228535Y137808D01*
X229921Y133858D02*Y132258D01*
Y133858D02*X231308Y134658D01*
X229921Y133858D02*X228535Y134658D01*
X232677Y138583D02*Y136983D01*
Y138583D02*X234064Y139383D01*
X232677Y138583D02*X231291Y139383D01*
X232677Y135433D02*Y133833D01*
Y135433D02*X234064Y136233D01*
X232677Y135433D02*X231291Y136233D01*
X229528Y194882D02*Y193282D01*
Y194882D02*X230914Y195682D01*
X229528Y194882D02*X228141Y195682D01*
X229528Y191732D02*Y190132D01*
Y191732D02*X230914Y192532D01*
X229528Y191732D02*X228141Y192532D01*
X229528Y188583D02*Y186983D01*
Y188583D02*X230914Y189383D01*
X229528Y188583D02*X228141Y189383D01*
X232283Y193307D02*Y191707D01*
Y193307D02*X233670Y194107D01*
X232283Y193307D02*X230897Y194107D01*
X232283Y190157D02*Y188557D01*
Y190157D02*X233670Y190957D01*
X232283Y190157D02*X230897Y190957D01*
X151181Y103150D02*Y101550D01*
Y103150D02*X152568Y103950D01*
X151181Y103150D02*X149794Y103950D01*
X151181Y106299D02*Y104699D01*
Y106299D02*X152568Y107099D01*
X151181Y106299D02*X149794Y107099D01*
X153937Y101575D02*Y99975D01*
Y101575D02*X155324Y102375D01*
X153937Y101575D02*X152550Y102375D01*
X153937Y104724D02*Y103124D01*
Y104724D02*X155324Y105524D01*
X153937Y104724D02*X152550Y105524D01*
X140157Y103150D02*Y101550D01*
Y103150D02*X141544Y103950D01*
X140157Y103150D02*X138771Y103950D01*
X140157Y106299D02*Y104699D01*
Y106299D02*X141544Y107099D01*
X140157Y106299D02*X138771Y107099D01*
X137402Y104724D02*Y103124D01*
Y104724D02*X138788Y105524D01*
X137402Y104724D02*X136015Y105524D01*
X137402Y101575D02*Y99975D01*
Y101575D02*X138788Y102375D01*
X137402Y101575D02*X136015Y102375D01*
X147638Y149213D02*Y147613D01*
Y149213D02*X149024Y150013D01*
X147638Y149213D02*X146251Y150013D01*
X187008Y177559D02*Y175959D01*
Y177559D02*X188395Y178359D01*
X187008Y177559D02*X185621Y178359D01*
X147638Y204331D02*Y202731D01*
Y204331D02*X149024Y205131D01*
X147638Y204331D02*X146251Y205131D01*
X235039Y180709D02*Y179109D01*
Y180709D02*X236426Y181509D01*
X235039Y180709D02*X233653Y181509D01*
X235039Y177559D02*Y175959D01*
Y177559D02*X236426Y178359D01*
X235039Y177559D02*X233653Y178359D01*
X235039Y174409D02*Y172809D01*
Y174409D02*X236426Y175209D01*
X235039Y174409D02*X233653Y175209D01*
X235039Y171260D02*Y169660D01*
Y171260D02*X236426Y172060D01*
X235039Y171260D02*X233653Y172060D01*
X235039Y168110D02*Y166510D01*
Y168110D02*X236426Y168910D01*
X235039Y168110D02*X233653Y168910D01*
X235039Y164961D02*Y163361D01*
Y164961D02*X236426Y165761D01*
X235039Y164961D02*X233653Y165761D01*
X235039Y161811D02*Y160211D01*
Y161811D02*X236426Y162611D01*
X235039Y161811D02*X233653Y162611D01*
X235039Y158661D02*Y157061D01*
Y158661D02*X236426Y159461D01*
X235039Y158661D02*X233653Y159461D01*
X235039Y155512D02*Y153912D01*
Y155512D02*X236426Y156312D01*
X235039Y155512D02*X233653Y156312D01*
X235039Y152362D02*Y150762D01*
Y152362D02*X236426Y153162D01*
X235039Y152362D02*X233653Y153162D01*
X235039Y149213D02*Y147613D01*
Y149213D02*X236426Y150013D01*
X235039Y149213D02*X233653Y150013D01*
X235039Y146063D02*Y144463D01*
Y146063D02*X236426Y146863D01*
X235039Y146063D02*X233653Y146863D01*
X237795Y179134D02*Y177534D01*
Y179134D02*X239182Y179934D01*
X237795Y179134D02*X236409Y179934D01*
X237795Y175984D02*Y174384D01*
Y175984D02*X239182Y176784D01*
X237795Y175984D02*X236409Y176784D01*
X237795Y172835D02*Y171235D01*
Y172835D02*X239182Y173635D01*
X237795Y172835D02*X236409Y173635D01*
X237795Y169685D02*Y168085D01*
Y169685D02*X239182Y170485D01*
X237795Y169685D02*X236409Y170485D01*
X237795Y166535D02*Y164935D01*
Y166535D02*X239182Y167335D01*
X237795Y166535D02*X236409Y167335D01*
X237795Y163386D02*Y161786D01*
Y163386D02*X239182Y164186D01*
X237795Y163386D02*X236409Y164186D01*
X237795Y160236D02*Y158636D01*
Y160236D02*X239182Y161036D01*
X237795Y160236D02*X236409Y161036D01*
X237795Y157087D02*Y155487D01*
Y157087D02*X239182Y157887D01*
X237795Y157087D02*X236409Y157887D01*
X237795Y153937D02*Y152337D01*
Y153937D02*X239182Y154737D01*
X237795Y153937D02*X236409Y154737D01*
X237795Y150787D02*Y149187D01*
Y150787D02*X239182Y151587D01*
X237795Y150787D02*X236409Y151587D01*
X237795Y147638D02*Y146038D01*
Y147638D02*X239182Y148438D01*
X237795Y147638D02*X236409Y148438D01*
X260630Y135039D02*Y133439D01*
Y135039D02*X262017Y135839D01*
X260630Y135039D02*X259243Y135839D01*
X260630Y137402D02*Y135802D01*
Y137402D02*X262017Y138202D01*
X260630Y137402D02*X259243Y138202D01*
X256693Y122047D02*Y120447D01*
Y122047D02*X258080Y122847D01*
X256693Y122047D02*X255306Y122847D01*
X271260Y100000D02*Y98400D01*
Y100000D02*X272647Y100800D01*
X271260Y100000D02*X269873Y100800D01*
X284252Y94094D02*Y92494D01*
Y94094D02*X285639Y94894D01*
X284252Y94094D02*X282865Y94894D01*
X235039Y201181D02*Y199581D01*
Y201181D02*X236426Y201981D01*
X235039Y201181D02*X233653Y201981D01*
X235039Y204331D02*Y202731D01*
Y204331D02*X236426Y205131D01*
X235039Y204331D02*X233653Y205131D01*
X235039Y207480D02*Y205880D01*
Y207480D02*X236426Y208280D01*
X235039Y207480D02*X233653Y208280D01*
X235039Y210630D02*Y209030D01*
Y210630D02*X236426Y211430D01*
X235039Y210630D02*X233653Y211430D01*
X235039Y213780D02*Y212180D01*
Y213780D02*X236426Y214580D01*
X235039Y213780D02*X233653Y214580D01*
X237795Y202756D02*Y201156D01*
Y202756D02*X239182Y203556D01*
X237795Y202756D02*X236409Y203556D01*
X237795Y205906D02*Y204306D01*
Y205906D02*X239182Y206706D01*
X237795Y205906D02*X236409Y206706D01*
X237795Y209055D02*Y207455D01*
Y209055D02*X239182Y209855D01*
X237795Y209055D02*X236409Y209855D01*
X237795Y212205D02*Y210605D01*
Y212205D02*X239182Y213005D01*
X237795Y212205D02*X236409Y213005D01*
X237795Y215354D02*Y213754D01*
Y215354D02*X239182Y216154D01*
X237795Y215354D02*X236409Y216154D01*
X260630Y205906D02*Y204306D01*
Y205906D02*X262017Y206706D01*
X260630Y205906D02*X259243Y206706D01*
X260630Y208268D02*Y206668D01*
Y208268D02*X262017Y209068D01*
X260630Y208268D02*X259243Y209068D01*
X256693Y192913D02*Y191313D01*
Y192913D02*X258080Y193713D01*
X256693Y192913D02*X255306Y193713D01*
X268110Y100000D02*Y98400D01*
Y100000D02*X269497Y100800D01*
X268110Y100000D02*X266724Y100800D01*
X269685Y102756D02*Y101156D01*
Y102756D02*X271072Y103556D01*
X269685Y102756D02*X268298Y103556D01*
X264961Y166142D02*Y164542D01*
Y166142D02*X266347Y166942D01*
X264961Y166142D02*X263574Y166942D01*
X264961Y169291D02*Y167691D01*
Y169291D02*X266347Y170091D01*
X264961Y169291D02*X263574Y170091D01*
X262205Y167717D02*Y166117D01*
Y167717D02*X263591Y168517D01*
X262205Y167717D02*X260818Y168517D01*
X278740Y170472D02*Y168872D01*
Y170472D02*X280127Y171272D01*
X278740Y170472D02*X277353Y171272D01*
X235039Y223228D02*Y221628D01*
Y223228D02*X236426Y224028D01*
X235039Y223228D02*X233653Y224028D01*
X235039Y226378D02*Y224778D01*
Y226378D02*X236426Y227178D01*
X235039Y226378D02*X233653Y227178D01*
X235039Y229528D02*Y227928D01*
Y229528D02*X236426Y230328D01*
X235039Y229528D02*X233653Y230328D01*
X235039Y232677D02*Y231077D01*
Y232677D02*X236426Y233477D01*
X235039Y232677D02*X233653Y233477D01*
X235039Y235827D02*Y234227D01*
Y235827D02*X236426Y236627D01*
X235039Y235827D02*X233653Y236627D01*
X237795Y234252D02*Y232652D01*
Y234252D02*X239182Y235052D01*
X237795Y234252D02*X236409Y235052D01*
X237795Y231102D02*Y229502D01*
Y231102D02*X239182Y231902D01*
X237795Y231102D02*X236409Y231902D01*
X237795Y227953D02*Y226353D01*
Y227953D02*X239182Y228753D01*
X237795Y227953D02*X236409Y228753D01*
X237795Y224803D02*Y223203D01*
Y224803D02*X239182Y225603D01*
X237795Y224803D02*X236409Y225603D01*
X237795Y221654D02*Y220054D01*
Y221654D02*X239182Y222454D01*
X237795Y221654D02*X236409Y222454D01*
X265354Y232283D02*Y230683D01*
Y232283D02*X266741Y233083D01*
X265354Y232283D02*X263968Y233083D01*
X265354Y235433D02*Y233833D01*
Y235433D02*X266741Y236233D01*
X265354Y235433D02*X263968Y236233D01*
X262598Y233858D02*Y232258D01*
Y233858D02*X263985Y234658D01*
X262598Y233858D02*X261212Y234658D01*
X278740Y241339D02*Y239739D01*
Y241339D02*X280127Y242139D01*
X278740Y241339D02*X277353Y242139D01*
X256693Y263780D02*Y262180D01*
Y263780D02*X258080Y264580D01*
X256693Y263780D02*X255306Y264580D01*
X260630Y276772D02*Y275172D01*
Y276772D02*X262017Y277572D01*
X260630Y276772D02*X259243Y277572D01*
X260630Y279134D02*Y277534D01*
Y279134D02*X262017Y279934D01*
X260630Y279134D02*X259243Y279934D01*
X73228Y124803D02*Y123203D01*
Y124803D02*X74615Y125603D01*
X73228Y124803D02*X71842Y125603D01*
X73228Y122441D02*Y120841D01*
Y122441D02*X74615Y123241D01*
X73228Y122441D02*X71842Y123241D01*
X99606Y180709D02*Y179109D01*
Y180709D02*X100993Y181509D01*
X99606Y180709D02*X98220Y181509D01*
X99606Y177559D02*Y175959D01*
Y177559D02*X100993Y178359D01*
X99606Y177559D02*X98220Y178359D01*
X99606Y174409D02*Y172809D01*
Y174409D02*X100993Y175209D01*
X99606Y174409D02*X98220Y175209D01*
X99606Y171260D02*Y169660D01*
Y171260D02*X100993Y172060D01*
X99606Y171260D02*X98220Y172060D01*
X99606Y168110D02*Y166510D01*
Y168110D02*X100993Y168910D01*
X99606Y168110D02*X98220Y168910D01*
X99606Y164961D02*Y163361D01*
Y164961D02*X100993Y165761D01*
X99606Y164961D02*X98220Y165761D01*
X99606Y161811D02*Y160211D01*
Y161811D02*X100993Y162611D01*
X99606Y161811D02*X98220Y162611D01*
X99606Y158661D02*Y157061D01*
Y158661D02*X100993Y159461D01*
X99606Y158661D02*X98220Y159461D01*
X99606Y155512D02*Y153912D01*
Y155512D02*X100993Y156312D01*
X99606Y155512D02*X98220Y156312D01*
X99606Y152362D02*Y150762D01*
Y152362D02*X100993Y153162D01*
X99606Y152362D02*X98220Y153162D01*
X99606Y149213D02*Y147613D01*
Y149213D02*X100993Y150013D01*
X99606Y149213D02*X98220Y150013D01*
X99606Y146063D02*Y144463D01*
Y146063D02*X100993Y146863D01*
X99606Y146063D02*X98220Y146863D01*
X96850Y147638D02*Y146038D01*
Y147638D02*X98237Y148438D01*
X96850Y147638D02*X95464Y148438D01*
X96850Y150787D02*Y149187D01*
Y150787D02*X98237Y151587D01*
X96850Y150787D02*X95464Y151587D01*
X96850Y153937D02*Y152337D01*
Y153937D02*X98237Y154737D01*
X96850Y153937D02*X95464Y154737D01*
X96850Y157087D02*Y155487D01*
Y157087D02*X98237Y157887D01*
X96850Y157087D02*X95464Y157887D01*
X96850Y160236D02*Y158636D01*
Y160236D02*X98237Y161036D01*
X96850Y160236D02*X95464Y161036D01*
X96850Y163386D02*Y161786D01*
Y163386D02*X98237Y164186D01*
X96850Y163386D02*X95464Y164186D01*
X96850Y166535D02*Y164935D01*
Y166535D02*X98237Y167335D01*
X96850Y166535D02*X95464Y167335D01*
X96850Y169685D02*Y168085D01*
Y169685D02*X98237Y170485D01*
X96850Y169685D02*X95464Y170485D01*
X96850Y172835D02*Y171235D01*
Y172835D02*X98237Y173635D01*
X96850Y172835D02*X95464Y173635D01*
X96850Y175984D02*Y174384D01*
Y175984D02*X98237Y176784D01*
X96850Y175984D02*X95464Y176784D01*
X96850Y179134D02*Y177534D01*
Y179134D02*X98237Y179934D01*
X96850Y179134D02*X95464Y179934D01*
X70079Y92913D02*Y91313D01*
Y92913D02*X71465Y93713D01*
X70079Y92913D02*X68692Y93713D01*
X70079Y96063D02*Y94463D01*
Y96063D02*X71465Y96863D01*
X70079Y96063D02*X68692Y96863D01*
X72835Y94488D02*Y92888D01*
Y94488D02*X74221Y95288D01*
X72835Y94488D02*X71448Y95288D01*
X48031Y96063D02*Y94463D01*
Y96063D02*X49418Y96863D01*
X48031Y96063D02*X46645Y96863D01*
X62992Y160236D02*Y158636D01*
Y160236D02*X64379Y161036D01*
X62992Y160236D02*X61605Y161036D01*
X59843Y160236D02*Y158636D01*
Y160236D02*X61229Y161036D01*
X59843Y160236D02*X58456Y161036D01*
X56693Y160236D02*Y158636D01*
Y160236D02*X58080Y161036D01*
X56693Y160236D02*X55306Y161036D01*
X48425Y166929D02*Y165329D01*
Y166929D02*X49812Y167729D01*
X48425Y166929D02*X47039Y167729D01*
X73228Y195669D02*Y194069D01*
Y195669D02*X74615Y196469D01*
X73228Y195669D02*X71842Y196469D01*
X73228Y193307D02*Y191707D01*
Y193307D02*X74615Y194107D01*
X73228Y193307D02*X71842Y194107D01*
X99606Y235827D02*Y234227D01*
Y235827D02*X100993Y236627D01*
X99606Y235827D02*X98220Y236627D01*
X99606Y232677D02*Y231077D01*
Y232677D02*X100993Y233477D01*
X99606Y232677D02*X98220Y233477D01*
X99606Y229528D02*Y227928D01*
Y229528D02*X100993Y230328D01*
X99606Y229528D02*X98220Y230328D01*
X99606Y226378D02*Y224778D01*
Y226378D02*X100993Y227178D01*
X99606Y226378D02*X98220Y227178D01*
X99606Y223228D02*Y221628D01*
Y223228D02*X100993Y224028D01*
X99606Y223228D02*X98220Y224028D01*
X99606Y213780D02*Y212180D01*
Y213780D02*X100993Y214580D01*
X99606Y213780D02*X98220Y214580D01*
X99606Y210630D02*Y209030D01*
Y210630D02*X100993Y211430D01*
X99606Y210630D02*X98220Y211430D01*
X99606Y207480D02*Y205880D01*
Y207480D02*X100993Y208280D01*
X99606Y207480D02*X98220Y208280D01*
X99606Y204331D02*Y202731D01*
Y204331D02*X100993Y205131D01*
X99606Y204331D02*X98220Y205131D01*
X99606Y201181D02*Y199581D01*
Y201181D02*X100993Y201981D01*
X99606Y201181D02*X98220Y201981D01*
X96850Y202756D02*Y201156D01*
Y202756D02*X98237Y203556D01*
X96850Y202756D02*X95464Y203556D01*
X96850Y205906D02*Y204306D01*
Y205906D02*X98237Y206706D01*
X96850Y205906D02*X95464Y206706D01*
X96850Y209055D02*Y207455D01*
Y209055D02*X98237Y209855D01*
X96850Y209055D02*X95464Y209855D01*
X96850Y212205D02*Y210605D01*
Y212205D02*X98237Y213005D01*
X96850Y212205D02*X95464Y213005D01*
X96850Y215354D02*Y213754D01*
Y215354D02*X98237Y216154D01*
X96850Y215354D02*X95464Y216154D01*
X96850Y221654D02*Y220054D01*
Y221654D02*X98237Y222454D01*
X96850Y221654D02*X95464Y222454D01*
X96850Y224803D02*Y223203D01*
Y224803D02*X98237Y225603D01*
X96850Y224803D02*X95464Y225603D01*
X96850Y227953D02*Y226353D01*
Y227953D02*X98237Y228753D01*
X96850Y227953D02*X95464Y228753D01*
X96850Y231102D02*Y229502D01*
Y231102D02*X98237Y231902D01*
X96850Y231102D02*X95464Y231902D01*
X96850Y234252D02*Y232652D01*
Y234252D02*X98237Y235052D01*
X96850Y234252D02*X95464Y235052D01*
X73228Y266535D02*Y264935D01*
Y266535D02*X74615Y267335D01*
X73228Y266535D02*X71842Y267335D01*
X73228Y264173D02*Y262573D01*
Y264173D02*X74615Y264973D01*
X73228Y264173D02*X71842Y264973D01*
X62992Y231102D02*Y229502D01*
Y231102D02*X64379Y231902D01*
X62992Y231102D02*X61605Y231902D01*
X59843Y231102D02*Y229502D01*
Y231102D02*X61229Y231902D01*
X59843Y231102D02*X58456Y231902D01*
X56693Y231102D02*Y229502D01*
Y231102D02*X58080Y231902D01*
X56693Y231102D02*X55306Y231902D01*
X51969Y241339D02*Y239739D01*
Y241339D02*X53355Y242139D01*
X51969Y241339D02*X50582Y242139D01*
X194882Y262598D02*Y260998D01*
Y262598D02*X196269Y263398D01*
X194882Y262598D02*X193495Y263398D01*
X177559Y262598D02*Y260998D01*
Y262598D02*X178946Y263398D01*
X177559Y262598D02*X176172Y263398D01*
X208661Y285039D02*Y283439D01*
Y285039D02*X210048Y285839D01*
X208661Y285039D02*X207275Y285839D01*
X212992Y266535D02*Y264935D01*
Y266535D02*X214379Y267335D01*
X212992Y266535D02*X211605Y267335D01*
X217323Y286220D02*Y284620D01*
Y286220D02*X218709Y287020D01*
X217323Y286220D02*X215936Y287020D01*
X216929Y311417D02*Y309817D01*
Y311417D02*X218316Y312217D01*
X216929Y311417D02*X215542Y312217D01*
X186220Y330315D02*Y328715D01*
Y330315D02*X187607Y331115D01*
X186220Y330315D02*X184834Y331115D01*
X171260Y285433D02*Y283833D01*
Y285433D02*X172647Y286233D01*
X171260Y285433D02*X169873Y286233D01*
X235039Y306299D02*Y304699D01*
Y306299D02*X236426Y307099D01*
X235039Y306299D02*X233653Y307099D01*
X235039Y299606D02*Y298006D01*
Y299606D02*X236426Y300406D01*
X235039Y299606D02*X233653Y300406D01*
X242913Y282283D02*Y280683D01*
Y282283D02*X244300Y283083D01*
X242913Y282283D02*X241527Y283083D01*
X246457Y305118D02*Y303518D01*
Y305118D02*X247843Y305918D01*
X246457Y305118D02*X245070Y305918D01*
X255512Y305118D02*Y303518D01*
Y305118D02*X256898Y305918D01*
X255512Y305118D02*X254125Y305918D01*
X238583Y344882D02*Y343282D01*
Y344882D02*X239969Y345682D01*
X238583Y344882D02*X237196Y345682D01*
X127559Y368504D02*Y366904D01*
Y368504D02*X128946Y369304D01*
X127559Y368504D02*X126172Y369304D01*
X135433Y368504D02*Y366904D01*
Y368504D02*X136820Y369304D01*
X135433Y368504D02*X134046Y369304D01*
X143307Y368504D02*Y366904D01*
Y368504D02*X144694Y369304D01*
X143307Y368504D02*X141920Y369304D01*
X151181Y368504D02*Y366904D01*
Y368504D02*X152568Y369304D01*
X151181Y368504D02*X149794Y369304D01*
X159055Y368504D02*Y366904D01*
Y368504D02*X160442Y369304D01*
X159055Y368504D02*X157668Y369304D01*
X166929Y368504D02*Y366904D01*
Y368504D02*X168316Y369304D01*
X166929Y368504D02*X165542Y369304D01*
X174803Y368504D02*Y366904D01*
Y368504D02*X176190Y369304D01*
X174803Y368504D02*X173416Y369304D01*
X170079Y353150D02*Y351550D01*
Y353150D02*X171465Y353950D01*
X170079Y353150D02*X168692Y353950D01*
X171260Y351181D02*Y349581D01*
Y351181D02*X172647Y351981D01*
X171260Y351181D02*X169873Y351981D01*
X168898Y351181D02*Y349581D01*
Y351181D02*X170284Y351981D01*
X168898Y351181D02*X167511Y351981D01*
X174409Y329134D02*Y327534D01*
Y329134D02*X175796Y329934D01*
X174409Y329134D02*X173023Y329934D01*
X146457Y288976D02*Y287376D01*
Y288976D02*X147843Y289776D01*
X146457Y288976D02*X145070Y289776D01*
X156693Y276378D02*Y274778D01*
Y276378D02*X158080Y277178D01*
X156693Y276378D02*X155306Y277178D01*
X160236Y275197D02*Y273597D01*
Y275197D02*X161623Y275997D01*
X160236Y275197D02*X158850Y275997D01*
X163386Y275197D02*Y273597D01*
Y275197D02*X164772Y275997D01*
X163386Y275197D02*X161999Y275997D01*
X269685Y333071D02*Y331471D01*
Y333071D02*X271072Y333871D01*
X269685Y333071D02*X268298Y333871D01*
X256299Y346063D02*Y344463D01*
Y346063D02*X257686Y346863D01*
X256299Y346063D02*X254913Y346863D01*
X46457Y349016D02*Y347416D01*
Y349016D02*X47843Y349816D01*
X46457Y349016D02*X45070Y349816D01*
X50394Y345276D02*Y343676D01*
Y345276D02*X51780Y346076D01*
X50394Y345276D02*X49007Y346076D01*
X269685Y340157D02*Y338557D01*
Y340157D02*X271072Y340957D01*
X269685Y340157D02*X268298Y340957D01*
X178740Y147638D02*Y146038D01*
Y147638D02*X180127Y148438D01*
X178740Y147638D02*X177353Y148438D01*
X157087Y147244D02*Y145644D01*
Y147244D02*X158473Y148044D01*
X157087Y147244D02*X155700Y148044D01*
X166142Y159449D02*Y157849D01*
Y159449D02*X167528Y160249D01*
X166142Y159449D02*X164755Y160249D01*
X155118Y179528D02*Y177928D01*
Y179528D02*X156505Y180328D01*
X155118Y179528D02*X153731Y180328D01*
X164567Y179528D02*Y177928D01*
Y179528D02*X165954Y180328D01*
X164567Y179528D02*X163180Y180328D01*
X172441Y179528D02*Y177928D01*
Y179528D02*X173828Y180328D01*
X172441Y179528D02*X171054Y180328D01*
X172441Y175984D02*Y174384D01*
Y175984D02*X173828Y176784D01*
X172441Y175984D02*X171054Y176784D01*
X196457Y232677D02*Y231077D01*
Y232677D02*X197843Y233477D01*
X196457Y232677D02*X195070Y233477D01*
X155118Y175984D02*Y174384D01*
Y175984D02*X156505Y176784D01*
X155118Y175984D02*X153731Y176784D01*
X151969Y235827D02*Y234227D01*
Y235827D02*X153355Y236627D01*
X151969Y235827D02*X150582Y236627D01*
X151969Y232283D02*Y230683D01*
Y232283D02*X153355Y233083D01*
X151969Y232283D02*X150582Y233083D01*
X166142Y175984D02*Y174384D01*
Y175984D02*X167528Y176784D01*
X166142Y175984D02*X164755Y176784D01*
X177165Y235827D02*Y234227D01*
Y235827D02*X178552Y236627D01*
X177165Y235827D02*X175779Y236627D01*
X177165Y232283D02*Y230683D01*
Y232283D02*X178552Y233083D01*
X177165Y232283D02*X175779Y233083D01*
X164567Y232283D02*Y230683D01*
Y232283D02*X165954Y233083D01*
X164567Y232283D02*X163180Y233083D01*
X166142Y235827D02*Y234227D01*
Y235827D02*X167528Y236627D01*
X166142Y235827D02*X164755Y236627D01*
X146457Y246850D02*Y245250D01*
Y246850D02*X147843Y247650D01*
X146457Y246850D02*X145070Y247650D01*
X150000Y252756D02*Y251156D01*
Y252756D02*X151387Y253556D01*
X150000Y252756D02*X148613Y253556D01*
X153937Y249606D02*Y248006D01*
Y249606D02*X155324Y250406D01*
X153937Y249606D02*X152550Y250406D01*
X156693Y251969D02*Y250369D01*
Y251969D02*X158080Y252769D01*
X156693Y251969D02*X155306Y252769D01*
X159449Y249606D02*Y248006D01*
Y249606D02*X160835Y250406D01*
X159449Y249606D02*X158062Y250406D01*
X168110Y249213D02*Y247613D01*
Y249213D02*X169497Y250013D01*
X168110Y249213D02*X166724Y250013D01*
X171654Y249606D02*Y248006D01*
Y249606D02*X173040Y250406D01*
X171654Y249606D02*X170267Y250406D01*
X176378Y250000D02*Y248400D01*
Y250000D02*X177765Y250800D01*
X176378Y250000D02*X174991Y250800D01*
X179921Y250394D02*Y248794D01*
Y250394D02*X181308Y251194D01*
X179921Y250394D02*X178535Y251194D01*
X183858Y249606D02*Y248006D01*
Y249606D02*X185245Y250406D01*
X183858Y249606D02*X182472Y250406D01*
X205512Y254724D02*Y253124D01*
Y254724D02*X206898Y255524D01*
X205512Y254724D02*X204125Y255524D01*
X198425Y250394D02*Y248794D01*
Y250394D02*X199812Y251194D01*
X198425Y250394D02*X197039Y251194D01*
X231890Y360630D02*Y359030D01*
Y360630D02*X233276Y361430D01*
X231890Y360630D02*X230503Y361430D01*
X240157Y361417D02*Y359817D01*
Y361417D02*X241544Y362217D01*
X240157Y361417D02*X238771Y362217D01*
X215748Y362598D02*Y360998D01*
Y362598D02*X217135Y363398D01*
X215748Y362598D02*X214361Y363398D01*
X189370Y348031D02*Y346431D01*
Y348031D02*X190757Y348831D01*
X189370Y348031D02*X187983Y348831D01*
X189370Y351181D02*Y349581D01*
Y351181D02*X190757Y351981D01*
X189370Y351181D02*X187983Y351981D01*
X217323Y339764D02*Y338164D01*
Y339764D02*X218709Y340564D01*
X217323Y339764D02*X215936Y340564D01*
X217323Y337008D02*Y335408D01*
Y337008D02*X218709Y337808D01*
X217323Y337008D02*X215936Y337808D01*
X201181Y336220D02*Y334620D01*
Y336220D02*X202568Y337020D01*
X201181Y336220D02*X199794Y337020D01*
X197638Y327953D02*Y326353D01*
Y327953D02*X199024Y328753D01*
X197638Y327953D02*X196251Y328753D01*
X220079Y334252D02*Y332652D01*
Y334252D02*X221465Y335052D01*
X220079Y334252D02*X218692Y335052D01*
X216929Y297244D02*Y295644D01*
Y297244D02*X218316Y298044D01*
X216929Y297244D02*X215542Y298044D01*
X205906Y344882D02*Y343282D01*
Y344882D02*X207292Y345682D01*
X205906Y344882D02*X204519Y345682D01*
X246850Y301575D02*Y299975D01*
Y301575D02*X248237Y302375D01*
X246850Y301575D02*X245464Y302375D01*
X277953Y129921D02*Y128321D01*
Y129921D02*X279339Y130721D01*
X277953Y129921D02*X276566Y130721D01*
X277953Y200787D02*Y199187D01*
Y200787D02*X279339Y201587D01*
X277953Y200787D02*X276566Y201587D01*
X277953Y271654D02*Y270054D01*
Y271654D02*X279339Y272454D01*
X277953Y271654D02*X276566Y272454D01*
X269685Y302362D02*Y300762D01*
Y302362D02*X271072Y303162D01*
X269685Y302362D02*X268298Y303162D01*
X273622Y302362D02*Y300762D01*
Y302362D02*X275009Y303162D01*
X273622Y302362D02*X272235Y303162D01*
X277559Y302362D02*Y300762D01*
Y302362D02*X278946Y303162D01*
X277559Y302362D02*X276172Y303162D01*
X216535Y266535D02*Y264935D01*
Y266535D02*X217922Y267335D01*
X216535Y266535D02*X215149Y267335D01*
X220079Y266535D02*Y264935D01*
Y266535D02*X221465Y267335D01*
X220079Y266535D02*X218692Y267335D01*
X215354Y280709D02*Y279109D01*
Y280709D02*X216741Y281509D01*
X215354Y280709D02*X213968Y281509D01*
X211024Y281890D02*Y280290D01*
Y281890D02*X212410Y282690D01*
X211024Y281890D02*X209637Y282690D01*
X155118Y341339D02*Y339739D01*
Y341339D02*X156505Y342139D01*
X155118Y341339D02*X153731Y342139D01*
X166142Y337008D02*Y335408D01*
Y337008D02*X167528Y337808D01*
X166142Y337008D02*X164755Y337808D01*
X162598Y337008D02*Y335408D01*
Y337008D02*X163985Y337808D01*
X162598Y337008D02*X161212Y337808D01*
X132677Y342913D02*Y341313D01*
Y342913D02*X134064Y343713D01*
X132677Y342913D02*X131290Y343713D01*
X99606Y92520D02*Y90920D01*
Y92520D02*X100993Y93320D01*
X99606Y92520D02*X98220Y93320D01*
X102756Y94094D02*Y92494D01*
Y94094D02*X104143Y94894D01*
X102756Y94094D02*X101369Y94894D01*
X99606Y88583D02*Y86983D01*
Y88583D02*X100993Y89383D01*
X99606Y88583D02*X98220Y89383D01*
X105906Y95669D02*Y94069D01*
Y95669D02*X107292Y96469D01*
X105906Y95669D02*X104519Y96469D01*
X62992Y90157D02*Y88557D01*
Y90157D02*X64379Y90957D01*
X62992Y90157D02*X61605Y90957D01*
X83465Y95276D02*Y93676D01*
Y95276D02*X84851Y96076D01*
X83465Y95276D02*X82078Y96076D01*
X62992Y129921D02*Y128321D01*
Y129921D02*X64379Y130721D01*
X62992Y129921D02*X61605Y130721D01*
X62992Y200787D02*Y199187D01*
Y200787D02*X64379Y201587D01*
X62992Y200787D02*X61605Y201587D01*
X62992Y271654D02*Y270054D01*
Y271654D02*X64379Y272454D01*
X62992Y271654D02*X61605Y272454D01*
X123228Y303937D02*Y302337D01*
Y303937D02*X124615Y304737D01*
X123228Y303937D02*X121842Y304737D01*
X125984Y303937D02*Y302337D01*
Y303937D02*X127371Y304737D01*
X125984Y303937D02*X124598Y304737D01*
X125984Y321260D02*Y319660D01*
Y321260D02*X127371Y322060D01*
X125984Y321260D02*X124598Y322060D01*
X123228Y322047D02*Y320447D01*
Y322047D02*X124615Y322847D01*
X123228Y322047D02*X121842Y322847D01*
X124016Y287795D02*Y286195D01*
Y287795D02*X125402Y288595D01*
X124016Y287795D02*X122629Y288595D01*
X124016Y285039D02*Y283439D01*
Y285039D02*X125402Y285839D01*
X124016Y285039D02*X122629Y285839D01*
X143701Y322835D02*Y321235D01*
Y322835D02*X145087Y323635D01*
X143701Y322835D02*X142314Y323635D01*
X146850Y322835D02*Y321235D01*
Y322835D02*X148237Y323635D01*
X146850Y322835D02*X145464Y323635D01*
X131102Y310630D02*Y309030D01*
Y310630D02*X132489Y311430D01*
X131102Y310630D02*X129716Y311430D01*
X142520Y307087D02*Y305487D01*
Y307087D02*X143906Y307887D01*
X142520Y307087D02*X141133Y307887D01*
X146063Y314173D02*Y312573D01*
Y314173D02*X147450Y314973D01*
X146063Y314173D02*X144676Y314973D01*
X149606Y316142D02*Y314542D01*
Y316142D02*X150993Y316942D01*
X149606Y316142D02*X148220Y316942D01*
X131102Y307087D02*Y305487D01*
Y307087D02*X132489Y307887D01*
X131102Y307087D02*X129716Y307887D01*
X50394Y303150D02*Y301550D01*
Y303150D02*X51780Y303950D01*
X50394Y303150D02*X49007Y303950D01*
X53543Y303150D02*Y301550D01*
Y303150D02*X54930Y303950D01*
X53543Y303150D02*X52157Y303950D01*
X56693Y303150D02*Y301550D01*
Y303150D02*X58080Y303950D01*
X56693Y303150D02*X55306Y303950D01*
X59843Y303150D02*Y301550D01*
Y303150D02*X61229Y303950D01*
X59843Y303150D02*X58456Y303950D01*
X92913Y300000D02*Y298400D01*
Y300000D02*X94300Y300800D01*
X92913Y300000D02*X91527Y300800D01*
X96850Y300000D02*Y298400D01*
Y300000D02*X98237Y300800D01*
X96850Y300000D02*X95464Y300800D01*
X66535Y304724D02*Y303124D01*
Y304724D02*X67922Y305524D01*
X66535Y304724D02*X65149Y305524D01*
X70079Y304724D02*Y303124D01*
Y304724D02*X71465Y305524D01*
X70079Y304724D02*X68692Y305524D01*
X70079Y301181D02*Y299581D01*
Y301181D02*X71465Y301981D01*
X70079Y301181D02*X68692Y301981D01*
X70079Y297638D02*Y296038D01*
Y297638D02*X71465Y298438D01*
X70079Y297638D02*X68692Y298438D01*
X48031Y329134D02*Y327534D01*
Y329134D02*X49418Y329934D01*
X48031Y329134D02*X46645Y329934D01*
X51969Y329134D02*Y327534D01*
Y329134D02*X53355Y329934D01*
X51969Y329134D02*X50582Y329934D01*
X55906Y329134D02*Y327534D01*
Y329134D02*X57292Y329934D01*
X55906Y329134D02*X54519Y329934D01*
X59843Y329134D02*Y327534D01*
Y329134D02*X61229Y329934D01*
X59843Y329134D02*X58456Y329934D01*
X120079Y293307D02*Y291707D01*
Y293307D02*X121465Y294107D01*
X120079Y293307D02*X118692Y294107D01*
X120079Y290551D02*Y288951D01*
Y290551D02*X121465Y291351D01*
X120079Y290551D02*X118692Y291351D01*
X120079Y287795D02*Y286195D01*
Y287795D02*X121465Y288595D01*
X120079Y287795D02*X118692Y288595D01*
X120079Y285039D02*Y283439D01*
Y285039D02*X121465Y285839D01*
X120079Y285039D02*X118692Y285839D01*
X151969Y258661D02*Y257061D01*
Y258661D02*X153355Y259461D01*
X151969Y258661D02*X150582Y259461D01*
X134843Y270079D02*Y268479D01*
Y270079D02*X136229Y270879D01*
X134843Y270079D02*X133456Y270879D01*
X120472Y277559D02*Y275959D01*
Y277559D02*X121859Y278359D01*
X120472Y277559D02*X119086Y278359D01*
X120472Y280315D02*Y278715D01*
Y280315D02*X121859Y281115D01*
X120472Y280315D02*X119086Y281115D01*
X144094Y272441D02*Y270841D01*
Y272441D02*X145481Y273241D01*
X144094Y272441D02*X142708Y273241D01*
X144094Y274803D02*Y273203D01*
Y274803D02*X145481Y275603D01*
X144094Y274803D02*X142708Y275603D01*
X213780Y286220D02*Y284620D01*
Y286220D02*X215166Y287020D01*
X213780Y286220D02*X212393Y287020D01*
X167323Y275197D02*Y273597D01*
Y275197D02*X168710Y275997D01*
X167323Y275197D02*X165936Y275997D01*
X181102Y321654D02*Y320054D01*
Y321654D02*X182489Y322454D01*
X181102Y321654D02*X179716Y322454D01*
X222835Y270472D02*Y268872D01*
Y270472D02*X224221Y271272D01*
X222835Y270472D02*X221448Y271272D01*
X277559Y315354D02*Y313754D01*
Y315354D02*X278946Y316154D01*
X277559Y315354D02*X276172Y316154D01*
X281496Y349213D02*Y347613D01*
Y349213D02*X282883Y350013D01*
X281496Y349213D02*X280109Y350013D01*
X233071Y355118D02*Y353518D01*
Y355118D02*X234458Y355918D01*
X233071Y355118D02*X231684Y355918D01*
X174409Y333071D02*Y331471D01*
Y333071D02*X175796Y333871D01*
X174409Y333071D02*X173023Y333871D01*
X164961Y293701D02*Y292101D01*
Y293701D02*X166347Y294501D01*
X164961Y293701D02*X163574Y294501D01*
X154724Y261811D02*Y260211D01*
Y261811D02*X156111Y262611D01*
X154724Y261811D02*X153338Y262611D01*
X152756Y344488D02*Y342888D01*
Y344488D02*X154143Y345288D01*
X152756Y344488D02*X151369Y345288D01*
X164173Y255512D02*Y253912D01*
Y255512D02*X165560Y256312D01*
X164173Y255512D02*X162787Y256312D01*
X134646Y265354D02*Y263754D01*
Y265354D02*X136032Y266154D01*
X134646Y265354D02*X133259Y266154D01*
X124016Y265354D02*Y263754D01*
Y265354D02*X125402Y266154D01*
X124016Y265354D02*X122629Y266154D01*
X124016Y262598D02*Y260998D01*
Y262598D02*X125402Y263398D01*
X124016Y262598D02*X122629Y263398D01*
X144094Y267717D02*Y266117D01*
Y267717D02*X145481Y268517D01*
X144094Y267717D02*X142708Y268517D01*
X144094Y265157D02*Y263557D01*
Y265157D02*X145481Y265957D01*
X144094Y265157D02*X142708Y265957D01*
X142913Y277559D02*Y275959D01*
Y277559D02*X144300Y278359D01*
X142913Y277559D02*X141527Y278359D01*
X145276Y277559D02*Y275959D01*
Y277559D02*X146662Y278359D01*
X145276Y277559D02*X143889Y278359D01*
X117913Y258071D02*Y256471D01*
Y258071D02*X119300Y258871D01*
X117913Y258071D02*X116527Y258871D01*
X119685Y256496D02*Y254896D01*
Y256496D02*X121072Y257296D01*
X119685Y256496D02*X118298Y257296D01*
X121457Y258071D02*Y256471D01*
Y258071D02*X122843Y258871D01*
X121457Y258071D02*X120070Y258871D01*
X144882Y250197D02*Y248597D01*
Y250197D02*X146269Y250997D01*
X144882Y250197D02*X143495Y250997D01*
X144882Y253740D02*Y252140D01*
Y253740D02*X146269Y254540D01*
X144882Y253740D02*X143495Y254540D01*
X138189Y292126D02*Y290526D01*
Y292126D02*X139576Y292926D01*
X138189Y292126D02*X136802Y292926D01*
X141339Y292126D02*Y290526D01*
Y292126D02*X142725Y292926D01*
X141339Y292126D02*X139952Y292926D01*
X138189Y296063D02*Y294463D01*
Y296063D02*X139576Y296863D01*
X138189Y296063D02*X136802Y296863D01*
X197638Y287008D02*Y285408D01*
Y287008D02*X199024Y287808D01*
X197638Y287008D02*X196251Y287808D01*
X214567Y306299D02*Y304699D01*
Y306299D02*X215954Y307099D01*
X214567Y306299D02*X213180Y307099D01*
X211811Y303937D02*Y302337D01*
Y303937D02*X213198Y304737D01*
X211811Y303937D02*X210424Y304737D01*
X198425Y311811D02*Y310211D01*
Y311811D02*X199812Y312611D01*
X198425Y311811D02*X197039Y312611D01*
X206299Y287795D02*Y286195D01*
Y287795D02*X207686Y288595D01*
X206299Y287795D02*X204913Y288595D01*
X172047Y291339D02*Y289739D01*
Y291339D02*X173434Y292139D01*
X172047Y291339D02*X170661Y292139D01*
X161417Y257874D02*Y256274D01*
Y257874D02*X162804Y258674D01*
X161417Y257874D02*X160031Y258674D01*
X164173Y260236D02*Y258636D01*
Y260236D02*X165560Y261036D01*
X164173Y260236D02*X162787Y261036D01*
X166142Y324409D02*Y322809D01*
Y324409D02*X167528Y325209D01*
X166142Y324409D02*X164755Y325209D01*
X175197Y316535D02*Y314935D01*
Y316535D02*X176584Y317335D01*
X175197Y316535D02*X173810Y317335D01*
X184252Y300000D02*Y298400D01*
Y300000D02*X185639Y300800D01*
X184252Y300000D02*X182865Y300800D01*
X181496Y298031D02*Y296431D01*
Y298031D02*X182883Y298831D01*
X181496Y298031D02*X180109Y298831D01*
X181102Y303937D02*Y302337D01*
Y303937D02*X182489Y304737D01*
X181102Y303937D02*X179716Y304737D01*
X155118Y311024D02*Y309424D01*
Y311024D02*X156505Y311824D01*
X155118Y311024D02*X153731Y311824D01*
X187795Y306299D02*Y304699D01*
Y306299D02*X189182Y307099D01*
X187795Y306299D02*X186409Y307099D01*
X181102Y307480D02*Y305880D01*
Y307480D02*X182489Y308280D01*
X181102Y307480D02*X179716Y308280D01*
X80315Y296457D02*Y294857D01*
Y296457D02*X81702Y297257D01*
X80315Y296457D02*X78928Y297257D01*
X80315Y300000D02*Y298400D01*
Y300000D02*X81702Y300800D01*
X80315Y300000D02*X78928Y300800D01*
X83858Y300787D02*Y299187D01*
Y300787D02*X85245Y301587D01*
X83858Y300787D02*X82472Y301587D01*
X86220Y303543D02*Y301943D01*
Y303543D02*X87607Y304343D01*
X86220Y303543D02*X84834Y304343D01*
X172047Y295669D02*Y294069D01*
Y295669D02*X173434Y296469D01*
X172047Y295669D02*X170661Y296469D01*
X124016Y290551D02*Y288951D01*
Y290551D02*X125402Y291351D01*
X124016Y290551D02*X122629Y291351D01*
X124016Y293307D02*Y291707D01*
Y293307D02*X125402Y294107D01*
X124016Y293307D02*X122629Y294107D01*
X192520Y306299D02*Y304699D01*
Y306299D02*X193906Y307099D01*
X192520Y306299D02*X191133Y307099D01*
X229134Y326378D02*Y324778D01*
Y326378D02*X230521Y327178D01*
X229134Y326378D02*X227747Y327178D01*
X258268Y307480D02*Y305880D01*
Y307480D02*X259654Y308280D01*
X258268Y307480D02*X256881Y308280D01*
X261417Y309449D02*Y307849D01*
Y309449D02*X262804Y310249D01*
X261417Y309449D02*X260031Y310249D01*
X231496Y323228D02*Y321628D01*
Y323228D02*X232883Y324028D01*
X231496Y323228D02*X230109Y324028D01*
X264173Y312205D02*Y310605D01*
Y312205D02*X265560Y313005D01*
X264173Y312205D02*X262787Y313005D01*
X233858Y320472D02*Y318872D01*
Y320472D02*X235245Y321272D01*
X233858Y320472D02*X232472Y321272D01*
X256693Y298425D02*Y296825D01*
Y298425D02*X258080Y299225D01*
X256693Y298425D02*X255306Y299225D01*
X260236Y298425D02*Y296825D01*
Y298425D02*X261623Y299225D01*
X260236Y298425D02*X258850Y299225D01*
X263780Y298425D02*Y296825D01*
Y298425D02*X265166Y299225D01*
X263780Y298425D02*X262393Y299225D01*
X230709Y290945D02*Y289345D01*
Y290945D02*X232095Y291745D01*
X230709Y290945D02*X229322Y291745D01*
X229134Y294094D02*Y292494D01*
Y294094D02*X230521Y294894D01*
X229134Y294094D02*X227747Y294894D01*
X225984Y274803D02*Y273203D01*
Y274803D02*X227371Y275603D01*
X225984Y274803D02*X224598Y275603D01*
X235827Y295276D02*Y293676D01*
Y295276D02*X237213Y296076D01*
X235827Y295276D02*X234440Y296076D01*
X236220Y302756D02*Y301156D01*
Y302756D02*X237607Y303556D01*
X236220Y302756D02*X234834Y303556D01*
X210630Y290945D02*Y289345D01*
Y290945D02*X212017Y291745D01*
X210630Y290945D02*X209243Y291745D01*
X210630Y294488D02*Y292888D01*
Y294488D02*X212017Y295288D01*
X210630Y294488D02*X209243Y295288D01*
X170472Y275197D02*Y273597D01*
Y275197D02*X171859Y275997D01*
X170472Y275197D02*X169086Y275997D01*
X171654Y303543D02*Y301943D01*
Y303543D02*X173040Y304343D01*
X171654Y303543D02*X170267Y304343D01*
X176772Y276378D02*Y274778D01*
Y276378D02*X178158Y277178D01*
X176772Y276378D02*X175385Y277178D01*
X202362Y271260D02*Y269660D01*
Y271260D02*X203749Y272060D01*
X202362Y271260D02*X200976Y272060D01*
X198425Y315354D02*Y313754D01*
Y315354D02*X199812Y316154D01*
X198425Y315354D02*X197039Y316154D01*
X204724Y311024D02*Y309424D01*
Y311024D02*X206111Y311824D01*
X204724Y311024D02*X203338Y311824D01*
X204331Y314961D02*Y313361D01*
Y314961D02*X205717Y315761D01*
X204331Y314961D02*X202944Y315761D01*
X218504Y316142D02*Y314542D01*
Y316142D02*X219891Y316942D01*
X218504Y316142D02*X217117Y316942D01*
X235827Y288189D02*Y286589D01*
Y288189D02*X237213Y288989D01*
X235827Y288189D02*X234440Y288989D01*
X201969Y304331D02*Y302731D01*
Y304331D02*X203355Y305131D01*
X201969Y304331D02*X200582Y305131D01*
X205512Y304331D02*Y302731D01*
Y304331D02*X206898Y305131D01*
X205512Y304331D02*X204125Y305131D01*
X222047Y316535D02*Y314935D01*
Y316535D02*X223434Y317335D01*
X222047Y316535D02*X220661Y317335D01*
X222047Y349606D02*Y348006D01*
Y349606D02*X223434Y350406D01*
X222047Y349606D02*X220661Y350406D01*
X231496Y329134D02*Y327534D01*
Y329134D02*X232883Y329934D01*
X231496Y329134D02*X230109Y329934D01*
X246850Y353150D02*Y351550D01*
Y353150D02*X248237Y353950D01*
X246850Y353150D02*X245464Y353950D01*
X246850Y342913D02*Y341313D01*
Y342913D02*X248237Y343713D01*
X246850Y342913D02*X245464Y343713D01*
X181102Y279921D02*Y278321D01*
Y279921D02*X182489Y280721D01*
X181102Y279921D02*X179716Y280721D01*
X183858Y282677D02*Y281077D01*
Y282677D02*X185245Y283477D01*
X183858Y282677D02*X182472Y283477D01*
X181102Y285433D02*Y283833D01*
Y285433D02*X182489Y286233D01*
X181102Y285433D02*X179716Y286233D01*
X183858Y288189D02*Y286589D01*
Y288189D02*X185245Y288989D01*
X183858Y288189D02*X182472Y288989D01*
X163780Y283858D02*Y282258D01*
Y283858D02*X165166Y284658D01*
X163780Y283858D02*X162393Y284658D01*
X126378Y247244D02*Y245644D01*
Y247244D02*X127765Y248044D01*
X126378Y247244D02*X124991Y248044D01*
X44882Y301969D02*Y300369D01*
Y301969D02*X46269Y302769D01*
X44882Y301969D02*X43495Y302769D01*
X45669Y297244D02*Y295644D01*
Y297244D02*X47056Y298044D01*
X45669Y297244D02*X44283Y298044D01*
X165354Y313386D02*Y311786D01*
Y313386D02*X166741Y314186D01*
X165354Y313386D02*X163968Y314186D01*
X161417Y311417D02*Y309817D01*
Y311417D02*X162804Y312217D01*
X161417Y311417D02*X160031Y312217D01*
X152756Y323228D02*Y321628D01*
Y323228D02*X154143Y324028D01*
X152756Y323228D02*X151369Y324028D01*
X156299Y323228D02*Y321628D01*
Y323228D02*X157686Y324028D01*
X156299Y323228D02*X154913Y324028D01*
X209055Y316142D02*Y314542D01*
Y316142D02*X210442Y316942D01*
X209055Y316142D02*X207668Y316942D01*
X207874Y312598D02*Y310998D01*
Y312598D02*X209261Y313398D01*
X207874Y312598D02*X206487Y313398D01*
X194882Y325984D02*Y324384D01*
Y325984D02*X196269Y326784D01*
X194882Y325984D02*X193495Y326784D01*
X189764Y316929D02*Y315329D01*
Y316929D02*X191150Y317729D01*
X189764Y316929D02*X188377Y317729D01*
X173622Y322835D02*Y321235D01*
Y322835D02*X175009Y323635D01*
X173622Y322835D02*X172235Y323635D01*
X146457Y294488D02*Y292888D01*
Y294488D02*X147843Y295288D01*
X146457Y294488D02*X145070Y295288D01*
X146063Y309449D02*Y307849D01*
Y309449D02*X147450Y310249D01*
X146063Y309449D02*X144676Y310249D01*
X147244Y306299D02*Y304699D01*
Y306299D02*X148631Y307099D01*
X147244Y306299D02*X145857Y307099D01*
X218504Y331102D02*Y329502D01*
Y331102D02*X219891Y331902D01*
X218504Y331102D02*X217117Y331902D01*
X219685Y325197D02*Y323597D01*
Y325197D02*X221072Y325997D01*
X219685Y325197D02*X218298Y325997D01*
X220866Y328346D02*Y326746D01*
Y328346D02*X222253Y329146D01*
X220866Y328346D02*X219479Y329146D01*
X228346Y331890D02*Y330290D01*
Y331890D02*X229733Y332690D01*
X228346Y331890D02*X226960Y332690D01*
X228346Y335433D02*Y333833D01*
Y335433D02*X229733Y336233D01*
X228346Y335433D02*X226960Y336233D01*
X269685Y319291D02*Y317691D01*
Y319291D02*X271072Y320091D01*
X269685Y319291D02*X268298Y320091D01*
X264567Y327953D02*Y326353D01*
Y327953D02*X265954Y328753D01*
X264567Y327953D02*X263180Y328753D01*
X153543Y285039D02*Y283439D01*
Y285039D02*X154930Y285839D01*
X153543Y285039D02*X152157Y285839D01*
X144882Y299213D02*Y297613D01*
Y299213D02*X146269Y300013D01*
X144882Y299213D02*X143495Y300013D01*
X201969Y247244D02*Y245644D01*
Y247244D02*X203355Y248044D01*
X201969Y247244D02*X200582Y248044D01*
X155512Y269685D02*Y268085D01*
Y269685D02*X156898Y270485D01*
X155512Y269685D02*X154125Y270485D01*
X155512Y266142D02*Y264542D01*
Y266142D02*X156898Y266942D01*
X155512Y266142D02*X154125Y266942D01*
X68898Y292520D02*Y290920D01*
Y292520D02*X70284Y293320D01*
X68898Y292520D02*X67511Y293320D01*
X71654Y294488D02*Y292888D01*
Y294488D02*X73040Y295288D01*
X71654Y294488D02*X70267Y295288D01*
X102362Y314961D02*Y313361D01*
Y314961D02*X103749Y315761D01*
X102362Y314961D02*X100976Y315761D01*
X174016Y273622D02*Y272022D01*
Y273622D02*X175402Y274422D01*
X174016Y273622D02*X172629Y274422D01*
X150787Y305512D02*Y303912D01*
Y305512D02*X152174Y306312D01*
X150787Y305512D02*X149401Y306312D01*
X149606Y299213D02*Y297613D01*
Y299213D02*X150993Y300013D01*
X149606Y299213D02*X148220Y300013D01*
X193701Y281496D02*Y279896D01*
Y281496D02*X195087Y282296D01*
X193701Y281496D02*X192314Y282296D01*
X196457Y283858D02*Y282258D01*
Y283858D02*X197843Y284658D01*
X196457Y283858D02*X195070Y284658D01*
X192520Y310630D02*Y309030D01*
Y310630D02*X193906Y311430D01*
X192520Y310630D02*X191133Y311430D01*
X186220Y316929D02*Y315329D01*
Y316929D02*X187607Y317729D01*
X186220Y316929D02*X184834Y317729D01*
X207480Y281496D02*Y279896D01*
Y281496D02*X208867Y282296D01*
X207480Y281496D02*X206094Y282296D01*
X140945Y337402D02*Y335802D01*
Y337402D02*X142332Y338202D01*
X140945Y337402D02*X139558Y338202D01*
X149606Y348819D02*Y347219D01*
Y348819D02*X150993Y349619D01*
X149606Y348819D02*X148220Y349619D01*
X175197Y142126D02*Y140526D01*
Y142126D02*X176584Y142926D01*
X175197Y142126D02*X173810Y142926D01*
X168898Y142126D02*Y140526D01*
Y142126D02*X170284Y142926D01*
X168898Y142126D02*X167511Y142926D01*
X133661Y257677D02*Y256077D01*
Y257677D02*X135048Y258477D01*
X133661Y257677D02*X132275Y258477D01*
X132480Y253740D02*Y252140D01*
Y253740D02*X133867Y254540D01*
X132480Y253740D02*X131094Y254540D01*
X94882Y301969D02*Y300369D01*
Y301969D02*X96269Y302769D01*
X94882Y301969D02*X93495Y302769D01*
X218504Y242520D02*Y240920D01*
Y242520D02*X219891Y243320D01*
X218504Y242520D02*X217117Y243320D01*
X235827Y266929D02*Y265329D01*
Y266929D02*X237213Y267729D01*
X235827Y266929D02*X234440Y267729D01*
X119685Y368504D02*Y366904D01*
Y368504D02*X121072Y369304D01*
X119685Y368504D02*X118298Y369304D01*
X111811Y368504D02*Y366904D01*
Y368504D02*X113198Y369304D01*
X111811Y368504D02*X110424Y369304D01*
X103937Y368504D02*Y366904D01*
Y368504D02*X105324Y369304D01*
X103937Y368504D02*X102550Y369304D01*
X96063Y368504D02*Y366904D01*
Y368504D02*X97450Y369304D01*
X96063Y368504D02*X94676Y369304D01*
X88189Y368504D02*Y366904D01*
Y368504D02*X89576Y369304D01*
X88189Y368504D02*X86802Y369304D01*
X80315Y368504D02*Y366904D01*
Y368504D02*X81702Y369304D01*
X80315Y368504D02*X78928Y369304D01*
X72441Y368504D02*Y366904D01*
Y368504D02*X73828Y369304D01*
X72441Y368504D02*X71054Y369304D01*
X64567Y368504D02*Y366904D01*
Y368504D02*X65954Y369304D01*
X64567Y368504D02*X63180Y369304D01*
X56693Y368504D02*Y366904D01*
Y368504D02*X58080Y369304D01*
X56693Y368504D02*X55306Y369304D01*
X48819Y368504D02*Y366904D01*
Y368504D02*X50206Y369304D01*
X48819Y368504D02*X47432Y369304D01*
X289764Y364567D02*Y362967D01*
Y364567D02*X291150Y365367D01*
X289764Y364567D02*X288377Y365367D01*
X285827Y368504D02*Y366904D01*
Y368504D02*X287213Y369304D01*
X285827Y368504D02*X284440Y369304D01*
X277953Y368504D02*Y366904D01*
Y368504D02*X279339Y369304D01*
X277953Y368504D02*X276566Y369304D01*
X246850Y368504D02*Y366904D01*
Y368504D02*X248237Y369304D01*
X246850Y368504D02*X245464Y369304D01*
X270079Y368504D02*Y366904D01*
Y368504D02*X271465Y369304D01*
X270079Y368504D02*X268692Y369304D01*
X262205Y368504D02*Y366904D01*
Y368504D02*X263591Y369304D01*
X262205Y368504D02*X260818Y369304D01*
X254331Y368504D02*Y366904D01*
Y368504D02*X255717Y369304D01*
X254331Y368504D02*X252944Y369304D01*
X263780Y362205D02*Y360605D01*
Y362205D02*X265166Y363005D01*
X263780Y362205D02*X262393Y363005D01*
X277559Y353150D02*Y351550D01*
Y353150D02*X278946Y353950D01*
X277559Y353150D02*X276172Y353950D01*
X289764Y342126D02*Y340526D01*
Y342126D02*X291150Y342926D01*
X289764Y342126D02*X288377Y342926D01*
X289764Y332283D02*Y330683D01*
Y332283D02*X291150Y333083D01*
X289764Y332283D02*X288377Y333083D01*
X289764Y322047D02*Y320447D01*
Y322047D02*X291150Y322847D01*
X289764Y322047D02*X288377Y322847D01*
X289764Y312205D02*Y310605D01*
Y312205D02*X291150Y313005D01*
X289764Y312205D02*X288377Y313005D01*
X289764Y301969D02*Y300369D01*
Y301969D02*X291150Y302769D01*
X289764Y301969D02*X288377Y302769D01*
X281496Y312205D02*Y310605D01*
Y312205D02*X282883Y313005D01*
X281496Y312205D02*X280109Y313005D01*
X257874Y324016D02*Y322416D01*
Y324016D02*X259261Y324816D01*
X257874Y324016D02*X256487Y324816D01*
X243307Y324016D02*Y322416D01*
Y324016D02*X244694Y324816D01*
X243307Y324016D02*X241920Y324816D01*
X264567Y336614D02*Y335014D01*
Y336614D02*X265954Y337414D01*
X264567Y336614D02*X263180Y337414D01*
X229528Y349606D02*Y348006D01*
Y349606D02*X230914Y350406D01*
X229528Y349606D02*X228141Y350406D01*
X188189Y361024D02*Y359424D01*
Y361024D02*X189576Y361824D01*
X188189Y361024D02*X186802Y361824D01*
X181102Y361024D02*Y359424D01*
Y361024D02*X182489Y361824D01*
X181102Y361024D02*X179716Y361824D01*
X15000Y574636D02*Y573036D01*
Y574636D02*X16387Y575436D01*
X15000Y574636D02*X13613Y575436D01*
X135000Y576886D02*X136500Y573886D01*
X138000Y576886D01*
X136500Y573886D02*Y570886D01*
X139800Y574186D02*X142050D01*
X139800Y570886D02*X142800D01*
X139800Y576886D02*Y570886D01*
Y576886D02*X142800D01*
X147600D02*X148350Y576136D01*
X145350Y576886D02*X147600D01*
X144600Y576136D02*X145350Y576886D01*
X144600Y576136D02*Y574636D01*
X145350Y573886D01*
X147600D01*
X148350Y573136D01*
Y571636D01*
X147600Y570886D02*X148350Y571636D01*
X145350Y570886D02*X147600D01*
X144600Y571636D02*X145350Y570886D01*
X98750D02*X101750Y576886D01*
X98000D02*X101750D01*
X105800D02*X106550Y576136D01*
X104300Y576886D02*X105800D01*
X103550Y576136D02*X104300Y576886D01*
X103550Y576136D02*Y571636D01*
X104300Y570886D01*
X105800Y574186D02*X106550Y573436D01*
X103550Y574186D02*X105800D01*
X104300Y570886D02*X105800D01*
X106550Y571636D01*
Y573436D02*Y571636D01*
X108350D02*X109100Y570886D01*
X108350Y576136D02*Y571636D01*
Y576136D02*X109100Y576886D01*
X110600D01*
X111350Y576136D01*
Y571636D01*
X110600Y570886D02*X111350Y571636D01*
X109100Y570886D02*X110600D01*
X108350Y572386D02*X111350Y575386D01*
X45000Y571636D02*X45750Y570886D01*
X45000Y576136D02*Y571636D01*
Y576136D02*X45750Y576886D01*
X47250D01*
X48000Y576136D01*
Y571636D01*
X47250Y570886D02*X48000Y571636D01*
X45750Y570886D02*X47250D01*
X45000Y572386D02*X48000Y575386D01*
X49800Y570886D02*X50550D01*
X52350Y571636D02*X53100Y570886D01*
X52350Y576136D02*Y571636D01*
Y576136D02*X53100Y576886D01*
X54600D01*
X55350Y576136D01*
Y571636D01*
X54600Y570886D02*X55350Y571636D01*
X53100Y570886D02*X54600D01*
X52350Y572386D02*X55350Y575386D01*
X57150Y575686D02*X58350Y576886D01*
Y570886D01*
X57150D02*X59400D01*
X61200Y576136D02*X61950Y576886D01*
X64200D01*
X64950Y576136D01*
Y574636D01*
X61200Y570886D02*X64950Y574636D01*
X61200Y570886D02*X64950D01*
X3000Y591886D02*X3750Y591136D01*
X750Y591886D02*X3000D01*
X0Y591136D02*X750Y591886D01*
X0Y591136D02*Y589636D01*
X750Y588886D01*
X3000D01*
X3750Y588136D01*
Y586636D01*
X3000Y585886D02*X3750Y586636D01*
X750Y585886D02*X3000D01*
X0Y586636D02*X750Y585886D01*
X5550Y588886D02*Y586636D01*
X6300Y585886D01*
X8550Y588886D02*Y584386D01*
X7800Y583636D02*X8550Y584386D01*
X6300Y583636D02*X7800D01*
X5550Y584386D02*X6300Y583636D01*
Y585886D02*X7800D01*
X8550Y586636D01*
X11100Y588136D02*Y585886D01*
Y588136D02*X11850Y588886D01*
X12600D01*
X13350Y588136D01*
Y585886D01*
Y588136D02*X14100Y588886D01*
X14850D01*
X15600Y588136D01*
Y585886D01*
X10350Y588886D02*X11100Y588136D01*
X17400Y591886D02*Y585886D01*
Y586636D02*X18150Y585886D01*
X19650D01*
X20400Y586636D01*
Y588136D02*Y586636D01*
X19650Y588886D02*X20400Y588136D01*
X18150Y588886D02*X19650D01*
X17400Y588136D02*X18150Y588886D01*
X22200Y588136D02*Y586636D01*
Y588136D02*X22950Y588886D01*
X24450D01*
X25200Y588136D01*
Y586636D01*
X24450Y585886D02*X25200Y586636D01*
X22950Y585886D02*X24450D01*
X22200Y586636D02*X22950Y585886D01*
X27000Y591886D02*Y586636D01*
X27750Y585886D01*
X0Y582636D02*X29250D01*
X41750Y591886D02*Y585886D01*
X43700Y591886D02*X44750Y590836D01*
Y586936D01*
X43700Y585886D02*X44750Y586936D01*
X41000Y585886D02*X43700D01*
X41000Y591886D02*X43700D01*
G54D232*X46550Y590386D02*Y590236D01*
G54D231*Y588136D02*Y585886D01*
X50300Y588886D02*X51050Y588136D01*
X48800Y588886D02*X50300D01*
X48050Y588136D02*X48800Y588886D01*
X48050Y588136D02*Y586636D01*
X48800Y585886D01*
X51050Y588886D02*Y586636D01*
X51800Y585886D01*
X48800D02*X50300D01*
X51050Y586636D01*
X54350Y588136D02*Y585886D01*
Y588136D02*X55100Y588886D01*
X55850D01*
X56600Y588136D01*
Y585886D01*
Y588136D02*X57350Y588886D01*
X58100D01*
X58850Y588136D01*
Y585886D01*
X53600Y588886D02*X54350Y588136D01*
X60650Y585886D02*X61400D01*
X65900Y586636D02*X66650Y585886D01*
X65900Y591136D02*X66650Y591886D01*
X65900Y591136D02*Y586636D01*
X68450Y591886D02*X69950D01*
X69200D02*Y585886D01*
X68450D02*X69950D01*
X72500Y588136D02*Y585886D01*
Y588136D02*X73250Y588886D01*
X74000D01*
X74750Y588136D01*
Y585886D01*
X71750Y588886D02*X72500Y588136D01*
X77300Y588886D02*X79550D01*
X76550Y588136D02*X77300Y588886D01*
X76550Y588136D02*Y586636D01*
X77300Y585886D01*
X79550D01*
X81350Y591886D02*Y585886D01*
Y588136D02*X82100Y588886D01*
X83600D01*
X84350Y588136D01*
Y585886D01*
X86150Y591886D02*X86900Y591136D01*
Y586636D01*
X86150Y585886D02*X86900Y586636D01*
X41000Y582636D02*X88700D01*
X96050Y585886D02*X98000D01*
X95000Y586936D02*X96050Y585886D01*
X95000Y590836D02*Y586936D01*
Y590836D02*X96050Y591886D01*
X98000D01*
X99800Y588136D02*Y586636D01*
Y588136D02*X100550Y588886D01*
X102050D01*
X102800Y588136D01*
Y586636D01*
X102050Y585886D02*X102800Y586636D01*
X100550Y585886D02*X102050D01*
X99800Y586636D02*X100550Y585886D01*
X104600Y588886D02*Y586636D01*
X105350Y585886D01*
X106850D01*
X107600Y586636D01*
Y588886D02*Y586636D01*
X110150Y588136D02*Y585886D01*
Y588136D02*X110900Y588886D01*
X111650D01*
X112400Y588136D01*
Y585886D01*
X109400Y588886D02*X110150Y588136D01*
X114950Y591886D02*Y586636D01*
X115700Y585886D01*
X114200Y589636D02*X115700D01*
X95000Y582636D02*X117200D01*
X130750Y591886D02*Y585886D01*
X130000Y591886D02*X133000D01*
X133750Y591136D01*
Y589636D01*
X133000Y588886D02*X133750Y589636D01*
X130750Y588886D02*X133000D01*
X135550Y591886D02*Y586636D01*
X136300Y585886D01*
X140050Y588886D02*X140800Y588136D01*
X138550Y588886D02*X140050D01*
X137800Y588136D02*X138550Y588886D01*
X137800Y588136D02*Y586636D01*
X138550Y585886D01*
X140800Y588886D02*Y586636D01*
X141550Y585886D01*
X138550D02*X140050D01*
X140800Y586636D01*
X144100Y591886D02*Y586636D01*
X144850Y585886D01*
X143350Y589636D02*X144850D01*
X147100Y585886D02*X149350D01*
X146350Y586636D02*X147100Y585886D01*
X146350Y588136D02*Y586636D01*
Y588136D02*X147100Y588886D01*
X148600D01*
X149350Y588136D01*
X146350Y587386D02*X149350D01*
Y588136D02*Y587386D01*
X154150Y591886D02*Y585886D01*
X153400D02*X154150Y586636D01*
X151900Y585886D02*X153400D01*
X151150Y586636D02*X151900Y585886D01*
X151150Y588136D02*Y586636D01*
Y588136D02*X151900Y588886D01*
X153400D01*
X154150Y588136D01*
X157450Y588886D02*Y588136D01*
Y586636D02*Y585886D01*
X155950Y591136D02*Y590386D01*
Y591136D02*X156700Y591886D01*
X158200D01*
X158950Y591136D01*
Y590386D01*
X157450Y588886D02*X158950Y590386D01*
X130000Y582636D02*X160750D01*
X0Y606886D02*X3000D01*
X1500D02*Y600886D01*
X4800Y606886D02*Y600886D01*
Y603136D02*X5550Y603886D01*
X7050D01*
X7800Y603136D01*
Y600886D01*
X10350D02*X12600D01*
X9600Y601636D02*X10350Y600886D01*
X9600Y603136D02*Y601636D01*
Y603136D02*X10350Y603886D01*
X11850D01*
X12600Y603136D01*
X9600Y602386D02*X12600D01*
Y603136D02*Y602386D01*
X15150Y603136D02*Y600886D01*
Y603136D02*X15900Y603886D01*
X17400D01*
X14400D02*X15150Y603136D01*
X19950Y600886D02*X22200D01*
X19200Y601636D02*X19950Y600886D01*
X19200Y603136D02*Y601636D01*
Y603136D02*X19950Y603886D01*
X21450D01*
X22200Y603136D01*
X19200Y602386D02*X22200D01*
Y603136D02*Y602386D01*
X28950Y603886D02*X29700Y603136D01*
X27450Y603886D02*X28950D01*
X26700Y603136D02*X27450Y603886D01*
X26700Y603136D02*Y601636D01*
X27450Y600886D01*
X29700Y603886D02*Y601636D01*
X30450Y600886D01*
X27450D02*X28950D01*
X29700Y601636D01*
X33000Y603136D02*Y600886D01*
Y603136D02*X33750Y603886D01*
X35250D01*
X32250D02*X33000Y603136D01*
X37800Y600886D02*X40050D01*
X37050Y601636D02*X37800Y600886D01*
X37050Y603136D02*Y601636D01*
Y603136D02*X37800Y603886D01*
X39300D01*
X40050Y603136D01*
X37050Y602386D02*X40050D01*
Y603136D02*Y602386D01*
X44550Y605686D02*X45750Y606886D01*
Y600886D01*
X44550D02*X46800D01*
X48600Y601636D02*X49350Y600886D01*
X48600Y606136D02*Y601636D01*
Y606136D02*X49350Y606886D01*
X50850D01*
X51600Y606136D01*
Y601636D01*
X50850Y600886D02*X51600Y601636D01*
X49350Y600886D02*X50850D01*
X48600Y602386D02*X51600Y605386D01*
X59100Y606886D02*Y600886D01*
X58350D02*X59100Y601636D01*
X56850Y600886D02*X58350D01*
X56100Y601636D02*X56850Y600886D01*
X56100Y603136D02*Y601636D01*
Y603136D02*X56850Y603886D01*
X58350D01*
X59100Y603136D01*
G54D232*X60900Y605386D02*Y605236D01*
G54D231*Y603136D02*Y600886D01*
X63150Y606136D02*Y600886D01*
Y606136D02*X63900Y606886D01*
X64650D01*
X62400Y603886D02*X63900D01*
X66900Y606136D02*Y600886D01*
Y606136D02*X67650Y606886D01*
X68400D01*
X66150Y603886D02*X67650D01*
X70650Y600886D02*X72900D01*
X69900Y601636D02*X70650Y600886D01*
X69900Y603136D02*Y601636D01*
Y603136D02*X70650Y603886D01*
X72150D01*
X72900Y603136D01*
X69900Y602386D02*X72900D01*
Y603136D02*Y602386D01*
X75450Y603136D02*Y600886D01*
Y603136D02*X76200Y603886D01*
X77700D01*
X74700D02*X75450Y603136D01*
X80250Y600886D02*X82500D01*
X79500Y601636D02*X80250Y600886D01*
X79500Y603136D02*Y601636D01*
Y603136D02*X80250Y603886D01*
X81750D01*
X82500Y603136D01*
X79500Y602386D02*X82500D01*
Y603136D02*Y602386D01*
X85050Y603136D02*Y600886D01*
Y603136D02*X85800Y603886D01*
X86550D01*
X87300Y603136D01*
Y600886D01*
X84300Y603886D02*X85050Y603136D01*
X89850Y606886D02*Y601636D01*
X90600Y600886D01*
X89100Y604636D02*X90600D01*
X97800Y606886D02*Y600886D01*
X97050D02*X97800Y601636D01*
X95550Y600886D02*X97050D01*
X94800Y601636D02*X95550Y600886D01*
X94800Y603136D02*Y601636D01*
Y603136D02*X95550Y603886D01*
X97050D01*
X97800Y603136D01*
X100350D02*Y600886D01*
Y603136D02*X101100Y603886D01*
X102600D01*
X99600D02*X100350Y603136D01*
G54D232*X104400Y605386D02*Y605236D01*
G54D231*Y603136D02*Y600886D01*
X105900Y606886D02*Y601636D01*
X106650Y600886D01*
X108150Y606886D02*Y601636D01*
X108900Y600886D01*
X113850D02*X116100D01*
X116850Y601636D01*
X116100Y602386D02*X116850Y601636D01*
X113850Y602386D02*X116100D01*
X113100Y603136D02*X113850Y602386D01*
X113100Y603136D02*X113850Y603886D01*
X116100D01*
X116850Y603136D01*
X113100Y601636D02*X113850Y600886D01*
G54D232*X118650Y605386D02*Y605236D01*
G54D231*Y603136D02*Y600886D01*
X120150Y603886D02*X123150D01*
X120150Y600886D02*X123150Y603886D01*
X120150Y600886D02*X123150D01*
X125700D02*X127950D01*
X124950Y601636D02*X125700Y600886D01*
X124950Y603136D02*Y601636D01*
Y603136D02*X125700Y603886D01*
X127200D01*
X127950Y603136D01*
X124950Y602386D02*X127950D01*
Y603136D02*Y602386D01*
X130500Y600886D02*X132750D01*
X133500Y601636D01*
X132750Y602386D02*X133500Y601636D01*
X130500Y602386D02*X132750D01*
X129750Y603136D02*X130500Y602386D01*
X129750Y603136D02*X130500Y603886D01*
X132750D01*
X133500Y603136D01*
X129750Y601636D02*X130500Y600886D01*
X138000Y603886D02*Y601636D01*
X138750Y600886D01*
X140250D01*
X141000Y601636D01*
Y603886D02*Y601636D01*
X143550Y600886D02*X145800D01*
X146550Y601636D01*
X145800Y602386D02*X146550Y601636D01*
X143550Y602386D02*X145800D01*
X142800Y603136D02*X143550Y602386D01*
X142800Y603136D02*X143550Y603886D01*
X145800D01*
X146550Y603136D01*
X142800Y601636D02*X143550Y600886D01*
X149100D02*X151350D01*
X148350Y601636D02*X149100Y600886D01*
X148350Y603136D02*Y601636D01*
Y603136D02*X149100Y603886D01*
X150600D01*
X151350Y603136D01*
X148350Y602386D02*X151350D01*
Y603136D02*Y602386D01*
X156150Y606886D02*Y600886D01*
X155400D02*X156150Y601636D01*
X153900Y600886D02*X155400D01*
X153150Y601636D02*X153900Y600886D01*
X153150Y603136D02*Y601636D01*
Y603136D02*X153900Y603886D01*
X155400D01*
X156150Y603136D01*
G54D232*X160650Y605386D02*Y605236D01*
G54D231*Y603136D02*Y600886D01*
X162900Y603136D02*Y600886D01*
Y603136D02*X163650Y603886D01*
X164400D01*
X165150Y603136D01*
Y600886D01*
X162150Y603886D02*X162900Y603136D01*
X170400Y606886D02*Y601636D01*
X171150Y600886D01*
X169650Y604636D02*X171150D01*
X172650Y606886D02*Y600886D01*
Y603136D02*X173400Y603886D01*
X174900D01*
X175650Y603136D01*
Y600886D01*
G54D232*X177450Y605386D02*Y605236D01*
G54D231*Y603136D02*Y600886D01*
X179700D02*X181950D01*
X182700Y601636D01*
X181950Y602386D02*X182700Y601636D01*
X179700Y602386D02*X181950D01*
X178950Y603136D02*X179700Y602386D01*
X178950Y603136D02*X179700Y603886D01*
X181950D01*
X182700Y603136D01*
X178950Y601636D02*X179700Y600886D01*
X187200Y606886D02*Y601636D01*
X187950Y600886D01*
X191700Y603886D02*X192450Y603136D01*
X190200Y603886D02*X191700D01*
X189450Y603136D02*X190200Y603886D01*
X189450Y603136D02*Y601636D01*
X190200Y600886D01*
X192450Y603886D02*Y601636D01*
X193200Y600886D01*
X190200D02*X191700D01*
X192450Y601636D01*
X195000Y603886D02*Y601636D01*
X195750Y600886D01*
X198000Y603886D02*Y599386D01*
X197250Y598636D02*X198000Y599386D01*
X195750Y598636D02*X197250D01*
X195000Y599386D02*X195750Y598636D01*
Y600886D02*X197250D01*
X198000Y601636D01*
X199800Y603136D02*Y601636D01*
Y603136D02*X200550Y603886D01*
X202050D01*
X202800Y603136D01*
Y601636D01*
X202050Y600886D02*X202800Y601636D01*
X200550Y600886D02*X202050D01*
X199800Y601636D02*X200550Y600886D01*
X204600Y603886D02*Y601636D01*
X205350Y600886D01*
X206850D01*
X207600Y601636D01*
Y603886D02*Y601636D01*
X210150Y606886D02*Y601636D01*
X210900Y600886D01*
X209400Y604636D02*X210900D01*
X212400Y599386D02*X213900Y600886D01*
X218400Y601636D02*X219150Y600886D01*
X218400Y602836D02*Y601636D01*
Y602836D02*X219450Y603886D01*
X220350D01*
X221400Y602836D01*
Y601636D01*
X220650Y600886D02*X221400Y601636D01*
X219150Y600886D02*X220650D01*
X218400Y604936D02*X219450Y603886D01*
X218400Y606136D02*Y604936D01*
Y606136D02*X219150Y606886D01*
X220650D01*
X221400Y606136D01*
Y604936D01*
X220350Y603886D02*X221400Y604936D01*
X223200Y603136D02*X226200Y606886D01*
X223200Y603136D02*X226950D01*
X226200Y606886D02*Y600886D01*
X228750Y603136D02*X231750Y606886D01*
X228750Y603136D02*X232500D01*
X231750Y606886D02*Y600886D01*
X237000Y606886D02*Y600886D01*
Y603136D02*X237750Y603886D01*
X239250D01*
X240000Y603136D01*
Y600886D01*
X241800Y603136D02*Y601636D01*
Y603136D02*X242550Y603886D01*
X244050D01*
X244800Y603136D01*
Y601636D01*
X244050Y600886D02*X244800Y601636D01*
X242550Y600886D02*X244050D01*
X241800Y601636D02*X242550Y600886D01*
X246600Y606886D02*Y601636D01*
X247350Y600886D01*
X249600D02*X251850D01*
X248850Y601636D02*X249600Y600886D01*
X248850Y603136D02*Y601636D01*
Y603136D02*X249600Y603886D01*
X251100D01*
X251850Y603136D01*
X248850Y602386D02*X251850D01*
Y603136D02*Y602386D01*
X254400Y600886D02*X256650D01*
X257400Y601636D01*
X256650Y602386D02*X257400Y601636D01*
X254400Y602386D02*X256650D01*
X253650Y603136D02*X254400Y602386D01*
X253650Y603136D02*X254400Y603886D01*
X256650D01*
X257400Y603136D01*
X253650Y601636D02*X254400Y600886D01*
X262650Y606886D02*Y601636D01*
X263400Y600886D01*
X261900Y604636D02*X263400D01*
X264900Y603136D02*Y601636D01*
Y603136D02*X265650Y603886D01*
X267150D01*
X267900Y603136D01*
Y601636D01*
X267150Y600886D02*X267900Y601636D01*
X265650Y600886D02*X267150D01*
X264900Y601636D02*X265650Y600886D01*
X270450Y606886D02*Y601636D01*
X271200Y600886D01*
X269700Y604636D02*X271200D01*
X274950Y603886D02*X275700Y603136D01*
X273450Y603886D02*X274950D01*
X272700Y603136D02*X273450Y603886D01*
X272700Y603136D02*Y601636D01*
X273450Y600886D01*
X275700Y603886D02*Y601636D01*
X276450Y600886D01*
X273450D02*X274950D01*
X275700Y601636D01*
X278250Y606886D02*Y601636D01*
X279000Y600886D01*
G54D233*X53150Y39370D02*X281496D01*
X295276Y53150D02*Y360236D01*
X281496Y374016D02*X53150D01*
X39370Y360236D02*Y53150D01*
X281496Y39370D02*G75*G03X295276Y53150I0J13780D01*G01*
X39370D02*G75*G03X53150Y39370I13780J0D01*G01*
X39370Y360236D02*G75*G02X53150Y374016I13780J0D01*G01*
X281496D02*G75*G02X295276Y360236I0J-13780D01*G01*
G54D231*X80998Y-9500D02*X83998D01*
X84748Y-8750D01*
Y-6950D02*Y-8750D01*
X83998Y-6200D02*X84748Y-6950D01*
X81748Y-6200D02*X83998D01*
X81748Y-3500D02*Y-9500D01*
X80998Y-3500D02*X83998D01*
X84748Y-4250D01*
Y-5450D01*
X83998Y-6200D02*X84748Y-5450D01*
X86548Y-7250D02*Y-8750D01*
Y-7250D02*X87298Y-6500D01*
X88798D01*
X89548Y-7250D01*
Y-8750D01*
X88798Y-9500D02*X89548Y-8750D01*
X87298Y-9500D02*X88798D01*
X86548Y-8750D02*X87298Y-9500D01*
X93598Y-6500D02*X94348Y-7250D01*
X92098Y-6500D02*X93598D01*
X91348Y-7250D02*X92098Y-6500D01*
X91348Y-7250D02*Y-8750D01*
X92098Y-9500D01*
X94348Y-6500D02*Y-8750D01*
X95098Y-9500D01*
X92098D02*X93598D01*
X94348Y-8750D01*
X97648Y-7250D02*Y-9500D01*
Y-7250D02*X98398Y-6500D01*
X99898D01*
X96898D02*X97648Y-7250D01*
X104698Y-3500D02*Y-9500D01*
X103948D02*X104698Y-8750D01*
X102448Y-9500D02*X103948D01*
X101698Y-8750D02*X102448Y-9500D01*
X101698Y-7250D02*Y-8750D01*
Y-7250D02*X102448Y-6500D01*
X103948D01*
X104698Y-7250D01*
X109198D02*Y-8750D01*
Y-7250D02*X109948Y-6500D01*
X111448D01*
X112198Y-7250D01*
Y-8750D01*
X111448Y-9500D02*X112198Y-8750D01*
X109948Y-9500D02*X111448D01*
X109198Y-8750D02*X109948Y-9500D01*
X113998Y-6500D02*Y-8750D01*
X114748Y-9500D01*
X116248D01*
X116998Y-8750D01*
Y-6500D02*Y-8750D01*
X119548Y-3500D02*Y-8750D01*
X120298Y-9500D01*
X118798Y-5750D02*X120298D01*
X121798Y-3500D02*Y-8750D01*
X122548Y-9500D01*
G54D232*X124048Y-5000D02*Y-5150D01*
G54D231*Y-7250D02*Y-9500D01*
X126298Y-7250D02*Y-9500D01*
Y-7250D02*X127048Y-6500D01*
X127798D01*
X128548Y-7250D01*
Y-9500D01*
X125548Y-6500D02*X126298Y-7250D01*
X131098Y-9500D02*X133348D01*
X130348Y-8750D02*X131098Y-9500D01*
X130348Y-7250D02*Y-8750D01*
Y-7250D02*X131098Y-6500D01*
X132598D01*
X133348Y-7250D01*
X130348Y-8000D02*X133348D01*
Y-7250D02*Y-8000D01*
G54D232*X137848Y-5000D02*Y-5150D01*
G54D231*Y-7250D02*Y-9500D01*
X140098D02*X142348D01*
X143098Y-8750D01*
X142348Y-8000D02*X143098Y-8750D01*
X140098Y-8000D02*X142348D01*
X139348Y-7250D02*X140098Y-8000D01*
X139348Y-7250D02*X140098Y-6500D01*
X142348D01*
X143098Y-7250D01*
X139348Y-8750D02*X140098Y-9500D01*
X148348Y-3500D02*Y-8750D01*
X149098Y-9500D01*
X147598Y-5750D02*X149098D01*
X150598Y-3500D02*Y-9500D01*
Y-7250D02*X151348Y-6500D01*
X152848D01*
X153598Y-7250D01*
Y-9500D01*
X156148D02*X158398D01*
X155398Y-8750D02*X156148Y-9500D01*
X155398Y-7250D02*Y-8750D01*
Y-7250D02*X156148Y-6500D01*
X157648D01*
X158398Y-7250D01*
X155398Y-8000D02*X158398D01*
Y-7250D02*Y-8000D01*
X163648Y-6500D02*X165898D01*
X162898Y-7250D02*X163648Y-6500D01*
X162898Y-7250D02*Y-8750D01*
X163648Y-9500D01*
X165898D01*
X168448D02*X170698D01*
X167698Y-8750D02*X168448Y-9500D01*
X167698Y-7250D02*Y-8750D01*
Y-7250D02*X168448Y-6500D01*
X169948D01*
X170698Y-7250D01*
X167698Y-8000D02*X170698D01*
Y-7250D02*Y-8000D01*
X173248Y-7250D02*Y-9500D01*
Y-7250D02*X173998Y-6500D01*
X174748D01*
X175498Y-7250D01*
Y-9500D01*
X172498Y-6500D02*X173248Y-7250D01*
X178048Y-3500D02*Y-8750D01*
X178798Y-9500D01*
X177298Y-5750D02*X178798D01*
X181048Y-9500D02*X183298D01*
X180298Y-8750D02*X181048Y-9500D01*
X180298Y-7250D02*Y-8750D01*
Y-7250D02*X181048Y-6500D01*
X182548D01*
X183298Y-7250D01*
X180298Y-8000D02*X183298D01*
Y-7250D02*Y-8000D01*
X185848Y-7250D02*Y-9500D01*
Y-7250D02*X186598Y-6500D01*
X188098D01*
X185098D02*X185848Y-7250D01*
X189898Y-3500D02*Y-8750D01*
X190648Y-9500D01*
G54D232*X192148Y-5000D02*Y-5150D01*
G54D231*Y-7250D02*Y-9500D01*
X194398Y-7250D02*Y-9500D01*
Y-7250D02*X195148Y-6500D01*
X195898D01*
X196648Y-7250D01*
Y-9500D01*
X193648Y-6500D02*X194398Y-7250D01*
X199198Y-9500D02*X201448D01*
X198448Y-8750D02*X199198Y-9500D01*
X198448Y-7250D02*Y-8750D01*
Y-7250D02*X199198Y-6500D01*
X200698D01*
X201448Y-7250D01*
X198448Y-8000D02*X201448D01*
Y-7250D02*Y-8000D01*
X205948Y-7250D02*Y-8750D01*
Y-7250D02*X206698Y-6500D01*
X208198D01*
X208948Y-7250D01*
Y-8750D01*
X208198Y-9500D02*X208948Y-8750D01*
X206698Y-9500D02*X208198D01*
X205948Y-8750D02*X206698Y-9500D01*
X211498Y-4250D02*Y-9500D01*
Y-4250D02*X212248Y-3500D01*
X212998D01*
X210748Y-6500D02*X212248D01*
X217948Y-3500D02*Y-8750D01*
X218698Y-9500D01*
X217198Y-5750D02*X218698D01*
X220198Y-3500D02*Y-9500D01*
Y-7250D02*X220948Y-6500D01*
X222448D01*
X223198Y-7250D01*
Y-9500D01*
G54D232*X224998Y-5000D02*Y-5150D01*
G54D231*Y-7250D02*Y-9500D01*
X227248D02*X229498D01*
X230248Y-8750D01*
X229498Y-8000D02*X230248Y-8750D01*
X227248Y-8000D02*X229498D01*
X226498Y-7250D02*X227248Y-8000D01*
X226498Y-7250D02*X227248Y-6500D01*
X229498D01*
X230248Y-7250D01*
X226498Y-8750D02*X227248Y-9500D01*
X235498Y-7250D02*Y-11750D01*
X234748Y-6500D02*X235498Y-7250D01*
X236248Y-6500D01*
X237748D01*
X238498Y-7250D01*
Y-8750D01*
X237748Y-9500D02*X238498Y-8750D01*
X236248Y-9500D02*X237748D01*
X235498Y-8750D02*X236248Y-9500D01*
X242548Y-6500D02*X243298Y-7250D01*
X241048Y-6500D02*X242548D01*
X240298Y-7250D02*X241048Y-6500D01*
X240298Y-7250D02*Y-8750D01*
X241048Y-9500D01*
X243298Y-6500D02*Y-8750D01*
X244048Y-9500D01*
X241048D02*X242548D01*
X243298Y-8750D01*
X246598Y-3500D02*Y-8750D01*
X247348Y-9500D01*
X245848Y-5750D02*X247348D01*
X248848Y-3500D02*Y-9500D01*
Y-7250D02*X249598Y-6500D01*
X251098D01*
X251848Y-7250D01*
Y-9500D01*
X200750Y441886D02*Y435886D01*
X202700Y441886D02*X203750Y440836D01*
Y436936D01*
X202700Y435886D02*X203750Y436936D01*
X200000Y435886D02*X202700D01*
X200000Y441886D02*X202700D01*
X207800Y438886D02*X208550Y438136D01*
X206300Y438886D02*X207800D01*
X205550Y438136D02*X206300Y438886D01*
X205550Y438136D02*Y436636D01*
X206300Y435886D01*
X208550Y438886D02*Y436636D01*
X209300Y435886D01*
X206300D02*X207800D01*
X208550Y436636D01*
X211850Y441886D02*Y436636D01*
X212600Y435886D01*
X211100Y439636D02*X212600D01*
X214850Y435886D02*X217100D01*
X214100Y436636D02*X214850Y435886D01*
X214100Y438136D02*Y436636D01*
Y438136D02*X214850Y438886D01*
X216350D01*
X217100Y438136D01*
X214100Y437386D02*X217100D01*
Y438136D02*Y437386D01*
X218900Y439636D02*X219650D01*
X218900Y438136D02*X219650D01*
X224150Y441886D02*Y435886D01*
Y441886D02*X226400Y438886D01*
X228650Y441886D01*
Y435886D01*
X230450Y438136D02*Y436636D01*
Y438136D02*X231200Y438886D01*
X232700D01*
X233450Y438136D01*
Y436636D01*
X232700Y435886D02*X233450Y436636D01*
X231200Y435886D02*X232700D01*
X230450Y436636D02*X231200Y435886D01*
X236000Y438136D02*Y435886D01*
Y438136D02*X236750Y438886D01*
X237500D01*
X238250Y438136D01*
Y435886D01*
X235250Y438886D02*X236000Y438136D01*
X242750Y436636D02*X243500Y435886D01*
X242750Y441136D02*Y436636D01*
Y441136D02*X243500Y441886D01*
X245000D01*
X245750Y441136D01*
Y436636D01*
X245000Y435886D02*X245750Y436636D01*
X243500Y435886D02*X245000D01*
X242750Y437386D02*X245750Y440386D01*
X247550Y438136D02*X250550Y441886D01*
X247550Y438136D02*X251300D01*
X250550Y441886D02*Y435886D01*
X255800Y441886D02*Y435886D01*
Y441886D02*X258800D01*
X255800Y439186D02*X258050D01*
X261350Y435886D02*X263600D01*
X260600Y436636D02*X261350Y435886D01*
X260600Y438136D02*Y436636D01*
Y438136D02*X261350Y438886D01*
X262850D01*
X263600Y438136D01*
X260600Y437386D02*X263600D01*
Y438136D02*Y437386D01*
X265400Y441886D02*Y435886D01*
Y436636D02*X266150Y435886D01*
X267650D01*
X268400Y436636D01*
Y438136D02*Y436636D01*
X267650Y438886D02*X268400Y438136D01*
X266150Y438886D02*X267650D01*
X265400Y438136D02*X266150Y438886D01*
X272900Y441136D02*X273650Y441886D01*
X275900D01*
X276650Y441136D01*
Y439636D01*
X272900Y435886D02*X276650Y439636D01*
X272900Y435886D02*X276650D01*
X278450Y436636D02*X279200Y435886D01*
X278450Y441136D02*Y436636D01*
Y441136D02*X279200Y441886D01*
X280700D01*
X281450Y441136D01*
Y436636D01*
X280700Y435886D02*X281450Y436636D01*
X279200Y435886D02*X280700D01*
X278450Y437386D02*X281450Y440386D01*
X283250Y440686D02*X284450Y441886D01*
Y435886D01*
X283250D02*X285500D01*
X288050D02*X290300Y438886D01*
Y441136D02*Y438886D01*
X289550Y441886D02*X290300Y441136D01*
X288050Y441886D02*X289550D01*
X287300Y441136D02*X288050Y441886D01*
X287300Y441136D02*Y439636D01*
X288050Y438886D01*
X290300D01*
X294800Y440686D02*X296000Y441886D01*
Y435886D01*
X294800D02*X297050D01*
X298850Y441136D02*X299600Y441886D01*
X301100D01*
X301850Y441136D01*
X301100Y435886D02*X301850Y436636D01*
X299600Y435886D02*X301100D01*
X298850Y436636D02*X299600Y435886D01*
Y439186D02*X301100D01*
X301850Y441136D02*Y439936D01*
Y438436D02*Y436636D01*
Y438436D02*X301100Y439186D01*
X301850Y439936D02*X301100Y439186D01*
X303650Y439636D02*X304400D01*
X303650Y438136D02*X304400D01*
X306200D02*X309200Y441886D01*
X306200Y438136D02*X309950D01*
X309200Y441886D02*Y435886D01*
X312500D02*X314750Y438886D01*
Y441136D02*Y438886D01*
X314000Y441886D02*X314750Y441136D01*
X312500Y441886D02*X314000D01*
X311750Y441136D02*X312500Y441886D01*
X311750Y441136D02*Y439636D01*
X312500Y438886D01*
X314750D01*
X316550Y439636D02*X317300D01*
X316550Y438136D02*X317300D01*
X319100Y441136D02*X319850Y441886D01*
X322100D01*
X322850Y441136D01*
Y439636D01*
X319100Y435886D02*X322850Y439636D01*
X319100Y435886D02*X322850D01*
X324650Y438136D02*X327650Y441886D01*
X324650Y438136D02*X328400D01*
X327650Y441886D02*Y435886D01*
X335900Y441886D02*X336650Y441136D01*
X333650Y441886D02*X335900D01*
X332900Y441136D02*X333650Y441886D01*
X332900Y441136D02*Y436636D01*
X333650Y435886D01*
X335900D01*
X336650Y436636D01*
Y438136D02*Y436636D01*
X335900Y438886D02*X336650Y438136D01*
X334400Y438886D02*X335900D01*
X338450Y441886D02*Y435886D01*
Y441886D02*X340700Y438886D01*
X342950Y441886D01*
Y435886D01*
X344750Y441886D02*X347750D01*
X346250D02*Y435886D01*
X352250Y441886D02*Y436636D01*
X353000Y435886D01*
X354500D01*
X355250Y436636D01*
Y441886D02*Y436636D01*
X357050Y441886D02*X360050D01*
X358550D02*Y435886D01*
X362900D02*X364850D01*
X361850Y436936D02*X362900Y435886D01*
X361850Y440836D02*Y436936D01*
Y440836D02*X362900Y441886D01*
X364850D01*
X200000Y455386D02*Y450886D01*
Y455386D02*X201050Y456886D01*
X202700D01*
X203750Y455386D01*
Y450886D01*
X200000Y453886D02*X203750D01*
X205550D02*Y451636D01*
X206300Y450886D01*
X207800D01*
X208550Y451636D01*
Y453886D02*Y451636D01*
X211100Y456886D02*Y451636D01*
X211850Y450886D01*
X210350Y454636D02*X211850D01*
X213350Y456886D02*Y450886D01*
Y453136D02*X214100Y453886D01*
X215600D01*
X216350Y453136D01*
Y450886D01*
X218150Y453136D02*Y451636D01*
Y453136D02*X218900Y453886D01*
X220400D01*
X221150Y453136D01*
Y451636D01*
X220400Y450886D02*X221150Y451636D01*
X218900Y450886D02*X220400D01*
X218150Y451636D02*X218900Y450886D01*
X223700Y453136D02*Y450886D01*
Y453136D02*X224450Y453886D01*
X225950D01*
X222950D02*X223700Y453136D01*
X227750Y454636D02*X228500D01*
X227750Y453136D02*X228500D01*
X233000Y456886D02*Y450886D01*
Y453886D02*X236000Y456886D01*
X233000Y453886D02*X236000Y450886D01*
G54D232*X237800Y455386D02*Y455236D01*
G54D231*Y453136D02*Y450886D01*
X240050D02*X242300D01*
X239300Y451636D02*X240050Y450886D01*
X239300Y453136D02*Y451636D01*
Y453136D02*X240050Y453886D01*
X241550D01*
X242300Y453136D01*
X239300Y452386D02*X242300D01*
Y453136D02*Y452386D01*
X244850Y453136D02*Y450886D01*
Y453136D02*X245600Y453886D01*
X247100D01*
X244100D02*X244850Y453136D01*
X252350Y456886D02*Y450886D01*
X254300Y456886D02*X255350Y455836D01*
Y451936D01*
X254300Y450886D02*X255350Y451936D01*
X251600Y450886D02*X254300D01*
X251600Y456886D02*X254300D01*
X259400Y453886D02*X260150Y453136D01*
X257900Y453886D02*X259400D01*
X257150Y453136D02*X257900Y453886D01*
X257150Y453136D02*Y451636D01*
X257900Y450886D01*
X260150Y453886D02*Y451636D01*
X260900Y450886D01*
X257900D02*X259400D01*
X260150Y451636D01*
X262700Y453886D02*X264200Y450886D01*
X265700Y453886D02*X264200Y450886D01*
G54D232*X267500Y455386D02*Y455236D01*
G54D231*Y453136D02*Y450886D01*
X269750D02*X272000D01*
X272750Y451636D01*
X272000Y452386D02*X272750Y451636D01*
X269750Y452386D02*X272000D01*
X269000Y453136D02*X269750Y452386D01*
X269000Y453136D02*X269750Y453886D01*
X272000D01*
X272750Y453136D01*
X269000Y451636D02*X269750Y450886D01*
X200000Y471886D02*X203000D01*
X201500D02*Y465886D01*
G54D232*X204800Y470386D02*Y470236D01*
G54D231*Y468136D02*Y465886D01*
X207050Y471886D02*Y466636D01*
X207800Y465886D01*
X206300Y469636D02*X207800D01*
X209300Y471886D02*Y466636D01*
X210050Y465886D01*
X212300D02*X214550D01*
X211550Y466636D02*X212300Y465886D01*
X211550Y468136D02*Y466636D01*
Y468136D02*X212300Y468886D01*
X213800D01*
X214550Y468136D01*
X211550Y467386D02*X214550D01*
Y468136D02*Y467386D01*
X216350Y469636D02*X217100D01*
X216350Y468136D02*X217100D01*
X221600Y466636D02*X222350Y465886D01*
X221600Y471136D02*X222350Y471886D01*
X221600Y471136D02*Y466636D01*
X224150Y468886D02*Y466636D01*
X224900Y465886D01*
X226400D01*
X227150Y466636D01*
Y468886D02*Y466636D01*
X229700Y468136D02*Y465886D01*
Y468136D02*X230450Y468886D01*
X231200D01*
X231950Y468136D01*
Y465886D01*
X228950Y468886D02*X229700Y468136D01*
X233750Y471886D02*Y465886D01*
Y468136D02*X236000Y465886D01*
X233750Y468136D02*X235250Y469636D01*
X238550Y468136D02*Y465886D01*
Y468136D02*X239300Y468886D01*
X240050D01*
X240800Y468136D01*
Y465886D01*
X237800Y468886D02*X238550Y468136D01*
X242600D02*Y466636D01*
Y468136D02*X243350Y468886D01*
X244850D01*
X245600Y468136D01*
Y466636D01*
X244850Y465886D02*X245600Y466636D01*
X243350Y465886D02*X244850D01*
X242600Y466636D02*X243350Y465886D01*
X247400Y468886D02*Y466636D01*
X248150Y465886D01*
X248900D01*
X249650Y466636D01*
Y468886D02*Y466636D01*
X250400Y465886D01*
X251150D01*
X251900Y466636D01*
Y468886D02*Y466636D01*
X254450Y468136D02*Y465886D01*
Y468136D02*X255200Y468886D01*
X255950D01*
X256700Y468136D01*
Y465886D01*
X253700Y468886D02*X254450Y468136D01*
X258500Y471886D02*X259250Y471136D01*
Y466636D01*
X258500Y465886D02*X259250Y466636D01*
X263750Y468886D02*X266750D01*
X271250Y471886D02*Y465886D01*
Y471886D02*X274250D01*
X271250Y469186D02*X273500D01*
X278300Y468886D02*X279050Y468136D01*
X276800Y468886D02*X278300D01*
X276050Y468136D02*X276800Y468886D01*
X276050Y468136D02*Y466636D01*
X276800Y465886D01*
X279050Y468886D02*Y466636D01*
X279800Y465886D01*
X276800D02*X278300D01*
X279050Y466636D01*
X281600Y471886D02*Y465886D01*
Y466636D02*X282350Y465886D01*
X283850D01*
X284600Y466636D01*
Y468136D02*Y466636D01*
X283850Y468886D02*X284600Y468136D01*
X282350Y468886D02*X283850D01*
X281600Y468136D02*X282350Y468886D01*
X287150Y468136D02*Y465886D01*
Y468136D02*X287900Y468886D01*
X289400D01*
X286400D02*X287150Y468136D01*
G54D232*X291200Y470386D02*Y470236D01*
G54D231*Y468136D02*Y465886D01*
X293450Y468886D02*X295700D01*
X292700Y468136D02*X293450Y468886D01*
X292700Y468136D02*Y466636D01*
X293450Y465886D01*
X295700D01*
X299750Y468886D02*X300500Y468136D01*
X298250Y468886D02*X299750D01*
X297500Y468136D02*X298250Y468886D01*
X297500Y468136D02*Y466636D01*
X298250Y465886D01*
X300500Y468886D02*Y466636D01*
X301250Y465886D01*
X298250D02*X299750D01*
X300500Y466636D01*
X303800Y471886D02*Y466636D01*
X304550Y465886D01*
X303050Y469636D02*X304550D01*
G54D232*X306050Y470386D02*Y470236D01*
G54D231*Y468136D02*Y465886D01*
X307550Y468136D02*Y466636D01*
Y468136D02*X308300Y468886D01*
X309800D01*
X310550Y468136D01*
Y466636D01*
X309800Y465886D02*X310550Y466636D01*
X308300Y465886D02*X309800D01*
X307550Y466636D02*X308300Y465886D01*
X313100Y468136D02*Y465886D01*
Y468136D02*X313850Y468886D01*
X314600D01*
X315350Y468136D01*
Y465886D01*
X312350Y468886D02*X313100Y468136D01*
X320600Y471886D02*Y465886D01*
X322550Y471886D02*X323600Y470836D01*
Y466936D01*
X322550Y465886D02*X323600Y466936D01*
X319850Y465886D02*X322550D01*
X319850Y471886D02*X322550D01*
X326150Y468136D02*Y465886D01*
Y468136D02*X326900Y468886D01*
X328400D01*
X325400D02*X326150Y468136D01*
X332450Y468886D02*X333200Y468136D01*
X330950Y468886D02*X332450D01*
X330200Y468136D02*X330950Y468886D01*
X330200Y468136D02*Y466636D01*
X330950Y465886D01*
X333200Y468886D02*Y466636D01*
X333950Y465886D01*
X330950D02*X332450D01*
X333200Y466636D01*
X335750Y468886D02*Y466636D01*
X336500Y465886D01*
X337250D01*
X338000Y466636D01*
Y468886D02*Y466636D01*
X338750Y465886D01*
X339500D01*
X340250Y466636D01*
Y468886D02*Y466636D01*
G54D232*X342050Y470386D02*Y470236D01*
G54D231*Y468136D02*Y465886D01*
X344300Y468136D02*Y465886D01*
Y468136D02*X345050Y468886D01*
X345800D01*
X346550Y468136D01*
Y465886D01*
X343550Y468886D02*X344300Y468136D01*
X350600Y468886D02*X351350Y468136D01*
X349100Y468886D02*X350600D01*
X348350Y468136D02*X349100Y468886D01*
X348350Y468136D02*Y466636D01*
X349100Y465886D01*
X350600D01*
X351350Y466636D01*
X348350Y464386D02*X349100Y463636D01*
X350600D01*
X351350Y464386D01*
Y468886D02*Y464386D01*
M02*
