G04 start of page 14 for group -3984 idx -3984 *
G04 Title: (unknown), fab *
G04 Creator: pcb 20140316 *
G04 CreationDate: Wed 10 Jul 2019 18:35:36 GMT UTC *
G04 For: kier *
G04 Format: Gerber/RS-274X *
G04 PCB-Dimensions (mil): 2755.91 3543.31 *
G04 PCB-Coordinate-Origin: lower left *
%MOIN*%
%FSLAX25Y25*%
%LNFAB*%
%ADD201C,0.0100*%
%ADD200C,0.0075*%
%ADD199C,0.0060*%
%ADD198R,0.0080X0.0080*%
G54D198*X51550Y302781D02*X54750D01*
X51550D02*Y299581D01*
X54750D01*
Y302781D02*Y299581D01*
X49950Y304381D02*X56350D01*
X49950D02*Y297981D01*
X56350D01*
Y304381D02*Y297981D01*
X51550Y54750D02*X54750D01*
X51550D02*Y51550D01*
X54750D01*
Y54750D02*Y51550D01*
X49950Y56350D02*X56350D01*
X49950D02*Y49950D01*
X56350D01*
Y56350D02*Y49950D01*
X228715Y54750D02*X231915D01*
X228715D02*Y51550D01*
X231915D01*
Y54750D02*Y51550D01*
X227115Y56350D02*X233515D01*
X227115D02*Y49950D01*
X233515D01*
Y56350D02*Y49950D01*
X228715Y302781D02*X231915D01*
X228715D02*Y299581D01*
X231915D01*
Y302781D02*Y299581D01*
X227115Y304381D02*X233515D01*
X227115D02*Y297981D01*
X233515D01*
Y304381D02*Y297981D01*
X13400Y367181D02*X16600D01*
X13400D02*Y363981D01*
X16600D01*
Y367181D02*Y363981D01*
X11800Y368781D02*X18200D01*
X11800D02*Y362381D01*
X18200D01*
Y368781D02*Y362381D01*
G54D199*X140000Y367831D02*Y361831D01*
Y367831D02*X143750Y361831D01*
Y367831D02*Y361831D01*
X145550Y367081D02*Y362581D01*
Y367081D02*X146300Y367831D01*
X147800D01*
X148550Y367081D01*
Y362581D01*
X147800Y361831D02*X148550Y362581D01*
X146300Y361831D02*X147800D01*
X145550Y362581D02*X146300Y361831D01*
X98000Y364081D02*X101000Y367831D01*
X98000Y364081D02*X101750D01*
X101000Y367831D02*Y361831D01*
X45000Y362581D02*X45750Y361831D01*
X45000Y367081D02*Y362581D01*
Y367081D02*X45750Y367831D01*
X47250D01*
X48000Y367081D01*
Y362581D01*
X47250Y361831D02*X48000Y362581D01*
X45750Y361831D02*X47250D01*
X45000Y363331D02*X48000Y366331D01*
X49800Y361831D02*X50550D01*
X52350Y366631D02*X53550Y367831D01*
Y361831D01*
X52350D02*X54600D01*
X56400Y367081D02*X57150Y367831D01*
X59400D01*
X60150Y367081D01*
Y365581D01*
X56400Y361831D02*X60150Y365581D01*
X56400Y361831D02*X60150D01*
X64200Y367831D02*X64950Y367081D01*
X62700Y367831D02*X64200D01*
X61950Y367081D02*X62700Y367831D01*
X61950Y367081D02*Y362581D01*
X62700Y361831D01*
X64200Y365131D02*X64950Y364381D01*
X61950Y365131D02*X64200D01*
X62700Y361831D02*X64200D01*
X64950Y362581D01*
Y364381D02*Y362581D01*
X99200Y291339D02*G75*G03X100800Y291339I800J0D01*G01*
G75*G03X99200Y291339I-800J0D01*G01*
X97600D02*G75*G03X102400Y291339I2400J0D01*G01*
G75*G03X97600Y291339I-2400J0D01*G01*
X79515D02*G75*G03X81115Y291339I800J0D01*G01*
G75*G03X79515Y291339I-800J0D01*G01*
X77915D02*G75*G03X82715Y291339I2400J0D01*G01*
G75*G03X77915Y291339I-2400J0D01*G01*
X202350D02*G75*G03X203950Y291339I800J0D01*G01*
G75*G03X202350Y291339I-800J0D01*G01*
X200750D02*G75*G03X205550Y291339I2400J0D01*G01*
G75*G03X200750Y291339I-2400J0D01*G01*
X182665D02*G75*G03X184265Y291339I800J0D01*G01*
G75*G03X182665Y291339I-800J0D01*G01*
X181065D02*G75*G03X185865Y291339I2400J0D01*G01*
G75*G03X181065Y291339I-2400J0D01*G01*
X155696D02*G75*G03X157296Y291339I800J0D01*G01*
G75*G03X155696Y291339I-800J0D01*G01*
X154096D02*G75*G03X158896Y291339I2400J0D01*G01*
G75*G03X154096Y291339I-2400J0D01*G01*
X126169D02*G75*G03X127769Y291339I800J0D01*G01*
G75*G03X126169Y291339I-800J0D01*G01*
X124569D02*G75*G03X129369Y291339I2400J0D01*G01*
G75*G03X124569Y291339I-2400J0D01*G01*
X14200Y380581D02*G75*G03X15800Y380581I800J0D01*G01*
G75*G03X14200Y380581I-800J0D01*G01*
X12600D02*G75*G03X17400Y380581I2400J0D01*G01*
G75*G03X12600Y380581I-2400J0D01*G01*
X135000Y382831D02*X136500Y379831D01*
X138000Y382831D01*
X136500Y379831D02*Y376831D01*
X139800Y380131D02*X142050D01*
X139800Y376831D02*X142800D01*
X139800Y382831D02*Y376831D01*
Y382831D02*X142800D01*
X147600D02*X148350Y382081D01*
X145350Y382831D02*X147600D01*
X144600Y382081D02*X145350Y382831D01*
X144600Y382081D02*Y380581D01*
X145350Y379831D01*
X147600D01*
X148350Y379081D01*
Y377581D01*
X147600Y376831D02*X148350Y377581D01*
X145350Y376831D02*X147600D01*
X144600Y377581D02*X145350Y376831D01*
X100250Y382831D02*X101000Y382081D01*
X98750Y382831D02*X100250D01*
X98000Y382081D02*X98750Y382831D01*
X98000Y382081D02*Y377581D01*
X98750Y376831D01*
X100250Y380131D02*X101000Y379381D01*
X98000Y380131D02*X100250D01*
X98750Y376831D02*X100250D01*
X101000Y377581D01*
Y379381D02*Y377581D01*
X45000D02*X45750Y376831D01*
X45000Y382081D02*Y377581D01*
Y382081D02*X45750Y382831D01*
X47250D01*
X48000Y382081D01*
Y377581D01*
X47250Y376831D02*X48000Y377581D01*
X45750Y376831D02*X47250D01*
X45000Y378331D02*X48000Y381331D01*
X49800Y376831D02*X50550D01*
X52350Y377581D02*X53100Y376831D01*
X52350Y382081D02*Y377581D01*
Y382081D02*X53100Y382831D01*
X54600D01*
X55350Y382081D01*
Y377581D01*
X54600Y376831D02*X55350Y377581D01*
X53100Y376831D02*X54600D01*
X52350Y378331D02*X55350Y381331D01*
X59400Y382831D02*X60150Y382081D01*
X57900Y382831D02*X59400D01*
X57150Y382081D02*X57900Y382831D01*
X57150Y382081D02*Y377581D01*
X57900Y376831D01*
X59400Y380131D02*X60150Y379381D01*
X57150Y380131D02*X59400D01*
X57900Y376831D02*X59400D01*
X60150Y377581D01*
Y379381D02*Y377581D01*
X61950Y382081D02*X62700Y382831D01*
X64200D01*
X64950Y382081D01*
X64200Y376831D02*X64950Y377581D01*
X62700Y376831D02*X64200D01*
X61950Y377581D02*X62700Y376831D01*
Y380131D02*X64200D01*
X64950Y382081D02*Y380881D01*
Y379381D02*Y377581D01*
Y379381D02*X64200Y380131D01*
X64950Y380881D02*X64200Y380131D01*
X144332Y250943D02*X149132Y246143D01*
X144332D02*X149132Y250943D01*
X145132Y250143D02*X148332D01*
X145132D02*Y246943D01*
X148332D01*
Y250143D02*Y246943D01*
X134332Y250943D02*X139132Y246143D01*
X134332D02*X139132Y250943D01*
X135132Y250143D02*X138332D01*
X135132D02*Y246943D01*
X138332D01*
Y250143D02*Y246943D01*
X134332Y234959D02*X139132Y230159D01*
X134332D02*X139132Y234959D01*
X135132Y234159D02*X138332D01*
X135132D02*Y230959D01*
X138332D01*
Y234159D02*Y230959D01*
X144332Y234959D02*X149132Y230159D01*
X144332D02*X149132Y234959D01*
X145132Y234159D02*X148332D01*
X145132D02*Y230959D01*
X148332D01*
Y234159D02*Y230959D01*
X12600Y397981D02*X17400Y393181D01*
X12600D02*X17400Y397981D01*
X13400Y397181D02*X16600D01*
X13400D02*Y393981D01*
X16600D01*
Y397181D02*Y393981D01*
X135000Y397831D02*X136500Y394831D01*
X138000Y397831D01*
X136500Y394831D02*Y391831D01*
X139800Y395131D02*X142050D01*
X139800Y391831D02*X142800D01*
X139800Y397831D02*Y391831D01*
Y397831D02*X142800D01*
X147600D02*X148350Y397081D01*
X145350Y397831D02*X147600D01*
X144600Y397081D02*X145350Y397831D01*
X144600Y397081D02*Y395581D01*
X145350Y394831D01*
X147600D01*
X148350Y394081D01*
Y392581D01*
X147600Y391831D02*X148350Y392581D01*
X145350Y391831D02*X147600D01*
X144600Y392581D02*X145350Y391831D01*
X98000Y394081D02*X101000Y397831D01*
X98000Y394081D02*X101750D01*
X101000Y397831D02*Y391831D01*
X45000Y392581D02*X45750Y391831D01*
X45000Y397081D02*Y392581D01*
Y397081D02*X45750Y397831D01*
X47250D01*
X48000Y397081D01*
Y392581D01*
X47250Y391831D02*X48000Y392581D01*
X45750Y391831D02*X47250D01*
X45000Y393331D02*X48000Y396331D01*
X49800Y391831D02*X50550D01*
X52350Y392581D02*X53100Y391831D01*
X52350Y397081D02*Y392581D01*
Y397081D02*X53100Y397831D01*
X54600D01*
X55350Y397081D01*
Y392581D01*
X54600Y391831D02*X55350Y392581D01*
X53100Y391831D02*X54600D01*
X52350Y393331D02*X55350Y396331D01*
X57150Y397831D02*X60150D01*
X57150D02*Y394831D01*
X57900Y395581D01*
X59400D01*
X60150Y394831D01*
Y392581D01*
X59400Y391831D02*X60150Y392581D01*
X57900Y391831D02*X59400D01*
X57150Y392581D02*X57900Y391831D01*
X62700D02*X64950Y394831D01*
Y397081D02*Y394831D01*
X64200Y397831D02*X64950Y397081D01*
X62700Y397831D02*X64200D01*
X61950Y397081D02*X62700Y397831D01*
X61950Y397081D02*Y395581D01*
X62700Y394831D01*
X64950D01*
X219094Y101231D02*Y94831D01*
X215894Y98031D02*X222294D01*
X217494Y99631D02*X220694D01*
X217494D02*Y96431D01*
X220694D01*
Y99631D02*Y96431D01*
X219094Y128791D02*Y122391D01*
X215894Y125591D02*X222294D01*
X217494Y127191D02*X220694D01*
X217494D02*Y123991D01*
X220694D01*
Y127191D02*Y123991D01*
X15000Y413781D02*Y407381D01*
X11800Y410581D02*X18200D01*
X13400Y412181D02*X16600D01*
X13400D02*Y408981D01*
X16600D01*
Y412181D02*Y408981D01*
X135000Y412831D02*X136500Y409831D01*
X138000Y412831D01*
X136500Y409831D02*Y406831D01*
X139800Y410131D02*X142050D01*
X139800Y406831D02*X142800D01*
X139800Y412831D02*Y406831D01*
Y412831D02*X142800D01*
X147600D02*X148350Y412081D01*
X145350Y412831D02*X147600D01*
X144600Y412081D02*X145350Y412831D01*
X144600Y412081D02*Y410581D01*
X145350Y409831D01*
X147600D01*
X148350Y409081D01*
Y407581D01*
X147600Y406831D02*X148350Y407581D01*
X145350Y406831D02*X147600D01*
X144600Y407581D02*X145350Y406831D01*
X98000Y412081D02*X98750Y412831D01*
X101000D01*
X101750Y412081D01*
Y410581D01*
X98000Y406831D02*X101750Y410581D01*
X98000Y406831D02*X101750D01*
X45000Y407581D02*X45750Y406831D01*
X45000Y412081D02*Y407581D01*
Y412081D02*X45750Y412831D01*
X47250D01*
X48000Y412081D01*
Y407581D01*
X47250Y406831D02*X48000Y407581D01*
X45750Y406831D02*X47250D01*
X45000Y408331D02*X48000Y411331D01*
X49800Y406831D02*X50550D01*
X52350Y407581D02*X53100Y406831D01*
X52350Y412081D02*Y407581D01*
Y412081D02*X53100Y412831D01*
X54600D01*
X55350Y412081D01*
Y407581D01*
X54600Y406831D02*X55350Y407581D01*
X53100Y406831D02*X54600D01*
X52350Y408331D02*X55350Y411331D01*
X57150Y412831D02*X60150D01*
X57150D02*Y409831D01*
X57900Y410581D01*
X59400D01*
X60150Y409831D01*
Y407581D01*
X59400Y406831D02*X60150Y407581D01*
X57900Y406831D02*X59400D01*
X57150Y407581D02*X57900Y406831D01*
X61950Y411631D02*X63150Y412831D01*
Y406831D01*
X61950D02*X64200D01*
X79862Y55118D02*Y51918D01*
Y55118D02*X82636Y56718D01*
X79862Y55118D02*X77089Y56718D01*
X78262Y55118D02*G75*G03X81462Y55118I1600J0D01*G01*
G75*G03X78262Y55118I-1600J0D01*G01*
X94862D02*Y51918D01*
Y55118D02*X97636Y56718D01*
X94862Y55118D02*X92089Y56718D01*
X93262Y55118D02*G75*G03X96462Y55118I1600J0D01*G01*
G75*G03X93262Y55118I-1600J0D01*G01*
X109862D02*Y51918D01*
Y55118D02*X112636Y56718D01*
X109862Y55118D02*X107089Y56718D01*
X108262Y55118D02*G75*G03X111462Y55118I1600J0D01*G01*
G75*G03X108262Y55118I-1600J0D01*G01*
X124862D02*Y51918D01*
Y55118D02*X127636Y56718D01*
X124862Y55118D02*X122089Y56718D01*
X123262Y55118D02*G75*G03X126462Y55118I1600J0D01*G01*
G75*G03X123262Y55118I-1600J0D01*G01*
X164961Y44291D02*Y41091D01*
Y44291D02*X167734Y45891D01*
X164961Y44291D02*X162187Y45891D01*
X163361Y44291D02*G75*G03X166561Y44291I1600J0D01*G01*
G75*G03X163361Y44291I-1600J0D01*G01*
X197244D02*Y41091D01*
Y44291D02*X200017Y45891D01*
X197244Y44291D02*X194471Y45891D01*
X195644Y44291D02*G75*G03X198844Y44291I1600J0D01*G01*
G75*G03X195644Y44291I-1600J0D01*G01*
X15000Y425581D02*Y422381D01*
Y425581D02*X17773Y427181D01*
X15000Y425581D02*X12227Y427181D01*
X13400Y425581D02*G75*G03X16600Y425581I1600J0D01*G01*
G75*G03X13400Y425581I-1600J0D01*G01*
X135000Y427831D02*X136500Y424831D01*
X138000Y427831D01*
X136500Y424831D02*Y421831D01*
X139800Y425131D02*X142050D01*
X139800Y421831D02*X142800D01*
X139800Y427831D02*Y421831D01*
Y427831D02*X142800D01*
X147600D02*X148350Y427081D01*
X145350Y427831D02*X147600D01*
X144600Y427081D02*X145350Y427831D01*
X144600Y427081D02*Y425581D01*
X145350Y424831D01*
X147600D01*
X148350Y424081D01*
Y422581D01*
X147600Y421831D02*X148350Y422581D01*
X145350Y421831D02*X147600D01*
X144600Y422581D02*X145350Y421831D01*
X100250Y427831D02*X101000Y427081D01*
X98750Y427831D02*X100250D01*
X98000Y427081D02*X98750Y427831D01*
X98000Y427081D02*Y422581D01*
X98750Y421831D01*
X100250Y425131D02*X101000Y424381D01*
X98000Y425131D02*X100250D01*
X98750Y421831D02*X100250D01*
X101000Y422581D01*
Y424381D02*Y422581D01*
X45000D02*X45750Y421831D01*
X45000Y427081D02*Y422581D01*
Y427081D02*X45750Y427831D01*
X47250D01*
X48000Y427081D01*
Y422581D01*
X47250Y421831D02*X48000Y422581D01*
X45750Y421831D02*X47250D01*
X45000Y423331D02*X48000Y426331D01*
X49800Y421831D02*X50550D01*
X52350Y422581D02*X53100Y421831D01*
X52350Y427081D02*Y422581D01*
Y427081D02*X53100Y427831D01*
X54600D01*
X55350Y427081D01*
Y422581D01*
X54600Y421831D02*X55350Y422581D01*
X53100Y421831D02*X54600D01*
X52350Y423331D02*X55350Y426331D01*
X57150Y424081D02*X60150Y427831D01*
X57150Y424081D02*X60900D01*
X60150Y427831D02*Y421831D01*
X63450D02*X66450Y427831D01*
X62700D02*X66450D01*
X129896Y89592D02*X133096D01*
X129896D02*Y86392D01*
X133096D01*
Y89592D02*Y86392D01*
X129896Y79592D02*X133096D01*
X129896D02*Y76392D01*
X133096D01*
Y79592D02*Y76392D01*
X119896Y89592D02*X123096D01*
X119896D02*Y86392D01*
X123096D01*
Y89592D02*Y86392D01*
X119896Y79592D02*X123096D01*
X119896D02*Y76392D01*
X123096D01*
Y79592D02*Y76392D01*
X109896Y89592D02*X113096D01*
X109896D02*Y86392D01*
X113096D01*
Y89592D02*Y86392D01*
X109896Y79592D02*X113096D01*
X109896D02*Y76392D01*
X113096D01*
Y79592D02*Y76392D01*
X99896Y89592D02*X103096D01*
X99896D02*Y86392D01*
X103096D01*
Y89592D02*Y86392D01*
X99896Y79592D02*X103096D01*
X99896D02*Y76392D01*
X103096D01*
Y79592D02*Y76392D01*
X227337Y104553D02*X230537D01*
X227337D02*Y101353D01*
X230537D01*
Y104553D02*Y101353D01*
X227337Y122269D02*X230537D01*
X227337D02*Y119069D01*
X230537D01*
Y122269D02*Y119069D01*
X13400Y442181D02*X16600D01*
X13400D02*Y438981D01*
X16600D01*
Y442181D02*Y438981D01*
X135000Y442831D02*X136500Y439831D01*
X138000Y442831D01*
X136500Y439831D02*Y436831D01*
X139800Y440131D02*X142050D01*
X139800Y436831D02*X142800D01*
X139800Y442831D02*Y436831D01*
Y442831D02*X142800D01*
X147600D02*X148350Y442081D01*
X145350Y442831D02*X147600D01*
X144600Y442081D02*X145350Y442831D01*
X144600Y442081D02*Y440581D01*
X145350Y439831D01*
X147600D01*
X148350Y439081D01*
Y437581D01*
X147600Y436831D02*X148350Y437581D01*
X145350Y436831D02*X147600D01*
X144600Y437581D02*X145350Y436831D01*
X98000Y441631D02*X99200Y442831D01*
Y436831D01*
X98000D02*X100250D01*
X102050Y437581D02*X102800Y436831D01*
X102050Y442081D02*Y437581D01*
Y442081D02*X102800Y442831D01*
X104300D01*
X105050Y442081D01*
Y437581D01*
X104300Y436831D02*X105050Y437581D01*
X102800Y436831D02*X104300D01*
X102050Y438331D02*X105050Y441331D01*
X45000Y437581D02*X45750Y436831D01*
X45000Y442081D02*Y437581D01*
Y442081D02*X45750Y442831D01*
X47250D01*
X48000Y442081D01*
Y437581D01*
X47250Y436831D02*X48000Y437581D01*
X45750Y436831D02*X47250D01*
X45000Y438331D02*X48000Y441331D01*
X49800Y436831D02*X50550D01*
X52350Y437581D02*X53100Y436831D01*
X52350Y442081D02*Y437581D01*
Y442081D02*X53100Y442831D01*
X54600D01*
X55350Y442081D01*
Y437581D01*
X54600Y436831D02*X55350Y437581D01*
X53100Y436831D02*X54600D01*
X52350Y438331D02*X55350Y441331D01*
X57150Y442081D02*X57900Y442831D01*
X59400D01*
X60150Y442081D01*
X59400Y436831D02*X60150Y437581D01*
X57900Y436831D02*X59400D01*
X57150Y437581D02*X57900Y436831D01*
Y440131D02*X59400D01*
X60150Y442081D02*Y440881D01*
Y439381D02*Y437581D01*
Y439381D02*X59400Y440131D01*
X60150Y440881D02*X59400Y440131D01*
X62700Y436831D02*X64950Y439831D01*
Y442081D02*Y439831D01*
X64200Y442831D02*X64950Y442081D01*
X62700Y442831D02*X64200D01*
X61950Y442081D02*X62700Y442831D01*
X61950Y442081D02*Y440581D01*
X62700Y439831D01*
X64950D01*
X170755Y56417D02*G75*G03X172355Y56417I800J0D01*G01*
G75*G03X170755Y56417I-800J0D01*G01*
X189850D02*G75*G03X191450Y56417I800J0D01*G01*
G75*G03X189850Y56417I-800J0D01*G01*
X14200Y455581D02*G75*G03X15800Y455581I800J0D01*G01*
G75*G03X14200Y455581I-800J0D01*G01*
X135000Y457831D02*X136500Y454831D01*
X138000Y457831D01*
X136500Y454831D02*Y451831D01*
X139800Y455131D02*X142050D01*
X139800Y451831D02*X142800D01*
X139800Y457831D02*Y451831D01*
Y457831D02*X142800D01*
X147600D02*X148350Y457081D01*
X145350Y457831D02*X147600D01*
X144600Y457081D02*X145350Y457831D01*
X144600Y457081D02*Y455581D01*
X145350Y454831D01*
X147600D01*
X148350Y454081D01*
Y452581D01*
X147600Y451831D02*X148350Y452581D01*
X145350Y451831D02*X147600D01*
X144600Y452581D02*X145350Y451831D01*
X98000Y457081D02*X98750Y457831D01*
X101000D01*
X101750Y457081D01*
Y455581D01*
X98000Y451831D02*X101750Y455581D01*
X98000Y451831D02*X101750D01*
X45000Y452581D02*X45750Y451831D01*
X45000Y457081D02*Y452581D01*
Y457081D02*X45750Y457831D01*
X47250D01*
X48000Y457081D01*
Y452581D01*
X47250Y451831D02*X48000Y452581D01*
X45750Y451831D02*X47250D01*
X45000Y453331D02*X48000Y456331D01*
X49800Y451831D02*X50550D01*
X52350Y452581D02*X53100Y451831D01*
X52350Y457081D02*Y452581D01*
Y457081D02*X53100Y457831D01*
X54600D01*
X55350Y457081D01*
Y452581D01*
X54600Y451831D02*X55350Y452581D01*
X53100Y451831D02*X54600D01*
X52350Y453331D02*X55350Y456331D01*
X57150Y457081D02*X57900Y457831D01*
X59400D01*
X60150Y457081D01*
X59400Y451831D02*X60150Y452581D01*
X57900Y451831D02*X59400D01*
X57150Y452581D02*X57900Y451831D01*
Y455131D02*X59400D01*
X60150Y457081D02*Y455881D01*
Y454381D02*Y452581D01*
Y454381D02*X59400Y455131D01*
X60150Y455881D02*X59400Y455131D01*
X61950Y456631D02*X63150Y457831D01*
Y451831D01*
X61950D02*X64200D01*
X50113Y75331D02*X52513Y72931D01*
X50113D02*X52513Y75331D01*
X50113Y80331D02*X52513Y77931D01*
X50113D02*X52513Y80331D01*
X55113Y75331D02*X57513Y72931D01*
X55113D02*X57513Y75331D01*
X55113Y80331D02*X57513Y77931D01*
X55113D02*X57513Y80331D01*
X60113Y75331D02*X62513Y72931D01*
X60113D02*X62513Y75331D01*
X60113Y80331D02*X62513Y77931D01*
X60113D02*X62513Y80331D01*
X65113Y75331D02*X67513Y72931D01*
X65113D02*X67513Y75331D01*
X65113Y80331D02*X67513Y77931D01*
X65113D02*X67513Y80331D01*
X70113Y75331D02*X72513Y72931D01*
X70113D02*X72513Y75331D01*
X70113Y80331D02*X72513Y77931D01*
X70113D02*X72513Y80331D01*
X13800Y471781D02*X16200Y469381D01*
X13800D02*X16200Y471781D01*
X135000Y472831D02*X136500Y469831D01*
X138000Y472831D01*
X136500Y469831D02*Y466831D01*
X139800Y470131D02*X142050D01*
X139800Y466831D02*X142800D01*
X139800Y472831D02*Y466831D01*
Y472831D02*X142800D01*
X147600D02*X148350Y472081D01*
X145350Y472831D02*X147600D01*
X144600Y472081D02*X145350Y472831D01*
X144600Y472081D02*Y470581D01*
X145350Y469831D01*
X147600D01*
X148350Y469081D01*
Y467581D01*
X147600Y466831D02*X148350Y467581D01*
X145350Y466831D02*X147600D01*
X144600Y467581D02*X145350Y466831D01*
X98000Y471631D02*X99200Y472831D01*
Y466831D01*
X98000D02*X100250D01*
X102050Y467581D02*X102800Y466831D01*
X102050Y472081D02*Y467581D01*
Y472081D02*X102800Y472831D01*
X104300D01*
X105050Y472081D01*
Y467581D01*
X104300Y466831D02*X105050Y467581D01*
X102800Y466831D02*X104300D01*
X102050Y468331D02*X105050Y471331D01*
X45000Y467581D02*X45750Y466831D01*
X45000Y472081D02*Y467581D01*
Y472081D02*X45750Y472831D01*
X47250D01*
X48000Y472081D01*
Y467581D01*
X47250Y466831D02*X48000Y467581D01*
X45750Y466831D02*X47250D01*
X45000Y468331D02*X48000Y471331D01*
X49800Y466831D02*X50550D01*
X52350Y467581D02*X53100Y466831D01*
X52350Y472081D02*Y467581D01*
Y472081D02*X53100Y472831D01*
X54600D01*
X55350Y472081D01*
Y467581D01*
X54600Y466831D02*X55350Y467581D01*
X53100Y466831D02*X54600D01*
X52350Y468331D02*X55350Y471331D01*
X57150Y472081D02*X57900Y472831D01*
X60150D01*
X60900Y472081D01*
Y470581D01*
X57150Y466831D02*X60900Y470581D01*
X57150Y466831D02*X60900D01*
X64950Y472831D02*X65700Y472081D01*
X63450Y472831D02*X64950D01*
X62700Y472081D02*X63450Y472831D01*
X62700Y472081D02*Y467581D01*
X63450Y466831D01*
X64950Y470131D02*X65700Y469381D01*
X62700Y470131D02*X64950D01*
X63450Y466831D02*X64950D01*
X65700Y467581D01*
Y469381D02*Y467581D01*
X204724Y277191D02*Y273991D01*
X203124Y275591D02*X206324D01*
X78740Y277191D02*Y273991D01*
X77140Y275591D02*X80340D01*
X167126Y284868D02*Y281668D01*
X165526Y283268D02*X168726D01*
X192126Y284868D02*Y281668D01*
X190526Y283268D02*X193726D01*
X181890Y267939D02*Y264739D01*
X180290Y266339D02*X183490D01*
X181890Y265380D02*Y262180D01*
X180290Y263780D02*X183490D01*
X184449Y267939D02*Y264739D01*
X182849Y266339D02*X186049D01*
X184449Y265380D02*Y262180D01*
X182849Y263780D02*X186049D01*
X187008Y267939D02*Y264739D01*
X185408Y266339D02*X188608D01*
X187008Y265380D02*Y262180D01*
X185408Y263780D02*X188608D01*
X189567Y267939D02*Y264739D01*
X187967Y266339D02*X191167D01*
X189567Y265380D02*Y262180D01*
X187967Y263780D02*X191167D01*
X192126Y267939D02*Y264739D01*
X190526Y266339D02*X193726D01*
X192126Y265380D02*Y262180D01*
X190526Y263780D02*X193726D01*
X227559Y267939D02*Y264739D01*
X225959Y266339D02*X229159D01*
X227559Y265380D02*Y262180D01*
X225959Y263780D02*X229159D01*
X225000Y267939D02*Y264739D01*
X223400Y266339D02*X226600D01*
X225000Y265380D02*Y262180D01*
X223400Y263780D02*X226600D01*
X222441Y267939D02*Y264739D01*
X220841Y266339D02*X224041D01*
X222441Y265380D02*Y262180D01*
X220841Y263780D02*X224041D01*
X219882Y267939D02*Y264739D01*
X218282Y266339D02*X221482D01*
X219882Y265380D02*Y262180D01*
X218282Y263780D02*X221482D01*
X217323Y267939D02*Y264739D01*
X215723Y266339D02*X218923D01*
X217323Y291954D02*Y288754D01*
X215723Y290354D02*X218923D01*
X192913Y205734D02*Y202534D01*
X191313Y204134D02*X194513D01*
X208661Y205734D02*Y202534D01*
X207061Y204134D02*X210261D01*
X212205Y190970D02*Y187770D01*
X210605Y189370D02*X213805D01*
X199606Y260655D02*Y257455D01*
X198006Y259055D02*X201206D01*
X196850Y260655D02*Y257455D01*
X195250Y259055D02*X198450D01*
X194094Y260655D02*Y257455D01*
X192494Y259055D02*X195694D01*
X198228Y263017D02*Y259817D01*
X196628Y261417D02*X199828D01*
X180709Y230340D02*Y227140D01*
X179109Y228740D02*X182309D01*
X183071Y231718D02*Y228518D01*
X181471Y230118D02*X184671D01*
X183071Y228962D02*Y225762D01*
X181471Y227362D02*X184671D01*
X183071Y226206D02*Y223006D01*
X181471Y224606D02*X184671D01*
X180709Y227584D02*Y224384D01*
X179109Y225984D02*X182309D01*
X180709Y224828D02*Y221628D01*
X179109Y223228D02*X182309D01*
X183071Y223450D02*Y220250D01*
X181471Y221850D02*X184671D01*
X183071Y220694D02*Y217494D01*
X181471Y219094D02*X184671D01*
X183071Y217939D02*Y214739D01*
X181471Y216339D02*X184671D01*
X180709Y222072D02*Y218872D01*
X179109Y220472D02*X182309D01*
X180709Y219317D02*Y216117D01*
X179109Y217717D02*X182309D01*
X197835Y213017D02*Y209817D01*
X196235Y211417D02*X199435D01*
X200591Y213017D02*Y209817D01*
X198991Y211417D02*X202191D01*
X203346Y213017D02*Y209817D01*
X201746Y211417D02*X204946D01*
X206102Y213017D02*Y209817D01*
X204502Y211417D02*X207702D01*
X208858Y213017D02*Y209817D01*
X207258Y211417D02*X210458D01*
X211614Y213017D02*Y209817D01*
X210014Y211417D02*X213214D01*
X226378Y217939D02*Y214739D01*
X224778Y216339D02*X227978D01*
X228740Y219317D02*Y216117D01*
X227140Y217717D02*X230340D01*
X228740Y230340D02*Y227140D01*
X227140Y228740D02*X230340D01*
X226378Y231718D02*Y228518D01*
X224778Y230118D02*X227978D01*
X226378Y228962D02*Y225762D01*
X224778Y227362D02*X227978D01*
X228740Y227584D02*Y224384D01*
X227140Y225984D02*X230340D01*
X226378Y226206D02*Y223006D01*
X224778Y224606D02*X227978D01*
X228740Y224828D02*Y221628D01*
X227140Y223228D02*X230340D01*
X228740Y222072D02*Y218872D01*
X227140Y220472D02*X230340D01*
X226378Y223450D02*Y220250D01*
X224778Y221850D02*X227978D01*
X226378Y220694D02*Y217494D01*
X224778Y219094D02*X227978D01*
X209843Y260655D02*Y257455D01*
X208243Y259055D02*X211443D01*
X212598Y260655D02*Y257455D01*
X210998Y259055D02*X214198D01*
X215354Y260655D02*Y257455D01*
X213754Y259055D02*X216954D01*
X213976Y263017D02*Y259817D01*
X212376Y261417D02*X215576D01*
X196850Y268135D02*Y264935D01*
X195250Y266535D02*X198450D01*
X196850Y277191D02*Y273991D01*
X195250Y275591D02*X198450D01*
X177165Y268135D02*Y264935D01*
X175565Y266535D02*X178765D01*
X177165Y277387D02*Y274187D01*
X175565Y275787D02*X178765D01*
X212598Y268135D02*Y264935D01*
X210998Y266535D02*X214198D01*
X212598Y277191D02*Y273991D01*
X210998Y275591D02*X214198D01*
X232283Y277191D02*Y273991D01*
X230683Y275591D02*X233883D01*
X232283Y268135D02*Y264935D01*
X230683Y266535D02*X233883D01*
X203346Y236639D02*Y233439D01*
X201746Y235039D02*X204946D01*
X206102Y236639D02*Y233439D01*
X204502Y235039D02*X207702D01*
X204724Y239002D02*Y235802D01*
X203124Y237402D02*X206324D01*
X204724Y268135D02*Y264935D01*
X203124Y266535D02*X206324D01*
X203346Y265773D02*Y262573D01*
X201746Y264173D02*X204946D01*
X206102Y265773D02*Y262573D01*
X204502Y264173D02*X207702D01*
X214764Y188608D02*Y185408D01*
X213164Y187008D02*X216364D01*
X214764Y186049D02*Y182849D01*
X213164Y184449D02*X216364D01*
X214764Y183490D02*Y180290D01*
X213164Y181890D02*X216364D01*
X214764Y180931D02*Y177731D01*
X213164Y179331D02*X216364D01*
X214764Y178372D02*Y175172D01*
X213164Y176772D02*X216364D01*
X214764Y175813D02*Y172613D01*
X213164Y174213D02*X216364D01*
X226181Y188608D02*Y185408D01*
X224581Y187008D02*X227781D01*
X226181Y186049D02*Y182849D01*
X224581Y184449D02*X227781D01*
X226181Y183490D02*Y180290D01*
X224581Y181890D02*X227781D01*
X226181Y180931D02*Y177731D01*
X224581Y179331D02*X227781D01*
X226181Y178372D02*Y175172D01*
X224581Y176772D02*X227781D01*
X226181Y175813D02*Y172613D01*
X224581Y174213D02*X227781D01*
X178937Y188608D02*Y185408D01*
X177337Y187008D02*X180537D01*
X178937Y186049D02*Y182849D01*
X177337Y184449D02*X180537D01*
X178937Y183490D02*Y180290D01*
X177337Y181890D02*X180537D01*
X178937Y180931D02*Y177731D01*
X177337Y179331D02*X180537D01*
X178937Y178372D02*Y175172D01*
X177337Y176772D02*X180537D01*
X178937Y175813D02*Y172613D01*
X177337Y174213D02*X180537D01*
X167520Y188608D02*Y185408D01*
X165920Y187008D02*X169120D01*
X167520Y186049D02*Y182849D01*
X165920Y184449D02*X169120D01*
X167520Y183490D02*Y180290D01*
X165920Y181890D02*X169120D01*
X167520Y180931D02*Y177731D01*
X165920Y179331D02*X169120D01*
X167520Y178372D02*Y175172D01*
X165920Y176772D02*X169120D01*
X167520Y175813D02*Y172613D01*
X165920Y174213D02*X169120D01*
X142126Y190183D02*Y186983D01*
X140526Y188583D02*X143726D01*
X144882Y190183D02*Y186983D01*
X143282Y188583D02*X146482D01*
X147638Y190183D02*Y186983D01*
X146038Y188583D02*X149238D01*
X150394Y190183D02*Y186983D01*
X148794Y188583D02*X151994D01*
X156693Y207112D02*Y203912D01*
X155093Y205512D02*X158293D01*
X156693Y204356D02*Y201156D01*
X155093Y202756D02*X158293D01*
X156693Y201600D02*Y198400D01*
X155093Y200000D02*X158293D01*
X156693Y198844D02*Y195644D01*
X155093Y197244D02*X158293D01*
X156693Y196088D02*Y192888D01*
X155093Y194488D02*X158293D01*
X156693Y193332D02*Y190132D01*
X155093Y191732D02*X158293D01*
X159055Y205734D02*Y202534D01*
X157455Y204134D02*X160655D01*
X135433Y205340D02*Y202140D01*
X133833Y203740D02*X137033D01*
X135433Y202584D02*Y199384D01*
X133833Y200984D02*X137033D01*
X135433Y199828D02*Y196628D01*
X133833Y198228D02*X137033D01*
X135433Y197072D02*Y193872D01*
X133833Y195472D02*X137033D01*
X135433Y194317D02*Y191117D01*
X133833Y192717D02*X137033D01*
X135433Y208096D02*Y204896D01*
X133833Y206496D02*X137033D01*
X126575Y205340D02*Y202140D01*
X124975Y203740D02*X128175D01*
X126575Y202584D02*Y199384D01*
X124975Y200984D02*X128175D01*
X126575Y199828D02*Y196628D01*
X124975Y198228D02*X128175D01*
X126575Y197072D02*Y193872D01*
X124975Y195472D02*X128175D01*
X126575Y194317D02*Y191117D01*
X124975Y192717D02*X128175D01*
X126575Y208096D02*Y204896D01*
X124975Y206496D02*X128175D01*
X134252Y265970D02*Y262770D01*
X132652Y264370D02*X135852D01*
X134252Y268529D02*Y265329D01*
X132652Y266929D02*X135852D01*
X134252Y263411D02*Y260211D01*
X132652Y261811D02*X135852D01*
X149213Y265970D02*Y262770D01*
X147613Y264370D02*X150813D01*
X149213Y268529D02*Y265329D01*
X147613Y266929D02*X150813D01*
X149213Y263411D02*Y260211D01*
X147613Y261811D02*X150813D01*
X185039Y205734D02*Y202534D01*
X183439Y204134D02*X186639D01*
X185039Y196285D02*Y193085D01*
X183439Y194685D02*X186639D01*
X220472Y205931D02*Y202731D01*
X218872Y204331D02*X222072D01*
X220079Y196088D02*Y192888D01*
X218479Y194488D02*X221679D01*
X224409Y205734D02*Y202534D01*
X222809Y204134D02*X226009D01*
X220079Y193529D02*Y190329D01*
X218479Y191929D02*X221679D01*
X199213Y210655D02*Y207455D01*
X197613Y209055D02*X200813D01*
X201969Y210655D02*Y207455D01*
X200369Y209055D02*X203569D01*
X204724Y210655D02*Y207455D01*
X203124Y209055D02*X206324D01*
X207480Y210655D02*Y207455D01*
X205880Y209055D02*X209080D01*
X210236Y210655D02*Y207455D01*
X208636Y209055D02*X211836D01*
X217323Y265380D02*Y262180D01*
X215723Y263780D02*X218923D01*
X211220Y263017D02*Y259817D01*
X209620Y261417D02*X212820D01*
X235039Y257112D02*Y253912D01*
X233439Y255512D02*X236639D01*
X237402Y241954D02*Y238754D01*
X235802Y240354D02*X239002D01*
X235039Y240576D02*Y237376D01*
X233439Y238976D02*X236639D01*
X235039Y254356D02*Y251156D01*
X233439Y252756D02*X236639D01*
X237402Y252978D02*Y249778D01*
X235802Y251378D02*X239002D01*
X235039Y251600D02*Y248400D01*
X233439Y250000D02*X236639D01*
X235039Y248844D02*Y245644D01*
X233439Y247244D02*X236639D01*
X235039Y246088D02*Y242888D01*
X233439Y244488D02*X236639D01*
X237402Y250222D02*Y247022D01*
X235802Y248622D02*X239002D01*
X237402Y247466D02*Y244266D01*
X235802Y245866D02*X239002D01*
X237402Y244710D02*Y241510D01*
X235802Y243110D02*X239002D01*
X235039Y243332D02*Y240132D01*
X233439Y241732D02*X236639D01*
X237402Y255734D02*Y252534D01*
X235802Y254134D02*X239002D01*
X195472Y263017D02*Y259817D01*
X193872Y261417D02*X197072D01*
X241142Y207899D02*Y204699D01*
X239542Y206299D02*X242742D01*
X239370Y206128D02*Y202928D01*
X237770Y204528D02*X240970D01*
X237598Y204356D02*Y201156D01*
X235998Y202756D02*X239198D01*
X235827Y202584D02*Y199384D01*
X234227Y200984D02*X237427D01*
X170472Y206521D02*Y203321D01*
X168872Y204921D02*X172072D01*
X172244Y204750D02*Y201550D01*
X170644Y203150D02*X173844D01*
X169882Y204159D02*Y200959D01*
X168282Y202559D02*X171482D01*
X159055Y202978D02*Y199778D01*
X157455Y201378D02*X160655D01*
X159055Y200222D02*Y197022D01*
X157455Y198622D02*X160655D01*
X159055Y197466D02*Y194266D01*
X157455Y195866D02*X160655D01*
X159055Y194710D02*Y191510D01*
X157455Y193110D02*X160655D01*
X139370Y190183D02*Y186983D01*
X137770Y188583D02*X140970D01*
X235039Y196482D02*Y193282D01*
X233439Y194882D02*X236639D01*
X235039Y193726D02*Y190526D01*
X233439Y192126D02*X236639D01*
X166142Y263017D02*Y259817D01*
X164542Y261417D02*X167742D01*
X117323Y263017D02*Y259817D01*
X115723Y261417D02*X118923D01*
X118898Y243529D02*Y240329D01*
X117298Y241929D02*X120498D01*
X164567Y243529D02*Y240329D01*
X162967Y241929D02*X166167D01*
X165945Y213214D02*Y210014D01*
X164345Y211614D02*X167545D01*
X163583Y213214D02*Y210014D01*
X161983Y211614D02*X165183D01*
X161220Y213214D02*Y210014D01*
X159620Y211614D02*X162820D01*
X162402Y215380D02*Y212180D01*
X160802Y213780D02*X164002D01*
X164764Y215380D02*Y212180D01*
X163164Y213780D02*X166364D01*
X193898Y188214D02*Y185014D01*
X192298Y186614D02*X195498D01*
X201378Y188214D02*Y185014D01*
X199778Y186614D02*X202978D01*
X104528Y157899D02*Y154699D01*
X102928Y156299D02*X106128D01*
X104528Y155537D02*Y152337D01*
X102928Y153937D02*X106128D01*
X104528Y153175D02*Y149975D01*
X102928Y151575D02*X106128D01*
X102362Y156718D02*Y153518D01*
X100762Y155118D02*X103962D01*
X102362Y154356D02*Y151156D01*
X100762Y152756D02*X103962D01*
X100197Y155537D02*Y152337D01*
X98597Y153937D02*X101797D01*
X115945Y157899D02*Y154699D01*
X114345Y156299D02*X117545D01*
X115945Y155537D02*Y152337D01*
X114345Y153937D02*X117545D01*
X115945Y153175D02*Y149975D01*
X114345Y151575D02*X117545D01*
X118110Y156718D02*Y153518D01*
X116510Y155118D02*X119710D01*
X118110Y154356D02*Y151156D01*
X116510Y152756D02*X119710D01*
X120276Y155537D02*Y152337D01*
X118676Y153937D02*X121876D01*
X57283Y157899D02*Y154699D01*
X55683Y156299D02*X58883D01*
X57283Y155340D02*Y152140D01*
X55683Y153740D02*X58883D01*
X57283Y152781D02*Y149581D01*
X55683Y151181D02*X58883D01*
X57283Y150222D02*Y147022D01*
X55683Y148622D02*X58883D01*
X57283Y147663D02*Y144463D01*
X55683Y146063D02*X58883D01*
X57283Y145104D02*Y141904D01*
X55683Y143504D02*X58883D01*
X68701Y157899D02*Y154699D01*
X67101Y156299D02*X70301D01*
X68701Y155537D02*Y152337D01*
X67101Y153937D02*X70301D01*
X68701Y153175D02*Y149975D01*
X67101Y151575D02*X70301D01*
X70866Y156718D02*Y153518D01*
X69266Y155118D02*X72466D01*
X70866Y154356D02*Y151156D01*
X69266Y152756D02*X72466D01*
X73031Y155537D02*Y152337D01*
X71431Y153937D02*X74631D01*
X214764Y157899D02*Y154699D01*
X213164Y156299D02*X216364D01*
X214764Y155340D02*Y152140D01*
X213164Y153740D02*X216364D01*
X214764Y152781D02*Y149581D01*
X213164Y151181D02*X216364D01*
X214764Y150222D02*Y147022D01*
X213164Y148622D02*X216364D01*
X214764Y147663D02*Y144463D01*
X213164Y146063D02*X216364D01*
X214764Y145104D02*Y141904D01*
X213164Y143504D02*X216364D01*
X226181Y157899D02*Y154699D01*
X224581Y156299D02*X227781D01*
X226181Y155340D02*Y152140D01*
X224581Y153740D02*X227781D01*
X226181Y152781D02*Y149581D01*
X224581Y151181D02*X227781D01*
X226181Y150222D02*Y147022D01*
X224581Y148622D02*X227781D01*
X226181Y147663D02*Y144463D01*
X224581Y146063D02*X227781D01*
X226181Y145104D02*Y141904D01*
X224581Y143504D02*X227781D01*
X167520Y157899D02*Y154699D01*
X165920Y156299D02*X169120D01*
X167520Y155537D02*Y152337D01*
X165920Y153937D02*X169120D01*
X167520Y153175D02*Y149975D01*
X165920Y151575D02*X169120D01*
X165354Y156718D02*Y153518D01*
X163754Y155118D02*X166954D01*
X165354Y154356D02*Y151156D01*
X163754Y152756D02*X166954D01*
X163189Y153175D02*Y149975D01*
X161589Y151575D02*X164789D01*
X178937Y157899D02*Y154699D01*
X177337Y156299D02*X180537D01*
X178937Y155537D02*Y152337D01*
X177337Y153937D02*X180537D01*
X178937Y153175D02*Y149975D01*
X177337Y151575D02*X180537D01*
X181102Y156718D02*Y153518D01*
X179502Y155118D02*X182702D01*
X181102Y154356D02*Y151156D01*
X179502Y152756D02*X182702D01*
X183268Y155537D02*Y152337D01*
X181668Y153937D02*X184868D01*
X55906Y267939D02*Y264739D01*
X54306Y266339D02*X57506D01*
X55906Y265380D02*Y262180D01*
X54306Y263780D02*X57506D01*
X58465Y267939D02*Y264739D01*
X56865Y266339D02*X60065D01*
X58465Y265380D02*Y262180D01*
X56865Y263780D02*X60065D01*
X61024Y267939D02*Y264739D01*
X59424Y266339D02*X62624D01*
X61024Y265380D02*Y262180D01*
X59424Y263780D02*X62624D01*
X63583Y267939D02*Y264739D01*
X61983Y266339D02*X65183D01*
X63583Y265380D02*Y262180D01*
X61983Y263780D02*X65183D01*
X66142Y267939D02*Y264739D01*
X64542Y266339D02*X67742D01*
X66142Y265380D02*Y262180D01*
X64542Y263780D02*X67742D01*
X101575Y267939D02*Y264739D01*
X99975Y266339D02*X103175D01*
X101575Y265380D02*Y262180D01*
X99975Y263780D02*X103175D01*
X99016Y267939D02*Y264739D01*
X97416Y266339D02*X100616D01*
X99016Y265380D02*Y262180D01*
X97416Y263780D02*X100616D01*
X96457Y267939D02*Y264739D01*
X94857Y266339D02*X98057D01*
X96457Y265380D02*Y262180D01*
X94857Y263780D02*X98057D01*
X93898Y267939D02*Y264739D01*
X92298Y266339D02*X95498D01*
X93898Y265380D02*Y262180D01*
X92298Y263780D02*X95498D01*
X91339Y267939D02*Y264739D01*
X89739Y266339D02*X92939D01*
X73622Y260655D02*Y257455D01*
X72022Y259055D02*X75222D01*
X70866Y260655D02*Y257455D01*
X69266Y259055D02*X72466D01*
X68110Y260655D02*Y257455D01*
X66510Y259055D02*X69710D01*
X72244Y263017D02*Y259817D01*
X70644Y261417D02*X73844D01*
X46063Y247466D02*Y244266D01*
X44463Y245866D02*X47663D01*
X46063Y250222D02*Y247022D01*
X44463Y248622D02*X47663D01*
X46063Y252978D02*Y249778D01*
X44463Y251378D02*X47663D01*
X48425Y257112D02*Y253912D01*
X46825Y255512D02*X50025D01*
X46063Y255734D02*Y252534D01*
X44463Y254134D02*X47663D01*
X48425Y254356D02*Y251156D01*
X46825Y252756D02*X50025D01*
X48425Y251600D02*Y248400D01*
X46825Y250000D02*X50025D01*
X48425Y248844D02*Y245644D01*
X46825Y247244D02*X50025D01*
X48425Y246088D02*Y242888D01*
X46825Y244488D02*X50025D01*
X48425Y243332D02*Y240132D01*
X46825Y241732D02*X50025D01*
X48425Y240576D02*Y237376D01*
X46825Y238976D02*X50025D01*
X46063Y241954D02*Y238754D01*
X44463Y240354D02*X47663D01*
X54724Y230340D02*Y227140D01*
X53124Y228740D02*X56324D01*
X57087Y231718D02*Y228518D01*
X55487Y230118D02*X58687D01*
X57087Y228962D02*Y225762D01*
X55487Y227362D02*X58687D01*
X57087Y226206D02*Y223006D01*
X55487Y224606D02*X58687D01*
X54724Y227584D02*Y224384D01*
X53124Y225984D02*X56324D01*
X54724Y224828D02*Y221628D01*
X53124Y223228D02*X56324D01*
X57087Y223450D02*Y220250D01*
X55487Y221850D02*X58687D01*
X57087Y220694D02*Y217494D01*
X55487Y219094D02*X58687D01*
X57087Y217939D02*Y214739D01*
X55487Y216339D02*X58687D01*
X54724Y222072D02*Y218872D01*
X53124Y220472D02*X56324D01*
X54724Y219317D02*Y216117D01*
X53124Y217717D02*X56324D01*
X71850Y213017D02*Y209817D01*
X70250Y211417D02*X73450D01*
X74606Y213017D02*Y209817D01*
X73006Y211417D02*X76206D01*
X77362Y213017D02*Y209817D01*
X75762Y211417D02*X78962D01*
X80118Y213017D02*Y209817D01*
X78518Y211417D02*X81718D01*
X82874Y213017D02*Y209817D01*
X81274Y211417D02*X84474D01*
X85630Y213017D02*Y209817D01*
X84030Y211417D02*X87230D01*
X100394Y217939D02*Y214739D01*
X98794Y216339D02*X101994D01*
X102756Y219317D02*Y216117D01*
X101156Y217717D02*X104356D01*
X102756Y230340D02*Y227140D01*
X101156Y228740D02*X104356D01*
X100394Y231718D02*Y228518D01*
X98794Y230118D02*X101994D01*
X100394Y228962D02*Y225762D01*
X98794Y227362D02*X101994D01*
X102756Y227584D02*Y224384D01*
X101156Y225984D02*X104356D01*
X100394Y226206D02*Y223006D01*
X98794Y224606D02*X101994D01*
X102756Y224828D02*Y221628D01*
X101156Y223228D02*X104356D01*
X102756Y222072D02*Y218872D01*
X101156Y220472D02*X104356D01*
X100394Y223450D02*Y220250D01*
X98794Y221850D02*X101994D01*
X100394Y220694D02*Y217494D01*
X98794Y219094D02*X101994D01*
X83858Y260655D02*Y257455D01*
X82258Y259055D02*X85458D01*
X86614Y260655D02*Y257455D01*
X85014Y259055D02*X88214D01*
X89370Y260655D02*Y257455D01*
X87770Y259055D02*X90970D01*
X87992Y263017D02*Y259817D01*
X86392Y261417D02*X89592D01*
X70866Y268135D02*Y264935D01*
X69266Y266535D02*X72466D01*
X51181Y268135D02*Y264935D01*
X49581Y266535D02*X52781D01*
X86614Y268135D02*Y264935D01*
X85014Y266535D02*X88214D01*
X106299Y268135D02*Y264935D01*
X104699Y266535D02*X107899D01*
X77362Y236639D02*Y233439D01*
X75762Y235039D02*X78962D01*
X80118Y236639D02*Y233439D01*
X78518Y235039D02*X81718D01*
X78740Y239002D02*Y235802D01*
X77140Y237402D02*X80340D01*
X78740Y268135D02*Y264935D01*
X77140Y266535D02*X80340D01*
X77362Y265773D02*Y262573D01*
X75762Y264173D02*X78962D01*
X80118Y265773D02*Y262573D01*
X78518Y264173D02*X81718D01*
X73228Y210655D02*Y207455D01*
X71628Y209055D02*X74828D01*
X75984Y210655D02*Y207455D01*
X74384Y209055D02*X77584D01*
X78740Y210655D02*Y207455D01*
X77140Y209055D02*X80340D01*
X81496Y210655D02*Y207455D01*
X79896Y209055D02*X83096D01*
X84252Y210655D02*Y207455D01*
X82652Y209055D02*X85852D01*
X91339Y265380D02*Y262180D01*
X89739Y263780D02*X92939D01*
X85236Y263017D02*Y259817D01*
X83636Y261417D02*X86836D01*
X69488Y263017D02*Y259817D01*
X67888Y261417D02*X71088D01*
X46063Y244710D02*Y241510D01*
X44463Y243110D02*X47663D01*
X70866Y277191D02*Y273991D01*
X69266Y275591D02*X72466D01*
X86614Y277191D02*Y273991D01*
X85014Y275591D02*X88214D01*
X51181Y277191D02*Y273991D01*
X49581Y275591D02*X52781D01*
X106299Y277191D02*Y273991D01*
X104699Y275591D02*X107899D01*
X59055Y205734D02*Y202534D01*
X57455Y204134D02*X60655D01*
X59055Y196285D02*Y193085D01*
X57455Y194685D02*X60655D01*
X94488Y205734D02*Y202534D01*
X92888Y204134D02*X96088D01*
X98425Y205734D02*Y202534D01*
X96825Y204134D02*X100025D01*
X94291Y196285D02*Y193085D01*
X92691Y194685D02*X95891D01*
X94291Y193529D02*Y190329D01*
X92691Y191929D02*X95891D01*
X104528Y188805D02*Y185605D01*
X102928Y187205D02*X106128D01*
X104528Y186246D02*Y183046D01*
X102928Y184646D02*X106128D01*
X104528Y183687D02*Y180487D01*
X102928Y182087D02*X106128D01*
X104528Y181128D02*Y177928D01*
X102928Y179528D02*X106128D01*
X104528Y178569D02*Y175369D01*
X102928Y176969D02*X106128D01*
X104528Y176009D02*Y172809D01*
X102928Y174409D02*X106128D01*
X115945Y188805D02*Y185605D01*
X114345Y187205D02*X117545D01*
X115945Y186246D02*Y183046D01*
X114345Y184646D02*X117545D01*
X115945Y183687D02*Y180487D01*
X114345Y182087D02*X117545D01*
X115945Y181128D02*Y177928D01*
X114345Y179528D02*X117545D01*
X115945Y178569D02*Y175369D01*
X114345Y176969D02*X117545D01*
X115945Y176009D02*Y172809D01*
X114345Y174409D02*X117545D01*
X68701Y186246D02*Y183046D01*
X67101Y184646D02*X70301D01*
X68701Y183687D02*Y180487D01*
X67101Y182087D02*X70301D01*
X68701Y181128D02*Y177928D01*
X67101Y179528D02*X70301D01*
X68701Y178569D02*Y175369D01*
X67101Y176969D02*X70301D01*
X68701Y176009D02*Y172809D01*
X67101Y174409D02*X70301D01*
X57283Y188805D02*Y185605D01*
X55683Y187205D02*X58883D01*
X57283Y186246D02*Y183046D01*
X55683Y184646D02*X58883D01*
X57283Y183687D02*Y180487D01*
X55683Y182087D02*X58883D01*
X57283Y181128D02*Y177928D01*
X55683Y179528D02*X58883D01*
X57283Y178569D02*Y175369D01*
X55683Y176969D02*X58883D01*
X57283Y176009D02*Y172809D01*
X55683Y174409D02*X58883D01*
X116339Y284868D02*Y281668D01*
X114739Y283268D02*X117939D01*
X91339Y284868D02*Y281668D01*
X89739Y283268D02*X92939D01*
X50000Y281718D02*Y278518D01*
X48400Y280118D02*X51600D01*
X73622Y190970D02*Y187770D01*
X72022Y189370D02*X75222D01*
X84449Y188214D02*Y185014D01*
X82849Y186614D02*X86049D01*
X109055Y196482D02*Y193282D01*
X107455Y194882D02*X110655D01*
X109055Y193726D02*Y190526D01*
X107455Y192126D02*X110655D01*
X119882Y204553D02*Y201353D01*
X118282Y202953D02*X121482D01*
X119882Y201797D02*Y198597D01*
X118282Y200197D02*X121482D01*
X117323Y222269D02*Y219069D01*
X115723Y220669D02*X118923D01*
X120079Y222269D02*Y219069D01*
X118479Y220669D02*X121679D01*
X112402Y205734D02*Y202534D01*
X110802Y204134D02*X114002D01*
X110630Y204159D02*Y200959D01*
X109030Y202559D02*X112230D01*
X112992Y203372D02*Y200172D01*
X111392Y201772D02*X114592D01*
X47441Y200616D02*Y197416D01*
X45841Y199016D02*X49041D01*
X47441Y198057D02*Y194857D01*
X45841Y196457D02*X49041D01*
X47441Y203175D02*Y199975D01*
X45841Y201575D02*X49041D01*
X66929Y205734D02*Y202534D01*
X65329Y204134D02*X68529D01*
X91732Y188214D02*Y185014D01*
X90132Y186614D02*X93332D01*
X82677Y205734D02*Y202534D01*
X81077Y204134D02*X84277D01*
X149016Y180340D02*Y177140D01*
X147416Y178740D02*X150616D01*
X149016Y177978D02*Y174778D01*
X147416Y176378D02*X150616D01*
X151181Y179159D02*Y175959D01*
X149581Y177559D02*X152781D01*
X140748Y188411D02*Y185211D01*
X139148Y186811D02*X142348D01*
X143504Y188411D02*Y185211D01*
X141904Y186811D02*X145104D01*
X146260Y188411D02*Y185211D01*
X144660Y186811D02*X147860D01*
X149016Y188411D02*Y185211D01*
X147416Y186811D02*X150616D01*
X132283Y172860D02*Y169660D01*
X130683Y171260D02*X133883D01*
X132283Y175616D02*Y172416D01*
X130683Y174016D02*X133883D01*
X132283Y178372D02*Y175172D01*
X130683Y176772D02*X133883D01*
X129921Y176994D02*Y173794D01*
X128321Y175394D02*X131521D01*
X129921Y179750D02*Y176550D01*
X128321Y178150D02*X131521D01*
X129921Y174238D02*Y171038D01*
X128321Y172638D02*X131521D01*
X91732Y166954D02*Y163754D01*
X90132Y165354D02*X93332D01*
X133268Y166954D02*Y163754D01*
X131668Y165354D02*X134868D01*
X138386Y166954D02*Y163754D01*
X136786Y165354D02*X139986D01*
X212205Y166954D02*Y163754D01*
X210605Y165354D02*X213805D01*
X150000Y166954D02*Y163754D01*
X148400Y165354D02*X151600D01*
X58858Y84671D02*Y81471D01*
X57258Y83071D02*X60458D01*
X42323Y99828D02*Y96628D01*
X40723Y98228D02*X43923D01*
X83268Y84671D02*Y81471D01*
X81668Y83071D02*X84868D01*
X83071Y78962D02*Y75762D01*
X81471Y77362D02*X84671D01*
X57480Y130537D02*Y127337D01*
X55880Y128937D02*X59080D01*
X80906Y130537D02*Y127337D01*
X79306Y128937D02*X82506D01*
X88189Y136049D02*Y132849D01*
X86589Y134449D02*X89789D01*
X88583Y119710D02*Y116510D01*
X86983Y118110D02*X90183D01*
X97441Y137230D02*Y134030D01*
X95841Y135630D02*X99041D01*
X102559Y140576D02*Y137376D01*
X100959Y138976D02*X104159D01*
X113976Y109080D02*Y105880D01*
X112376Y107480D02*X115576D01*
X52559Y136443D02*Y133243D01*
X50959Y134843D02*X54159D01*
X75394Y140576D02*Y137376D01*
X73794Y138976D02*X76994D01*
X42323Y89592D02*Y86392D01*
X40723Y87992D02*X43923D01*
X90157Y85852D02*Y82652D01*
X88557Y84252D02*X91757D01*
X87402Y85852D02*Y82652D01*
X85802Y84252D02*X89002D01*
X74803Y61246D02*Y58046D01*
X73203Y59646D02*X76403D01*
X145669Y44317D02*Y41117D01*
X144069Y42717D02*X147269D01*
X155709Y46088D02*Y42888D01*
X154109Y44488D02*X157309D01*
X239173Y78175D02*Y74975D01*
X237573Y76575D02*X240773D01*
X240748Y87230D02*Y84030D01*
X239148Y85630D02*X242348D01*
X135433Y44317D02*Y41117D01*
X133833Y42717D02*X137033D01*
X168307Y109277D02*Y106077D01*
X166707Y107677D02*X169907D01*
X168307Y112033D02*Y108833D01*
X166707Y110433D02*X169907D01*
X201575Y130734D02*Y127534D01*
X199975Y129134D02*X203175D01*
X193701Y130734D02*Y127534D01*
X192101Y129134D02*X195301D01*
X204724Y136246D02*Y133046D01*
X203124Y134646D02*X206324D01*
X194094Y92939D02*Y89739D01*
X192494Y91339D02*X195694D01*
X196850Y92939D02*Y89739D01*
X195250Y91339D02*X198450D01*
X168307Y104159D02*Y100959D01*
X166707Y102559D02*X169907D01*
X168307Y101403D02*Y98203D01*
X166707Y99803D02*X169907D01*
X168307Y98647D02*Y95447D01*
X166707Y97047D02*X169907D01*
X168307Y95891D02*Y92691D01*
X166707Y94291D02*X169907D01*
X176378Y96482D02*Y93282D01*
X174778Y94882D02*X177978D01*
X176378Y93726D02*Y90526D01*
X174778Y92126D02*X177978D01*
X205906Y139789D02*Y136589D01*
X204306Y138189D02*X207506D01*
X217323Y133490D02*Y130290D01*
X215723Y131890D02*X218923D01*
X236024Y132899D02*Y129699D01*
X234424Y131299D02*X237624D01*
X236024Y138411D02*Y135211D01*
X234424Y136811D02*X237624D01*
X222244Y132899D02*Y129699D01*
X220644Y131299D02*X223844D01*
X213780Y133490D02*Y130290D01*
X212180Y131890D02*X215380D01*
X115354Y61443D02*Y58243D01*
X113754Y59843D02*X116954D01*
X99213Y64198D02*Y60998D01*
X97613Y62598D02*X100813D01*
X119291Y61443D02*Y58243D01*
X117691Y59843D02*X120891D01*
X152756Y44317D02*Y41117D01*
X151156Y42717D02*X154356D01*
X149213Y44317D02*Y41117D01*
X147613Y42717D02*X150813D01*
X127953Y71679D02*Y68479D01*
X126353Y70079D02*X129553D01*
X134646Y52781D02*Y49581D01*
X133046Y51181D02*X136246D01*
X136024Y76009D02*Y72809D01*
X134424Y74409D02*X137624D01*
X158858Y75222D02*Y72022D01*
X157258Y73622D02*X160458D01*
X88583Y64592D02*Y61392D01*
X86983Y62992D02*X90183D01*
X235630Y86049D02*Y82849D01*
X234030Y84449D02*X237230D01*
X235630Y88608D02*Y85408D01*
X234030Y87008D02*X237230D01*
X191732Y63017D02*Y59817D01*
X190132Y61417D02*X193332D01*
X187008Y70694D02*Y67494D01*
X185408Y69094D02*X188608D01*
X175984Y52387D02*Y49187D01*
X174384Y50787D02*X177584D01*
X201969Y48057D02*Y44857D01*
X200369Y46457D02*X203569D01*
X200787Y59277D02*Y56077D01*
X199187Y57677D02*X202387D01*
X196063Y75419D02*Y72219D01*
X194463Y73819D02*X197663D01*
X198819Y75419D02*Y72219D01*
X197219Y73819D02*X200419D01*
X211417Y54159D02*Y50959D01*
X209817Y52559D02*X213017D01*
X214173Y54159D02*Y50959D01*
X212573Y52559D02*X215773D01*
X211417Y49041D02*Y45841D01*
X209817Y47441D02*X213017D01*
X214173Y49041D02*Y45841D01*
X212573Y47441D02*X215773D01*
X218110Y66364D02*Y63164D01*
X216510Y64764D02*X219710D01*
X218110Y62820D02*Y59620D01*
X216510Y61220D02*X219710D01*
X227756Y72072D02*Y68872D01*
X226156Y70472D02*X229356D01*
X235630Y67742D02*Y64542D01*
X234030Y66142D02*X237230D01*
X227756Y69317D02*Y66117D01*
X226156Y67717D02*X229356D01*
X223425Y68135D02*Y64935D01*
X221825Y66535D02*X225025D01*
X235630Y79356D02*Y76156D01*
X234030Y77756D02*X237230D01*
X235630Y76797D02*Y73597D01*
X234030Y75197D02*X237230D01*
X208858Y61443D02*Y58243D01*
X207258Y59843D02*X210458D01*
X227559Y91561D02*Y88361D01*
X225959Y89961D02*X229159D01*
X240748Y91954D02*Y88754D01*
X239148Y90354D02*X242348D01*
X172835Y63411D02*Y60211D01*
X171235Y61811D02*X174435D01*
X167717Y63411D02*Y60211D01*
X166117Y61811D02*X169317D01*
X183858Y72269D02*Y69069D01*
X182258Y70669D02*X185458D01*
X225197Y94120D02*Y90920D01*
X223597Y92520D02*X226797D01*
X229921Y82702D02*Y79502D01*
X228321Y81102D02*X231521D01*
X134646Y58687D02*Y55487D01*
X133046Y57087D02*X136246D01*
X199803Y83096D02*Y79896D01*
X198203Y81496D02*X201403D01*
X203346Y83096D02*Y79896D01*
X201746Y81496D02*X204946D01*
X147835Y88214D02*Y85014D01*
X146235Y86614D02*X149435D01*
X145079Y88214D02*Y85014D01*
X143479Y86614D02*X146679D01*
X125984Y92939D02*Y89739D01*
X124384Y91339D02*X127584D01*
X144685Y99828D02*Y96628D01*
X143085Y98228D02*X146285D01*
X144685Y97072D02*Y93872D01*
X143085Y95472D02*X146285D01*
X146063Y131324D02*Y128124D01*
X144463Y129724D02*X147663D01*
X143307Y131324D02*Y128124D01*
X141707Y129724D02*X144907D01*
X142717Y138805D02*Y135605D01*
X141117Y137205D02*X144317D01*
X146260Y138805D02*Y135605D01*
X144660Y137205D02*X147860D01*
X147244Y125813D02*Y122613D01*
X145644Y124213D02*X148844D01*
X147244Y122072D02*Y118872D01*
X145644Y120472D02*X148844D01*
X147244Y118332D02*Y115132D01*
X145644Y116732D02*X148844D01*
X144488Y118332D02*Y115132D01*
X142888Y116732D02*X146088D01*
X145866Y115183D02*Y111983D01*
X144266Y113583D02*X147466D01*
X147244Y105340D02*Y102140D01*
X145644Y103740D02*X148844D01*
X151181Y101797D02*Y98597D01*
X149581Y100197D02*X152781D01*
X122244Y131324D02*Y128124D01*
X120644Y129724D02*X123844D01*
X119488Y131324D02*Y128124D01*
X117888Y129724D02*X121088D01*
X122244Y135065D02*Y131865D01*
X120644Y133465D02*X123844D01*
X122244Y138805D02*Y135605D01*
X120644Y137205D02*X123844D01*
X122244Y118332D02*Y115132D01*
X120644Y116732D02*X123844D01*
X119488Y118332D02*Y115132D01*
X117888Y116732D02*X121088D01*
X122244Y122072D02*Y118872D01*
X120644Y120472D02*X123844D01*
X122244Y125813D02*Y122613D01*
X120644Y124213D02*X123844D01*
X46260Y139986D02*Y136786D01*
X44660Y138386D02*X47860D01*
X55906Y123844D02*Y120644D01*
X54306Y122244D02*X57506D01*
X53346Y121679D02*Y118479D01*
X51746Y120079D02*X54946D01*
X52165Y110655D02*Y107455D01*
X50565Y109055D02*X53765D01*
X52165Y105931D02*Y102731D01*
X50565Y104331D02*X53765D01*
X64961Y94120D02*Y90920D01*
X63361Y92520D02*X66561D01*
X79331Y102387D02*Y99187D01*
X77731Y100787D02*X80931D01*
X83071Y102387D02*Y99187D01*
X81471Y100787D02*X84671D01*
X82480Y111639D02*Y108439D01*
X80880Y110039D02*X84080D01*
X82480Y115183D02*Y111983D01*
X80880Y113583D02*X84080D01*
X82480Y108096D02*Y104896D01*
X80880Y106496D02*X84080D01*
X97835Y131915D02*Y128715D01*
X96235Y130315D02*X99435D01*
X86024Y122072D02*Y118872D01*
X84424Y120472D02*X87624D01*
X97835Y127978D02*Y124778D01*
X96235Y126378D02*X99435D01*
X77362Y129750D02*Y126550D01*
X75762Y128150D02*X78962D01*
X87402Y105734D02*Y102534D01*
X85802Y104134D02*X89002D01*
X76969Y108096D02*Y104896D01*
X75369Y106496D02*X78569D01*
X72047Y140183D02*Y136983D01*
X70447Y138583D02*X73647D01*
X68701Y140576D02*Y137376D01*
X67101Y138976D02*X70301D01*
X59252Y116561D02*Y113361D01*
X57652Y114961D02*X60852D01*
X49606Y129553D02*Y126353D01*
X48006Y127953D02*X51206D01*
X46654Y131324D02*Y128124D01*
X45054Y129724D02*X48254D01*
X68307Y128175D02*Y124975D01*
X66707Y126575D02*X69907D01*
X68307Y122860D02*Y119660D01*
X66707Y121260D02*X69907D01*
X65945Y125419D02*Y122219D01*
X64345Y123819D02*X67545D01*
X63386Y114592D02*Y111392D01*
X61786Y112992D02*X64986D01*
X162402Y84868D02*Y81668D01*
X160802Y83268D02*X164002D01*
X105906Y122466D02*Y119266D01*
X104306Y120866D02*X107506D01*
X80512Y82506D02*Y79306D01*
X78912Y80906D02*X82112D01*
X80709Y75616D02*Y72416D01*
X79109Y74016D02*X82309D01*
X76575Y79159D02*Y75959D01*
X74975Y77559D02*X78175D01*
X146850Y84474D02*Y81274D01*
X145250Y82874D02*X148450D01*
X156693Y87427D02*Y84227D01*
X155093Y85827D02*X158293D01*
X88189Y188214D02*Y185014D01*
X86589Y186614D02*X89789D01*
X55512Y196285D02*Y193085D01*
X53912Y194685D02*X57112D01*
X101969Y205734D02*Y202534D01*
X100369Y204134D02*X103569D01*
X78740Y205734D02*Y202534D01*
X77140Y204134D02*X80340D01*
X80906Y188214D02*Y185014D01*
X79306Y186614D02*X82506D01*
X69882Y190970D02*Y187770D01*
X68282Y189370D02*X71482D01*
X118898Y247072D02*Y243872D01*
X117298Y245472D02*X120498D01*
X164567Y247072D02*Y243872D01*
X162967Y245472D02*X166167D01*
X164567Y226009D02*Y222809D01*
X162967Y224409D02*X166167D01*
X118898Y226009D02*Y222809D01*
X117298Y224409D02*X120498D01*
X117323Y277387D02*Y274187D01*
X115723Y275787D02*X118923D01*
X166142Y277387D02*Y274187D01*
X164542Y275787D02*X167742D01*
X42323Y103765D02*Y100565D01*
X40723Y102165D02*X43923D01*
X116339Y313805D02*Y310605D01*
X114739Y312205D02*X117939D01*
X43307Y121482D02*Y118282D01*
X41707Y119882D02*X44907D01*
X43307Y125025D02*Y121825D01*
X41707Y123425D02*X44907D01*
X113583Y308096D02*Y304896D01*
X111983Y306496D02*X115183D01*
X181496Y196285D02*Y193085D01*
X179896Y194685D02*X183096D01*
X204724Y205734D02*Y202534D01*
X203124Y204134D02*X206324D01*
X208661Y190970D02*Y187770D01*
X207061Y189370D02*X210261D01*
X228346Y205734D02*Y202534D01*
X226746Y204134D02*X229946D01*
X192913Y76600D02*Y73400D01*
X191313Y75000D02*X194513D01*
X64173Y166561D02*Y163361D01*
X62573Y164961D02*X65773D01*
X80906Y166561D02*Y163361D01*
X79306Y164961D02*X82506D01*
X88583Y165576D02*Y162376D01*
X86983Y163976D02*X90183D01*
X47638Y167348D02*Y164148D01*
X46038Y165748D02*X49238D01*
X49213Y164198D02*Y160998D01*
X47613Y162598D02*X50813D01*
X57283Y168923D02*Y165723D01*
X55683Y167323D02*X58883D01*
X73031Y157899D02*Y154699D01*
X71431Y156299D02*X74631D01*
X73031Y153175D02*Y149975D01*
X71431Y151575D02*X74631D01*
X100197Y157899D02*Y154699D01*
X98597Y156299D02*X101797D01*
X100197Y153175D02*Y149975D01*
X98597Y151575D02*X101797D01*
X120276Y157899D02*Y154699D01*
X118676Y156299D02*X121876D01*
X120276Y153175D02*Y149975D01*
X118676Y151575D02*X121876D01*
X163189Y155537D02*Y152337D01*
X161589Y153937D02*X164789D01*
X163189Y157899D02*Y154699D01*
X161589Y156299D02*X164789D01*
X183268Y157899D02*Y154699D01*
X181668Y156299D02*X184868D01*
X183268Y153175D02*Y149975D01*
X181668Y151575D02*X184868D01*
X106496Y140576D02*Y137376D01*
X104896Y138976D02*X108096D01*
X106299Y126009D02*Y122809D01*
X104699Y124409D02*X107899D01*
X68701Y145891D02*Y142691D01*
X67101Y144291D02*X70301D01*
X131299Y139002D02*Y135802D01*
X129699Y137402D02*X132899D01*
X155709Y126009D02*Y122809D01*
X154109Y124409D02*X157309D01*
X155906Y100419D02*Y97219D01*
X154306Y98819D02*X157506D01*
X155512Y118923D02*Y115723D01*
X153912Y117323D02*X157112D01*
X155512Y133096D02*Y129896D01*
X153912Y131496D02*X157112D01*
X104528Y146088D02*Y142888D01*
X102928Y144488D02*X106128D01*
X115945Y146088D02*Y142888D01*
X114345Y144488D02*X117545D01*
X155512Y129553D02*Y126353D01*
X153912Y127953D02*X157112D01*
X155512Y103962D02*Y100762D01*
X153912Y102362D02*X157112D01*
X155512Y93332D02*Y90132D01*
X153912Y91732D02*X157112D01*
X155512Y96876D02*Y93676D01*
X153912Y95276D02*X157112D01*
X158071Y141364D02*Y138164D01*
X156471Y139764D02*X159671D01*
X162402Y115576D02*Y112376D01*
X160802Y113976D02*X164002D01*
X76575Y146482D02*Y143282D01*
X74975Y144882D02*X78175D01*
X100984Y147072D02*Y143872D01*
X99384Y145472D02*X102584D01*
X119488Y146088D02*Y142888D01*
X117888Y144488D02*X121088D01*
X116535Y140576D02*Y137376D01*
X114935Y138976D02*X118135D01*
X79331Y148647D02*Y145447D01*
X77731Y147047D02*X80931D01*
X97441Y148450D02*Y145250D01*
X95841Y146850D02*X99041D01*
X122638Y147663D02*Y144463D01*
X121038Y146063D02*X124238D01*
X93898Y137230D02*Y134030D01*
X92298Y135630D02*X95498D01*
X141339Y116167D02*Y112967D01*
X139739Y114567D02*X142939D01*
X187598Y188214D02*Y185014D01*
X185998Y186614D02*X189198D01*
X197638Y188214D02*Y185014D01*
X196038Y186614D02*X199238D01*
X155512Y107506D02*Y104306D01*
X153912Y105906D02*X157112D01*
X141535Y112820D02*Y109620D01*
X139935Y111220D02*X143135D01*
X68307Y119317D02*Y116117D01*
X66707Y117717D02*X69907D01*
X53346Y100616D02*Y97416D01*
X51746Y99016D02*X54946D01*
X77165Y75616D02*Y72416D01*
X75565Y74016D02*X78765D01*
X77165Y72072D02*Y68872D01*
X75565Y70472D02*X78765D01*
X96654Y77387D02*Y74187D01*
X95054Y75787D02*X98254D01*
X97047Y74041D02*Y70841D01*
X95447Y72441D02*X98647D01*
X130906Y135065D02*Y131865D01*
X129306Y133465D02*X132506D01*
X127362Y135065D02*Y131865D01*
X125762Y133465D02*X128962D01*
X145866Y92151D02*Y88951D01*
X144266Y90551D02*X147466D01*
X148622Y92151D02*Y88951D01*
X147022Y90551D02*X150222D01*
X193504Y139592D02*Y136392D01*
X191904Y137992D02*X195104D01*
X196260Y139592D02*Y136392D01*
X194660Y137992D02*X197860D01*
X170276Y169513D02*Y166313D01*
X168676Y167913D02*X171876D01*
X217323Y166954D02*Y163754D01*
X215723Y165354D02*X218923D01*
X165945Y143726D02*Y140526D01*
X164345Y142126D02*X167545D01*
X167913Y146482D02*Y143282D01*
X166313Y144882D02*X169513D01*
X207087Y146285D02*Y143085D01*
X205487Y144685D02*X208687D01*
X196850Y146285D02*Y143085D01*
X195250Y144685D02*X198450D01*
X241535Y171876D02*Y168676D01*
X239935Y170276D02*X243135D01*
X241535Y169120D02*Y165920D01*
X239935Y167520D02*X243135D01*
X135236Y170498D02*Y167298D01*
X133636Y168898D02*X136836D01*
X76772Y303372D02*Y300172D01*
X75172Y301772D02*X78372D01*
X76772Y306128D02*Y302928D01*
X75172Y304528D02*X78372D01*
X103937Y303372D02*Y300172D01*
X102337Y301772D02*X105537D01*
X103937Y306128D02*Y302928D01*
X102337Y304528D02*X105537D01*
X179724Y303569D02*Y300369D01*
X178124Y301969D02*X181324D01*
X179724Y306128D02*Y302928D01*
X178124Y304528D02*X181324D01*
X206102Y306128D02*Y302928D01*
X204502Y304528D02*X207702D01*
X206102Y303372D02*Y300172D01*
X204502Y301772D02*X207702D01*
X172047Y248450D02*Y245250D01*
X170447Y246850D02*X173647D01*
X172047Y251206D02*Y248006D01*
X170447Y249606D02*X173647D01*
X172047Y253962D02*Y250762D01*
X170447Y252362D02*X173647D01*
X174409Y258096D02*Y254896D01*
X172809Y256496D02*X176009D01*
X172047Y256718D02*Y253518D01*
X170447Y255118D02*X173647D01*
X174409Y255340D02*Y252140D01*
X172809Y253740D02*X176009D01*
X174409Y252584D02*Y249384D01*
X172809Y250984D02*X176009D01*
X174409Y249828D02*Y246628D01*
X172809Y248228D02*X176009D01*
X174409Y247072D02*Y243872D01*
X172809Y245472D02*X176009D01*
X174409Y244317D02*Y241117D01*
X172809Y242717D02*X176009D01*
X172047Y242939D02*Y239739D01*
X170447Y241339D02*X173647D01*
X172047Y245694D02*Y242494D01*
X170447Y244094D02*X173647D01*
X109055Y258096D02*Y254896D01*
X107455Y256496D02*X110655D01*
X111417Y242939D02*Y239739D01*
X109817Y241339D02*X113017D01*
X109055Y255340D02*Y252140D01*
X107455Y253740D02*X110655D01*
X111417Y253962D02*Y250762D01*
X109817Y252362D02*X113017D01*
X109055Y252584D02*Y249384D01*
X107455Y250984D02*X110655D01*
X109055Y249828D02*Y246628D01*
X107455Y248228D02*X110655D01*
X109055Y247072D02*Y243872D01*
X107455Y245472D02*X110655D01*
X111417Y251206D02*Y248006D01*
X109817Y249606D02*X113017D01*
X111417Y248450D02*Y245250D01*
X109817Y246850D02*X113017D01*
X111417Y245694D02*Y242494D01*
X109817Y244094D02*X113017D01*
X109055Y244317D02*Y241117D01*
X107455Y242717D02*X110655D01*
X111417Y256718D02*Y253518D01*
X109817Y255118D02*X113017D01*
X88583Y102584D02*Y99384D01*
X86983Y100984D02*X90183D01*
X88583Y67348D02*Y64148D01*
X86983Y65748D02*X90183D01*
X15000Y487181D02*Y483981D01*
X13400Y485581D02*X16600D01*
X135000Y487831D02*X136500Y484831D01*
X138000Y487831D01*
X136500Y484831D02*Y481831D01*
X139800Y485131D02*X142050D01*
X139800Y481831D02*X142800D01*
X139800Y487831D02*Y481831D01*
Y487831D02*X142800D01*
X147600D02*X148350Y487081D01*
X145350Y487831D02*X147600D01*
X144600Y487081D02*X145350Y487831D01*
X144600Y487081D02*Y485581D01*
X145350Y484831D01*
X147600D01*
X148350Y484081D01*
Y482581D01*
X147600Y481831D02*X148350Y482581D01*
X145350Y481831D02*X147600D01*
X144600Y482581D02*X145350Y481831D01*
X100250Y487831D02*X101000Y487081D01*
X98750Y487831D02*X100250D01*
X98000Y487081D02*X98750Y487831D01*
X98000Y487081D02*Y482581D01*
X98750Y481831D01*
X100250Y485131D02*X101000Y484381D01*
X98000Y485131D02*X100250D01*
X98750Y481831D02*X100250D01*
X101000Y482581D01*
Y484381D02*Y482581D01*
X102800Y484081D02*X105800Y487831D01*
X102800Y484081D02*X106550D01*
X105800Y487831D02*Y481831D01*
X109100D02*X111350Y484831D01*
Y487081D02*Y484831D01*
X110600Y487831D02*X111350Y487081D01*
X109100Y487831D02*X110600D01*
X108350Y487081D02*X109100Y487831D01*
X108350Y487081D02*Y485581D01*
X109100Y484831D01*
X111350D01*
X45000Y482581D02*X45750Y481831D01*
X45000Y487081D02*Y482581D01*
Y487081D02*X45750Y487831D01*
X47250D01*
X48000Y487081D01*
Y482581D01*
X47250Y481831D02*X48000Y482581D01*
X45750Y481831D02*X47250D01*
X45000Y483331D02*X48000Y486331D01*
X49800Y481831D02*X50550D01*
X52350Y482581D02*X53100Y481831D01*
X52350Y487081D02*Y482581D01*
Y487081D02*X53100Y487831D01*
X54600D01*
X55350Y487081D01*
Y482581D01*
X54600Y481831D02*X55350Y482581D01*
X53100Y481831D02*X54600D01*
X52350Y483331D02*X55350Y486331D01*
X57150Y486631D02*X58350Y487831D01*
Y481831D01*
X57150D02*X59400D01*
X61200Y487081D02*X61950Y487831D01*
X64200D01*
X64950Y487081D01*
Y485581D01*
X61200Y481831D02*X64950Y485581D01*
X61200Y481831D02*X64950D01*
X43307Y66929D02*Y65329D01*
Y66929D02*X44694Y67729D01*
X43307Y66929D02*X41920Y67729D01*
X218898Y311811D02*Y310211D01*
Y311811D02*X220284Y312611D01*
X218898Y311811D02*X217511Y312611D01*
X15000Y500581D02*Y498981D01*
Y500581D02*X16387Y501381D01*
X15000Y500581D02*X13613Y501381D01*
X135000Y502831D02*X136500Y499831D01*
X138000Y502831D01*
X136500Y499831D02*Y496831D01*
X139800Y500131D02*X142050D01*
X139800Y496831D02*X142800D01*
X139800Y502831D02*Y496831D01*
Y502831D02*X142800D01*
X147600D02*X148350Y502081D01*
X145350Y502831D02*X147600D01*
X144600Y502081D02*X145350Y502831D01*
X144600Y502081D02*Y500581D01*
X145350Y499831D01*
X147600D01*
X148350Y499081D01*
Y497581D01*
X147600Y496831D02*X148350Y497581D01*
X145350Y496831D02*X147600D01*
X144600Y497581D02*X145350Y496831D01*
X98000Y502081D02*X98750Y502831D01*
X101000D01*
X101750Y502081D01*
Y500581D01*
X98000Y496831D02*X101750Y500581D01*
X98000Y496831D02*X101750D01*
X45000Y497581D02*X45750Y496831D01*
X45000Y502081D02*Y497581D01*
Y502081D02*X45750Y502831D01*
X47250D01*
X48000Y502081D01*
Y497581D01*
X47250Y496831D02*X48000Y497581D01*
X45750Y496831D02*X47250D01*
X45000Y498331D02*X48000Y501331D01*
X49800Y496831D02*X50550D01*
X52350Y497581D02*X53100Y496831D01*
X52350Y502081D02*Y497581D01*
Y502081D02*X53100Y502831D01*
X54600D01*
X55350Y502081D01*
Y497581D01*
X54600Y496831D02*X55350Y497581D01*
X53100Y496831D02*X54600D01*
X52350Y498331D02*X55350Y501331D01*
X57150Y497581D02*X57900Y496831D01*
X57150Y502081D02*Y497581D01*
Y502081D02*X57900Y502831D01*
X59400D01*
X60150Y502081D01*
Y497581D01*
X59400Y496831D02*X60150Y497581D01*
X57900Y496831D02*X59400D01*
X57150Y498331D02*X60150Y501331D01*
X61950Y497581D02*X62700Y496831D01*
X61950Y502081D02*Y497581D01*
Y502081D02*X62700Y502831D01*
X64200D01*
X64950Y502081D01*
Y497581D01*
X64200Y496831D02*X64950Y497581D01*
X62700Y496831D02*X64200D01*
X61950Y498331D02*X64950Y501331D01*
X3000Y517831D02*X3750Y517081D01*
X750Y517831D02*X3000D01*
X0Y517081D02*X750Y517831D01*
X0Y517081D02*Y515581D01*
X750Y514831D01*
X3000D01*
X3750Y514081D01*
Y512581D01*
X3000Y511831D02*X3750Y512581D01*
X750Y511831D02*X3000D01*
X0Y512581D02*X750Y511831D01*
X5550Y514831D02*Y512581D01*
X6300Y511831D01*
X8550Y514831D02*Y510331D01*
X7800Y509581D02*X8550Y510331D01*
X6300Y509581D02*X7800D01*
X5550Y510331D02*X6300Y509581D01*
Y511831D02*X7800D01*
X8550Y512581D01*
X11100Y514081D02*Y511831D01*
Y514081D02*X11850Y514831D01*
X12600D01*
X13350Y514081D01*
Y511831D01*
Y514081D02*X14100Y514831D01*
X14850D01*
X15600Y514081D01*
Y511831D01*
X10350Y514831D02*X11100Y514081D01*
X17400Y517831D02*Y511831D01*
Y512581D02*X18150Y511831D01*
X19650D01*
X20400Y512581D01*
Y514081D02*Y512581D01*
X19650Y514831D02*X20400Y514081D01*
X18150Y514831D02*X19650D01*
X17400Y514081D02*X18150Y514831D01*
X22200Y514081D02*Y512581D01*
Y514081D02*X22950Y514831D01*
X24450D01*
X25200Y514081D01*
Y512581D01*
X24450Y511831D02*X25200Y512581D01*
X22950Y511831D02*X24450D01*
X22200Y512581D02*X22950Y511831D01*
X27000Y517831D02*Y512581D01*
X27750Y511831D01*
X0Y508581D02*X29250D01*
X41750Y517831D02*Y511831D01*
X43700Y517831D02*X44750Y516781D01*
Y512881D01*
X43700Y511831D02*X44750Y512881D01*
X41000Y511831D02*X43700D01*
X41000Y517831D02*X43700D01*
G54D200*X46550Y516331D02*Y516181D01*
G54D199*Y514081D02*Y511831D01*
X50300Y514831D02*X51050Y514081D01*
X48800Y514831D02*X50300D01*
X48050Y514081D02*X48800Y514831D01*
X48050Y514081D02*Y512581D01*
X48800Y511831D01*
X51050Y514831D02*Y512581D01*
X51800Y511831D01*
X48800D02*X50300D01*
X51050Y512581D01*
X54350Y514081D02*Y511831D01*
Y514081D02*X55100Y514831D01*
X55850D01*
X56600Y514081D01*
Y511831D01*
Y514081D02*X57350Y514831D01*
X58100D01*
X58850Y514081D01*
Y511831D01*
X53600Y514831D02*X54350Y514081D01*
X60650Y511831D02*X61400D01*
X65900Y512581D02*X66650Y511831D01*
X65900Y517081D02*X66650Y517831D01*
X65900Y517081D02*Y512581D01*
X68450Y517831D02*X69950D01*
X69200D02*Y511831D01*
X68450D02*X69950D01*
X72500Y514081D02*Y511831D01*
Y514081D02*X73250Y514831D01*
X74000D01*
X74750Y514081D01*
Y511831D01*
X71750Y514831D02*X72500Y514081D01*
X77300Y514831D02*X79550D01*
X76550Y514081D02*X77300Y514831D01*
X76550Y514081D02*Y512581D01*
X77300Y511831D01*
X79550D01*
X81350Y517831D02*Y511831D01*
Y514081D02*X82100Y514831D01*
X83600D01*
X84350Y514081D01*
Y511831D01*
X86150Y517831D02*X86900Y517081D01*
Y512581D01*
X86150Y511831D02*X86900Y512581D01*
X41000Y508581D02*X88700D01*
X96050Y511831D02*X98000D01*
X95000Y512881D02*X96050Y511831D01*
X95000Y516781D02*Y512881D01*
Y516781D02*X96050Y517831D01*
X98000D01*
X99800Y514081D02*Y512581D01*
Y514081D02*X100550Y514831D01*
X102050D01*
X102800Y514081D01*
Y512581D01*
X102050Y511831D02*X102800Y512581D01*
X100550Y511831D02*X102050D01*
X99800Y512581D02*X100550Y511831D01*
X104600Y514831D02*Y512581D01*
X105350Y511831D01*
X106850D01*
X107600Y512581D01*
Y514831D02*Y512581D01*
X110150Y514081D02*Y511831D01*
Y514081D02*X110900Y514831D01*
X111650D01*
X112400Y514081D01*
Y511831D01*
X109400Y514831D02*X110150Y514081D01*
X114950Y517831D02*Y512581D01*
X115700Y511831D01*
X114200Y515581D02*X115700D01*
X95000Y508581D02*X117200D01*
X130750Y517831D02*Y511831D01*
X130000Y517831D02*X133000D01*
X133750Y517081D01*
Y515581D01*
X133000Y514831D02*X133750Y515581D01*
X130750Y514831D02*X133000D01*
X135550Y517831D02*Y512581D01*
X136300Y511831D01*
X140050Y514831D02*X140800Y514081D01*
X138550Y514831D02*X140050D01*
X137800Y514081D02*X138550Y514831D01*
X137800Y514081D02*Y512581D01*
X138550Y511831D01*
X140800Y514831D02*Y512581D01*
X141550Y511831D01*
X138550D02*X140050D01*
X140800Y512581D01*
X144100Y517831D02*Y512581D01*
X144850Y511831D01*
X143350Y515581D02*X144850D01*
X147100Y511831D02*X149350D01*
X146350Y512581D02*X147100Y511831D01*
X146350Y514081D02*Y512581D01*
Y514081D02*X147100Y514831D01*
X148600D01*
X149350Y514081D01*
X146350Y513331D02*X149350D01*
Y514081D02*Y513331D01*
X154150Y517831D02*Y511831D01*
X153400D02*X154150Y512581D01*
X151900Y511831D02*X153400D01*
X151150Y512581D02*X151900Y511831D01*
X151150Y514081D02*Y512581D01*
Y514081D02*X151900Y514831D01*
X153400D01*
X154150Y514081D01*
X157450Y514831D02*Y514081D01*
Y512581D02*Y511831D01*
X155950Y517081D02*Y516331D01*
Y517081D02*X156700Y517831D01*
X158200D01*
X158950Y517081D01*
Y516331D01*
X157450Y514831D02*X158950Y516331D01*
X130000Y508581D02*X160750D01*
X0Y532831D02*X3000D01*
X1500D02*Y526831D01*
X4800Y532831D02*Y526831D01*
Y529081D02*X5550Y529831D01*
X7050D01*
X7800Y529081D01*
Y526831D01*
X10350D02*X12600D01*
X9600Y527581D02*X10350Y526831D01*
X9600Y529081D02*Y527581D01*
Y529081D02*X10350Y529831D01*
X11850D01*
X12600Y529081D01*
X9600Y528331D02*X12600D01*
Y529081D02*Y528331D01*
X15150Y529081D02*Y526831D01*
Y529081D02*X15900Y529831D01*
X17400D01*
X14400D02*X15150Y529081D01*
X19950Y526831D02*X22200D01*
X19200Y527581D02*X19950Y526831D01*
X19200Y529081D02*Y527581D01*
Y529081D02*X19950Y529831D01*
X21450D01*
X22200Y529081D01*
X19200Y528331D02*X22200D01*
Y529081D02*Y528331D01*
X28950Y529831D02*X29700Y529081D01*
X27450Y529831D02*X28950D01*
X26700Y529081D02*X27450Y529831D01*
X26700Y529081D02*Y527581D01*
X27450Y526831D01*
X29700Y529831D02*Y527581D01*
X30450Y526831D01*
X27450D02*X28950D01*
X29700Y527581D01*
X33000Y529081D02*Y526831D01*
Y529081D02*X33750Y529831D01*
X35250D01*
X32250D02*X33000Y529081D01*
X37800Y526831D02*X40050D01*
X37050Y527581D02*X37800Y526831D01*
X37050Y529081D02*Y527581D01*
Y529081D02*X37800Y529831D01*
X39300D01*
X40050Y529081D01*
X37050Y528331D02*X40050D01*
Y529081D02*Y528331D01*
X44550Y531631D02*X45750Y532831D01*
Y526831D01*
X44550D02*X46800D01*
X48600Y527581D02*X49350Y526831D01*
X48600Y532081D02*Y527581D01*
Y532081D02*X49350Y532831D01*
X50850D01*
X51600Y532081D01*
Y527581D01*
X50850Y526831D02*X51600Y527581D01*
X49350Y526831D02*X50850D01*
X48600Y528331D02*X51600Y531331D01*
X59100Y532831D02*Y526831D01*
X58350D02*X59100Y527581D01*
X56850Y526831D02*X58350D01*
X56100Y527581D02*X56850Y526831D01*
X56100Y529081D02*Y527581D01*
Y529081D02*X56850Y529831D01*
X58350D01*
X59100Y529081D01*
G54D200*X60900Y531331D02*Y531181D01*
G54D199*Y529081D02*Y526831D01*
X63150Y532081D02*Y526831D01*
Y532081D02*X63900Y532831D01*
X64650D01*
X62400Y529831D02*X63900D01*
X66900Y532081D02*Y526831D01*
Y532081D02*X67650Y532831D01*
X68400D01*
X66150Y529831D02*X67650D01*
X70650Y526831D02*X72900D01*
X69900Y527581D02*X70650Y526831D01*
X69900Y529081D02*Y527581D01*
Y529081D02*X70650Y529831D01*
X72150D01*
X72900Y529081D01*
X69900Y528331D02*X72900D01*
Y529081D02*Y528331D01*
X75450Y529081D02*Y526831D01*
Y529081D02*X76200Y529831D01*
X77700D01*
X74700D02*X75450Y529081D01*
X80250Y526831D02*X82500D01*
X79500Y527581D02*X80250Y526831D01*
X79500Y529081D02*Y527581D01*
Y529081D02*X80250Y529831D01*
X81750D01*
X82500Y529081D01*
X79500Y528331D02*X82500D01*
Y529081D02*Y528331D01*
X85050Y529081D02*Y526831D01*
Y529081D02*X85800Y529831D01*
X86550D01*
X87300Y529081D01*
Y526831D01*
X84300Y529831D02*X85050Y529081D01*
X89850Y532831D02*Y527581D01*
X90600Y526831D01*
X89100Y530581D02*X90600D01*
X97800Y532831D02*Y526831D01*
X97050D02*X97800Y527581D01*
X95550Y526831D02*X97050D01*
X94800Y527581D02*X95550Y526831D01*
X94800Y529081D02*Y527581D01*
Y529081D02*X95550Y529831D01*
X97050D01*
X97800Y529081D01*
X100350D02*Y526831D01*
Y529081D02*X101100Y529831D01*
X102600D01*
X99600D02*X100350Y529081D01*
G54D200*X104400Y531331D02*Y531181D01*
G54D199*Y529081D02*Y526831D01*
X105900Y532831D02*Y527581D01*
X106650Y526831D01*
X108150Y532831D02*Y527581D01*
X108900Y526831D01*
X113850D02*X116100D01*
X116850Y527581D01*
X116100Y528331D02*X116850Y527581D01*
X113850Y528331D02*X116100D01*
X113100Y529081D02*X113850Y528331D01*
X113100Y529081D02*X113850Y529831D01*
X116100D01*
X116850Y529081D01*
X113100Y527581D02*X113850Y526831D01*
G54D200*X118650Y531331D02*Y531181D01*
G54D199*Y529081D02*Y526831D01*
X120150Y529831D02*X123150D01*
X120150Y526831D02*X123150Y529831D01*
X120150Y526831D02*X123150D01*
X125700D02*X127950D01*
X124950Y527581D02*X125700Y526831D01*
X124950Y529081D02*Y527581D01*
Y529081D02*X125700Y529831D01*
X127200D01*
X127950Y529081D01*
X124950Y528331D02*X127950D01*
Y529081D02*Y528331D01*
X130500Y526831D02*X132750D01*
X133500Y527581D01*
X132750Y528331D02*X133500Y527581D01*
X130500Y528331D02*X132750D01*
X129750Y529081D02*X130500Y528331D01*
X129750Y529081D02*X130500Y529831D01*
X132750D01*
X133500Y529081D01*
X129750Y527581D02*X130500Y526831D01*
X138000Y529831D02*Y527581D01*
X138750Y526831D01*
X140250D01*
X141000Y527581D01*
Y529831D02*Y527581D01*
X143550Y526831D02*X145800D01*
X146550Y527581D01*
X145800Y528331D02*X146550Y527581D01*
X143550Y528331D02*X145800D01*
X142800Y529081D02*X143550Y528331D01*
X142800Y529081D02*X143550Y529831D01*
X145800D01*
X146550Y529081D01*
X142800Y527581D02*X143550Y526831D01*
X149100D02*X151350D01*
X148350Y527581D02*X149100Y526831D01*
X148350Y529081D02*Y527581D01*
Y529081D02*X149100Y529831D01*
X150600D01*
X151350Y529081D01*
X148350Y528331D02*X151350D01*
Y529081D02*Y528331D01*
X156150Y532831D02*Y526831D01*
X155400D02*X156150Y527581D01*
X153900Y526831D02*X155400D01*
X153150Y527581D02*X153900Y526831D01*
X153150Y529081D02*Y527581D01*
Y529081D02*X153900Y529831D01*
X155400D01*
X156150Y529081D01*
G54D200*X160650Y531331D02*Y531181D01*
G54D199*Y529081D02*Y526831D01*
X162900Y529081D02*Y526831D01*
Y529081D02*X163650Y529831D01*
X164400D01*
X165150Y529081D01*
Y526831D01*
X162150Y529831D02*X162900Y529081D01*
X170400Y532831D02*Y527581D01*
X171150Y526831D01*
X169650Y530581D02*X171150D01*
X172650Y532831D02*Y526831D01*
Y529081D02*X173400Y529831D01*
X174900D01*
X175650Y529081D01*
Y526831D01*
G54D200*X177450Y531331D02*Y531181D01*
G54D199*Y529081D02*Y526831D01*
X179700D02*X181950D01*
X182700Y527581D01*
X181950Y528331D02*X182700Y527581D01*
X179700Y528331D02*X181950D01*
X178950Y529081D02*X179700Y528331D01*
X178950Y529081D02*X179700Y529831D01*
X181950D01*
X182700Y529081D01*
X178950Y527581D02*X179700Y526831D01*
X187200Y532831D02*Y527581D01*
X187950Y526831D01*
X191700Y529831D02*X192450Y529081D01*
X190200Y529831D02*X191700D01*
X189450Y529081D02*X190200Y529831D01*
X189450Y529081D02*Y527581D01*
X190200Y526831D01*
X192450Y529831D02*Y527581D01*
X193200Y526831D01*
X190200D02*X191700D01*
X192450Y527581D01*
X195000Y529831D02*Y527581D01*
X195750Y526831D01*
X198000Y529831D02*Y525331D01*
X197250Y524581D02*X198000Y525331D01*
X195750Y524581D02*X197250D01*
X195000Y525331D02*X195750Y524581D01*
Y526831D02*X197250D01*
X198000Y527581D01*
X199800Y529081D02*Y527581D01*
Y529081D02*X200550Y529831D01*
X202050D01*
X202800Y529081D01*
Y527581D01*
X202050Y526831D02*X202800Y527581D01*
X200550Y526831D02*X202050D01*
X199800Y527581D02*X200550Y526831D01*
X204600Y529831D02*Y527581D01*
X205350Y526831D01*
X206850D01*
X207600Y527581D01*
Y529831D02*Y527581D01*
X210150Y532831D02*Y527581D01*
X210900Y526831D01*
X209400Y530581D02*X210900D01*
X212400Y525331D02*X213900Y526831D01*
X220650Y532831D02*X221400Y532081D01*
X219150Y532831D02*X220650D01*
X218400Y532081D02*X219150Y532831D01*
X218400Y532081D02*Y527581D01*
X219150Y526831D01*
X220650Y530131D02*X221400Y529381D01*
X218400Y530131D02*X220650D01*
X219150Y526831D02*X220650D01*
X221400Y527581D01*
Y529381D02*Y527581D01*
X223950Y526831D02*X226200Y529831D01*
Y532081D02*Y529831D01*
X225450Y532831D02*X226200Y532081D01*
X223950Y532831D02*X225450D01*
X223200Y532081D02*X223950Y532831D01*
X223200Y532081D02*Y530581D01*
X223950Y529831D01*
X226200D01*
X228000Y532831D02*X231000D01*
X228000D02*Y529831D01*
X228750Y530581D01*
X230250D01*
X231000Y529831D01*
Y527581D01*
X230250Y526831D02*X231000Y527581D01*
X228750Y526831D02*X230250D01*
X228000Y527581D02*X228750Y526831D01*
X235500Y532831D02*Y526831D01*
Y529081D02*X236250Y529831D01*
X237750D01*
X238500Y529081D01*
Y526831D01*
X240300Y529081D02*Y527581D01*
Y529081D02*X241050Y529831D01*
X242550D01*
X243300Y529081D01*
Y527581D01*
X242550Y526831D02*X243300Y527581D01*
X241050Y526831D02*X242550D01*
X240300Y527581D02*X241050Y526831D01*
X245100Y532831D02*Y527581D01*
X245850Y526831D01*
X248100D02*X250350D01*
X247350Y527581D02*X248100Y526831D01*
X247350Y529081D02*Y527581D01*
Y529081D02*X248100Y529831D01*
X249600D01*
X250350Y529081D01*
X247350Y528331D02*X250350D01*
Y529081D02*Y528331D01*
X252900Y526831D02*X255150D01*
X255900Y527581D01*
X255150Y528331D02*X255900Y527581D01*
X252900Y528331D02*X255150D01*
X252150Y529081D02*X252900Y528331D01*
X252150Y529081D02*X252900Y529831D01*
X255150D01*
X255900Y529081D01*
X252150Y527581D02*X252900Y526831D01*
X261150Y532831D02*Y527581D01*
X261900Y526831D01*
X260400Y530581D02*X261900D01*
X263400Y529081D02*Y527581D01*
Y529081D02*X264150Y529831D01*
X265650D01*
X266400Y529081D01*
Y527581D01*
X265650Y526831D02*X266400Y527581D01*
X264150Y526831D02*X265650D01*
X263400Y527581D02*X264150Y526831D01*
X268950Y532831D02*Y527581D01*
X269700Y526831D01*
X268200Y530581D02*X269700D01*
X273450Y529831D02*X274200Y529081D01*
X271950Y529831D02*X273450D01*
X271200Y529081D02*X271950Y529831D01*
X271200Y529081D02*Y527581D01*
X271950Y526831D01*
X274200Y529831D02*Y527581D01*
X274950Y526831D01*
X271950D02*X273450D01*
X274200Y527581D01*
X276750Y532831D02*Y527581D01*
X277500Y526831D01*
G54D201*X53150Y314961D02*X230315D01*
X244094Y301181D02*Y53150D01*
X230315Y39370D02*X53150D01*
X39370Y53150D02*Y301181D01*
G75*G02X53150Y314961I13780J0D01*G01*
X230315D02*G75*G02X244094Y301181I0J-13780D01*G01*
X39370Y53150D02*G75*G03X53150Y39370I13780J0D01*G01*
X230315D02*G75*G03X244094Y53150I0J13780D01*G01*
G54D199*X51470Y-9500D02*X54470D01*
X55220Y-8750D01*
Y-6950D02*Y-8750D01*
X54470Y-6200D02*X55220Y-6950D01*
X52220Y-6200D02*X54470D01*
X52220Y-3500D02*Y-9500D01*
X51470Y-3500D02*X54470D01*
X55220Y-4250D01*
Y-5450D01*
X54470Y-6200D02*X55220Y-5450D01*
X57020Y-7250D02*Y-8750D01*
Y-7250D02*X57770Y-6500D01*
X59270D01*
X60020Y-7250D01*
Y-8750D01*
X59270Y-9500D02*X60020Y-8750D01*
X57770Y-9500D02*X59270D01*
X57020Y-8750D02*X57770Y-9500D01*
X64070Y-6500D02*X64820Y-7250D01*
X62570Y-6500D02*X64070D01*
X61820Y-7250D02*X62570Y-6500D01*
X61820Y-7250D02*Y-8750D01*
X62570Y-9500D01*
X64820Y-6500D02*Y-8750D01*
X65570Y-9500D01*
X62570D02*X64070D01*
X64820Y-8750D01*
X68120Y-7250D02*Y-9500D01*
Y-7250D02*X68870Y-6500D01*
X70370D01*
X67370D02*X68120Y-7250D01*
X75170Y-3500D02*Y-9500D01*
X74420D02*X75170Y-8750D01*
X72920Y-9500D02*X74420D01*
X72170Y-8750D02*X72920Y-9500D01*
X72170Y-7250D02*Y-8750D01*
Y-7250D02*X72920Y-6500D01*
X74420D01*
X75170Y-7250D01*
X79670D02*Y-8750D01*
Y-7250D02*X80420Y-6500D01*
X81920D01*
X82670Y-7250D01*
Y-8750D01*
X81920Y-9500D02*X82670Y-8750D01*
X80420Y-9500D02*X81920D01*
X79670Y-8750D02*X80420Y-9500D01*
X84470Y-6500D02*Y-8750D01*
X85220Y-9500D01*
X86720D01*
X87470Y-8750D01*
Y-6500D02*Y-8750D01*
X90020Y-3500D02*Y-8750D01*
X90770Y-9500D01*
X89270Y-5750D02*X90770D01*
X92270Y-3500D02*Y-8750D01*
X93020Y-9500D01*
G54D200*X94520Y-5000D02*Y-5150D01*
G54D199*Y-7250D02*Y-9500D01*
X96770Y-7250D02*Y-9500D01*
Y-7250D02*X97520Y-6500D01*
X98270D01*
X99020Y-7250D01*
Y-9500D01*
X96020Y-6500D02*X96770Y-7250D01*
X101570Y-9500D02*X103820D01*
X100820Y-8750D02*X101570Y-9500D01*
X100820Y-7250D02*Y-8750D01*
Y-7250D02*X101570Y-6500D01*
X103070D01*
X103820Y-7250D01*
X100820Y-8000D02*X103820D01*
Y-7250D02*Y-8000D01*
G54D200*X108320Y-5000D02*Y-5150D01*
G54D199*Y-7250D02*Y-9500D01*
X110570D02*X112820D01*
X113570Y-8750D01*
X112820Y-8000D02*X113570Y-8750D01*
X110570Y-8000D02*X112820D01*
X109820Y-7250D02*X110570Y-8000D01*
X109820Y-7250D02*X110570Y-6500D01*
X112820D01*
X113570Y-7250D01*
X109820Y-8750D02*X110570Y-9500D01*
X118820Y-3500D02*Y-8750D01*
X119570Y-9500D01*
X118070Y-5750D02*X119570D01*
X121070Y-3500D02*Y-9500D01*
Y-7250D02*X121820Y-6500D01*
X123320D01*
X124070Y-7250D01*
Y-9500D01*
X126620D02*X128870D01*
X125870Y-8750D02*X126620Y-9500D01*
X125870Y-7250D02*Y-8750D01*
Y-7250D02*X126620Y-6500D01*
X128120D01*
X128870Y-7250D01*
X125870Y-8000D02*X128870D01*
Y-7250D02*Y-8000D01*
X134120Y-6500D02*X136370D01*
X133370Y-7250D02*X134120Y-6500D01*
X133370Y-7250D02*Y-8750D01*
X134120Y-9500D01*
X136370D01*
X138920D02*X141170D01*
X138170Y-8750D02*X138920Y-9500D01*
X138170Y-7250D02*Y-8750D01*
Y-7250D02*X138920Y-6500D01*
X140420D01*
X141170Y-7250D01*
X138170Y-8000D02*X141170D01*
Y-7250D02*Y-8000D01*
X143720Y-7250D02*Y-9500D01*
Y-7250D02*X144470Y-6500D01*
X145220D01*
X145970Y-7250D01*
Y-9500D01*
X142970Y-6500D02*X143720Y-7250D01*
X148520Y-3500D02*Y-8750D01*
X149270Y-9500D01*
X147770Y-5750D02*X149270D01*
X151520Y-9500D02*X153770D01*
X150770Y-8750D02*X151520Y-9500D01*
X150770Y-7250D02*Y-8750D01*
Y-7250D02*X151520Y-6500D01*
X153020D01*
X153770Y-7250D01*
X150770Y-8000D02*X153770D01*
Y-7250D02*Y-8000D01*
X156320Y-7250D02*Y-9500D01*
Y-7250D02*X157070Y-6500D01*
X158570D01*
X155570D02*X156320Y-7250D01*
X160370Y-3500D02*Y-8750D01*
X161120Y-9500D01*
G54D200*X162620Y-5000D02*Y-5150D01*
G54D199*Y-7250D02*Y-9500D01*
X164870Y-7250D02*Y-9500D01*
Y-7250D02*X165620Y-6500D01*
X166370D01*
X167120Y-7250D01*
Y-9500D01*
X164120Y-6500D02*X164870Y-7250D01*
X169670Y-9500D02*X171920D01*
X168920Y-8750D02*X169670Y-9500D01*
X168920Y-7250D02*Y-8750D01*
Y-7250D02*X169670Y-6500D01*
X171170D01*
X171920Y-7250D01*
X168920Y-8000D02*X171920D01*
Y-7250D02*Y-8000D01*
X176420Y-7250D02*Y-8750D01*
Y-7250D02*X177170Y-6500D01*
X178670D01*
X179420Y-7250D01*
Y-8750D01*
X178670Y-9500D02*X179420Y-8750D01*
X177170Y-9500D02*X178670D01*
X176420Y-8750D02*X177170Y-9500D01*
X181970Y-4250D02*Y-9500D01*
Y-4250D02*X182720Y-3500D01*
X183470D01*
X181220Y-6500D02*X182720D01*
X188420Y-3500D02*Y-8750D01*
X189170Y-9500D01*
X187670Y-5750D02*X189170D01*
X190670Y-3500D02*Y-9500D01*
Y-7250D02*X191420Y-6500D01*
X192920D01*
X193670Y-7250D01*
Y-9500D01*
G54D200*X195470Y-5000D02*Y-5150D01*
G54D199*Y-7250D02*Y-9500D01*
X197720D02*X199970D01*
X200720Y-8750D01*
X199970Y-8000D02*X200720Y-8750D01*
X197720Y-8000D02*X199970D01*
X196970Y-7250D02*X197720Y-8000D01*
X196970Y-7250D02*X197720Y-6500D01*
X199970D01*
X200720Y-7250D01*
X196970Y-8750D02*X197720Y-9500D01*
X205970Y-7250D02*Y-11750D01*
X205220Y-6500D02*X205970Y-7250D01*
X206720Y-6500D01*
X208220D01*
X208970Y-7250D01*
Y-8750D01*
X208220Y-9500D02*X208970Y-8750D01*
X206720Y-9500D02*X208220D01*
X205970Y-8750D02*X206720Y-9500D01*
X213020Y-6500D02*X213770Y-7250D01*
X211520Y-6500D02*X213020D01*
X210770Y-7250D02*X211520Y-6500D01*
X210770Y-7250D02*Y-8750D01*
X211520Y-9500D01*
X213770Y-6500D02*Y-8750D01*
X214520Y-9500D01*
X211520D02*X213020D01*
X213770Y-8750D01*
X217070Y-3500D02*Y-8750D01*
X217820Y-9500D01*
X216320Y-5750D02*X217820D01*
X219320Y-3500D02*Y-9500D01*
Y-7250D02*X220070Y-6500D01*
X221570D01*
X222320Y-7250D01*
Y-9500D01*
X200750Y382831D02*Y376831D01*
X202700Y382831D02*X203750Y381781D01*
Y377881D01*
X202700Y376831D02*X203750Y377881D01*
X200000Y376831D02*X202700D01*
X200000Y382831D02*X202700D01*
X207800Y379831D02*X208550Y379081D01*
X206300Y379831D02*X207800D01*
X205550Y379081D02*X206300Y379831D01*
X205550Y379081D02*Y377581D01*
X206300Y376831D01*
X208550Y379831D02*Y377581D01*
X209300Y376831D01*
X206300D02*X207800D01*
X208550Y377581D01*
X211850Y382831D02*Y377581D01*
X212600Y376831D01*
X211100Y380581D02*X212600D01*
X214850Y376831D02*X217100D01*
X214100Y377581D02*X214850Y376831D01*
X214100Y379081D02*Y377581D01*
Y379081D02*X214850Y379831D01*
X216350D01*
X217100Y379081D01*
X214100Y378331D02*X217100D01*
Y379081D02*Y378331D01*
X218900Y380581D02*X219650D01*
X218900Y379081D02*X219650D01*
X224150Y382831D02*Y379831D01*
X224900Y376831D01*
X226400Y379831D01*
X227900Y376831D01*
X228650Y379831D01*
Y382831D02*Y379831D01*
X231200Y376831D02*X233450D01*
X230450Y377581D02*X231200Y376831D01*
X230450Y379081D02*Y377581D01*
Y379081D02*X231200Y379831D01*
X232700D01*
X233450Y379081D01*
X230450Y378331D02*X233450D01*
Y379081D02*Y378331D01*
X238250Y382831D02*Y376831D01*
X237500D02*X238250Y377581D01*
X236000Y376831D02*X237500D01*
X235250Y377581D02*X236000Y376831D01*
X235250Y379081D02*Y377581D01*
Y379081D02*X236000Y379831D01*
X237500D01*
X238250Y379081D01*
X242750Y381631D02*X243950Y382831D01*
Y376831D01*
X242750D02*X245000D01*
X246800Y377581D02*X247550Y376831D01*
X246800Y382081D02*Y377581D01*
Y382081D02*X247550Y382831D01*
X249050D01*
X249800Y382081D01*
Y377581D01*
X249050Y376831D02*X249800Y377581D01*
X247550Y376831D02*X249050D01*
X246800Y378331D02*X249800Y381331D01*
X255350Y382831D02*X256550D01*
Y377581D01*
X255800Y376831D02*X256550Y377581D01*
X255050Y376831D02*X255800D01*
X254300Y377581D02*X255050Y376831D01*
X254300Y378331D02*Y377581D01*
X258350Y379831D02*Y377581D01*
X259100Y376831D01*
X260600D01*
X261350Y377581D01*
Y379831D02*Y377581D01*
X263150Y382831D02*Y377581D01*
X263900Y376831D01*
X268100Y382081D02*X268850Y382831D01*
X271100D01*
X271850Y382081D01*
Y380581D01*
X268100Y376831D02*X271850Y380581D01*
X268100Y376831D02*X271850D01*
X273650Y377581D02*X274400Y376831D01*
X273650Y382081D02*Y377581D01*
Y382081D02*X274400Y382831D01*
X275900D01*
X276650Y382081D01*
Y377581D01*
X275900Y376831D02*X276650Y377581D01*
X274400Y376831D02*X275900D01*
X273650Y378331D02*X276650Y381331D01*
X278450Y381631D02*X279650Y382831D01*
Y376831D01*
X278450D02*X280700D01*
X283250D02*X285500Y379831D01*
Y382081D02*Y379831D01*
X284750Y382831D02*X285500Y382081D01*
X283250Y382831D02*X284750D01*
X282500Y382081D02*X283250Y382831D01*
X282500Y382081D02*Y380581D01*
X283250Y379831D01*
X285500D01*
X290000Y381631D02*X291200Y382831D01*
Y376831D01*
X290000D02*X292250D01*
X294050Y377581D02*X294800Y376831D01*
X294050Y378781D02*Y377581D01*
Y378781D02*X295100Y379831D01*
X296000D01*
X297050Y378781D01*
Y377581D01*
X296300Y376831D02*X297050Y377581D01*
X294800Y376831D02*X296300D01*
X294050Y380881D02*X295100Y379831D01*
X294050Y382081D02*Y380881D01*
Y382081D02*X294800Y382831D01*
X296300D01*
X297050Y382081D01*
Y380881D01*
X296000Y379831D02*X297050Y380881D01*
X298850Y380581D02*X299600D01*
X298850Y379081D02*X299600D01*
X301400Y382081D02*X302150Y382831D01*
X303650D01*
X304400Y382081D01*
X303650Y376831D02*X304400Y377581D01*
X302150Y376831D02*X303650D01*
X301400Y377581D02*X302150Y376831D01*
Y380131D02*X303650D01*
X304400Y382081D02*Y380881D01*
Y379381D02*Y377581D01*
Y379381D02*X303650Y380131D01*
X304400Y380881D02*X303650Y380131D01*
X306200Y382831D02*X309200D01*
X306200D02*Y379831D01*
X306950Y380581D01*
X308450D01*
X309200Y379831D01*
Y377581D01*
X308450Y376831D02*X309200Y377581D01*
X306950Y376831D02*X308450D01*
X306200Y377581D02*X306950Y376831D01*
X311000Y380581D02*X311750D01*
X311000Y379081D02*X311750D01*
X313550Y382081D02*X314300Y382831D01*
X315800D01*
X316550Y382081D01*
X315800Y376831D02*X316550Y377581D01*
X314300Y376831D02*X315800D01*
X313550Y377581D02*X314300Y376831D01*
Y380131D02*X315800D01*
X316550Y382081D02*Y380881D01*
Y379381D02*Y377581D01*
Y379381D02*X315800Y380131D01*
X316550Y380881D02*X315800Y380131D01*
X320600Y382831D02*X321350Y382081D01*
X319100Y382831D02*X320600D01*
X318350Y382081D02*X319100Y382831D01*
X318350Y382081D02*Y377581D01*
X319100Y376831D01*
X320600Y380131D02*X321350Y379381D01*
X318350Y380131D02*X320600D01*
X319100Y376831D02*X320600D01*
X321350Y377581D01*
Y379381D02*Y377581D01*
X328850Y382831D02*X329600Y382081D01*
X326600Y382831D02*X328850D01*
X325850Y382081D02*X326600Y382831D01*
X325850Y382081D02*Y377581D01*
X326600Y376831D01*
X328850D01*
X329600Y377581D01*
Y379081D02*Y377581D01*
X328850Y379831D02*X329600Y379081D01*
X327350Y379831D02*X328850D01*
X331400Y382831D02*Y376831D01*
Y382831D02*X333650Y379831D01*
X335900Y382831D01*
Y376831D01*
X337700Y382831D02*X340700D01*
X339200D02*Y376831D01*
X345200Y382831D02*Y377581D01*
X345950Y376831D01*
X347450D01*
X348200Y377581D01*
Y382831D02*Y377581D01*
X350000Y382831D02*X353000D01*
X351500D02*Y376831D01*
X355850D02*X357800D01*
X354800Y377881D02*X355850Y376831D01*
X354800Y381781D02*Y377881D01*
Y381781D02*X355850Y382831D01*
X357800D01*
X200000Y396331D02*Y391831D01*
Y396331D02*X201050Y397831D01*
X202700D01*
X203750Y396331D01*
Y391831D01*
X200000Y394831D02*X203750D01*
X205550D02*Y392581D01*
X206300Y391831D01*
X207800D01*
X208550Y392581D01*
Y394831D02*Y392581D01*
X211100Y397831D02*Y392581D01*
X211850Y391831D01*
X210350Y395581D02*X211850D01*
X213350Y397831D02*Y391831D01*
Y394081D02*X214100Y394831D01*
X215600D01*
X216350Y394081D01*
Y391831D01*
X218150Y394081D02*Y392581D01*
Y394081D02*X218900Y394831D01*
X220400D01*
X221150Y394081D01*
Y392581D01*
X220400Y391831D02*X221150Y392581D01*
X218900Y391831D02*X220400D01*
X218150Y392581D02*X218900Y391831D01*
X223700Y394081D02*Y391831D01*
Y394081D02*X224450Y394831D01*
X225950D01*
X222950D02*X223700Y394081D01*
X227750Y395581D02*X228500D01*
X227750Y394081D02*X228500D01*
X233000Y397831D02*Y391831D01*
Y394831D02*X236000Y397831D01*
X233000Y394831D02*X236000Y391831D01*
G54D200*X237800Y396331D02*Y396181D01*
G54D199*Y394081D02*Y391831D01*
X240050D02*X242300D01*
X239300Y392581D02*X240050Y391831D01*
X239300Y394081D02*Y392581D01*
Y394081D02*X240050Y394831D01*
X241550D01*
X242300Y394081D01*
X239300Y393331D02*X242300D01*
Y394081D02*Y393331D01*
X244850Y394081D02*Y391831D01*
Y394081D02*X245600Y394831D01*
X247100D01*
X244100D02*X244850Y394081D01*
X252350Y397831D02*Y391831D01*
X254300Y397831D02*X255350Y396781D01*
Y392881D01*
X254300Y391831D02*X255350Y392881D01*
X251600Y391831D02*X254300D01*
X251600Y397831D02*X254300D01*
X259400Y394831D02*X260150Y394081D01*
X257900Y394831D02*X259400D01*
X257150Y394081D02*X257900Y394831D01*
X257150Y394081D02*Y392581D01*
X257900Y391831D01*
X260150Y394831D02*Y392581D01*
X260900Y391831D01*
X257900D02*X259400D01*
X260150Y392581D01*
X262700Y394831D02*X264200Y391831D01*
X265700Y394831D02*X264200Y391831D01*
G54D200*X267500Y396331D02*Y396181D01*
G54D199*Y394081D02*Y391831D01*
X269750D02*X272000D01*
X272750Y392581D01*
X272000Y393331D02*X272750Y392581D01*
X269750Y393331D02*X272000D01*
X269000Y394081D02*X269750Y393331D01*
X269000Y394081D02*X269750Y394831D01*
X272000D01*
X272750Y394081D01*
X269000Y392581D02*X269750Y391831D01*
X200000Y412831D02*X203000D01*
X201500D02*Y406831D01*
G54D200*X204800Y411331D02*Y411181D01*
G54D199*Y409081D02*Y406831D01*
X207050Y412831D02*Y407581D01*
X207800Y406831D01*
X206300Y410581D02*X207800D01*
X209300Y412831D02*Y407581D01*
X210050Y406831D01*
X212300D02*X214550D01*
X211550Y407581D02*X212300Y406831D01*
X211550Y409081D02*Y407581D01*
Y409081D02*X212300Y409831D01*
X213800D01*
X214550Y409081D01*
X211550Y408331D02*X214550D01*
Y409081D02*Y408331D01*
X216350Y410581D02*X217100D01*
X216350Y409081D02*X217100D01*
X221600Y407581D02*X222350Y406831D01*
X221600Y412081D02*X222350Y412831D01*
X221600Y412081D02*Y407581D01*
X224150Y409831D02*Y407581D01*
X224900Y406831D01*
X226400D01*
X227150Y407581D01*
Y409831D02*Y407581D01*
X229700Y409081D02*Y406831D01*
Y409081D02*X230450Y409831D01*
X231200D01*
X231950Y409081D01*
Y406831D01*
X228950Y409831D02*X229700Y409081D01*
X233750Y412831D02*Y406831D01*
Y409081D02*X236000Y406831D01*
X233750Y409081D02*X235250Y410581D01*
X238550Y409081D02*Y406831D01*
Y409081D02*X239300Y409831D01*
X240050D01*
X240800Y409081D01*
Y406831D01*
X237800Y409831D02*X238550Y409081D01*
X242600D02*Y407581D01*
Y409081D02*X243350Y409831D01*
X244850D01*
X245600Y409081D01*
Y407581D01*
X244850Y406831D02*X245600Y407581D01*
X243350Y406831D02*X244850D01*
X242600Y407581D02*X243350Y406831D01*
X247400Y409831D02*Y407581D01*
X248150Y406831D01*
X248900D01*
X249650Y407581D01*
Y409831D02*Y407581D01*
X250400Y406831D01*
X251150D01*
X251900Y407581D01*
Y409831D02*Y407581D01*
X254450Y409081D02*Y406831D01*
Y409081D02*X255200Y409831D01*
X255950D01*
X256700Y409081D01*
Y406831D01*
X253700Y409831D02*X254450Y409081D01*
X258500Y412831D02*X259250Y412081D01*
Y407581D01*
X258500Y406831D02*X259250Y407581D01*
X263750Y409831D02*X266750D01*
X271250Y412831D02*Y406831D01*
Y412831D02*X274250D01*
X271250Y410131D02*X273500D01*
X278300Y409831D02*X279050Y409081D01*
X276800Y409831D02*X278300D01*
X276050Y409081D02*X276800Y409831D01*
X276050Y409081D02*Y407581D01*
X276800Y406831D01*
X279050Y409831D02*Y407581D01*
X279800Y406831D01*
X276800D02*X278300D01*
X279050Y407581D01*
X281600Y412831D02*Y406831D01*
Y407581D02*X282350Y406831D01*
X283850D01*
X284600Y407581D01*
Y409081D02*Y407581D01*
X283850Y409831D02*X284600Y409081D01*
X282350Y409831D02*X283850D01*
X281600Y409081D02*X282350Y409831D01*
X287150Y409081D02*Y406831D01*
Y409081D02*X287900Y409831D01*
X289400D01*
X286400D02*X287150Y409081D01*
G54D200*X291200Y411331D02*Y411181D01*
G54D199*Y409081D02*Y406831D01*
X293450Y409831D02*X295700D01*
X292700Y409081D02*X293450Y409831D01*
X292700Y409081D02*Y407581D01*
X293450Y406831D01*
X295700D01*
X299750Y409831D02*X300500Y409081D01*
X298250Y409831D02*X299750D01*
X297500Y409081D02*X298250Y409831D01*
X297500Y409081D02*Y407581D01*
X298250Y406831D01*
X300500Y409831D02*Y407581D01*
X301250Y406831D01*
X298250D02*X299750D01*
X300500Y407581D01*
X303800Y412831D02*Y407581D01*
X304550Y406831D01*
X303050Y410581D02*X304550D01*
G54D200*X306050Y411331D02*Y411181D01*
G54D199*Y409081D02*Y406831D01*
X307550Y409081D02*Y407581D01*
Y409081D02*X308300Y409831D01*
X309800D01*
X310550Y409081D01*
Y407581D01*
X309800Y406831D02*X310550Y407581D01*
X308300Y406831D02*X309800D01*
X307550Y407581D02*X308300Y406831D01*
X313100Y409081D02*Y406831D01*
Y409081D02*X313850Y409831D01*
X314600D01*
X315350Y409081D01*
Y406831D01*
X312350Y409831D02*X313100Y409081D01*
X320600Y412831D02*Y406831D01*
X322550Y412831D02*X323600Y411781D01*
Y407881D01*
X322550Y406831D02*X323600Y407881D01*
X319850Y406831D02*X322550D01*
X319850Y412831D02*X322550D01*
X326150Y409081D02*Y406831D01*
Y409081D02*X326900Y409831D01*
X328400D01*
X325400D02*X326150Y409081D01*
X332450Y409831D02*X333200Y409081D01*
X330950Y409831D02*X332450D01*
X330200Y409081D02*X330950Y409831D01*
X330200Y409081D02*Y407581D01*
X330950Y406831D01*
X333200Y409831D02*Y407581D01*
X333950Y406831D01*
X330950D02*X332450D01*
X333200Y407581D01*
X335750Y409831D02*Y407581D01*
X336500Y406831D01*
X337250D01*
X338000Y407581D01*
Y409831D02*Y407581D01*
X338750Y406831D01*
X339500D01*
X340250Y407581D01*
Y409831D02*Y407581D01*
G54D200*X342050Y411331D02*Y411181D01*
G54D199*Y409081D02*Y406831D01*
X344300Y409081D02*Y406831D01*
Y409081D02*X345050Y409831D01*
X345800D01*
X346550Y409081D01*
Y406831D01*
X343550Y409831D02*X344300Y409081D01*
X350600Y409831D02*X351350Y409081D01*
X349100Y409831D02*X350600D01*
X348350Y409081D02*X349100Y409831D01*
X348350Y409081D02*Y407581D01*
X349100Y406831D01*
X350600D01*
X351350Y407581D01*
X348350Y405331D02*X349100Y404581D01*
X350600D01*
X351350Y405331D01*
Y409831D02*Y405331D01*
M02*
